<?xml version="1.0" encoding="UTF-8" standalone="no"?>
<!-- Created with Inkscape (http://www.inkscape.org/) -->

<svg
   width="20in"
   height="12in"
   viewBox="0 0 1799.9999 1080"
   id="svg2"
   version="1.1"
   inkscape:version="1.2.2 (732a01da63, 2022-12-09)"
   sodipodi:docname="Mulan_perso_AL.svg"
   xml:space="preserve"
   xmlns:inkscape="http://www.inkscape.org/namespaces/inkscape"
   xmlns:sodipodi="http://sodipodi.sourceforge.net/DTD/sodipodi-0.dtd"
   xmlns="http://www.w3.org/2000/svg"
   xmlns:svg="http://www.w3.org/2000/svg"
   xmlns:rdf="http://www.w3.org/1999/02/22-rdf-syntax-ns#"
   xmlns:cc="http://creativecommons.org/ns#"
   xmlns:dc="http://purl.org/dc/elements/1.1/"><defs
     id="defs4"><clipPath
       id="clipPath4152"
       clipPathUnits="userSpaceOnUse"><path
         inkscape:connector-curvature="0"
         id="path4154"
         d="m 273,0 4686,0 0,1720 -4686,0 0,-1720" /></clipPath><clipPath
       id="clipPath4922"
       clipPathUnits="userSpaceOnUse"><path
         inkscape:connector-curvature="0"
         id="path4924"
         d="m 273,0 4686,0 0,1720 -4686,0 0,-1720" /></clipPath><clipPath
       id="clipPath5530"
       clipPathUnits="userSpaceOnUse"><path
         inkscape:connector-curvature="0"
         id="path5532"
         d="m 273,0 4686,0 0,1720 -4686,0 0,-1720" /></clipPath><clipPath
       id="clipPath5542"
       clipPathUnits="userSpaceOnUse"><path
         inkscape:connector-curvature="0"
         id="path5544"
         d="m 273,0 4686,0 0,1720 -4686,0 0,-1720" /></clipPath><clipPath
       id="clipPath6663"
       clipPathUnits="userSpaceOnUse"><path
         inkscape:connector-curvature="0"
         id="path6665"
         d="m 273,0 4686,0 0,1720 -4686,0 0,-1720" /></clipPath><clipPath
       id="clipPath7271"
       clipPathUnits="userSpaceOnUse"><path
         inkscape:connector-curvature="0"
         id="path7273"
         d="m 273,0 4686,0 0,1720 -4686,0 0,-1720" /></clipPath><clipPath
       id="clipPath7283"
       clipPathUnits="userSpaceOnUse"><path
         inkscape:connector-curvature="0"
         id="path7285"
         d="m 273,0 4686,0 0,1720 -4686,0 0,-1720" /></clipPath></defs><sodipodi:namedview
     id="base"
     pagecolor="#ffffff"
     bordercolor="#666666"
     borderopacity="1.0"
     inkscape:pageopacity="0.0"
     inkscape:pageshadow="2"
     inkscape:zoom="0.8244362"
     inkscape:cx="-87.938885"
     inkscape:cy="405.73182"
     inkscape:document-units="px"
     inkscape:current-layer="g14007"
     showgrid="false"
     fit-margin-top="0"
     fit-margin-left="0"
     fit-margin-right="0"
     fit-margin-bottom="0"
     inkscape:window-width="1920"
     inkscape:window-height="991"
     inkscape:window-x="-9"
     inkscape:window-y="-9"
     inkscape:window-maximized="1"
     units="in"
     inkscape:pagecheckerboard="0"
     inkscape:showpageshadow="2"
     inkscape:deskcolor="#d1d1d1" /><metadata
     id="metadata7"><rdf:RDF><cc:Work
         rdf:about=""><dc:format>image/svg+xml</dc:format><dc:type
           rdf:resource="http://purl.org/dc/dcmitype/StillImage" /></cc:Work></rdf:RDF></metadata><g
     inkscape:label="Laag 1"
     inkscape:groupmode="layer"
     id="layer1"
     transform="translate(13.02508,447.50953)"><g
       transform="matrix(2.6123998,0,0,-2.6123998,-495.17429,960.19706)"
       inkscape:label="Meetlat"
       id="g4914"
       style="fill:none;stroke:#000000;stroke-opacity:1"><g
         transform="matrix(0.12,0,0,0.12,16,50)"
         id="g4916"
         style="fill:none;stroke:#000000;stroke-opacity:1"><g
           id="g11103"><g
             id="g14007"><path
               style="fill:#000000;stroke-width:1.39275"
               d="m 2819.2883,1254.5924 c -26.8118,29.3363 -52.2696,85.0413 -69.01,151.0033 -27.2186,107.2482 -32.8426,237.6679 -15.9755,370.4702 6.0003,47.2434 5.8965,46.6569 8.2594,46.6569 1.7952,0 2.1968,-9.5818 3.0067,-71.7264 2.3318,-178.9207 10.9676,-276.4713 32.651,-368.8308 11.7779,-50.1667 30.9703,-101.2556 47.0965,-125.367 8.5335,-12.7591 4.8491,-14.1076 -6.0281,-2.2062 z m -9.8492,22.7872 c -20.5844,40.7772 -39.8171,112.5299 -50.7933,189.4968 -10.1062,70.8669 -14.7937,145.9626 -17.0393,272.9781 -0.9972,56.4062 -0.9972,56.4062 -3.4185,37.6042 -25.3345,-196.7217 1.5258,-396.435 66.9188,-497.5583 8.3306,-12.8824 10.0751,-13.8974 4.3323,-2.5208 z m -356.1267,17.2533 c 3.153,65.7438 17.5282,123.9359 69.3514,280.7394 35.2624,106.6952 45.107,142.0875 47.9795,172.4905 0.6502,6.8821 1.532,10.0974 2.7692,10.0974 6.507,0 5.7377,-41.5486 -1.5713,-84.8653 -8.3861,-49.7002 -20.7813,-92.9969 -65.3931,-228.4192 -29.9058,-90.7816 -37.2676,-115.7719 -48.7452,-165.4717 -0.398,-1.7234 -1.7491,-3.1337 -3.0023,-3.1337 -2.0399,0 -2.1852,1.9425 -1.3882,18.5626 z m 21.0383,63.6094 c 2.8656,9.5751 16.7034,52.1933 30.7509,94.7067 36.4173,110.2138 49.3917,154.1327 59.1634,200.27 5.2341,24.713 9.7927,59.5762 9.6507,73.8059 -0.1077,10.7405 -0.1077,10.7405 -3.3324,-4.5796 -7.3701,-35.0088 -13.1525,-54.2856 -47.4172,-158.0766 -43.7211,-132.436 -58.9998,-191.251 -64.71,-249.1009 -2.1029,-21.3022 -1.7811,-21.0789 4.729,3.2814 3.2756,12.256 8.2999,30.118 11.1656,39.6931 z m 984.8375,-58.2128 c -12.6412,80.4893 -25.2913,131.4317 -44.59,179.5653 -5.0085,12.492 -9.1064,23.2017 -9.1064,23.7993 0,2.9387 4.3241,0.3154 11.4094,-6.9217 28.7908,-29.4082 48.7909,-76.3572 55.497,-130.277 3.7604,-30.2332 -0.9054,-88.6156 -7.1781,-89.8237 -1.887,-0.3632 -2.8563,3.4382 -6.0319,23.6578 z m 10.7212,33.8398 c 0.1675,47.5223 -10.9238,92.0178 -31.8235,127.6671 -6.0181,10.2654 -21.1629,30.5983 -24.1793,32.4626 -0.6312,0.39 2.2593,-7.9 6.4234,-18.4224 17.0835,-43.1693 29.3257,-92.266 40.1967,-161.2058 2.0534,-13.0221 4.0862,-24.6167 4.5171,-25.7657 1.9055,-5.0786 4.7825,21.6865 4.8656,45.2642 z m -643.0978,47.0052 c -0.332,0.9575 -1.9471,15.529 -3.5895,32.3813 -6.1255,62.8584 -1.6191,132.682 12.135,188.0206 22.3313,89.8495 68.6459,163.9672 128.0492,204.9185 18.3464,12.6476 35.4039,20.3835 35.4039,16.0564 0,-0.6424 -5.1706,-5.2943 -11.4903,-10.3376 -52.6755,-42.0374 -95.161,-110.5779 -121.0693,-195.3171 -16.9039,-55.2888 -27.3836,-120.0226 -32.5685,-201.1772 -2.2097,-34.5856 -2.434,-36.2858 -4.7869,-36.2858 -0.8141,0 -1.7518,0.7834 -2.0836,1.7409 z m 3.5015,42.9452 c 11.3819,172.8649 53.7836,291.6404 132.6541,371.5905 12.8168,12.9922 14.5142,15.1586 9.3808,11.973 -25.2116,-15.6459 -57.583,-48.3156 -78.0813,-78.801 -45.7307,-68.0112 -69.5459,-155.6453 -69.5517,-255.9343 0,-29.3517 2.2539,-72.2282 3.7225,-70.7595 0.2541,0.2541 1.0981,10.123 1.8756,21.9313 z m 502.1137,100.9557 c -94.3312,12.5598 -173.7289,52.8422 -241.7447,122.649 -25.9419,26.6254 -39.0945,43.684 -33.6811,43.684 0.5986,0 7.3359,-5.3476 14.972,-11.8835 112.6828,-96.4493 218.4579,-137.3119 346.6079,-133.9002 48.0812,1.2798 84.4741,6.8405 130.0155,19.8654 2.3619,0.6754 3.1337,0.3199 3.1337,-1.4437 0,-8.0231 -69.1151,-30.8699 -114.4789,-37.8424 -20.5451,-3.1577 -84.4189,-3.8455 -104.8244,-1.1286 z m 75.3,1.9908 c 34.4329,2.6732 66.2828,8.8905 95.2572,18.595 12.4783,4.1791 31.8914,12.0597 24.7557,10.0492 -15.6999,-4.4236 -61.0638,-11.3602 -86.7329,-13.2623 -131.1646,-9.7192 -254.534,33.3346 -362.8102,126.6152 -10.4456,8.999 -10.4456,8.999 2.4488,-5.0653 89.4197,-97.5335 205.9856,-146.3336 327.0814,-136.9318 z m -511.9797,91.7663 c 0,4.5006 28.4159,37.2043 46.8539,53.9238 83.9413,76.1183 178.0391,108.2304 264.1373,90.1408 8.4752,-1.7806 10.7614,-2.7678 10.4299,-4.5033 -0.3546,-1.8557 -3.6411,-2.3727 -19.9075,-3.1315 -84.1337,-3.9241 -168.0962,-40.429 -271.3728,-117.9861 -24.1111,-18.1066 -30.1408,-21.7963 -30.1408,-18.4437 z m 37.2123,28.8239 c 100.1444,73.2903 180.1589,106.9065 266.9962,112.172 1.5906,0.096 -1.8087,0.9972 -7.5539,2.0015 -14.3956,2.5172 -50.4877,2.4567 -67.5481,-0.112 -73.5383,-11.0764 -155.1032,-59.0354 -209.6082,-123.2464 -8.5735,-10.1005 -8.7975,-10.2167 17.714,9.1858 z m -310.8868,171.3313 c -2.298,0.3162 -6.8419,0.9218 -10.0974,1.3459 -3.8637,0.5031 -5.9192,1.4666 -5.9192,2.7747 0,1.102 0.2128,2.0037 0.4727,2.0037 2.4365,0 52.3451,7.3646 60.8773,8.9831 38.804,7.3611 63.4163,17.4555 79.8396,32.7455 8.7923,8.1856 15.6986,17.9967 31.8998,45.318 15.4098,25.9864 24.8466,38.7516 40.5019,54.7878 24.9611,25.5686 55.8491,45.557 93.6817,60.6239 21.0526,8.3842 23.4677,5.8242 5.7373,-6.0812 -59.2945,-39.8142 -86.7207,-68.5692 -119.4432,-125.2302 -28.054,-48.5773 -48.1273,-64.5343 -93.2895,-74.1596 -12.7263,-2.7125 -71.4146,-4.8797 -84.261,-3.1116 z m 75.8449,5.5368 c 30.1473,4.756 52.9608,15.9465 70.8755,34.7661 10.2313,10.7483 14.0089,16.3845 37.5911,56.0867 23.1186,38.9217 52.303,69.0686 97.3465,100.5574 4.774,3.3374 8.4241,6.3238 8.1113,6.6366 -1.11,1.1101 -35.0901,-16.4065 -47.4317,-24.4506 -37.0167,-24.1274 -56.4204,-45.4451 -84.5822,-92.9259 -32.5023,-54.7985 -54.4073,-67.1109 -141.7388,-79.6686 -17.4094,-2.5034 -17.4094,-2.5034 -5.571,-3.3804 16.9212,-1.2536 50.0012,-0.049 65.3993,2.3787 z m 853.8126,0.7453 c -17.2882,8.0362 -53.7139,21.9464 -70.3454,26.8634 -66.8025,19.7495 -116.0088,23.1012 -237.4514,16.1734 -111.1456,-6.3404 -170.3607,10.4344 -223.6254,63.3503 -23.2709,23.1186 -50.4004,60.5845 -43.8697,60.5845 0.7175,0 12.1555,-10.826 25.4176,-24.0579 67.2529,-67.0994 114.5679,-81.522 243.6819,-74.2798 118.4357,6.6433 184.7963,-1.7696 252.0499,-31.9533 27.4927,-12.339 65.2844,-34.8552 65.2844,-38.8963 0,-2.8094 -0.5798,-2.6941 -11.1419,2.2157 z m -17.4094,13.2107 c -1.532,1.1761 -13.44,7.378 -26.4621,13.7822 -70.9004,34.8684 -141.7142,45.479 -254.8725,38.1891 -41.8996,-2.6992 -94.7582,-2.453 -114.9015,0.5356 -52.0259,7.7188 -90.4384,27.023 -130.8106,65.739 -18.2923,17.542 -17.2776,15.1798 4.3448,-10.1141 28.9654,-33.8838 67.3916,-57.612 109.8287,-67.8195 33.3258,-8.0157 72.4317,-9.5137 143.6854,-5.5038 48.1111,2.7074 117.051,2.0239 141.7516,-1.4054 43.6277,-6.0571 90.5739,-18.6982 123.9544,-33.377 6.1632,-2.7103 6.9869,-2.7164 3.4818,-0.026 z m 67.3679,12.7455 c -6.0868,15.5004 -10.6288,28.4626 -27.1645,77.5231 -25.0977,74.4635 -36.1803,101.3883 -51.5196,125.1647 -7.0461,10.9218 -6.995,10.7504 -3.2103,10.7504 6.6908,0 28.7629,-20.4402 39.8543,-36.9078 27.0464,-40.156 45.4263,-101.8265 47.4238,-159.1212 0.6677,-19.1511 0.5134,-21.2393 -1.5696,-21.2393 -1.2704,0 -2.9869,1.7235 -3.8141,3.8301 z m -1.1822,50.2188 c -8.6555,59.7303 -30.6006,112.131 -59.8147,142.8251 -4.27,4.4864 -9.4644,9.37 -11.5429,10.8525 -3.5245,2.5135 -3.3913,2.0573 1.9736,-6.7644 12.602,-20.7219 23.115,-47.2223 48.3528,-121.8833 25.7051,-76.0436 23.0026,-69.5934 23.5043,-56.0984 0.2334,6.2732 -0.8473,19.8492 -2.4731,31.0685 z m -1003.5033,-22.4804 c -9.5435,4.9115 -31.5693,27.568 -41.7478,42.9434 -33.4953,50.5968 -62.3667,134.2562 -77.8644,225.6247 -7.7779,45.8557 -11.6639,90.88 -7.7306,89.5689 2.4871,-0.829 5.5543,-10.5911 30.5489,-97.229 22.8324,-79.1425 34.0446,-115.8015 44.7271,-146.2382 18.9886,-54.102 37.8802,-90.9821 55.2904,-107.9378 10.8221,-10.5394 9.5078,-13.2841 -3.2236,-6.732 z m -5.5247,10.346 c -26.3509,29.1675 -48.5951,87.9758 -97.4086,257.5257 -20.6992,71.8964 -21.3972,74.1582 -21.5797,69.9253 -0.2787,-6.4637 4.3172,-43.4545 8.3152,-66.9266 19.6786,-115.5314 57.0123,-209.4936 100.3837,-252.6483 13.8906,-13.8211 19.6283,-18.213 10.2894,-7.8761 z m 77.4645,25.0824 c -40.5025,8.5027 -79.2165,36.8436 -93.5962,68.5177 -5.674,12.498 -2.991,13.6927 8.2022,3.6522 39.8868,-35.7785 90.2854,-53.0898 164.2829,-56.4288 25.6282,-1.1566 27.4317,-2.9705 9.3231,-9.3779 -26.8947,-9.5161 -61.353,-12.0017 -88.212,-6.3632 z m 48.5327,1.283 c 14.2518,1.4863 32.9939,5.8394 38.8528,9.0242 3.3427,1.8169 2.584,1.9752 -9.7114,2.0266 -62.0355,0.2594 -117.0059,17.731 -157.8125,50.1585 -10.374,8.2438 -10.374,8.2438 -5.9622,0.4737 2.4264,-4.2735 8.6834,-12.3655 13.9044,-17.9821 30.4286,-32.7346 74.1456,-48.5591 120.7289,-43.7009 z m -786.2047,45.2812 c -95.6803,38.658 -178.241,118.0445 -225.6597,216.9837 -11.7743,24.567 -19.0169,45.6471 -18.4822,53.7934 0.4116,6.2706 0.4116,6.2706 8.5348,-7.366 62.5706,-105.0376 135.951,-183.4259 238.7792,-255.0743 14.2555,-9.9327 17.247,-13.0805 13.4538,-14.1563 -0.7182,-0.2038 -8.1998,2.415 -16.6259,5.8195 z m 1.3231,4.5638 c -0.7277,0.6239 -10.9814,7.988 -22.786,16.3646 -78.0884,55.4127 -149.3655,131.8703 -204.8582,219.7475 -6.511,10.3106 -11.9657,18.6283 -12.1215,18.4835 -1.3155,-1.2231 14.594,-38.4613 23.5726,-55.1745 47.147,-87.7626 119.0411,-156.6976 202.8348,-194.4863 13.7654,-6.2078 15.6592,-6.9074 13.3583,-4.9348 z m 1371.2274,-8.8066 c 0,4.0861 48.9879,41.2127 91.9211,69.6645 151.8798,100.6508 277.7681,136.118 354.0234,99.7409 7.9262,-3.7812 7.9262,-3.7812 1.5811,8.5041 -12.6568,24.506 -50.1413,78.4149 -79.1861,113.8828 -61.4588,75.05 -138.7299,118.0935 -219.2648,122.1407 -10.3969,0.5224 -16.2617,1.3011 -14.6238,1.9415 2.6961,1.0541 2.6953,1.0727 -0.051,1.3271 -8.0073,0.7418 10.861,2.5722 27.1585,2.6348 81.1388,0.3109 162.1287,-41.2758 226.709,-116.4108 34.0056,-39.5632 71.1435,-91.9568 84.6686,-119.4489 7.5609,-15.3691 7.5609,-15.3691 7.5609,-30.115 0,-13.0462 -0.3364,-15.1072 -2.9191,-17.8796 -7.1777,-7.7044 -16.2847,-7.7055 -26.4251,0 -18.9278,14.3767 -39.1255,20.7192 -69.2087,21.7333 -48.252,1.6265 -102.1905,-12.3824 -177.9069,-46.2055 -51.5047,-23.0075 -137.6999,-71.1 -189.0116,-105.4589 -12.739,-8.53 -15.0256,-9.4503 -15.0256,-6.0475 z m 111.1157,68.8241 c 138.8508,77.8768 246.9929,107.8334 311.5825,86.3127 11.8469,-3.9474 30.2861,-14.0133 34.1095,-18.6204 3.3828,-4.076 12.263,-2.6672 17.7453,2.815 4.847,4.8471 4.9091,5.0566 4.2359,14.2756 -1.8277,25.0262 -39.9855,84.7281 -94.5504,147.9345 -54.1567,62.7337 -119.3855,101.6786 -187.8615,112.1629 -19.8762,3.0432 -22.1007,2.2798 -4.8746,-1.6727 70.4752,-16.1705 130.5152,-56.1349 183.8326,-122.3644 31.4089,-39.0157 69.2085,-94.6449 79.6439,-117.2117 7.1784,-15.5235 7.0954,-15.5742 -11.1052,-6.7804 -68.898,33.2886 -180.0509,5.8222 -317.1339,-78.3656 -26.6061,-16.3398 -90.5285,-60.2336 -90.5285,-62.1635 0,-0.2637 11.1246,6.2427 24.7212,14.4589 13.5967,8.2162 36.1792,21.3648 50.1832,29.2191 z M 2029.4595,1956.555 c 0,3.3556 39.6928,45.5106 64.3043,68.293 99.806,92.3888 212.5038,153.4437 309.6478,167.7542 22.4893,3.3129 49.4425,3.6694 49.4425,0.654 0,-1.2566 -1.9837,-2.3594 -5.2229,-2.9042 -42.7779,-7.1925 -106.7936,-31.4016 -162.2326,-61.3523 -66.6522,-36.0084 -135.1707,-82.7225 -229.4364,-156.4232 -18.5993,-14.5419 -26.5027,-19.3197 -26.5027,-16.0215 z m 69.6526,54.3602 c 126.0234,95.5552 229.8034,153.1872 318.2269,176.7204 11.5352,3.0699 12.035,3.3412 6.2674,3.4019 -3.4471,0.036 -14.0584,-1.2052 -23.5807,-2.7589 -104.9491,-17.1237 -227.7056,-88.6316 -329.876,-192.159 -23.9799,-24.2982 -25.8815,-27.7295 -7.2643,-13.1078 8.8091,6.9187 25.1111,19.4751 36.2267,27.9034 z m 956.8006,-17.6675 c 0,1.4845 0.9158,6.6551 2.0353,11.4901 1.1193,4.8351 6.4606,33.8606 11.8695,64.501 27.5296,155.9492 51.2941,268.5247 73.1021,346.2942 7.9274,28.27 7.2048,26.3676 9.6567,25.4268 1.5432,-0.5922 1.9094,-2.4262 1.455,-7.2884 -0.3338,-3.5735 -1.2734,-14.3313 -2.088,-23.9064 -11.0989,-130.468 -54.4386,-332.7943 -87.1831,-407.0036 -5.0623,-11.4728 -8.8475,-15.543 -8.8475,-9.5137 z m 19.6427,49.3423 c 29.0383,87.4551 59.1244,237.0273 71.5758,355.8335 3.1366,29.9288 3.0962,29.9137 -5.42,-2.0432 -20.2363,-75.9364 -42.5177,-182.6844 -66.3386,-317.8227 -6.1693,-34.9996 -11.5058,-64.8894 -11.8589,-66.4215 -1.6447,-7.1382 5.8707,11.8682 12.0417,30.4539 z m 502.6368,-9.7093 c 0,1.8342 1.2308,7.3182 2.7349,12.1865 11.8477,38.3446 53.1212,66.2774 86.2039,58.341 10.3334,-2.4789 9.468,-5.1392 -3.8085,-11.7088 -13.4908,-6.6753 -31.0339,-19.1079 -48.5994,-34.4416 -20.6496,-18.0256 -32.7966,-27.7123 -34.751,-27.7123 -0.9789,0 -1.7799,1.5009 -1.7799,3.3352 z m 27.1585,21.783 c 24.0094,20.7916 37.4634,30.7826 52.1794,38.7485 12.3146,6.666 11.31,7.8112 -6.0527,6.9 -17.0685,-0.8959 -29.5158,-7.1406 -44.9024,-22.5273 -9.4024,-9.4023 -12.6244,-13.7937 -17.0943,-23.2973 -6.1637,-13.1051 -7.8415,-17.9933 -6.1597,-17.9469 0.6263,0.019 10.5396,8.1727 22.0297,18.123 z m -659.1884,139.9381 c -34.7708,5.286 -67.6322,15.7523 -120.0526,38.2363 -43.7554,18.7674 -77.5493,29.9642 -105.8486,35.0705 -20.2289,3.6499 -64.6933,3.0098 -94.7067,-1.3635 -90.9047,-13.246 -111.4197,-15.5336 -111.4197,-12.4249 0,2.1178 15.5229,6.8518 71.7264,21.8742 109.3384,29.2246 149.0775,25.1668 266.3039,-27.1928 18.225,-8.1402 40.6411,-17.5996 49.8135,-21.0207 59.5427,-22.2083 112.5013,-27.1565 146.2293,-13.6632 9.9173,3.9674 10.4913,4.061 10.4877,1.7075 0,-4.5879 -20.1689,-14.7977 -38.2978,-19.3937 -14.7198,-3.7318 -55.1662,-4.7286 -74.2354,-1.8297 z m 68.6644,4.8119 c 6.8941,1.376 14.7283,3.5253 17.4094,4.7766 2.6811,1.2511 3.7157,1.9479 2.2992,1.5487 -7.155,-2.0173 -30.8431,-3.6671 -41.2961,-2.876 -42.513,3.217 -80.1672,14.4316 -144.1492,42.9319 -82.0039,36.5285 -107.3244,43.5435 -156.6838,43.4102 -34.9795,-0.095 -46.8846,-1.9742 -100.9741,-15.944 -66.5431,-17.1862 -66.5419,-17.2005 0.6964,-7.6786 59.1074,8.3705 73.172,9.5942 99.5813,8.6649 35.6414,-1.2545 69.0002,-10.0529 122.5617,-32.3256 68.5807,-28.5184 84.6528,-34.1337 115.6796,-40.4159 31.9262,-6.4643 59.5581,-7.1454 84.8756,-2.0922 z m -990.4508,90.5535 c -31.5833,8.2796 -64.0044,30.2426 -89.1602,60.3999 -10.8187,12.9696 -14.4075,17.9352 -28.1556,38.957 -7.7948,11.9187 -8.3347,13.4771 -4.67,13.4771 3.8903,0 14.4866,-7.8476 41.3678,-30.637 60.8715,-51.6052 88.4068,-68.0862 125.8077,-75.3006 6.6196,-1.2769 8.6679,-2.2195 8.355,-3.8445 -1.1284,-5.8588 -35.3883,-7.8115 -53.5447,-3.0519 z m 35.3758,0.9242 c 7.0777,0.8501 10.3237,3.2757 4.3837,3.2757 -5.5952,0 -28.4914,8.5714 -42.6879,15.9804 -18.6501,9.7334 -39.1665,24.2812 -65.8035,46.6602 -11.8731,9.9753 -27.7606,23.2418 -35.3053,29.4816 -13.7177,11.3447 -13.7177,11.3447 -5.7432,-1.0437 40.577,-63.0361 97.5536,-100.072 145.1562,-94.3542 z m 1373.4177,5.713 c -6.9346,17.6937 -18.6201,51.5916 -31.0878,90.1803 -32.3722,100.1947 -39.5145,119.5233 -57.3839,155.291 -38.383,76.8289 -87.5775,126.6086 -210.5612,213.0664 -26.4975,18.6278 -31.0976,22.5446 -28.9728,24.6694 1.2186,1.2186 49.4003,-23.4415 74.007,-37.8778 91.3345,-53.5846 149.3872,-110.2267 184.2367,-179.7603 25.5843,-51.0469 42.5309,-108.636 66.5709,-226.224 4.15,-20.2992 7.8709,-38.3178 8.269,-40.0414 1.0701,-4.6353 -3.2187,-4.0472 -5.0779,0.6964 z m -10.2855,55.368 c -25.5577,121.3205 -45.475,181.9281 -76.3699,232.3899 -34.5512,56.4339 -86.503,104.4581 -161.7723,149.5424 -18.5479,11.1097 -58.2276,32.7098 -56.4063,30.7053 0.3831,-0.4215 14.2657,-10.4764 30.8504,-22.3445 140.3588,-100.4414 184.3866,-158.7919 230.9182,-306.0384 14.1156,-44.6677 37.9174,-115.8166 38.5374,-115.1964 0.3455,0.3456 -2.2453,14.2694 -5.7575,30.9417 z m -955.6319,-31.9532 c -1.8186,4.7394 0.7095,61.356 3.5723,80.002 9.0685,59.0634 31.7664,119.4466 58.4894,155.5991 6.1001,8.2525 9.8905,10.9004 9.8905,6.9092 0,-1.0067 -5.902,-22.4723 -13.1157,-47.7016 -7.2136,-25.2291 -19.494,-70.0006 -27.2898,-99.4919 -7.7958,-29.4915 -16.9353,-63.2515 -20.3102,-75.0227 -3.3748,-11.7711 -6.1361,-21.6421 -6.1361,-21.9356 0,-1.6101 -4.3956,-0.1952 -5.1004,1.6415 z m 13.924,44.4815 c 4.9996,18.3843 13.8152,51.2879 19.5902,73.1191 5.7752,21.8313 15.2275,56.2416 21.0051,76.4672 5.7777,20.2256 10.2784,37.0003 10.0017,37.277 -0.8358,0.8358 -10.312,-14.1117 -17.6075,-27.7738 -23.6852,-44.354 -39.6134,-103.1878 -43.1856,-159.5143 -1.0557,-16.646 -0.6519,-34.8418 0.7409,-33.3834 0.2009,0.2103 4.4556,15.424 9.4552,33.8082 z m 152.735,-44.5079 c 0,3.9464 20.941,49.7007 37.8448,82.6866 51.6888,100.8663 117.0848,189.5107 187.0834,253.5918 38.6904,35.4196 57.0463,49.1688 128.829,96.4981 15.7032,10.3537 30.3921,20.7692 32.6419,23.1455 4.2543,4.4932 7.7478,5.6272 7.7478,2.5147 0,-5.5935 -17.8725,-22.6827 -57.799,-55.2662 -45.6149,-37.2256 -63.944,-53.5214 -94.0214,-83.5914 -73.0878,-73.0697 -134.9606,-155.1305 -220.7895,-292.8286 -16.4406,-26.3766 -21.537,-32.7065 -21.537,-26.7505 z m 27.5188,43.8116 c 104.8325,169.4876 186.307,265.5407 310.9182,366.5516 35.6941,28.9339 37.1314,30.9275 9.7492,13.5219 -65.3196,-41.5205 -99.8026,-68.9504 -146.2689,-116.3513 -59.6389,-60.8383 -110.0321,-130.9959 -155.0469,-215.8562 -13.0283,-24.5607 -35.7883,-72.2367 -33.1538,-69.4486 0.7211,0.7633 6.9322,10.4754 13.8022,21.5826 z m 350.6114,399.7178 c 1.3865,1.532 2.2075,2.7855 1.8246,2.7855 -0.3831,0 -1.8309,-1.2535 -3.2173,-2.7855 -1.3865,-1.532 -2.2075,-2.7855 -1.8244,-2.7855 0.3829,0 1.8307,1.2535 3.2171,2.7855 z m -245.8196,-444.3048 c 0,6.7055 37.1726,83.1897 58.5609,120.4916 63.8186,111.3023 122.3183,170.3241 214.9277,216.8455 20.4785,10.2871 87.1156,40.1159 89.6184,40.1159 7.4447,0 -11.7345,-13.8837 -58.4532,-42.3145 -61.0863,-37.1742 -90.4494,-59.429 -127.8173,-96.8753 -38.3828,-38.4632 -73.2811,-86.13 -153.778,-210.0409 -16.7316,-25.7554 -23.0585,-33.4993 -23.0585,-28.2223 z m 41.739,64.0853 c 107.8888,165.509 142.8615,202.0261 266.0578,277.8064 19.5333,12.0152 36.1096,22.4241 36.8361,23.1307 1.9359,1.8826 -39.772,-16.7958 -63.9946,-28.6592 -99.1918,-48.5806 -160.8233,-112.2676 -229.2126,-236.8562 -16.4456,-29.9601 -41.8152,-82.3084 -37.7527,-77.9004 0.706,0.7661 13.3357,19.8814 28.066,42.4787 z m -694.9364,-15.8796 c -47.1874,5.6189 -84.6283,18.9247 -143.4528,50.9799 -48.503,26.4309 -65.3579,33.769 -81.0931,35.3061 -11.0152,1.0761 -23.0995,-2.4721 -32.8855,-9.6556 -7.9965,-5.8701 -8.583,-6.0153 -8.583,-2.1264 0,1.7188 3.571,6.4824 8.7046,11.612 11.9925,11.9826 20.4504,15.2337 39.3452,15.1236 24.7011,-0.1441 39.6006,-5.4604 106.5449,-38.0164 74.6207,-36.2894 109.074,-47.9628 157.3702,-53.3208 30.1011,-3.3394 17.4157,-9.0466 -22.2739,-10.0211 -10.3411,-0.254 -20.9955,-0.2004 -23.6766,0.1178 z m 43.1751,4.5556 c 6.2674,1.0042 6.2674,1.0042 -2.7856,2.0807 -47.6069,5.6615 -80.2747,17.2133 -165.0402,58.3605 -68.8267,33.4102 -91.8817,39.0238 -115.9347,28.2295 -11.8362,-5.3117 -16.4615,-10.2102 -5.7268,-6.0649 20.6535,7.9754 41.041,2.1523 94.503,-26.9917 68.5376,-37.3623 97.4274,-48.3047 147.631,-55.9174 6.252,-0.948 40.9295,-0.7258 47.3533,0.3033 z m 467.5285,11.8417 c -47.2217,59.5871 -64.7535,145.5065 -45.4156,222.5723 7.151,28.4992 24.4915,66.1212 28.5923,62.0347 0.5988,-0.5966 -0.2801,-7.804 -1.9529,-16.0166 -18.7553,-92.0828 -10.8841,-171.5328 26.0556,-263.0002 3.1291,-7.7479 5.6892,-14.7987 5.6892,-15.6684 0,-4.095 -4.5208,-0.5816 -12.9686,10.0782 z m 0.4238,12.0415 c -31.4038,76.1549 -40.1861,161.484 -25.2372,245.2057 1.3573,7.6013 2.2302,13.8205 1.9399,13.8205 -1.1527,0 -10.129,-21.2769 -14.1729,-33.5945 -21.9882,-66.9742 -14.4628,-143.6934 20.0786,-204.6987 7.0256,-12.4083 19.3664,-30.5066 20.8017,-30.5066 0.3411,0 -1.1934,4.3981 -3.4101,9.7736 z m -547.2997,44.7692 c 0.022,1.0248 6.9617,5.2163 15.4226,9.3143 26.7298,12.946 58.3591,35.3935 125.902,89.353 154.7028,123.591 219.2931,165.9648 286.2091,187.765 22.9718,7.4839 57.1346,13.0815 66.1015,10.8309 6.4284,-1.6134 2.981,-4.1427 -8.9989,-6.6024 -37.9614,-7.7943 -79.2164,-28.3325 -139.2654,-69.3311 -19.5128,-13.3226 -39.5331,-28.1828 -151.5087,-112.4591 -60.0048,-45.1615 -97.1638,-69.7962 -133.3169,-88.3823 -28.7944,-14.8031 -60.6521,-25.5837 -60.5453,-20.4883 z m 46.7368,17.8792 c 41.9318,19.6073 85.6012,49.1541 191.0215,129.2452 121.8949,92.6075 170.505,123.5365 221.8085,141.1298 10.9973,3.7713 11.3437,4.002 4.8747,3.2468 -29.5449,-3.4488 -77.6744,-23.2758 -123.2464,-50.7712 -49.7408,-30.0107 -93.6436,-62.4092 -202.3533,-149.3279 -49.9613,-39.9467 -77.09,-59.8553 -105.2654,-77.2506 -9.9439,-6.1394 -4.8649,-4.7005 13.1604,3.7279 z m 550.7926,10.7945 c -24.1521,26.7204 -33.0165,64.9866 -25.8914,111.7678 1.3417,8.8091 2.4734,21.5005 2.5149,28.203 0.087,14.0424 2.0858,15.8674 7.771,7.0951 7.4313,-11.4666 10.2999,-26.1424 12.072,-61.7603 1.2477,-25.0779 4.283,-45.0842 10.5166,-69.3185 3.0089,-11.6977 5.4708,-22.1956 5.4708,-23.3284 0,-4.2549 -4.2217,-1.7664 -12.4539,7.3413 z m 3.8273,12.5347 c -6.2326,23.4982 -9.257,43.7861 -11.52,77.2766 -2.1334,31.5726 -3.7052,40.6924 -8.6842,50.3863 -2.799,5.4496 -2.799,5.4496 -3.6044,-7.6601 -0.4429,-7.2103 -1.8556,-20.6305 -3.1392,-29.8225 -5.2684,-37.7275 2.8516,-71.7449 23.0222,-96.4477 3.9093,-4.7875 7.2853,-8.7046 7.5021,-8.7046 0.217,0 -1.3925,6.7374 -3.5765,14.972 z m 30.9106,67.1569 c 0,0.7422 4.6257,7.267 10.2793,14.4998 24.3839,31.1935 43.0973,64.1991 80.8479,142.596 27.8956,57.9305 30.9702,62.038 28.3931,37.9315 -6.6862,-62.5454 -41.1757,-135.6079 -81.5228,-172.6978 -17.2871,-15.8917 -37.9975,-28.0622 -37.9975,-22.3295 z m 18.2448,11.4209 c 32.0132,23.0598 59.6398,61.7611 78.3734,109.791 9.4514,24.2319 20.1262,66.1372 18.7145,73.4672 -0.2482,1.2887 -9.7787,-17.0645 -21.179,-40.7848 -35.9453,-74.7911 -58.4585,-114.5578 -79.8065,-140.9684 -5.6951,-7.0457 -4.4577,-7.5235 3.8976,-1.505 z m -37.047,48.9951 c -63.2886,30.8975 -103.418,76.4173 -112.2921,127.3759 -2.2851,13.1221 -0.7811,41.666 2.8762,54.5889 9.9969,35.3222 41.0644,76.1585 75.4948,99.233 18.3694,12.3109 20.4777,10.1151 5.851,-6.094 -28.2426,-31.2982 -49.1401,-66.6861 -57.0571,-96.621 -4.2649,-16.1267 -3.5691,-45.305 1.445,-60.5844 11.9251,-36.3387 37.5826,-68.1013 88.5568,-109.6286 15.0776,-12.2832 17.9412,-15.5427 14.624,-16.6458 -0.7661,-0.2547 -9.5404,3.5145 -19.4986,8.376 z m 4.825,2.7394 c -1.1216,1.0073 -6.1132,5.2229 -11.0923,9.3679 -50.812,42.3004 -75.5492,76.746 -83.8572,116.7679 -8.7324,42.0665 10.1336,92.6175 53.0665,142.1908 7.8105,9.0185 7.8105,9.0185 -1.2424,2.209 -4.9791,-3.7451 -15.3595,-13.1619 -23.0675,-20.9261 -80.7429,-81.3314 -59.5133,-181.1563 51.6758,-242.9889 15.6168,-8.6844 18.0515,-9.7948 14.5171,-6.6206 z m 27.8688,43.1687 c -45.6471,19.9317 -72.4342,54.5419 -78.0453,100.8382 -2.9544,24.3772 3.1865,54.3469 15.2153,74.2565 7.0153,11.6117 10.6993,12.8676 9.4813,3.2325 -3.4517,-27.3026 -4.1471,-43.0803 -2.5667,-58.2411 4.2067,-40.3578 19.151,-69.1896 54.7685,-105.6642 19.8168,-20.2935 20.0047,-22.656 1.1469,-14.4219 z m -5.6893,13.1469 c -29.6782,30.8423 -44.5963,56.1264 -51.3269,86.9918 -3.7802,17.3362 -4.1645,52.7392 -0.7904,72.8257 1.321,7.8637 -11.4019,-20.298 -14.0504,-31.1003 -3.8394,-15.6597 -3.5594,-43.1241 0.5887,-57.7367 9.1778,-32.3303 32.4157,-60.2962 63.231,-76.0958 6.0914,-3.1232 11.4485,-5.6785 11.9047,-5.6785 0.4564,0 -3.8442,4.8572 -9.5567,10.7938 z m -33.2718,110.894 c 0,1.0515 3.1031,9.669 6.8959,19.1502 20.0028,50.0038 21.9572,93.1664 6.9497,153.4761 -4.8572,19.519 -4.7068,17.6608 -1.4289,17.6608 6.7289,0 26.6788,-35.0093 32.1578,-56.4323 10.713,-41.8872 2.2969,-86.2004 -22.1324,-116.5331 -11.5687,-14.3643 -22.4421,-22.7568 -22.4421,-17.3217 z m 32.103,40.4327 c 10.3636,21.0268 12.8798,32.0982 12.8495,56.5405 -0.022,17.2914 -0.5514,22.1972 -3.6859,34.1223 -3.9355,14.9733 -14.9788,38.671 -21.7424,46.6569 -4.1285,4.8745 -4.1285,4.8745 -2.7681,0 15.8392,-56.7532 13.9237,-111.3934 -5.5616,-158.6457 -2.3269,-5.6428 -4.2037,-10.6435 -4.1705,-11.1125 0.034,-0.4692 4.1299,3.4736 9.1042,8.762 6.5581,6.9722 10.9489,13.48 15.9748,23.6765 z m 165.6668,2.6306 c 0,0.99 17.1023,13.1623 38.0049,27.0498 73.8696,49.0778 98.1529,70.3466 104.1361,91.2082 4.3311,15.1019 -16.1359,32.2938 -57.8798,48.6183 -20.3141,7.9441 -21.7145,10.445 -5.571,9.9496 39.5538,-1.2136 74.5392,-17.6558 84.2038,-39.5734 9.2076,-20.8812 2.5298,-40.5136 -22.2039,-65.2779 -26.9797,-27.0133 -66.7061,-49.9015 -116.9531,-67.3819 -19.2648,-6.7021 -23.737,-7.5673 -23.737,-4.5927 z m 35.2495,12.9909 c 92.6018,36.6729 144.1354,88.9459 123.0904,124.8566 -10.3549,17.6692 -39.0385,31.7122 -71.2933,34.9038 -8.3564,0.8269 -8.3564,0.8269 1.3928,-3.0811 17.1248,-6.8647 28.0186,-12.2318 36.4526,-17.9591 41.8162,-28.3969 26.5118,-53.6244 -72.829,-120.0504 -36.784,-24.5961 -39.4837,-26.4969 -37.6349,-26.4969 0.5815,0 9.9513,3.5221 20.8214,7.8271 z m 129.0189,-10.8567 c -24.0896,15.3054 -31.2855,51.055 -13.797,68.5435 7.6978,7.6977 11.0871,7.4501 11.0871,-0.8099 0,-8.1984 2.9773,-22.4037 8.9363,-42.6362 2.6295,-8.9279 5.2128,-19.1124 5.7405,-22.6322 0.9154,-6.1041 0.8042,-6.3994 -2.4076,-6.3994 -1.8521,0 -6.1537,1.7703 -9.5593,3.9342 z m 8.4321,2.1297 c 0,1.0371 -2.4424,10.2814 -5.4273,20.5431 -5.7857,19.8891 -7.8105,28.526 -9.2235,39.3428 -0.8829,6.7581 -0.8829,6.7581 -4.4418,3.4818 -15.4941,-14.2634 -9.791,-46.0452 10.9602,-61.0774 6.3688,-4.6135 8.1324,-5.1102 8.1324,-2.2903 z m -107.3701,71.7771 c -44.2103,17.2971 -57.4305,77.61 -24.1673,110.2552 8.3034,8.1493 9.1976,6.6764 6.8096,-11.2175 -4.7784,-35.8044 0.3558,-55.7085 22.1665,-85.9344 5.0861,-7.0483 9.2474,-13.4723 9.2474,-14.2755 0,-2.2091 -6.8804,-1.6354 -14.0562,1.1722 z m 1.8883,10.142 c -21.1119,28.7341 -27.8786,52.6097 -23.7783,83.8996 1.9917,15.1986 1.9917,15.1986 -2.6813,9.7928 -17.4874,-20.2298 -19.3222,-51.4099 -4.3941,-74.6732 5.875,-9.1557 16.9477,-18.8615 26.9279,-23.6036 4.5535,-2.1639 8.5264,-3.687 8.8285,-3.3851 0.302,0.3022 -1.9042,3.8883 -4.9027,7.9695 z m -165.4072,49.1735 c -78.4371,17.2587 -146.779,114.8633 -174.8118,249.6624 -4.6922,22.5629 -4.8411,24.0445 -2.415,24.0321 0.9896,0 5.5883,-10.6739 10.6558,-24.7212 42.1159,-116.7454 91.8339,-188.9387 148.4654,-215.5797 21.6708,-10.1946 38.9579,-12.1222 56.2482,-6.2724 17.7406,6.0024 30.8678,16.8722 59.7907,49.5087 8.1462,9.1921 23.6621,25.8422 34.4798,37.0002 23.3887,24.1245 37.3673,44.1939 52.8038,75.8121 10.0817,20.6505 25.9164,59.188 30.8252,75.0209 2.2537,7.2697 4.9846,10.8207 6.8709,8.9345 1.6892,-1.6894 -8.041,-43.4926 -15.6517,-67.2424 -14.4834,-45.1963 -31.4583,-76.9234 -55.5146,-103.7595 -5.8367,-6.511 -21.158,-24.4148 -34.0476,-39.7859 -31.1864,-37.1909 -40.5825,-45.6743 -61.6892,-55.6979 -17.7922,-8.4495 -37.8004,-10.9187 -56.0099,-6.9119 z m 39.4825,4.9388 c 26.4587,7.3321 40.5821,18.8201 77.0068,62.6383 11.1434,13.4051 24.5288,29.0735 29.7457,34.8186 23.6806,26.0789 41.6011,58.054 54.6793,97.5628 7.4354,22.4621 12.0123,38.8575 11.1016,39.7683 -0.2935,0.2935 -3.5553,-7.0703 -7.2481,-16.3641 -19.0322,-47.8985 -39.3791,-81.2925 -66.9161,-109.8251 -9.9803,-10.341 -25.622,-27.2628 -34.759,-37.6041 -40.8892,-46.2769 -54.2341,-54.8971 -84.987,-54.8977 -15.4105,-3e-4 -17.6208,0.3448 -28.3617,4.429 -57.426,21.8358 -108.2766,88.4246 -150.7475,197.4033 -9.7833,25.1039 -10.2435,23.8195 -2.0266,-5.6559 10.7364,-38.5134 21.1434,-65.7038 36.3955,-95.0904 44.1942,-85.1508 111.1827,-132.4061 166.1171,-117.183 z m -208.1589,38.2734 c -78.6903,24.1811 -114.2232,70.8337 -133.4885,175.2623 -8.2404,44.6675 -13.1712,101.7705 -13.6656,158.2606 -0.5527,63.1735 3.1455,51.5191 25.4022,-80.0514 11.406,-67.4262 13.6868,-79.1407 21.1512,-108.6341 18.2947,-72.2855 42.6503,-104.0782 105.2814,-137.4299 8.6642,-4.614 15.6683,-9.2257 15.6683,-10.3169 0,-2.847 -3.0229,-2.4148 -20.349,2.9094 z m -9.6534,10.5912 c -36.1107,20.6006 -58.1281,42.6138 -73.6762,73.6618 -16.8617,33.6711 -25.0612,67.114 -44.5616,181.7531 -5.7333,33.7045 -11.6824,67.2349 -13.2204,74.512 -2.7962,13.231 -2.7962,13.231 -2.1561,-18.8021 0.9659,-48.3411 5.3364,-98.6205 11.9218,-137.1527 17.7155,-103.6553 51.6412,-152.9429 122.2858,-177.6585 13.3557,-4.6726 13.2846,-4.2307 -0.5933,3.6864 z m 369.8323,58.9422 c 0,1.0965 3.6426,5.1618 8.0945,9.0341 19.7864,17.2095 56.7278,60.3997 68.9407,80.6023 9.3991,15.5477 11.5956,23.7038 13.3942,49.7338 3.5484,51.3559 16.5837,132.1979 30.9327,191.8403 5.3701,22.3211 7.0421,26.5041 9.53,23.8442 1.4324,-1.5313 -0.5944,-55.7833 -3.4331,-91.8939 -3.1536,-40.1162 -13.0201,-141.9776 -14.6213,-150.9491 -5.4811,-30.7096 -46.6962,-76.5068 -95.742,-106.3866 -13.119,-7.9922 -17.0957,-9.3472 -17.0957,-5.8251 z m 46.5933,31.5607 c 14.2449,11.4596 34.8984,32.2293 43.7588,44.0053 12.17,16.1746 18.1939,29.9736 19.7253,45.1849 0.7224,7.1767 3.1945,31.537 5.4932,54.1343 6.8616,67.4457 13.8696,163.5005 12.0608,165.3094 -0.5454,0.5453 -5.4444,-20.9077 -11.4313,-50.0576 -10.4321,-50.7931 -20.3978,-120.2776 -22.7391,-158.5449 -1.1621,-18.9924 -1.5616,-21.0028 -6.1461,-30.9252 -9.1547,-19.8143 -26.8762,-43.2909 -56.409,-74.7281 -16.282,-17.3319 -16.282,-17.3319 -5.6736,-10.18 5.8347,3.9336 15.4471,11.0445 21.361,15.8019 z m -471.3806,117.6383 c 0,10.5539 13.806,40.4095 26.3689,57.023 26.7524,35.3782 60.0577,61.213 123.0558,95.4541 31.5781,17.1634 72.727,57.8133 120.073,118.6163 8.2385,10.58 11.8368,13.1528 11.8368,8.4634 0,-3.8093 -17.1265,-37.2765 -27.4632,-53.6668 -15.7566,-24.984 -30.7579,-44.0332 -49.093,-62.3396 -20.0207,-19.9896 -29.833,-27.0576 -59.9329,-43.1703 -68.7292,-36.7919 -120.395,-80.0314 -137.6392,-115.1917 -3.4589,-7.0525 -7.2062,-9.7505 -7.2062,-5.1884 z m 11.8555,20.4635 c 21.8397,33.4106 65.6157,67.9928 130.9009,103.409 27.509,14.9233 33.7899,19.103 49.6876,33.0641 22.9123,20.1217 55.3021,62.9894 71.3798,94.4708 7.8472,15.3655 7.8907,15.4013 -15.3769,-12.6312 -41.7989,-50.3585 -70.6471,-76.0682 -107.0833,-95.4332 -65.9145,-35.0321 -111.6639,-77.2686 -130.8368,-120.7905 -4.204,-9.5427 -3.8783,-10.0547 1.3287,-2.089 z m 203.028,-18.8022 c -2.3746,8.7031 -1.0646,43.7343 2.1136,56.5179 8.241,33.1482 19.7127,51.7827 56.7337,92.1576 11.238,12.2562 23.5037,26.3578 27.257,31.3369 14.4375,19.1523 24.1048,44.544 27.8461,73.1403 2.9878,22.8383 7.7508,15.4525 9.1832,-14.2404 2.1466,-44.4975 -8.6807,-67.7467 -55.3206,-118.7879 -37.3527,-40.878 -51.5658,-67.092 -60.8612,-112.2501 -2.4958,-12.1255 -5.0137,-14.9773 -6.9518,-7.8743 z m 16.1912,52.6241 c 10.5381,25.2205 21.1965,40.4126 52.0519,74.1933 36.0194,39.434 47.4802,60.1816 51.2117,92.7088 1.4687,12.8011 -0.023,36.331 -1.8218,28.7307 -0.453,-1.915 -2.4572,-10.3759 -4.4534,-18.802 -7.0105,-29.59 -18.5618,-48.26 -52.8755,-85.4598 -10.6579,-11.5544 -22.693,-25.4147 -26.7448,-30.8006 -20.9728,-27.8786 -31.3022,-58.1544 -31.0791,-91.0929 0.095,-14.0933 0.095,-14.0933 4.1421,1.6064 2.2255,8.6349 6.5315,21.6471 9.5689,28.9161 z m 238.8239,0.3004 c -18.019,76.4841 -54.5588,151.9934 -112.833,233.1689 -6.4157,8.9368 -11.6647,16.9277 -11.6647,17.7574 0,3.652 5.952,0.8017 17.5033,-8.3824 51.188,-40.6978 90.11,-101.8406 105.8564,-166.2912 6.2677,-25.6536 9.0458,-56.3064 6.6726,-73.6212 -0.999,-7.288 -4.0912,-8.7583 -5.5346,-2.6315 z m 1.8698,27.8547 c -2.7888,70.0992 -41.5462,149.3453 -97.5113,199.3778 -19.1357,17.1072 -20.6279,17.733 -11.2503,4.7182 51.0582,-70.8603 88.5983,-146.5204 105.7576,-213.1488 1.4302,-5.5535 2.8627,-10.0974 3.1832,-10.0974 0.3204,0 0.2398,8.6176 -0.1792,19.1502 z m -362.3066,95.1343 c -36.9833,6.1951 -64.2377,54.407 -55.0293,97.3443 2.703,12.6039 4.9128,10.1273 18.586,-20.8299 13.286,-30.0809 25.3223,-50.1618 39.037,-65.1285 7.0457,-7.689 9.4037,-13.3078 5.327,-12.6942 -0.5985,0.09 -4.1628,0.6789 -7.9207,1.3083 z m -2.3203,10.7144 c -13.8014,15.0517 -24.9528,34.3444 -40.3016,69.7247 -8.8086,20.3042 -10.3651,20.0246 -10.1794,-1.8284 0.3257,-38.3041 23.95,-69.5414 57.3362,-75.8129 0.2684,-0.051 -2.8164,3.5121 -6.8552,7.9166 z m 39.3069,-3.3869 c -5.9916,7.2195 -5.5137,39.4968 1.0538,71.1524 8.0374,38.7409 5.1571,46.0229 -18.9875,48.006 -12.7064,1.0435 -13.9242,2.8288 -5.3553,7.8505 14.6005,8.5565 31.1267,7.6592 41.9044,-2.2753 15.9624,-14.7137 15.4636,-35.7088 -2.096,-88.2316 -5.3712,-16.0658 -9.7658,-31.2642 -9.7658,-33.7742 0,-4.9213 -3.6946,-6.4135 -6.7536,-2.7278 z m 20.2684,60.1413 c 6.4768,21.321 7.4279,43.3864 2.2811,52.9242 -7.9278,14.6919 -22.7892,20.0277 -37.3835,13.4221 -5.5709,-2.5215 -5.5709,-2.5215 3.3228,-4.1054 21.1841,-3.7727 24.4085,-14.083 16.3657,-52.3317 -4.2411,-20.1697 -6.7105,-42.2809 -5.6327,-50.4347 2.1833,-16.5156 1.6872,-16.7506 9.1042,4.3141 3.7759,10.7242 9.15,27.0193 11.9424,36.2114 z m -234.1745,-59.3381 c -1.1605,1.8779 1.6078,14.8489 4.2667,19.9922 2.2,4.255 2.1985,4.4094 -0.023,2.5668 -4.1562,-3.4476 -5.4494,0.115 -5.3617,14.7711 0.216,36.0275 22.9042,68.4946 56.6451,81.06 10.5703,3.9365 25.858,5.5792 25.8571,2.7783 -4e-4,-1.0682 -6.8604,-8.3788 -15.2445,-16.2457 -21.4296,-20.1078 -38.9722,-42.5901 -52.957,-67.8686 -4.6229,-8.3564 -4.6229,-8.3564 2.8901,-1.2184 12.5503,11.9238 25.0807,17.4716 43.7245,19.3592 14.7981,1.4983 41.086,-5.6463 41.086,-11.1664 0,-1.2562 -2.7691,-2.7806 -7.312,-4.0254 -31.3241,-8.5831 -44.7964,-12.8274 -53.5416,-16.8679 -10.3988,-4.8046 -28.8507,-16.838 -33.2165,-21.6621 -2.6173,-2.8922 -5.5452,-3.5252 -6.8134,-1.4731 z m 32.8269,23.9176 c 11.7985,5.932 27.5093,11.3541 48.2101,16.6378 7.0856,1.8086 12.8828,3.7734 12.8828,4.366 0,1.7514 -13.9113,5.4442 -23.6767,6.2853 -29.756,2.5626 -60.3224,-17.3436 -66.0392,-43.0079 -0.8123,-3.6461 -0.5027,-3.5279 8.3834,3.1979 5.0747,3.841 14.1827,9.4754 20.2396,12.5209 z m -19.3856,21.3452 c 13.7554,23.2285 24.5003,37.0886 43.714,56.3883 17.1669,17.2436 17.1669,17.2436 10.6821,16.3548 -24.8282,-3.403 -51.7521,-28.4759 -61.7344,-57.4902 -2.956,-8.5915 -5.3251,-31.1454 -3.2653,-31.0849 0.6875,0.02 5.4592,7.1447 10.6036,15.832 z m 332.5654,-44.5907 c 0,4.4573 16.9087,69.5128 21.2198,81.6421 5.6186,15.8081 8.063,17.3549 12.2977,7.7815 10.3799,-23.4655 3.6636,-61.5428 -14.107,-79.9768 -9.2664,-9.6126 -19.4105,-14.5495 -19.4105,-9.4468 z m 14.5356,10.656 c 16.5162,15.6203 24.2983,45.232 18.1221,68.9567 -1.7354,6.6663 -4.8027,13.2507 -4.8027,10.3095 0,-0.3506 -1.9264,-6.2732 -4.2805,-13.1614 -5.6486,-16.5264 -19.369,-73.1083 -17.728,-73.1083 0.7062,0 4.6163,3.1516 8.6891,7.0035 z m 235.4622,67.4014 c -6.1281,6.2996 -19.6029,17.9366 -29.944,25.8599 -52.6479,40.3387 -72.11,56.9475 -108.6341,92.7069 -29.3181,28.7044 -34.3263,32.6684 -51.8666,41.0533 -36.0533,17.2347 -89.8926,18.4681 -149.0369,3.4146 -7.9847,-2.0323 -4.1327,3.318 6.0984,8.4703 50.109,25.2344 116.2721,28.4113 159.5766,7.6622 19.7451,-9.4607 25.8944,-14.8902 97.3679,-85.9693 70.7986,-70.4078 80.1338,-80.4046 86.0182,-92.1135 8.2634,-16.4429 5.6487,-16.7388 -9.5795,-1.0844 z m -1.5721,10.9008 c -10.455,13.769 -145.9144,147.7403 -156.7599,155.0376 -39.7263,26.7302 -91.9827,30.818 -149.4646,11.6921 -13.5914,-4.5222 -19.7916,-7.6459 -12.5348,-6.3148 82.0972,15.058 139.1866,1.4666 177.2602,-42.201 17.4333,-19.9948 60.1894,-57.2942 106.0958,-92.5556 14.134,-10.8566 29.1757,-23.0066 33.4259,-27.0003 4.2502,-3.9935 7.9211,-7.284 8.1573,-7.3119 0.2364,-0.028 -2.5447,3.8663 -6.1799,8.6539 z m -487.2814,22.5396 c -0.7661,0.2998 -3.1087,0.9234 -5.206,1.3857 -7.6024,1.6757 -13.323,19.5494 -10.1597,31.7438 2.9481,11.3655 12.5218,18.9457 26.8558,21.264 7.8656,1.2721 7.7969,-1.0429 -0.2659,-8.956 -7.9914,-7.843 -10.0486,-12.619 -7.7871,-18.0787 1.5252,-3.6819 2.1729,-4.0024 6.7846,-3.3561 9.0284,1.2652 17.7325,4.6055 23.9873,9.2054 6.0879,4.4772 6.1475,4.4887 23.5513,4.5785 24.0862,0.1237 34.8572,4.2428 34.8572,13.329 0,3.4054 3.6823,3.341 5.522,-0.096 7.7732,-14.5244 -10.0544,-31.4948 -38.242,-36.4034 -5.864,-1.0211 -12.134,-3.345 -17.11,-6.3415 -4.3199,-2.6013 -10.0739,-5.4125 -12.7864,-6.2468 -4.9625,-1.5267 -27.4063,-3.0435 -30.0011,-2.0275 z m 28.1614,5.6768 c 3.8938,1.1563 10.2597,4.29 14.1467,6.9636 3.8869,2.6738 8.7153,4.8614 10.7297,4.8614 16.918,0 42.3652,14.3966 42.3652,23.9679 0,2.9799 0,2.9799 -3.3151,-0.1339 -5.3684,-5.0434 -14.9883,-7.1205 -32.9776,-7.1205 -16.3517,0 -16.3517,0 -23.5623,-4.8523 -12.7883,-8.6059 -31.7513,-12.0827 -34.8027,-6.3812 -3.653,6.8257 -1.4039,15.5999 6.0373,23.5527 4.3594,4.6592 4.3594,4.6592 -1.2116,2.4001 -11.351,-4.6029 -18.8567,-14.093 -18.7594,-23.719 0.074,-7.3471 5.7652,-19.3068 9.7064,-20.3985 6.3659,-1.7634 24.4657,-1.2714 31.6434,0.8603 z m 116.6302,13.2774 c -8.1262,1.1083 -16.3806,4.9541 -15.6081,7.2719 0.2928,0.8783 6.1297,4.6345 12.9708,8.3468 15.8961,8.6261 18.8912,11.603 22.7927,22.6549 5.0506,14.3062 11.2944,20.162 21.4978,20.162 9.9033,0 11.4575,-2.4032 5.5454,-8.5743 -3.1992,-3.3391 -3.8268,-5.4955 -4.7132,-16.1979 -1.1672,-14.0902 -3.1021,-18.6763 -10.8226,-25.6513 -7.9928,-7.2211 -18.3138,-9.8327 -31.6628,-8.0121 z m 22.4386,6.6141 c 11.1612,5.722 15.9089,14.1614 16.9332,30.0996 0.5614,8.7378 1.367,11.9819 3.5783,14.41 2.8535,3.1337 2.8535,3.1337 -1.954,3.1337 -8.2777,0 -14.1897,-6.9294 -19.2497,-22.5625 -2.0686,-6.3916 -8.0085,-11.7036 -20.8319,-18.6296 -5.4524,-2.9451 -9.9135,-5.7873 -9.9135,-6.316 0,-4.3497 23.024,-4.4488 31.4376,-0.1354 z m -220.851,42.6636 c -4.979,1.0489 -14.6663,3.5385 -21.5273,5.5325 -14.0523,4.084 -19.3895,4.4196 -24.4332,1.5364 -7.5484,-4.3152 -9.567,0.5542 -3.8118,9.195 6.9008,10.3606 24.0551,13.235 53.9506,9.0405 31.8821,-4.4733 29.2645,-4.6935 22.6641,1.9067 -18.8384,18.8384 -17.6249,53.0893 2.3297,65.7585 10,6.3491 9.824,6.6711 9.8312,-18.0044 0,-12.0647 0.4161,-29.0486 0.917,-37.7419 0.9108,-15.8063 0.9108,-15.8063 16.0103,-14.8198 17.1471,1.1202 18.4832,0.2127 10.5731,-7.1804 -15.6555,-14.6319 -41.369,-20.5178 -66.5037,-15.2231 z m 40.6502,4.9464 c 8.4025,2.5952 19.9381,9.0737 23.2392,13.0512 1.2063,1.4537 -0.2898,1.5627 -7.8715,0.5738 -10.8123,-1.4103 -30.0844,-0.4498 -49.0542,2.445 -28.9348,4.4154 -48.1399,1.8686 -53.9171,-7.1501 -1.857,-2.8991 -1.7845,-2.9286 4.0775,-1.6629 5.0711,1.0949 9.2133,0.4493 27.5557,-4.2953 25.879,-6.694 41.2529,-7.5075 55.9704,-2.9617 z m -4.8211,54.1997 c -0.3514,37.2327 0.039,36.2194 -9.7796,25.3507 -12.87,-14.2455 -11.5688,-38.6006 2.8533,-53.4031 2.7986,-2.8726 5.5727,-5.2228 6.1644,-5.2228 0.5918,0 0.9347,14.9739 0.7619,33.2752 z m 61.6632,-51.9157 c 0,4.1641 9.9587,15.8638 18.9868,22.3061 34.6951,24.7579 86.9455,24.3235 125.6966,-1.0453 13.4415,-8.7994 10.7204,-9.3524 -32.8037,-6.6673 -39.4281,2.4325 -71.2584,-1.6998 -98.4523,-12.7817 -11.4353,-4.6601 -13.4274,-4.9289 -13.4274,-1.8118 z m 23.6765,9.3704 c 24.6957,8.1832 39.5027,9.7828 81.8582,8.8435 20.1267,-0.4462 36.2827,-0.3077 35.9021,0.308 -1.374,2.2232 -21.4455,11.1934 -31.536,14.094 -14.2734,4.1028 -38.8678,5.1314 -52.7984,2.2081 -15.834,-3.3229 -33.7653,-12.816 -43.8714,-23.2265 -4.5961,-4.7344 -7.4164,-8.2626 -6.2674,-7.8404 1.149,0.422 8.6699,2.9481 16.7129,5.6133 z m 9.7492,42.4215 c 0,1.381 2.4129,7.4916 5.3617,13.5793 19.0222,39.2684 78.2274,89.0345 125.112,105.1652 9.5046,3.2701 8.8009,3.267 8.8009,0.039 0,-3.4703 -27.4983,-31.0825 -51.5663,-51.7798 -25.6017,-22.0161 -84.571,-69.5147 -86.3024,-69.5147 -0.7732,0 -1.4059,1.1298 -1.4059,2.511 z m 38.3005,31.609 c 36.2073,29.0344 64.1779,53.4047 81.4757,70.9885 13.231,13.4498 13.231,13.4498 2.0891,8.4264 -46.1771,-20.8188 -93.3898,-61.7872 -112.3348,-97.4778 -2.4516,-4.6183 -3.5619,-7.7206 -2.4675,-6.8938 1.0945,0.8268 15.1514,12.0573 31.2375,24.9567 z m -78.4643,-23.7263 c -8.6591,16.7464 -19.5532,26.3733 -43.4008,38.3524 -30.824,15.4833 -44.5409,30.4859 -54.1807,59.2589 -27.6037,82.3916 12.243,140.4855 111.6515,162.7809 14.3895,3.2273 18.5859,3.5543 43.6392,3.4 27.7189,-0.1706 27.7189,-0.1706 8.9169,-4.9146 -86.9051,-21.9269 -135.7856,-54.1477 -145.6642,-96.018 -3.8802,-16.446 -0.02,-50.0399 7.9324,-69.0369 7.1412,-17.0586 13.9902,-24.2915 41.3146,-43.63 19.3848,-13.7194 29.2537,-25.943 34.8596,-43.1772 4.604,-14.1539 4.842,-16.0171 2.0442,-16.0113 -1.6197,0 -4.0566,3.0853 -7.1127,8.9958 z m -3.1631,16.3693 c -5.5493,10.9929 -17.6196,23.0292 -34.6667,34.5688 -30.9512,20.9516 -39.9715,36.6616 -45.4545,79.1648 -7.7996,60.4605 28.962,96.9509 127.8801,126.937 18.5483,5.6228 18.5483,5.6228 5.5143,4.8916 -34.9186,-1.9586 -79.9935,-16.0272 -104.3554,-32.571 -44.8113,-30.4308 -58.1975,-71.5467 -41.1016,-126.2454 9.8186,-31.4152 21.1354,-43.7845 58.1246,-63.531 16.998,-9.0742 28.9934,-18.5552 34.2621,-27.0801 4.6777,-7.5686 4.5742,-5.5982 -0.2029,3.8653 z m 143.9223,19.1198 c 2.1834,30.5149 33.5197,59.9396 58.7858,55.1996 5.1966,-0.9748 7.1348,-5.6298 3.004,-7.2148 -1.0774,-0.4135 -9.2614,-9.1376 -18.1865,-19.3869 -15.2458,-17.5077 -26.253,-28.1371 -36.4759,-35.2238 -7.1486,-4.9557 -7.9057,-4.2517 -7.1274,6.6259 z m 13.62,3.7322 c 4.9735,4.308 16.9793,16.686 26.6796,27.5068 17.637,19.674 17.637,19.674 12.9753,20.1007 -20.0713,1.8374 -45.1139,-23.3204 -49.9871,-50.2174 -1.2447,-6.8704 -0.3522,-6.6449 10.3322,2.6099 z m 79.5742,4.8129 c -9.0388,34.2471 -25.5816,74.9654 -43.5242,107.1305 -16.0946,28.8522 -29.6452,48.5415 -61.0484,88.7044 -10.4248,13.3327 -6.4439,13.645 12.8435,1.0077 19.5702,-12.8225 47.134,-40.5141 60.7534,-61.0349 28.4351,-42.8441 44.3177,-95.235 41.3163,-136.2873 -1.6359,-22.3752 -4.3417,-22.2496 -10.3406,0.4796 z m 6.3888,12.7721 c -2.7508,71.7271 -41.639,141.1923 -101.9737,182.1536 -6.9477,4.7169 -6.9477,4.7169 -3.0181,-0.1047 50.0618,-61.4282 86.2449,-130.02 102.6453,-194.5834 1.0215,-4.0216 2.1386,-7.3119 2.4825,-7.3119 0.3438,0 0.2825,8.931 -0.1353,19.8467 z"
               id="path761" /><rect
               id="rect1153"
               width="2618.5972"
               height="3350.4927"
               x="1430.9081"
               y="-4033.0618"
               transform="scale(1,-1)"
               style="stroke-width:4.65991" /><path
               style="fill:#0000ff;stroke-width:1.50524"
               d="m 2892.345,746.08954 c -43.1551,11.6702 -70.7682,38.5362 -82.41,80.1803 -3.1555,11.2879 -3.2872,14.9644 -4.0814,114.0205 -0.5942,74.11386 -1.3134,103.45886 -2.606,106.35146 -7.0918,15.8686 -25.2917,13.7201 -38.7185,-4.5707 -17.0443,-23.219 -18.9453,-33.2695 -18.9453,-100.16136 0,-67.1516 -0.6778,-63.1812 12.5664,-73.606 5.4465,-4.2872 7.339,-15.5178 3.2962,-19.5607 -3.247,-3.247 -117.7201,-3.9324 -120.9285,-0.724 -4.7265,4.7263 -1.2456,18.5587 5.6688,22.527 10.1936,5.8503 9.7862,2.1721 10.2955,92.9463 0.506,90.17086 0.3393,92.08156 -8.5112,97.55096 -16.8648,10.422 -10.0233,22.0924 13.7992,23.5387 15.0631,0.9145 50.5031,7.5397 69.509,12.9942 15.3058,4.3926 14.3046,5.3637 14.3046,-13.8782 v -16.9005 l 4.8921,5.9876 c 35.6895,43.6822 111.7837,39.1767 135.7078,-8.0351 9.0635,-17.8859 8.8835,-15.4721 9.9506,-133.49096 0.8434,-93.2534 1.3278,-109.848 3.4717,-118.9143 12.1639,-51.4391 22.1016,-58.715 28.6668,-20.988 9.5899,55.1098 88.6206,59.7548 88.1838,5.1829 -0.3146,-39.3186 -66.2153,-66.1066 -124.1116,-50.4501 z m 70.4461,3.6553 c 46.2599,12.0498 65.9121,52.9388 35.2822,73.4093 -29.0784,19.4336 -59.4877,2.294 -66.3907,-37.42 -5.3036,-30.5119 -18.6097,-31.1244 -28.9699,-1.3338 -10.098,29.0367 -10.014,27.9229 -11.0606,146.8587 -1.0425,118.48616 -0.6668,113.58086 -10.1367,132.28156 -23.2211,45.8561 -103.9052,46.5548 -130.6633,1.1316 -7.8718,-13.3629 -9.784,-11.1084 -9.784,11.5353 v 19.2607 l -16.934,-4.2565 c -23.1059,-5.808 -46.806,-9.9452 -63.8201,-11.1413 -18.4519,-1.297 -22.3285,-6.8337 -10.3023,-14.7135 10.1246,-6.634 9.7614,-2.976 9.7677,-98.39676 0,-95.5343 0.1525,-94.0143 -9.5846,-99.759 -5.2794,-3.1149 -8.3859,-8.9948 -7.3209,-13.8564 0.5443,-2.4844 4.2104,-2.627 58.0428,-2.2577 l 57.4617,0.394 0.4651,4.8034 c 0.3221,3.3269 -0.4412,5.5706 -2.4836,7.3004 -16.4419,13.9239 -15.7797,10.0907 -14.9426,86.4896 0.6633,60.53336 0.7267,61.00196 11.0155,81.43286 15.7189,31.2137 44.3193,40.5834 54.6784,17.9132 2.103,-4.6025 2.5185,-18.3957 3.2882,-109.13016 0.919,-108.3654 0.7795,-106.1476 7.8161,-124.1825 20.8113,-53.3396 83.7183,-82.2151 144.5756,-66.363 z m -1378.3603,90.4706 c -44.6008,7.8454 -68.7953,71.0821 -31.0815,81.2374 19.4769,5.2445 31.6181,-6.5377 31.7748,-30.8355 0.1798,-27.911 15.4523,-36.6657 26.2591,-15.0524 3.6279,7.256 5.6419,256.32956 2.1069,260.58866 -9.2788,11.1805 -22.7647,-11.2135 -22.0981,-36.6951 0.6378,-24.381 -9.5701,-34.3398 -34.9502,-34.0974 -64.4549,0.6155 -58.7831,83.2842 7.0325,102.5016 11.8156,3.4501 146.464,4.9813 149.0186,1.6947 0.8445,-1.0864 17.6821,-42.7974 37.4171,-92.6909 19.7349,-49.8934 36.335,-90.19626 36.8893,-89.56186 0.5542,0.6345 14.0337,40.77896 29.9545,89.21016 17.6386,53.6569 30.0895,89.2328 31.8716,91.0673 4.2554,4.38 121.2278,5.573 124.3754,1.2684 5.38,-7.3576 0.7676,-19.0565 -8.4968,-21.5512 -7.4726,-2.0122 -12.7022,-6.2086 -15.7554,-12.6428 -3.3799,-7.1226 -3.7698,-241.72666 -0.4153,-249.75566 2.5977,-6.217 12.1005,-14.6042 16.5467,-14.6042 8.4231,0 14.0519,-18.1583 7.0089,-22.6106 -4.31,-2.7244 -146.8976,-1.8746 -149.6642,0.892 -6.2388,6.2388 -2.0164,21.7186 5.9241,21.7186 4.592,0 12.8374,5.8655 16.1012,11.4536 2.5632,4.389 2.704,10.1196 2.3393,95.1989 l -0.3882,90.52886 -38.2427,-107.99846 c -44.8304,-126.6019 -39.2648,-113.2668 -47.2743,-113.2668 -10.812,0 -9.3807,-2.8607 -62.7495,125.4127 l -50.4256,121.19966 -0.8243,-104.11436 c -0.8752,-110.5214 -0.711,-108.1059 -8.3774,-123.2559 -9.7398,-19.2475 -31.0873,-29.2479 -53.8765,-25.2394 z m 27.9521,7.1238 c 14.1615,6.2643 24.3971,19.9683 28.1639,37.7076 1.1641,5.4822 1.6939,41.4081 1.6939,114.8852 0,97.36876 0.2156,106.86496 2.4176,106.42166 1.6467,-0.3314 19.2168,-40.8082 55.0962,-126.92706 28.9731,-69.5422 53.4555,-126.9555 54.4052,-127.5851 9.5131,-6.3068 4.3862,-18.4335 66.5094,157.31496 13.6811,38.7042 25.2646,71.3867 25.7407,72.6279 0.4763,1.2412 1.8096,2.2567 2.9627,2.2567 4.3945,0 2.932,-197.75526 -1.5186,-205.34966 -3.764,-6.4229 -13.2258,-12.9105 -18.829,-12.9105 -4.2291,0 -6.9924,-6.7491 -4.7651,-11.6376 1.5693,-3.4442 1.5693,-3.4442 73.4702,-3.0532 l 71.901,0.3909 0.4791,4.9904 c 0.5864,6.1092 -1.3545,8.6566 -7.537,9.8932 -2.603,0.5205 -6.9913,2.6692 -9.7519,4.7749 -10.0892,7.6953 -9.5319,-0.4041 -9.5319,138.55146 v 125.9967 l 3.9375,5.1623 c 4.6417,6.0857 12.027,10.9134 16.7066,10.9213 4.0068,0 6.8104,4.6624 6.1668,10.2405 l -0.4692,4.065 -57.3263,0.3939 c -69.9055,0.4805 -56.2941,14.6737 -93.2362,-97.2215 -20.4185,-61.846 -30.8592,-91.43846 -32.3628,-91.72646 -1.6379,-0.3138 -11.2559,22.3685 -36.6954,86.53816 -18.9617,47.83 -36.0277,90.5196 -37.9246,94.8659 l -3.4486,7.9027 h -63.3666 c -70.4547,0 -78.3949,-0.7827 -96.355,-9.4967 -48.1006,-23.3382 -42.0355,-87.4352 8.2789,-87.4906 22.8871,-0.025 30.0821,7.8031 30.0997,32.7497 0.022,29.9947 16.1501,50.3504 29.398,37.1025 5.1548,-5.1547 3.9093,-256.17746 -1.3236,-266.80466 -11.4581,-23.269 -32.0523,-15.7407 -33.4788,12.2382 -1.4922,29.2651 -13.7232,40.4936 -32.2697,29.6247 -37.4491,-21.9466 21.7654,-85.5485 62.7629,-67.4134 z m 442.2944,-3.0971 c -54.6983,9.1563 -67.736,35.7922 -67.736,138.3848 0,74.12906 -0.032,74.38746 -9.9859,80.26026 -5.5311,3.2635 -8.0157,11.1276 -5.1861,16.4149 1.8795,3.5117 5.0952,4.196 25.7088,5.4712 18.5043,1.1446 40.6876,4.5935 58.9772,9.1692 8.015,2.0051 15.995,3.6457 17.7337,3.6457 3.1609,0 3.1609,0 3.0337,-92.196 -0.1054,-76.04836 0.2507,-93.42926 2.0306,-99.23716 7.5527,-24.6418 30.0517,-28.6708 40.8715,-7.3191 11.4076,22.5118 9.4033,162.62636 -2.3263,162.62636 -3.2207,0 -8.9325,7.4725 -8.9325,11.6859 0,8.6965 2.2444,9.7645 23.4938,11.1811 21.6219,1.4414 49.8668,5.821 66.4613,10.3052 6.0114,1.6246 12.2079,2.9537 13.77,2.9537 2.7502,0 2.857,-3.2481 3.3789,-102.73276 0.6202,-118.2535 0.09,-113.8849 14.6324,-120.3486 3.8289,-1.7019 7.978,-3.5833 9.2198,-4.181 1.2558,-0.6045 2.469,-3.5895 2.7337,-6.7266 2.1222,-25.1456 -82.2723,-22.8188 -104.6895,2.8863 -3.4181,3.9194 -5.547,5.3727 -6.0107,4.1032 -7.4626,-20.4302 -42.0295,-32.2304 -77.1784,-26.3466 z m 35.0495,3.507 c 17.3318,2.5061 33.0836,13.4077 38.5602,26.6869 1.8417,4.4654 7.6733,7.1631 7.6733,3.5496 0,-8.9999 24.1722,-23.3102 43.8466,-25.9579 39.347,-5.2953 77.8722,7.6749 51.0709,17.1939 -18.4344,6.5473 -18.1317,4.4855 -18.1416,123.5391 l -0.016,100.63816 -4.1394,-1.0652 c -24.8305,-6.3897 -66.9759,-12.8085 -84.1001,-12.8085 -12.1954,0 -15.1785,-8.198 -5.0556,-13.8946 13.8457,-7.792 18.4371,-137.46896 5.8992,-166.61436 -11.6912,-27.1769 -41.5103,-23.7322 -50.1889,5.7979 -2.0825,7.086 -2.4028,20.1994 -2.4028,98.39246 0,90.217 0,90.217 -3.3868,89.2213 -18.6156,-5.4731 -67.0121,-12.8962 -84.1093,-12.9008 -11.4499,0 -14.056,-8.403 -4.309,-13.8879 10.2138,-5.7476 10.4521,-7.6323 10.4889,-82.98476 0.036,-74.4754 0.3416,-77.515 9.5411,-95.0476 15.4414,-29.428 50.8696,-45.3368 88.7617,-39.8577 z m 337.9085,-2.2063 c -49.0134,11.8813 -66.1633,64.7454 -35.1181,108.2514 22.3732,31.3531 51.7589,44.7651 115.6146,52.76786 l 7.1498,0.896 -0.03,12.326 c -0.088,35.9707 -8.4064,51.6357 -27.1893,51.204 -19.7398,-0.4538 -28.5658,-12.0179 -33.6935,-44.1463 -6.4044,-40.12976 -66.3518,-36.81856 -66.0158,3.6463 0.6241,75.1644 157.5539,94.5143 202.2043,24.9325 12.2282,-19.0559 12.5705,-21.5144 13.5103,-97.06726 1.0126,-81.3942 0.397,-78.8948 21.4733,-87.1874 10.5644,-4.1567 6.9393,-16.8052 -6.0218,-21.0102 -42.3772,-13.7491 -92.9744,2.5819 -102.0201,32.9281 l -1.7925,6.0137 -4.1413,-8.2715 c -16.0715,-32.0995 -45.693,-44.5521 -83.9297,-35.2832 z m 46.8903,5.5207 c 16.4247,5.0246 34.9744,27.7671 38.6565,47.3948 0.5112,2.7244 1.8162,4.9535 2.9001,4.9535 1.9407,0 2.658,-2.3081 4.4711,-14.3889 4.2338,-28.2109 44.9673,-45.1647 88.806,-36.9621 16.9093,3.1639 22.4555,12.2083 10.2509,16.7166 -17.8948,6.6104 -18.2871,8.3809 -19.0133,85.8128 -1.03,109.79916 -24.6036,139.91286 -109.5783,139.97856 -71.0777,0.055 -133.8704,-67.1727 -82.2385,-88.0473 24.3381,-9.83966 38.0552,-1.0846 42.4496,27.0939 10.033,64.3327 67.0625,56.5955 67.0625,-9.0983 v -21.3464 l -16.1814,-1.8162 c -50.2382,-5.63876 -78.1336,-17.92666 -101.0666,-44.51936 -48.7147,-56.4892 0.939,-127.9625 73.4814,-105.7716 z m -7.2358,41.2558 c -25.8902,18.1342 9.8232,90.8705 44.6174,90.8705 h 6.5711 l -0.4694,-27.4707 c -0.8052,-47.1191 -27.077,-79.9593 -50.7191,-63.3998 z m 21.6502,4.8459 c 18.3815,11.2894 26.3416,30.7205 26.3416,64.3013 v 18.7702 l -4.1394,-0.9235 c -28.3393,-6.322 -52.0133,-43.6447 -46.4601,-73.2456 2.0832,-11.1045 13.7195,-15.3748 24.2579,-8.9024 z m -239.7811,-49.0625 c -5.3136,6.4024 -2.2922,18.8053 5.5716,22.8719 9.5811,4.9546 9.1764,-0.8772 9.1671,132.08486 -0.016,139.4069 0.9765,129.21 -13.7099,141.7729 -3.4338,2.9374 -3.8778,13.2172 -0.7079,16.3873 1.4235,1.4234 7.2978,2.4298 17.6867,3.0299 21.0539,1.2161 46.7502,5.1308 66.7306,10.1659 9.1051,2.2946 17.0641,3.8571 17.6865,3.4724 0.6225,-0.3848 1.1318,-66.6009 1.1318,-147.1472 0,-160.45606 -0.3892,-153.74436 9.2702,-159.84226 8.4802,-5.3533 11.8147,-16.933 6.4273,-22.3204 -3.1726,-3.1726 -116.6401,-3.6248 -119.254,-0.4753 z m 116.8161,8.1817 c 0.4777,4.9336 0.3564,5.0992 -10.014,13.6908 -7.6282,6.3198 -7.625,6.2533 -7.6958,160.41656 l -0.066,142.7849 -4.1393,-1.0652 c -23.3789,-6.0161 -68.0152,-12.8018 -84.2408,-12.8064 -10.4718,0 -12.0842,-11.0803 -2.0751,-14.2571 9.862,-3.1301 9.8809,-3.3759 10.3754,-135.5165 0.5254,-140.33716 1.1317,-131.40606 -9.6299,-141.82916 -8.0011,-7.7496 -9.0375,-9.8497 -7.2105,-14.611 0.8236,-2.1459 6.8923,-2.3573 57.5756,-2.0045 l 56.6549,0.3942 z"
               id="path1192" /><g
               transform="matrix(0.0290153,0,0,0.0290153,3455.5073,3063.7197)"
               fill="#000000"
               stroke="none"
               id="g43154"
               style="fill:none;stroke:#c00000;stroke-width:100;stroke-dasharray:none;stroke-opacity:0.94509804"><path
                 d="M 3630,12409 C 2662,12354 1883,12027 1280,11421 594,10732 253,9797 253,8610 253,7453 597,6530 1284,5845 c 318,-317 650,-526 1056,-666 619,-214 1359,-213 1965,2 216,77 572,271 738,401 l 37,30 v -309 c 0,-1512 -227,-2625 -669,-3289 -332,-498 -774,-721 -1339,-675 -382,31 -621,170 -622,362 0,92 94,189 364,372 83,56 184,133 224,171 166,157 260,369 280,627 45,571 -255,1026 -791,1204 -251,82 -583,96 -874,35 -520,-108 -913,-467 -1057,-962 -41,-141 -57,-252 -63,-434 -16,-467 101,-857 365,-1214 72,-98 253,-283 367,-375 287,-233 646,-410 1030,-509 463,-118 1024,-145 1575,-75 1292,163 2289,835 3002,2023 490,814 792,1838 902,3056 35,382 41,542 40,1105 0,613 -9,812 -60,1265 -187,1693 -775,2966 -1719,3725 -640,515 -1447,748 -2405,694 z m 607,-924 c 370,-72 602,-356 718,-878 80,-364 117,-750 137,-1441 12,-428 2,-1062 -22,-1401 -66,-918 -205,-1369 -495,-1602 -161,-129 -342,-181 -593,-170 -475,20 -738,299 -862,915 -90,448 -124,956 -124,1842 0,891 35,1414 125,1854 104,513 307,780 659,871 129,34 314,37 457,10 z"
                 id="path43152"
                 style="fill:none;stroke:#c00000;stroke-width:100;stroke-dasharray:none;stroke-opacity:0.94509804" /></g><path
               style="fill:none;stroke-width:1.3917;stroke:#c00000;stroke-opacity:1"
               d="m 1658.8964,2656.658 c -3.7526,1.5873 -3.7972,1.7225 -5.8714,17.7875 -1.7541,13.5869 -3.8353,21.0506 -5.6631,20.3094 -1.4305,-0.5801 -9.1526,-15.1227 -11.8707,-22.3555 -2.5774,-6.8583 -6.3746,-8.7423 -8.8932,-4.4124 -1.8439,3.1699 4.1388,19.4237 15.5008,42.1132 5.7038,11.3901 7.7255,14.1868 11.3045,15.6381 l 4.3585,1.7674 2.7146,-6.7834 c 2.5688,-6.4195 3.9448,-12.5201 4.5035,-19.9722 0.2127,-2.8363 0.6833,-2.3816 3.3402,3.2277 3.6314,7.6668 8.3626,13.1792 12.8859,15.0134 6.1801,2.5061 15.6413,-5.12 25.1008,-20.2323 1.5463,-2.4704 3.3521,-4.2722 4.0128,-4.0044 0.6608,0.268 2.9345,4.231 5.0527,8.8067 2.118,4.5759 4.6796,8.6557 5.6923,9.0664 1.0127,0.4106 3.8668,5.6984 6.3426,11.7505 2.4757,6.0522 7.6207,17.2617 11.4331,24.9101 5.7001,11.4353 7.7061,14.22 11.2902,15.6735 l 4.3585,1.7673 2.7145,-6.7835 c 2.5689,-6.4193 3.9449,-12.5201 4.5037,-19.9722 0.2127,-2.8363 0.6832,-2.3816 3.34,3.2277 3.6315,7.667 8.3627,13.1792 12.886,15.0134 6.1801,2.5062 15.6413,-5.1199 25.1007,-20.2323 1.5463,-2.4703 3.3521,-4.2722 4.013,-4.0042 0.6607,0.2679 2.9044,4.132 4.9859,8.587 2.0815,4.4548 4.8345,8.9567 6.1177,10.0038 1.2832,1.0473 4.6597,8.2457 7.5031,15.9964 5.5242,15.0582 8.2314,18.2673 15.3643,18.2141 4.7247,-0.035 5.5548,-0.8823 11.4121,-11.6443 6.2352,-11.4563 13.5089,-17.2761 18.8734,-15.1008 0.7864,0.3189 3.1629,4.3236 5.281,8.8994 2.1181,4.5758 4.767,8.6911 5.8866,9.145 3.3427,1.3556 4.4049,9.7174 2.227,17.5323 -3.5735,12.8223 -3.5638,12.9108 1.8666,17.1101 8.7469,6.7638 8.9527,6.6424 15.776,-9.3149 4.2168,-9.8617 7.0638,-14.9358 9.5053,-16.9413 l 3.4855,-2.863 1.828,5.6242 c 2.071,6.3717 3.6499,23.1931 2.9957,31.9164 -0.4889,6.5206 0.329,8.3367 4.5387,10.0772 5.1288,2.1201 6.6896,-5.6777 5.0288,-25.1237 -1.6587,-19.4211 -8.0881,-39.1682 -13.4623,-41.3474 -4.164,-1.6885 -10.6845,1.5048 -16.5499,8.105 -5.1637,5.8106 -7.1238,6.5333 -7.0497,2.5991 0.023,-1.2295 -0.8261,-2.5877 -1.8874,-3.018 -1.0612,-0.4303 -3.7424,-4.5047 -5.9584,-9.0541 -6.7695,-13.8988 -18.3842,-24.3973 -26.0836,-23.5768 -4.063,0.4329 -12.6651,7.7058 -19.7868,16.7291 l -5.2263,6.6218 -4.0034,-9.3022 c -2.2018,-5.1164 -4.6206,-9.5527 -5.375,-9.8587 -0.7545,-0.3058 -1.971,-2.2531 -2.7035,-4.327 -2.1457,-6.0753 -9.5366,-15.654 -13.2363,-17.1543 -4.2919,-1.7404 -7.648,-0.1063 -15.5587,7.5754 -13.3426,12.9562 -19.5695,7.1766 -25.0928,-23.29 -1.5044,-8.2979 -3.3152,-10.5483 -9.1463,-11.366 -5.1188,-0.7179 -6.7636,2.622 -8.7617,17.7918 -1.8485,14.0339 -3.9171,21.4985 -5.7515,20.7546 -1.4171,-0.5746 -9.1417,-15.0938 -11.8173,-22.2119 -1.2457,-3.3137 -3.1122,-6.3685 -4.1479,-6.7885 -1.0357,-0.42 -2.4825,-2.4605 -3.2149,-4.5344 -2.1457,-6.0754 -9.5366,-15.6541 -13.2363,-17.1544 -4.292,-1.7403 -7.648,-0.1063 -15.5588,7.5754 -13.3442,12.9578 -19.5989,7.147 -25.0871,-23.3064 -1.176,-6.5259 -2.2109,-8.4942 -5.3221,-10.1236 -2.3422,-1.2267 -5.0219,-1.5322 -6.8086,-0.7764 z m 9.2847,17.2508 c 2.8072,16.1491 6.3041,22.8341 13.4625,25.737 6.5435,2.6533 8.4323,1.9379 18.6697,-7.0717 4.9307,-4.3394 8.0607,-6.1174 9.6408,-5.4767 2.915,1.1821 11.1333,13.0134 11.8371,17.0411 0.2872,1.6436 1.6611,3.5286 3.0532,4.1889 2.3161,1.0987 2.3056,1.1702 -0.1247,0.8436 -1.7701,-0.2382 -3.7466,-2.8696 -5.926,-7.8905 -2.0888,-4.812 -4.5668,-8.1743 -6.8598,-9.3075 -3.5127,-1.736 -3.7534,-1.5532 -11.2458,8.5438 -14.8463,20.0073 -20.3224,19.7371 -29.597,-1.4599 -7.3437,-16.7837 -7.5058,-16.711 -10.4519,4.6879 -2.0099,14.5995 -3.645,20.4461 -5.5068,19.6911 -2.3408,-0.9491 -8.5562,-12.6269 -16.3901,-30.7942 -4.4981,-10.4309 -6.8345,-16.3248 -5.1921,-13.0977 5.841,11.4774 11.8295,20.4142 14.3699,21.4443 2.3877,0.9682 2.7595,0.4271 5.0444,-7.3405 1.3568,-4.6123 3.224,-14.0208 4.1495,-20.908 1.4161,-10.5378 2.0404,-12.583 3.9398,-12.9057 3.7742,-0.6415 4.9851,1.7494 7.1275,14.0747 z m 96.7274,39.2233 c 2.8072,16.1492 6.304,22.8342 13.4626,25.737 6.5433,2.6534 8.4321,1.9379 18.6696,-7.0717 8.6551,-7.617 10.3221,-7.3561 16.5771,2.5936 2.4398,3.881 5.985,9.346 7.8782,12.1444 4.531,6.6974 4.8534,9.1897 0.5816,4.4948 -1.8665,-2.0514 -4.8411,-6.954 -6.6102,-10.8948 -1.9935,-4.4406 -4.5816,-7.8396 -6.8063,-8.9391 -3.5128,-1.7359 -3.7535,-1.5532 -11.2459,8.5438 -14.8462,20.0073 -20.3224,19.7371 -29.597,-1.46 -7.3436,-16.7835 -7.5058,-16.7108 -10.4519,4.6881 -2.0099,14.5995 -3.6449,20.446 -5.5067,19.691 -2.3409,-0.9491 -8.5563,-12.6267 -16.3903,-30.7942 -4.4979,-10.4309 -6.8343,-16.3247 -5.1919,-13.0976 5.8409,11.4774 11.8295,20.4141 14.3698,21.4443 2.3877,0.9681 2.7596,0.4271 5.0445,-7.3406 1.3567,-4.6122 3.224,-14.0208 4.1494,-20.9079 1.4161,-10.5378 2.0405,-12.583 3.9398,-12.9057 3.7743,-0.6414 4.985,1.7494 7.1276,14.0746 z m 107.4025,38.9487 c 2.8527,3.1494 6.6441,8.7985 8.4254,12.5533 l 3.2387,6.8272 -4.1173,-6.3157 c -5.8057,-8.9057 -12.3695,-11.4829 -18.2406,-7.1621 -5.0401,3.7092 -8.8273,8.6207 -14.1136,18.3037 -3.3151,6.0722 -4.331,7.0024 -7.2065,6.5992 -4.4226,-0.6203 -5.5069,-2.2225 -9.9337,-14.6745 -2.0587,-5.7905 -2.6429,-8.2238 -1.2984,-5.4072 1.3444,2.8165 2.9935,5.3423 3.6647,5.6127 0.6704,0.2719 5.0113,-4.0894 9.6449,-9.6881 13.8721,-16.7619 19.6195,-18.0382 29.9364,-6.6485 z m 47.9982,27.1662 c 3.9823,11.1604 7.4857,36.5213 6.0352,43.688 -1.3911,6.8728 -2.6621,2.9684 -2.0055,-6.16 0.777,-10.8003 -2.5011,-30.7094 -5.6866,-34.5363 -2.5402,-3.0519 -2.9996,-3.1528 -6.2304,-1.3672 -4.247,2.3472 -13.0932,16.3692 -16.0914,25.5059 l -2.196,6.6923 -3.5181,-2.3188 c -4.8772,-3.2144 -4.9762,-3.8327 -2.3187,-14.4813 1.4637,-5.8653 1.8774,-11.3649 1.0939,-14.5414 -1.2108,-4.9096 -1.1916,-4.9725 0.4949,-1.615 2.4571,4.8924 4.3755,4.5338 10.0423,-1.8773 6.5494,-7.4099 11.7207,-10.8519 14.5685,-9.6972 1.2803,0.5192 3.8957,5.338 5.8119,10.7083 z m -346.3563,-154.432 c -0.6945,0.7508 -3.2126,10.0356 -5.5956,20.6328 -4.1388,18.4047 -4.4451,19.2438 -6.8393,18.7314 -1.9836,-0.4245 -2.997,0.6731 -4.8578,5.2623 -2.7852,6.8684 -2.5747,11.5178 0.5793,12.7967 1.8886,0.7659 1.7668,3.0555 -0.7046,13.236 -1.6435,6.7705 -3.2562,16.725 -3.5837,22.1213 -0.3275,5.3963 -1.1648,10.4185 -1.857,11.1611 -1.904,2.0371 7.6098,11.397 13.4282,13.2112 3.7917,1.1821 5.2426,0.9554 6.3793,-0.9971 0.9909,-1.7022 4.0755,-2.6579 9.4467,-2.9273 7.6946,-0.3858 8.1292,-0.6285 12.3396,-6.89 2.4003,-3.5694 5.9835,-10.3226 7.9627,-15.007 2.6638,-6.305 4.1791,-8.5061 5.8341,-8.4751 2.812,0.053 4.763,-4.488 2.9334,-6.8278 -1.0685,-1.3668 0.5698,-6.8636 7.3537,-24.6723 9.1267,-23.9588 9.6602,-27.4476 4.5168,-29.5333 -2.0298,-0.8231 -2.8222,0.01 -4.8993,5.1468 -2.6303,6.5065 -18.7081,38.2113 -19.656,38.7615 -0.3084,0.179 -5.1408,-3.4002 -10.7388,-7.9539 l -10.1782,-8.2794 1.8513,-10.6677 c 4.8755,-28.0939 5.4337,-33.1985 3.9013,-35.6747 -2.0411,-3.298 -5.9761,-4.9283 -7.6161,-3.1556 z m 4.9687,7.0964 c -0.025,1.3393 -1.6722,11.6532 -3.66,22.9197 l -3.6141,20.4846 10.5406,9.0671 c 5.7973,4.9869 11.7562,9.5995 13.2419,10.2504 3.3119,1.4508 5.2487,-1.6093 16.8173,-26.5708 11.705,-25.2553 12.158,-19.8583 0.8264,9.8428 -4.9019,12.848 -8.3919,23.5711 -7.7557,23.8291 0.6586,0.2671 0.2372,1.2282 -0.9783,2.2313 -1.1744,0.9693 -5.1222,7.3892 -8.7729,14.2666 -3.6507,6.8773 -7.357,13.2739 -8.2361,14.2144 -0.8791,0.9407 -5.2703,1.7384 -9.7581,1.7729 -6.5528,0.051 -8.3981,0.6509 -9.3707,3.0496 -1.4372,3.544 -3.034,3.0483 -8.4635,-2.6273 -3.6649,-3.831 -3.9857,-5.2325 -3.3312,-14.5538 0.3983,-5.6729 1.912,-15.1934 3.3637,-21.1565 4.0566,-16.6633 4.068,-16.8953 0.9447,-19.1781 -1.5833,-1.1571 -2.6981,-2.5487 -2.4776,-3.0924 0.2205,-0.5438 0.766,-2.9091 1.2121,-5.2562 0.7156,-3.7645 1.0829,-4.0648 3.1162,-2.5477 1.2678,0.9459 2.7809,1.3471 3.3624,0.8915 0.5815,-0.4557 2.8959,-9.2062 5.1428,-19.4457 2.247,-10.2394 4.3443,-19.357 4.6605,-20.2612 0.8376,-2.3942 3.2434,-0.984 3.1896,1.8697 z m -9.3117,53.7402 c -1.0363,2.5557 -3.4245,27.5559 -3.2894,34.4343 0.1421,7.2311 1.2521,8.128 8.5754,6.9288 6.0349,-0.9882 9.7213,-5.1912 16.6739,-19.0108 l 4.7772,-9.4956 -4.0588,-2.5367 c -10.527,-6.5793 -22.0659,-11.8303 -22.6783,-10.32 z m 16.4251,10.7544 6.5529,3.6205 -3.2732,5.5807 c -8.1151,13.8357 -10.7389,16.8203 -15.1437,17.2268 l -4.2887,0.3958 0.5072,-9.0917 c 0.2788,-5.0004 0.8761,-12.4898 1.3272,-16.6432 l 0.8199,-7.5518 3.4725,1.4216 c 1.9098,0.7822 6.4214,3.0504 10.0255,5.0416 z m 433.4294,108.1897 c -2.4583,1.0398 -4.4327,8.7292 -5.0682,19.739 -0.6155,10.6625 -3.235,17.9424 -6.046,16.8025 -0.588,-0.2385 -3.6027,-6.5216 -6.6991,-13.9623 -3.0965,-7.441 -6.4329,-13.8622 -7.4142,-14.2698 -0.9815,-0.4072 -3.3912,-4.1469 -5.3552,-8.3096 -8.6785,-18.394 -25.202,-26.1849 -36.993,-17.4424 -2.3055,1.7095 -4.5732,4.0423 -5.0393,5.1842 -0.6197,1.516 -1.6456,1.5599 -3.807,0.1619 -3.7828,-2.4467 -6.5435,0.2423 -5.9516,5.7969 0.6785,6.3685 14.7698,33.0957 21.4722,40.7274 3.3395,3.8024 7.6301,7.5454 9.5348,8.3178 4.0916,1.6591 9.1772,-0.4283 10.8014,-4.4334 1.5254,-3.7619 0.606,-13.3939 -1.7606,-18.4446 -2.1706,-4.6323 -10.6732,-14.6094 -15.3627,-18.0268 -2.0178,-1.4705 -2.8387,-3.1842 -2.2366,-4.6692 1.2092,-2.982 9.03,-5.295 12.7723,-3.7775 2.988,1.2117 8.981,9.9158 11.2662,16.3628 0.7339,2.0705 2.0606,4.0589 2.9483,4.4189 2.8161,1.1419 11.4546,25.9688 9.3461,26.8606 -3.6124,1.528 -3.6996,5.3851 -0.2389,10.5681 4.5825,6.8633 9.2134,8.5927 16.2547,6.0705 5.1779,-1.8547 6.0298,-2.7941 9.8376,-10.8473 3.8165,-8.0715 4.6032,-11.6169 6.2855,-28.3279 0.2532,-2.5187 0.4085,-2.4626 3.6751,1.3308 1.8758,2.1783 4.4676,6.6563 5.7595,9.9513 1.2918,3.2949 3.5381,7.0955 4.9916,8.4458 3.0062,2.7924 10.2729,25.6336 11.0664,34.7848 0.4252,4.903 1.2331,6.3673 4.1704,7.5583 6.5313,2.6485 10.1477,-0.4538 15.2785,-13.1067 2.4872,-6.1335 4.7431,-13.0715 5.013,-15.4175 0.4743,-4.1249 0.542,-4.1595 2.045,-1.048 0.8548,1.7697 2.1201,3.4471 2.8118,3.7276 0.6916,0.2804 2.4132,3.403 3.8258,6.939 9.7617,24.4354 30.357,48.0244 39.4178,45.1472 4.6773,-1.4853 4.7935,-5.2071 0.2808,-8.9954 -6.7571,-5.6723 -13.2445,-13.6082 -18.075,-22.1105 -5.2245,-9.1959 -7.7735,-22.0808 -4.6312,-23.4099 4.3114,-1.8235 10.644,8.7381 15.93,26.5684 3.4607,11.6736 6.345,15.5012 12.014,15.9438 4.5707,0.3568 7.0235,-4.292 7.6299,-14.4611 0.9765,-16.374 3.4369,-17.8743 9.3622,-5.7089 2.2536,4.6269 4.9336,8.7516 5.9557,9.1661 1.022,0.4145 4.3484,7.5075 7.392,15.7623 5.8873,15.9674 8.5167,19.1675 15.7055,19.1139 4.7247,-0.035 5.5549,-0.8822 11.4122,-11.6443 6.2351,-11.4563 13.5088,-17.2761 18.8734,-15.1007 0.7864,0.3189 3.1628,4.3235 5.2809,8.8992 2.1181,4.5759 4.7552,8.6864 5.8602,9.1344 3.0553,1.239 11.216,24.2493 8.9413,25.2114 -3.5926,1.5195 -3.6728,5.3865 -0.2187,10.5595 4.5825,6.8633 9.2135,8.5928 16.2546,6.0705 5.1779,-1.8548 6.0298,-2.794 9.8377,-10.8472 3.8166,-8.0715 4.6032,-11.617 6.2854,-28.328 0.2536,-2.5163 0.4095,-2.4604 3.6315,1.301 1.8516,2.1617 4.7004,7.1277 6.3303,11.0357 1.6849,4.0395 3.861,7.1222 5.0431,7.1446 1.1437,0.022 1.8679,0.5608 1.6094,1.1984 -0.2586,0.6376 2.9907,8.0404 7.2205,16.4508 7.9786,15.864 17.3157,28.097 23.2971,30.5225 4.0915,1.6591 9.1772,-0.4282 10.8013,-4.4333 1.5254,-3.762 0.606,-13.394 -1.7606,-18.4447 -2.1706,-4.6323 -10.6732,-14.6094 -15.3627,-18.0268 -4.104,-2.9907 -2.7147,-6.602 3.1969,-8.3101 7.7269,-2.2326 11.4694,0.7809 17.5527,14.1331 5.7297,12.5762 12.4415,6.8259 7.1456,-6.1219 -5.6632,-13.8462 -18.0876,-23.523 -28.9186,-22.5236 -4.9407,0.4559 -12.4651,5.2004 -13.9267,8.7814 -1.3672,3.3493 -5.5778,-0.5952 -9.6085,-9.0009 -4.6567,-9.7111 -13.393,-18.9049 -19.894,-20.936 -4.6136,-1.4414 -5.2085,-1.2335 -7.1586,2.5022 -1.1699,2.241 -2.4286,9.2975 -2.797,15.6811 -0.6309,10.9275 -3.2248,18.2389 -6.0625,17.0882 -0.5881,-0.2384 -3.6027,-6.5215 -6.6992,-13.9624 -3.0964,-7.4408 -6.4087,-13.8524 -7.3605,-14.248 -0.9519,-0.3951 -3.4067,-4.0704 -5.4552,-8.1663 -6.5892,-13.1743 -18.1805,-23.3902 -25.638,-22.5955 -4.0629,0.433 -12.6652,7.7058 -19.7868,16.7291 l -5.2263,6.6218 -4.0034,-9.3022 c -2.2018,-5.1164 -4.8922,-9.6628 -5.9784,-10.1032 -1.0864,-0.4406 -2.9522,-3.2865 -4.1464,-6.3243 -2.7491,-6.9938 -8.6304,-13.8745 -13.5718,-15.8783 -4.5174,-1.8318 -11.2332,1.3613 -13.2323,6.2913 -1.2662,3.1225 -1.4051,2.9994 -4.8456,-4.2927 -4.6482,-9.852 -8.7375,-14.4557 -16.4733,-18.5455 -5.3272,-2.8166 -7.1401,-3.129 -11.2264,-1.9345 -4.2384,1.239 -5.0482,2.1048 -6.2172,6.6472 -0.7394,2.8725 -1.7366,5.0636 -2.216,4.8692 -0.4795,-0.1945 -3.2275,-5.7015 -6.1066,-12.2377 -3.4408,-7.8118 -6.2776,-12.3071 -8.2783,-13.1184 -4.2056,-1.7053 -11.0137,1.7479 -13.3322,6.7625 -1.6809,3.6354 -1.4715,4.4954 1.7106,7.0228 4.1933,3.3308 4.3056,4.5399 1.3788,14.8525 l -2.1651,7.6294 -5.7433,-13.2168 c -3.1588,-7.2692 -6.2451,-13.4202 -6.8583,-13.6689 -0.6134,-0.2487 -2.7206,-3.8548 -4.6827,-8.0136 -1.9622,-4.1587 -6.0131,-10.1874 -9.0022,-13.3971 -5.1714,-5.5533 -13.2757,-10.1977 -15.8756,-9.098 z m 14.1684,13.6189 c 3.2216,3.7095 7.0125,9.6393 8.4242,13.1775 1.4117,3.538 3.2335,6.7034 4.0485,7.0338 0.8148,0.3304 2.0577,2.355 2.7617,4.4989 1.2788,3.8942 1.2785,3.8947 -0.4855,0.554 -0.9712,-1.8393 -2.337,-3.5758 -3.035,-3.8589 -0.6982,-0.2831 -2.2381,-3.0203 -3.4223,-6.0828 -2.0602,-5.329 -10.8107,-16.1627 -14.1845,-17.5615 -2.3012,-0.9544 -3.2217,2.2566 -4.6045,16.0622 -0.6717,6.706 -1.9403,13.9633 -2.8191,16.1273 -1.8538,4.5592 -8.531,10.7508 -12.256,11.3599 -2.9284,0.4788 -7.3294,-2.4909 -9.6932,-6.5404 -1.3483,-2.3101 -1.1827,-3.0658 1.0229,-4.6647 2.2794,-1.6527 2.349,-2.8997 0.5198,-9.3131 l -2.1119,-7.4048 3.1612,6.1626 c 7.5885,14.7934 16.1879,6.6721 17.5221,-16.5476 0.3408,-5.9328 0.8138,-11.2658 1.0511,-11.8509 0.9393,-2.3163 8.5545,2.4624 14.1005,8.8485 z m 43.348,19.3425 c 1.2615,3.7456 1.6458,6.5475 0.8542,6.2265 -2.0047,-0.8129 -3.3507,3.1075 -3.6767,10.7098 -0.324,7.5545 -6.9909,24.8456 -10.2557,26.5989 -2.9177,1.5668 -7.2747,-0.2542 -6.3086,-2.6365 0.4162,-1.0265 -0.5904,-6.8768 -2.2369,-13.0008 -1.6466,-6.1241 -2.8642,-11.4541 -2.7058,-11.8448 0.1584,-0.3905 1.609,1.923 3.2236,5.1412 4.9197,9.8057 6.4174,9.312 10.8752,-3.5845 4.1389,-11.9736 3.9346,-15.7846 -0.9517,-17.7661 -3.5489,-1.4391 -3.0598,-3.6778 1.4398,-6.5908 4.4854,-2.9038 7.1029,-1.091 9.7426,6.7471 z m 131.9417,51.0211 c 2.8527,3.1494 6.6441,8.7984 8.4254,12.5533 l 3.2387,6.8272 -4.1174,-6.3158 c -5.8056,-8.9056 -12.3694,-11.4828 -18.2406,-7.162 -5.04,3.7092 -8.8271,8.6207 -14.1135,18.3036 -3.3151,6.0723 -4.331,7.0025 -7.2066,6.5992 -4.4225,-0.6202 -5.5067,-2.2224 -9.9337,-14.6744 -2.0585,-5.7905 -2.6428,-8.2238 -1.2983,-5.4072 1.3444,2.8166 2.9935,5.3423 3.6647,5.6126 0.6705,0.2719 5.0114,-4.0893 9.6449,-9.688 13.8721,-16.7619 19.6195,-18.0383 29.9364,-6.6485 z m 56.8562,23.7724 c 3.2215,3.7096 6.9848,9.7973 8.3628,13.5281 l 2.5054,6.7836 -2.8438,-5.949 c -2.7593,-5.7721 -10.6754,-15.2017 -13.9237,-16.5859 -2.2929,-0.9772 -3.2155,2.2426 -4.5981,16.0465 -0.6718,6.706 -1.9403,13.9633 -2.8192,16.1273 -1.8537,4.5592 -8.5309,10.7509 -12.2559,11.3599 -2.9284,0.4788 -7.3295,-2.4908 -9.6931,-6.5405 -1.3484,-2.31 -1.1827,-3.0657 1.0227,-4.6646 2.2795,-1.6526 2.3491,-2.8996 0.52,-9.313 l -2.1121,-7.4049 3.1613,6.1627 c 7.5884,14.7933 16.1878,6.672 17.522,-16.5476 0.3409,-5.933 0.8139,-11.2659 1.0512,-11.851 0.9392,-2.3163 8.5544,2.4623 14.1005,8.8484 z m -287.6632,-117.081 c 1.9575,2.1333 3.6798,4.5885 3.8272,5.4563 0.1487,0.8746 -0.6568,0.4666 -1.8069,-0.9154 -1.1413,-1.3711 -4.7249,-3.5674 -7.9636,-4.8807 -7.6116,-3.0865 -12.3348,-1.3044 -15.1874,5.7304 -1.7586,4.3366 -1.621,5.438 0.9731,7.7849 2.7409,2.4798 2.7482,2.6337 0.078,1.6585 -4.905,-1.7913 -4.9681,2.5246 -0.2019,13.793 4.0631,9.6058 4.9885,10.7932 9.9932,12.8227 5.3121,2.1541 5.5434,2.0966 6.2705,-1.5586 0.7176,-3.6077 0.796,-3.6316 1.5867,-0.4844 0.4574,1.8211 0.073,4.6936 -0.8532,6.3835 -2.1543,3.928 -7.5495,2.6712 -12.3165,-2.869 -7.2374,-8.411 -21.2544,-36.2729 -17.4784,-34.7416 1.0051,0.4076 2.4866,-1.6768 4.2066,-5.9187 2.2373,-5.5173 3.4889,-6.9004 7.9537,-8.7888 4.3455,-1.838 6.3834,-1.8013 11.329,0.2041 3.3167,1.3449 7.632,4.1907 9.5896,6.3238 z m 136.8277,57.0566 c 2.7103,3.3031 5.9683,9.3549 7.2401,13.4482 3.1294,10.0728 6.3163,11.3002 9.3096,3.5859 2.6576,-6.8493 5.8626,-8.9498 10.6774,-6.9974 3.5501,1.4396 9.4666,9.6893 11.927,16.6307 0.7339,2.0705 2.3152,4.1623 3.514,4.6484 1.1987,0.4861 2.7597,2.4714 3.4688,4.412 1.2821,3.5089 1.27,3.5067 -2.2351,-0.3953 -1.9383,-2.1579 -5.074,-7.1472 -6.9683,-11.0872 -2.3981,-4.9885 -4.6277,-7.6438 -7.3418,-8.7444 -3.8211,-1.5495 -3.9499,-1.4526 -6.5297,4.9093 -1.4475,3.5694 -2.6059,8.9264 -2.5746,11.9044 0.087,8.2766 -1.7954,11.8053 -5.4975,10.3041 -2.1974,-0.8911 -3.8087,-3.9027 -5.6808,-10.6184 -1.4373,-5.1559 -4.5971,-13.533 -7.0216,-18.6159 -3.893,-8.1611 -5.0746,-9.5115 -10.108,-11.5526 l -5.6997,-2.3113 -2.0134,4.9653 c -4.4944,11.0835 4.2157,28.8559 23.8323,48.6284 2.5616,2.582 2.4825,2.6162 -2.0334,0.8826 -7.4986,-2.8785 -17.9547,-16.0839 -26.9357,-34.0182 -4.4395,-8.865 -8.5539,-16.3138 -9.1432,-16.5527 -0.5894,-0.239 -2.0113,-3.0119 -3.1598,-6.162 l -2.0883,-5.7276 2.4682,5.0236 c 1.3574,2.763 3.9629,6.1082 5.7898,7.4338 l 3.3216,2.4102 1.7855,-7.0344 c 1.2232,-4.8192 2.5234,-7.4308 4.1284,-8.2928 3.7537,-2.0158 12.0502,2.1982 17.5682,8.9233 z m 202.3632,80.4868 c 1.9575,2.1332 3.6798,4.5885 3.8272,5.4562 0.1487,0.8746 -0.6567,0.4666 -1.807,-0.9153 -1.1413,-1.3712 -4.7248,-3.5675 -7.9635,-4.8808 -7.6115,-3.0866 -12.3348,-1.3044 -15.1874,5.7304 -1.7586,4.3367 -1.6209,5.4381 0.9731,7.7849 2.7409,2.4798 2.7482,2.6337 0.078,1.6586 -4.9049,-1.7913 -4.968,2.5246 -0.2017,13.7929 4.0629,9.6059 4.9884,10.7932 9.9931,12.8227 5.3121,2.1541 5.5434,2.0966 6.2705,-1.5586 0.7176,-3.6077 0.796,-3.6316 1.5867,-0.4843 0.4575,1.821 0.073,4.6935 -0.8533,6.3834 -2.1541,3.928 -7.5494,2.6713 -12.3165,-2.869 -7.2372,-8.411 -21.2543,-36.2727 -17.4782,-34.7416 1.005,0.4076 2.4865,-1.6768 4.2065,-5.9186 2.2373,-5.5174 3.4889,-6.9004 7.9537,-8.7889 4.3455,-1.838 6.3834,-1.8013 11.329,0.2042 3.3167,1.3449 7.6319,4.1906 9.5896,6.3238 z m -331.1173,-124.3151 2.0882,5.7275 -2.6555,-5.4876 c -2.4752,-5.1152 -2.921,-6.5351 -1.9246,-6.1311 0.2219,0.09 1.3433,2.741 2.4919,5.8912 z m 339.1909,137.5433 2.0883,5.7275 -2.6556,-5.4875 c -1.4605,-3.0182 -2.5819,-5.6693 -2.4918,-5.8913 0.404,-0.9963 1.1125,0.3124 3.0591,5.6513 z m -330.6801,-125.0816 c 1.2696,3.8662 1.2661,3.8722 -0.438,0.7284 -0.945,-1.7434 -2.7643,-3.9233 -4.0428,-4.8441 -2.2357,-1.6104 -2.2189,-1.6382 0.438,-0.7283 1.5194,0.5203 3.3387,2.7002 4.0428,4.844 z m 232.1458,94.1362 c 1.2698,3.8667 1.2664,3.8724 -0.4317,0.7128 -0.9415,-1.7519 -3.0557,-4.0378 -4.6981,-5.0796 l -2.9863,-1.8942 3.418,1.1814 c 2.0859,0.7211 3.9169,2.7006 4.6981,5.0796 z m -257.2012,-84.8914 c 0.462,2.0111 0.4937,3.8031 0.071,3.982 -1.2949,0.5477 -7.0218,-8.0709 -9.3539,-14.0771 l -2.2037,-5.6758 5.3235,6.0572 c 2.928,3.3313 5.7015,7.7026 6.1634,9.7137 z m 339.1909,137.5433 c 0.462,2.0112 0.4937,3.8031 0.071,3.982 -1.2949,0.5477 -7.0218,-8.0708 -9.3538,-14.0771 l -2.2037,-5.6758 5.3235,6.0571 c 2.928,3.3314 5.7015,7.7027 6.1634,9.7138 z m -334.8335,-140.5389 c 0.7086,1.9393 0.9982,3.4083 0.6435,3.2645 -0.3546,-0.1438 -1.2246,-1.8482 -1.9332,-3.7875 -0.7086,-1.9393 -0.9982,-3.4083 -0.6435,-3.2645 0.3547,0.1439 1.2246,1.8482 1.9332,3.7875 z m 339.1909,137.5433 c 0.7086,1.9394 0.9982,3.4083 0.6435,3.2645 -0.3546,-0.1438 -1.2246,-1.8481 -1.9332,-3.7874 -0.7086,-1.9393 -0.9982,-3.4084 -0.6435,-3.2645 0.3547,0.1438 1.2246,1.8482 1.9332,3.7874 z m -489.819,-154.738 c -4.2668,2.7623 -5.3459,5.9254 -4.2405,12.4302 1.0977,6.4599 3.2563,9.363 8.5611,11.5141 4.7357,1.9203 7.7477,-0.2155 10.7518,-7.6238 2.9318,-7.2298 0.3736,-13.3948 -6.7581,-16.2868 -3.8539,-1.5628 -5.9394,-1.5713 -8.3143,-0.034 z m 11.6181,8.3506 c 2.039,5.3816 0.6725,10.0408 -3.4571,11.7875 -4.0122,1.697 -4.7009,1.133 -7.1305,-5.84 -2.2806,-6.545 -1.7038,-10.1446 1.8674,-11.6552 3.5122,-1.4856 6.8135,0.6753 8.7202,5.7077 z m 324.9934,128.1467 c -4.2668,2.7624 -5.346,5.9254 -4.2405,12.4302 1.0978,6.4599 3.2564,9.3631 8.5611,11.5141 4.7357,1.9204 7.7478,-0.2154 10.7519,-7.6237 2.9317,-7.2298 0.3735,-13.3949 -6.7582,-16.2869 -3.8539,-1.5627 -5.9394,-1.5713 -8.3143,-0.033 z m 11.6181,8.3507 c 2.039,5.3816 0.6725,10.0408 -3.4572,11.7874 -4.0121,1.6971 -4.7007,1.1332 -7.1304,-5.8399 -2.2806,-6.5451 -1.7039,-10.1446 1.8674,-11.6551 3.5122,-1.4857 6.8135,0.6752 8.7202,5.7076 z M 1853.5589,2889.8 c -4.8855,2.0665 -5.5945,11.8497 -2.4371,33.6271 1.6841,11.6149 0.9465,27.8361 -1.3091,28.7902 -0.5575,0.2359 -0.7591,-0.1991 -0.4479,-0.9665 0.912,-2.2493 -10.098,-19.4901 -13.2673,-20.7752 -4.2365,-1.718 -9.0958,1.2437 -12.5861,7.6711 l -3.0662,5.6464 -1.7638,-3.832 c -1.9906,-4.3248 -6.1718,-5.2234 -7.6254,-1.6388 -0.5099,1.2574 0.3099,6.6702 1.8218,12.0285 1.512,5.3581 2.5414,12.9528 2.2877,16.877 -0.4599,7.1137 -0.4444,7.1415 5.2792,9.4624 6.9119,2.8027 8.7874,1.3963 8.8245,-6.6178 0.051,-11.1017 4.7113,-23.9358 8.18,-22.5293 4.802,1.9473 10.6466,27.2549 8.8967,38.5238 -0.6134,3.95 2.3264,6.3333 7.9425,6.4391 3.3312,0.063 4.2514,-3.0749 7.0023,-23.8794 l 2.431,-18.3847 3.4444,9.1285 c 1.8944,5.0207 4.114,9.4002 4.9324,9.732 0.8183,0.3319 5.1032,7.8437 9.5218,16.6929 8.254,16.5303 17.5416,28.8221 23.6492,31.2987 4.0915,1.6592 9.1771,-0.4281 10.8012,-4.4332 1.5255,-3.762 0.6062,-13.3941 -1.7604,-18.4447 -2.1707,-4.6323 -10.6734,-14.6093 -15.3628,-18.0268 -4.104,-2.9907 -2.7147,-6.6021 3.1968,-8.3101 8.0247,-2.3186 10.6115,0.01 19.5747,17.5901 5.3534,10.5025 6.535,17.7605 4.9733,30.5503 l -1.0484,8.5855 6.4757,2.2296 c 3.5616,1.2262 7.1719,1.9351 8.0227,1.5751 0.8544,-0.3614 1.8281,-4.7753 2.1744,-9.8578 0.7866,-11.5427 5.1583,-23.0655 8.7254,-22.9982 3.1983,0.06 6.9971,11.1761 6.854,20.0554 -0.098,6.0748 0.1523,6.4968 4.69,7.9088 l 4.7934,1.4916 3.7293,-8.2493 c 2.051,-4.537 4.5795,-9.4657 5.6188,-10.9524 l 1.8896,-2.703 2.5852,4.893 c 1.4217,2.6912 3.5176,5.2712 4.6573,5.7334 1.1397,0.4622 5.6292,9.7163 9.9766,20.565 6.7979,16.9637 8.4767,19.9568 11.9932,21.3827 4.7869,1.9411 9.0857,-0.2685 13.0091,-6.6872 4.6047,-7.533 5.0039,-7.7557 6.8929,-3.8454 2.3883,4.9445 3.8888,16.5253 2.4838,19.1708 -2.3659,4.4549 -2.1134,5.5895 1.5768,7.0859 5.7422,2.3285 8.3547,1.9205 9.751,-1.5227 2.6693,-6.5828 -0.047,-18.4232 -7.1993,-31.381 l -3.2615,-5.9089 4.6742,-3.1302 c 2.5709,-1.7216 5.4216,-3.0789 6.3349,-3.0163 0.9135,0.062 3.4467,3.6111 5.6295,7.8856 2.2989,4.5021 4.8804,7.789 6.1357,7.8126 1.1919,0.022 2.4098,0.1393 2.7064,0.2597 0.2966,0.1202 1.0094,-0.9403 1.5838,-2.3569 2.6046,-6.423 -8.1881,-24.3495 -16.75,-27.8214 -4.5786,-1.8566 -16.5659,0.6568 -19.3949,4.0664 -1.0539,1.2703 -2.4036,2.1119 -2.9995,1.8703 -0.5958,-0.2416 -2.538,-4.4612 -4.316,-9.3769 -3.4629,-9.5735 -6.9279,-12.0596 -9.8351,-7.0564 -1.2694,2.1845 -0.5152,5.4829 3.1721,13.8721 4.4959,10.2287 4.6573,11.3024 2.287,15.2026 -1.4029,2.3081 -2.9966,4.3853 -3.5416,4.6158 -1.466,0.62 -4.8968,-7.346 -7.546,-17.5209 -1.9304,-7.4145 -2.8942,-9.0361 -5.5951,-9.4149 -2.4067,-0.3376 -3.461,-1.4608 -4.0173,-4.2808 -0.849,-4.3035 -6.5806,-11.14 -10.7606,-12.835 -2.8226,-1.1446 -9.9847,1.1404 -12.5539,4.0053 -1.0837,1.2084 -2.0761,0.1958 -4.1404,-4.2244 -5.2898,-11.3261 -12.7372,-17.1393 -18.4329,-14.388 -1.6346,0.7895 -4.569,4.0179 -6.5209,7.1741 l -3.549,5.7386 -5.7414,-11.6086 c -3.1577,-6.3847 -7.6552,-13.6257 -9.9945,-16.0909 -5.6257,-5.9288 -14.4624,-9.4619 -20.9912,-8.3928 -5.1063,0.8361 -11.5731,5.2136 -13.0377,8.8255 -1.2429,3.0649 -5.6571,-1.1211 -9.2198,-8.743 -1.7691,-3.7848 -4.4768,-8.7753 -6.0171,-11.0901 -2.3099,-3.4714 -2.57,-6.6694 -1.4846,-18.2552 1.3936,-14.8789 0.055,-25.4769 -3.8257,-30.283 -2.9788,-3.6892 -6.9771,-5.4197 -9.7818,-4.2333 z m 8.0136,10.0825 c 2.3615,5.9406 2.8289,18.1958 1.1925,31.2698 -0.6642,5.306 -0.8243,9.8027 -0.3558,9.9927 0.4685,0.19 1.637,1.644 2.5968,3.231 1.6853,2.787 1.656,2.8204 -0.8603,0.9778 -1.433,-1.0494 -2.8255,-1.3651 -3.0945,-0.7017 -0.269,0.6634 -1.6242,9.8228 -3.0116,20.3543 -1.3872,10.5313 -2.9287,20.1657 -3.4256,21.4097 -1.6946,4.2437 -4.6822,0.8147 -4.0467,-4.6445 0.3445,-2.9577 0.1913,-8.5397 -0.3402,-12.4042 -0.6343,-4.6124 -0.3696,-7.1279 0.7704,-7.3217 1.2016,-0.2042 2.4159,-4.3457 3.9404,-13.4414 1.6866,-10.0619 1.7245,-16.183 0.1615,-26.0901 -3.3162,-21.0196 -2.5964,-30.4392 2.1776,-28.5033 1.286,0.5215 3.2189,3.1637 4.2954,5.8716 z m 53.7145,65.14 c 1.9576,2.1331 3.6799,4.5884 3.8274,5.4562 0.1486,0.8745 -0.6568,0.4666 -1.807,-0.9153 -1.1414,-1.3712 -4.7249,-3.5675 -7.9635,-4.8808 -7.6116,-3.0865 -12.3349,-1.3044 -15.1875,5.7304 -1.7586,4.3366 -1.6209,5.438 0.973,7.7848 2.741,2.4799 2.7483,2.6339 0.078,1.6587 -4.9049,-1.7914 -4.9681,2.5245 -0.2017,13.793 4.063,9.6057 4.9883,10.7931 9.9931,12.8226 5.3122,2.1541 5.5433,2.0966 6.2704,-1.5587 0.7177,-3.6076 0.7961,-3.6315 1.5868,-0.4842 0.4575,1.821 0.074,4.6935 -0.8533,6.3834 -2.1541,3.928 -7.5494,2.6713 -12.3164,-2.8689 -7.2373,-8.4112 -21.2544,-36.2729 -17.4784,-34.7417 1.0051,0.4075 2.4865,-1.6768 4.2066,-5.9186 2.2373,-5.5174 3.4889,-6.9004 7.9537,-8.7889 4.3454,-1.838 6.3835,-1.8013 11.329,0.2042 3.3167,1.3449 7.632,4.1907 9.5895,6.3238 z m 133.1402,59.1063 c 2.3727,3.4641 4.7064,7.5775 5.1861,9.1408 0.4796,1.5634 -0.8068,0.3463 -2.8588,-2.7047 -5.3249,-7.9175 -10.731,-9.7722 -16.3955,-5.6249 -4.9189,3.6013 -7.4581,8.4209 -6.1126,11.602 0.6585,1.5566 0.3034,1.6456 -1.4235,0.3571 -2.0152,-1.5035 -2.7223,-0.9509 -5.6957,4.4517 -3.4656,6.2969 -9.7979,12.7439 -11.7426,11.9552 -0.5944,-0.241 -3.1894,-5.179 -5.7666,-10.9735 -2.5773,-5.7944 -3.8542,-9.0154 -2.8375,-7.1576 3.9096,7.1434 7.9752,6.0304 13.5362,-3.7057 2.828,-4.9513 3.4233,-6.9964 2.4377,-8.3746 -1.0356,-1.4482 -0.864,-1.6497 0.8343,-0.9794 1.1762,0.4642 3.9979,-0.4865 6.2707,-2.113 5.1985,-3.72 12.595,-5.2547 16.925,-3.5119 1.8315,0.7356 5.2702,4.1744 7.6428,7.6385 z m -208.6408,-83.5222 3.2232,5.4369 -4.6865,-1.1496 -4.6866,-1.1495 -3.7005,8.015 c -2.0378,4.4135 -4.0176,11.1722 -4.4062,15.0417 -0.3879,3.8648 -1.1496,7.2147 -1.6921,7.4442 -3.0142,1.2749 -4.4446,-2.0739 -4.815,-11.2722 -0.2281,-5.6678 -1.4512,-13.0843 -2.7178,-16.4811 -1.4426,-3.8685 -1.5052,-4.5952 -0.1673,-1.945 3.1262,6.1932 4.4615,6.0388 8.4516,-0.9767 6.5714,-11.554 9.7384,-12.1716 15.1972,-2.9637 z m 115.828,47.1243 c 1.9457,3.146 4.138,7.414 4.872,9.4844 1.8917,5.3371 3.9115,5.6165 9.0124,1.2464 5.5383,-4.7448 10.46,-3.8974 13.2263,2.2774 1.0423,2.3264 1.5002,3.5628 1.0177,2.7477 -0.4826,-0.8151 -2.2266,-2.0292 -3.8756,-2.6979 -3.9945,-1.6198 -7.9708,2.7172 -10.8422,11.8259 -1.8005,5.7112 -2.7455,7.1157 -4.9462,7.3502 -2.1948,0.2338 -2.6177,-0.4428 -2.1886,-3.5025 0.5929,-4.2275 -0.7415,-11.3984 -3.4886,-18.7464 -2.0413,-5.4599 -7.8011,-8.7662 -10.4096,-5.9754 -3.0565,3.27 -9.2385,20.5506 -9.5175,26.6043 -0.2747,5.9616 -0.3415,6.0629 -3.6848,5.5939 -3.9905,-0.5596 -5.7566,-2.506 -4.6811,-5.1583 1.6902,-4.1681 1.442,-19.0256 -0.426,-25.5058 -1.5194,-5.2709 -1.5077,-5.8982 0.05,-2.6787 2.9861,6.1713 4.3635,6.0058 8.3501,-1.0037 1.9747,-3.4719 4.5879,-7.1428 5.807,-8.1576 3.2018,-2.665 7.6649,-0.2683 11.7247,6.2961 z m -78.9482,-22.331 c 1.4373,1.2896 1.3881,1.3906 -0.3781,0.7776 -1.1163,-0.3876 -3.4992,-4.5105 -5.2954,-9.1621 l -3.2655,-8.4577 3.6437,7.68 c 2.004,4.224 4.3869,8.347 5.2953,9.1622 z m 135.3499,47.6747 c 1.3997,3.4583 2.2545,6.1704 1.8998,6.0266 -0.3546,-0.1439 -1.7899,-3.0912 -3.1895,-6.5496 -1.3995,-3.4584 -2.2544,-6.1704 -1.8997,-6.0265 0.3545,0.1437 1.7899,3.091 3.1894,6.5495 z m -88.6555,-34.8239 2.0883,5.7275 -2.6555,-5.4875 c -2.4753,-5.1153 -2.921,-6.5352 -1.9246,-6.1312 0.2219,0.09 1.3433,2.741 2.4918,5.8912 z m 71.3734,38.7037 0.8443,4.4723 -1.7827,-3.5838 c -0.9805,-1.9712 -1.5839,-4.0742 -1.3409,-4.6736 0.7672,-1.8917 1.4088,-0.8262 2.2793,3.7851 z m -87.9178,-16.9972 c 0.4618,2.0112 0.4937,3.8031 0.071,3.982 -1.2949,0.5478 -7.0217,-8.0709 -9.3538,-14.0771 l -2.2038,-5.6758 5.3236,6.0572 c 2.928,3.3313 5.7016,7.7026 6.1635,9.7137 z m 131.2698,60.4007 c 1.6116,8.4474 1.3586,9.643 -1.7725,8.3733 -1.6337,-0.6625 -2.0877,-2.7374 -1.548,-7.0725 0.4236,-3.3994 -0.521,-9.9765 -2.118,-14.7502 l -2.8821,-8.6153 3.47,7.4141 c 1.9085,4.0779 4.0914,10.6706 4.8506,14.6506 z m -126.9125,-63.3963 c 0.7086,1.9393 0.9982,3.4083 0.6435,3.2646 -0.3547,-0.1439 -1.2246,-1.8482 -1.9332,-3.7876 -0.7086,-1.9392 -0.9981,-3.4083 -0.6435,-3.2645 0.3547,0.1438 1.2246,1.8483 1.9332,3.7875 z m -196.5951,-118.1028 c -7.3862,3.1243 -20.7085,18.8441 -25.056,29.5653 -3.3462,8.2522 2.4935,15.0856 10.1312,11.8551 4.6039,-1.9472 10.6688,-10.0388 12.0452,-16.0703 1.0502,-4.6015 3.9723,-7.549 6.477,-6.5334 1.8111,0.7344 1.9151,15.6544 0.1964,28.168 -1.7495,12.7377 -6.3954,30.9036 -10.4792,40.9747 -2.3686,5.8408 -3.2552,6.8673 -5.6613,6.5541 -3.9124,-0.5094 -4.5101,1.8371 -1.9031,7.4707 4.3164,9.3276 11.2358,15.1762 15.7139,13.2821 4.0044,-1.6939 13.1513,-29.4188 15.8629,-48.0818 1.7752,-12.2173 3.8388,-44.0183 3.2965,-50.7994 -0.5591,-6.9925 -2.0163,-8.8298 -10.912,-13.7572 -5.4162,-3 -7.4992,-3.5636 -9.7115,-2.6279 z m 16.0965,12.3668 c 1.1867,2.8057 -0.051,35.1805 -1.9308,50.5322 -1.4811,12.0915 -9.2724,41.1829 -12.2446,45.7195 -2.9363,4.4817 -7.584,1.9811 -11.7947,-6.3458 -1.3768,-2.7226 -1.2746,-2.9897 1.6902,-4.4218 2.8724,-1.3876 3.6123,-3.0523 8.2496,-18.5621 2.802,-9.3708 6.0684,-22.7251 7.2589,-29.676 2.491,-14.5455 1.6597,-32.1131 -1.6188,-34.2067 -4.7455,-3.0304 -15.2626,4.8833 -12.1463,9.1397 1.1063,1.511 -0.696,4.2351 -6.8722,10.3863 -3.093,3.0804 -4.674,3.6999 -6.5921,2.5831 -2.3001,-1.3391 -2.1815,-2.271 1.3405,-10.5295 3.7934,-8.8952 9.6808,-16.0556 17.8724,-21.7372 2.9309,-2.0328 3.8558,-1.9175 9.4887,1.1826 3.4329,1.8894 6.7174,4.5604 7.2992,5.9357 z m 42.241,14.2742 c -7.6323,-0.3245 -10.1066,0.6852 -14.211,5.7989 -3.3335,4.1534 -3.623,4.2321 -5.0089,1.363 -0.8091,-1.6748 -2.5019,-3.0645 -3.762,-3.0884 -4.2993,-0.081 -4.3983,5.136 -0.3113,16.3693 2.4878,6.8375 3.9466,14.0435 3.7326,18.4384 -0.6503,13.357 6.2743,27.223 14.1463,28.327 2.0195,0.2832 4.4047,-0.3689 5.3003,-1.4493 1.305,-1.5737 2.8189,-1.3943 7.6181,0.9032 8.1452,3.8996 15.2854,2.6754 19.1057,-3.2758 16.9495,-26.4036 1.9334,-62.173 -26.6098,-63.3865 z m 20.3635,13.5984 c 5.8437,6.7467 5.3357,8.4446 -0.7172,2.3968 -6.4839,-6.4784 -11.2987,-7.3671 -17.0025,-3.1379 -8.751,6.4886 -10.965,19.7821 -5.3825,32.3178 3.3253,7.4669 4.6206,9.007 9.1045,10.8253 4.0582,1.6456 6.4128,1.6184 10.5262,-0.1214 4.6812,-1.98 5.665,-3.1446 8.4427,-9.9946 1.7292,-4.2644 3.1817,-9.4717 3.2277,-11.5717 0.1382,-6.3041 1.441,-3.7562 1.6322,3.1922 0.3832,13.9217 -5.6994,26.8033 -13.0249,27.5839 -1.8052,0.1923 -6.6341,-1.0985 -10.7307,-2.8686 -6.6585,-2.8769 -7.5596,-2.9439 -8.4969,-0.6324 -3.3331,8.2197 -12.8404,-8.4158 -13.4006,-23.4478 -0.2108,-5.6577 -1.9967,-14.1023 -4.1611,-19.6767 -2.0855,-5.3709 -2.8279,-7.8684 -1.6499,-5.5498 3.1819,6.2627 4.8819,6.2395 7.4533,-0.1015 1.2393,-3.0565 3.3667,-6.2194 4.7274,-7.0288 7.3405,-4.3666 22.3508,-0.3835 29.4523,7.8152 z m 0.5951,9.8826 c 8.5936,12.5356 -0.3085,33.8064 -12.1405,29.0085 -4.7172,-1.9129 -11.3451,-13.9146 -11.0419,-19.9948 0.3239,-6.4979 4.0924,-14.7272 7.8614,-17.1672 2.7538,-1.7828 4.0525,-1.7114 7.5511,0.4149 2.3239,1.4125 5.8204,4.8948 7.7699,7.7386 z"
               id="path64823"
               inkscape:transform-center-x="15.780871"
               inkscape:transform-center-y="24.508147" /></g></g></g></g></g></svg>
