<?xml version="1.0" encoding="UTF-8" standalone="no"?>
<!-- Created with Inkscape (http://www.inkscape.org/) -->

<svg
   width="100mm"
   height="100mm"
   viewBox="0 0 100 99.999996"
   version="1.1"
   id="svg1"
   inkscape:version="1.3.2 (091e20ef0f, 2023-11-25, custom)"
   sodipodi:docname="icon.svg"
   xmlns:inkscape="http://www.inkscape.org/namespaces/inkscape"
   xmlns:sodipodi="http://sodipodi.sourceforge.net/DTD/sodipodi-0.dtd"
   xmlns="http://www.w3.org/2000/svg"
   xmlns:svg="http://www.w3.org/2000/svg"
   xmlns:rdf="http://www.w3.org/1999/02/22-rdf-syntax-ns#"
   xmlns:cc="http://creativecommons.org/ns#"
   xmlns:dc="http://purl.org/dc/elements/1.1/">
  <title
     id="title1">Bicycle Repair Icon</title>
  <sodipodi:namedview
     id="namedview1"
     pagecolor="#ffffff"
     bordercolor="#666666"
     borderopacity="1.0"
     inkscape:showpageshadow="2"
     inkscape:pageopacity="0.0"
     inkscape:pagecheckerboard="0"
     inkscape:deskcolor="#d1d1d1"
     inkscape:document-units="mm"
     inkscape:zoom="0.75343254"
     inkscape:cx="441.97719"
     inkscape:cy="242.88837"
     inkscape:window-width="3836"
     inkscape:window-height="1522"
     inkscape:window-x="0"
     inkscape:window-y="51"
     inkscape:window-maximized="1"
     inkscape:current-layer="g1"
     showgrid="false" />
  <defs
     id="defs1">
    <clipPath
       clipPathUnits="userSpaceOnUse"
       id="clipPath1809">
      <path
         d="M 5176,0 V 297 H 7200 V 0 Z"
         id="path1807" />
    </clipPath>
  </defs>
  <g
     inkscape:label="Layer 1"
     inkscape:groupmode="layer"
     id="layer1"
     transform="translate(12.146851,-86.685109)">
    <g
       id="g1803"
       transform="matrix(0.03527778,0,0,-0.03527778,7.14375,353.78319)">
      <g
         id="g1805"
         clip-path="url(#clipPath1809)" />
    </g>
    <g
       id="g1"
       transform="translate(0.314744,-33.68066)">
      <g
         id="g2"
         transform="matrix(0.74891794,0,0,0.75049903,-3.1288735,30.136943)">
        <path
           d="m -12.455008,194.9626 c -0.0494,0.59584 0.16934,1.58714 0.96873,2.18687 0.46532,0.3496 1.00718,0.65087 1.7183807,0.69532 1.30846,0.0819 2.50543,0.38559 3.59057,0.84773 0.2914,-0.39829 0.59267,-0.78952 0.9137,-1.16558 1.12465,-1.32221 3.7659,-3.52954 3.71157,-3.562 2.99932,-3.0734 4.74169,-7.25276 4.74169,-11.86921 0,-3.69112 -1.1691,-7.16245 -3.24838,-10.00125 1.72403,-0.74225 3.32423,-1.78012 4.74345,-3.09422 3.50697,-3.24732 5.5181493,-7.83943 5.5185093,-12.5991 3.5e-4,-1.35114 -0.157699,-2.673 -0.4674293,-3.95076 2.9770893,-0.042 5.9305393,-0.87913 8.5703793,-2.50014 4.30283,-2.6416 7.2136,-7.05802 7.97243,-11.90554 3.64313,1.44885 7.75476,1.6129 11.65965,0.3055 3.91019,-1.30916 7.09754,-3.92148 9.13307,-7.27922 2.8127,2.73967 6.5532,4.46935 10.66729,4.75615 4.10281,0.28611 8.03769,-0.90064 11.19929,-3.21204 1.62771,3.80965 4.651734,6.93491 8.661404,8.74431 3.5627,1.6076 7.39916,1.93216 10.98268,1.05374 0.0787,5.36011 2.7566,10.43023 7.19772,13.60206 2.18581,1.56139 4.635864,2.55129 7.182914,2.94604 -0.76729,1.93429 -1.16699,4.0185 -1.16699,6.18279 0,6.24311 3.19652,11.63778 8.11742,14.6117 -2.99932,3.07341 -4.74098,7.25312 -4.74098,11.86957 0,0.42827 0.019,0.85301 0.0501,1.27494 1.23684,-0.52247 2.57422,-0.81033 3.94723,-0.80716 l 2.32904,0.006 c -0.007,-0.15805 -0.0152,-0.31574 -0.0152,-0.47378 0,-4.30036 2.5146,-8.58661 7.35718,-10.16883 1.3462,-0.43991 1.97556,-1.56915 1.97556,-2.69804 -3.5e-4,-1.38677 -0.95003,-2.77389 -2.68676,-2.8822 -6.17184,-0.38558 -10.02206,-5.4864 -10.02206,-10.7322 0,-2.88255 1.16346,-5.80919 3.74297,-8.02041 v 0 c 0.71261,-0.6103 1.01847,-1.37971 1.01847,-2.13289 0,-1.78082 -1.71203,-3.46992 -3.8107,-2.75061 h -3.6e-4 c -7.35118,2.5206 -14.165794,-3.24238 -14.165794,-10.06969 0,-1.58997 0.37006,-3.2385 1.18886,-4.85246 v 0 c 0.22931,-0.4519 0.33161,-0.90099 0.33161,-1.3282 0,-2.23486 -2.79294,-3.86857 -4.78014,-2.11491 -6.9596,6.14081 -17.73449,1.0728 -17.73449,-7.93433 0,-0.29104 0.0113,-0.58667 0.0346,-0.88582 v 0 c 0.006,-0.0864 0.01,-0.1711 0.01,-0.25435 0,-2.95399 -4.088344,-3.98198 -5.437724,-1.22425 v 0 c -4.2111,8.60612 -16.7513,7.73194 -19.72768,-1.3753 -0.98073,-3.00066 -5.38339,-2.43953 -5.58024,0.71106 -0.59726,9.56246 -12.51762,13.55379 -18.75261,6.27881 v 0 c -1.82034,-2.12408 -5.05354,-0.63571 -5.05354,1.80869 0,0.31397 0.0536,0.64382 0.17003,0.98389 0.41311,1.20404 0.60361,2.39395 0.60361,3.5419 0,7.49123 -8.11671,13.19424 -15.5257493,9.43504 -2.11914,-1.07491 -4.18218,0.6477 -4.18218,2.57528 0,0.63288 0.22225,1.28834 0.73907,1.8736 1.86584,2.11455 2.69698,4.58153 2.69698,6.9917 -3.5e-4,5.77709 -4.77626005,11.22716 -11.51714,10.70822 h -3.5e-4 c -1.90923,-0.14711 -3.0896307,1.37125 -3.0896307,2.89842 0,0.9899 0.49601,1.98367 1.6114907,2.52907 v 0 c 4.03049,1.97238 5.98135,5.77109 5.98135,9.55922 0,4.30036 -2.5146,8.58626 -7.3568307,10.16882 -1.34655,0.43992 -1.90676,1.86478 -1.97591,2.69805"
           style="fill:#985184;fill-opacity:1;fill-rule:nonzero;stroke:none;stroke-width:0.0352778"
           id="path1841" />
        <path
           d="m 9.0510327,190.5878 c 0.13935,-0.007 0.2794,-0.0113 0.4191,-0.0127 l 0.6790993,-0.007 c 0.0395,-3.6e-4 0.079,-7.1e-4 0.11818,-7.1e-4 l 3.53801,0.006 c 1.17193,-2.28424 1.8281,-4.85881 1.8281,-7.56991 7e-4,-3.09951 -0.82903,-6.02086 -2.34986,-8.53052 1.48731,-0.70026 2.87479,-1.6323 4.12151,-2.78271 3.40959,-3.14643 5.36539,-7.59319 5.36539,-12.20012 0,-0.51399 -0.0243,-1.02552 -0.0727,-1.53387 2.86667,0.0314 5.73758,-0.70238 8.35343,-2.20345 3.41771,-1.96039 5.97182,-5.03838 7.29474,-8.6032 2.97885,1.47955 6.39903,2.03341 9.87037,1.49155 3.46674,-0.54081 6.55178,-2.10679 8.93656,-4.41713 2.04153,2.61902 4.87892,4.59775 8.23701,5.61446 3.35845,1.0167 6.81708,0.94473 9.969154,-0.10302 0.89359,4.11163 3.36726,7.78369 6.98676,10.20975 2.17135,1.45521 4.56248,2.3495 7.02416,2.66806 -0.29245,1.22484 -0.44309,2.48743 -0.44309,3.7659 0,5.7792 2.97745,10.90683 7.50923,13.86911 -2.35585,2.87584 -3.70875,6.53556 -3.70875,10.46833 0,0.4893 0.0279,0.9719 0.0688,1.45133 l 6.34894,0.006 c -0.0684,-0.48331 -0.10618,-0.97014 -0.10618,-1.45697 0,-3.93418 2.222144,-7.85389 6.508044,-9.50913 v 0 c 1.04599,-0.40429 1.53035,-1.30599 1.53,-2.20663 0,-1.16205 -0.80575,-2.32163 -2.25002,-2.407 -5.824014,-0.34396 -9.588854,-5.17596 -9.588854,-10.21468 0,-2.40842 0.86148,-4.86516 2.7693,-6.89892 0.4632,-0.49354 0.66287,-1.06151 0.66287,-1.61255 0,-1.54093 -1.56351,-2.95063 -3.31329,-2.23203 v 0 c -6.95113,2.85609 -14.05607,-2.48073 -14.05607,-9.34508 0,-1.01177 0.15451,-2.05811 0.48648,-3.11503 0.0829,-0.26247 0.12065,-0.51647 0.12065,-0.75988 0,-2.02742 -2.64337,-3.25896 -4.17654,-1.55364 -5.764044,6.41315 -16.392534,3.19511 -17.631484,-5.33858 v 0 c -0.36901,-2.54177 -3.94018,-2.79048 -4.65808,-0.32491 -2.41088,8.27934 -13.38368,9.99137 -18.20228,2.84057 v 0 c -1.35043,-2.00413 -4.37444,-0.94933 -4.37444,1.29257 0,0.14076 0.0116,0.28611 0.0367,0.43569 v 0 c 0.0995,0.59619 0.14711,1.1811 0.14711,1.7526 0,7.58401 -8.39188,12.75115 -15.31444,8.70408 -1.74308,-1.01917 -3.61244,0.393 -3.61244,2.0634 0,0.45438 0.13793,0.92745 0.45437,1.37583 1.29893,1.84186 1.88243,3.8608 1.88243,5.82683 0,5.5559 -4.66161,10.68564 -11.0105494,10.17517 -1.5850299,-0.12735 -2.58622,1.13771 -2.58622,2.41618 0,0.78599 0.37853,1.57762 1.23296,2.05281 3.5203701,1.95863 5.2271101,5.41938 5.2267601,8.86849 0,3.07446 -1.3627801,6.1348 -4.0008601,8.11777 1.21109,-0.2854 2.45534,-0.46743 3.7299201,-0.5334"
           style="fill:#f66027;fill-opacity:1;fill-rule:nonzero;stroke:none;stroke-width:0.0352778"
           id="path1843" />
        <path
           d="m 40.484592,192.11991 6.90034,0.006 c -1.13595,-1.46473 -1.81116,-3.29388 -1.81116,-5.26238 0,-0.19932 0.007,-0.40005 0.0212,-0.60184 0.3302,-4.74205 4.44253,-8.3178 9.18422,-7.98725 4.53778,0.31644 8.00841,4.09611 8.00841,8.57674 0,0.20108 -0.007,0.40393 -0.0212,0.60748 -0.12347,1.77024 -0.7747,3.37714 -1.78823,4.6796 l 6.77581,0.008 c 0,0 1.34408,-1.25201 1.34408,-5.77074 0,-8.15941 -6.42797,-13.91427 -13.87757,-14.43356 -3.98463,-0.27799 -7.83908,1.01247 -10.85321,3.63397 -3.01273,2.62008 -5.10435,5.83071 -5.10435,10.23973 0,2.31175 0.63183,5.38656 1.22167,6.30343"
           style="fill:#1ad3bb;fill-opacity:1;fill-rule:nonzero;stroke:none;stroke-width:0.0352778"
           id="path1845" />
        <path
           d="m 27.343972,185.02238 c -0.5969,-0.98355 -1.28693,-1.90112 -2.05951,-2.74391 4.79495,-3.25226 7.91139,-8.75101 7.91139,-14.84419 0,-0.42227 -0.0152,-0.8442 -0.0459,-1.26471 3.15489,0.17181 6.34506,-0.49212 9.23255,-1.9939 2.89031,-1.50318 5.26768,-3.73697 6.93843,-6.42196 2.45251,1.99672 5.42643,3.33692 8.64835,3.81987 3.22933,0.48366 6.47347,0.0709 9.40894,-1.12571 0.96484,3.67418 3.09562,6.97336 6.161264,9.41987 2.04999,1.63654 4.38538,2.77813 6.85059,3.38843 -0.7881,2.03271 -1.2005,4.21005 -1.2005,6.43855 0,2.11878 0.34925,4.19453 1.08021,6.11435 1.65735,4.35575 4.08975,6.34541 4.08975,6.34541 l 9.6326,0.0152 c -0.0917,-0.71296 -0.51047,-1.38994 -1.30281,-1.75859 l -0.45403,-0.21061 c -4.32929,-2.00519 -6.69854,-6.21983 -6.69854,-10.50573 0,-2.81058 1.01847,-5.65115 3.17077,-7.92162 l 0.73977,-0.7807 c 0.4946,-0.47555 0.71085,-1.05692 0.71085,-1.62525 3.5e-4,-1.32221 -1.17017,-2.57528 -2.7365,-2.26907 l -0.16439,0.0374 c -7.33002,1.66653 -14.115004,-3.97051 -14.115004,-11.22468 0,-0.50835 0.0332,-1.02447 0.10196,-1.54658 l 0.140754,-1.07033 c 0.0265,-0.14851 0.0388,-0.29351 0.0388,-0.43356 3.5e-4,-1.98261 -2.514604,-3.0868 -3.966634,-1.52682 l -0.37889,0.40746 c -5.52979,5.94289 -15.30314,4.47851 -18.84786,-2.82399 l -0.24306,-0.50059 c -0.99624,-2.05281 -4.05412,-1.54235 -4.32999,0.72284 l -0.067,0.55245 c -0.98037,8.05815 -9.74796,12.6178 -16.90829,8.79369 l -0.49071,-0.26211 c -1.63583,-0.87383 -3.37785,0.42263 -3.37785,2.00942 0,0.36583 0.0921,0.74683 0.29951,1.12007 l 0.27058,0.48648 c 1.00259,1.80375 1.46508,3.7211 1.46508,5.59506 0,5.49769 -3.97862,10.62637 -9.97514,11.45787 l -0.55139,0.0762 c -1.27318,0.17674 -1.97521,1.22696 -1.97521,2.28247 0,0.81774 0.42157,1.63901 1.32469,2.05917 l 1.28375,0.59867 c 3.06,1.42734 5.12269,3.94934 6.07131,6.81143 2.47967,0.25471 4.85916,0.91652 7.11976,1.96921 0,0 -0.91652,-4.56107 -2.80247,-7.66692"
           style="fill:#fab744;fill-opacity:1;fill-rule:nonzero;stroke:none;stroke-width:0.0352778"
           id="path1847" />
        <path
           d="m 121.05777,178.73229 c 0.0494,-0.59584 -0.16934,-1.58714 -0.96873,-2.18687 -0.46532,-0.3496 -1.00718,-0.65087 -1.71838,-0.69532 -1.30846,-0.0819 -2.50543,-0.38559 -3.59057,-0.84773 -0.2914,0.39829 -0.59267,0.78952 -0.9137,1.16558 -1.12465,1.32221 -3.7659,3.52954 -3.71157,3.562 -2.99932,3.0734 -4.74169,7.25276 -4.74169,11.86921 0,3.69112 1.1691,7.16245 3.24838,10.00125 -1.72403,0.74225 -3.32423,1.78012 -4.74345,3.09422 -3.50697,3.24732 -5.518153,7.83943 -5.518513,12.5991 -3.5e-4,1.35114 0.1577,2.673 0.46743,3.95076 -2.97709,0.042 -5.93054,0.87913 -8.57038,2.50014 -4.30283,2.6416 -7.2136,7.05802 -7.97243,11.90554 -3.64313,-1.44885 -7.75476,-1.6129 -11.65965,-0.3055 -3.91019,1.30916 -7.09754,3.92148 -9.13307,7.27922 -2.8127,-2.73968 -6.5532,-4.46935 -10.66729,-4.75615 -4.10281,-0.28611 -8.03769,0.90064 -11.19929,3.21204 -1.62771,-3.80965 -4.651734,-6.93491 -8.661404,-8.74431 -3.5627,-1.6076 -7.39916,-1.93216 -10.98268,-1.05374 -0.0787,-5.36011 -2.7566,-10.43023 -7.19772,-13.60206 -2.18581,-1.56139 -4.635861,-2.55129 -7.182911,-2.94604 0.76729,-1.93429 1.16699,-4.0185 1.16699,-6.18279 0,-6.24311 -3.19652,-11.63778 -8.11742,-14.6117 2.99932,-3.07341 4.74098,-7.25312 4.74098,-11.86957 0,-0.42827 -0.019,-0.85301 -0.0501,-1.27494 -1.23684,0.52247 -2.57422,0.81033 -3.94723,0.80716 l -2.32904,-0.006 c 0.007,0.15805 0.0152,0.31574 0.0152,0.47378 0,4.30036 -2.5146,8.58661 -7.35718,10.16883 -1.3462,0.43991 -1.97556,1.56915 -1.97556,2.69804 3.5e-4,1.38677 0.95003,2.77389 2.68676,2.8822 6.17184,0.38558 10.02206,5.4864 10.02206,10.7322 0,2.88255 -1.16346,5.80919 -3.74297,8.02041 v 0 c -0.71261,0.6103 -1.01847,1.37971 -1.01847,2.13289 0,1.78082 1.71203,3.46992 3.8107,2.75061 h 3.6e-4 c 7.35118,-2.5206 14.165791,3.24238 14.165791,10.06969 0,1.58997 -0.37006,3.2385 -1.18886,4.85246 v 0 c -0.22931,0.4519 -0.33161,0.90099 -0.33161,1.3282 0,2.23485 2.79294,3.86857 4.78014,2.11491 6.9596,-6.14081 17.73449,-1.0728 17.73449,7.93432 0,0.29104 -0.0113,0.58667 -0.0346,0.88583 v 0 c -0.006,0.0864 -0.01,0.1711 -0.01,0.25435 0,2.95399 4.088344,3.98198 5.437724,1.22424 v 0 c 4.2111,-8.60612 16.7513,-7.73193 19.72768,1.37531 0.98073,3.00066 5.38339,2.43953 5.58024,-0.71106 0.59726,-9.56247 12.51762,-13.55379 18.75261,-6.27881 v 0 c 1.82034,2.12408 5.05354,0.63571 5.05354,-1.80869 0,-0.31397 -0.0536,-0.64382 -0.17003,-0.9839 -0.41311,-1.20403 -0.60361,-2.39395 -0.60361,-3.54189 0,-7.49123 8.11671,-13.19424 15.525753,-9.43504 2.11914,1.07491 4.18218,-0.6477 4.18218,-2.57528 0,-0.63288 -0.22225,-1.28834 -0.73907,-1.8736 -1.86584,-2.11455 -2.69698,-4.58153 -2.69698,-6.9917 3.5e-4,-5.77709 4.77626,-11.22716 11.51714,-10.70822 h 3.5e-4 c 1.90923,0.14711 3.08963,-1.37125 3.08963,-2.89842 0,-0.9899 -0.49601,-1.98367 -1.61149,-2.52907 v 0 c -4.03049,-1.97238 -5.98135,-5.77109 -5.98135,-9.55922 0,-4.30036 2.5146,-8.58626 7.35683,-10.16882 1.34655,-0.43992 1.90676,-1.86478 1.97591,-2.69805"
           style="fill:#985184;fill-opacity:1;fill-rule:nonzero;stroke:none;stroke-width:0.0352778"
           id="path1841-3" />
        <path
           d="m 99.551727,182.57792 c -0.13935,0.007 -0.2794,0.0113 -0.4191,0.0127 l -0.6791,0.007 c -0.0395,3.6e-4 -0.079,7.1e-4 -0.11818,7.1e-4 l -3.53801,-0.006 c -1.17193,2.28424 -1.8281,4.85881 -1.8281,7.56991 -7e-4,3.09951 0.82903,6.02086 2.34986,8.53052 -1.48731,0.70026 -2.87479,1.6323 -4.12151,2.78271 -3.40959,3.14643 -5.36539,7.59319 -5.36539,12.20012 0,0.51399 0.0243,1.02552 0.0727,1.53387 -2.86667,-0.0314 -5.73758,0.70238 -8.35343,2.20345 -3.41771,1.96039 -5.97182,5.03838 -7.29474,8.6032 -2.97885,-1.47955 -6.39903,-2.03341 -9.87037,-1.49155 -3.46674,0.54081 -6.55178,2.10679 -8.93656,4.41713 -2.04153,-2.61902 -4.87892,-4.59775 -8.23701,-5.61446 -3.35845,-1.0167 -6.81708,-0.94473 -9.969154,0.10302 -0.89359,-4.11163 -3.36726,-7.78369 -6.98676,-10.20975 -2.17135,-1.45521 -4.56248,-2.3495 -7.02416,-2.66806 0.29245,-1.22484 0.44309,-2.48743 0.44309,-3.7659 0,-5.7792 -2.97745,-10.90683 -7.50923,-13.86911 2.35585,-2.87584 3.70875,-6.53556 3.70875,-10.46833 0,-0.4893 -0.0279,-0.9719 -0.0688,-1.45133 l -6.34894,-0.006 c 0.0684,0.48331 0.10618,0.97014 0.10618,1.45697 0,3.93418 -2.222141,7.85389 -6.508041,9.50913 v 0 c -1.04599,0.40429 -1.53035,1.30599 -1.53,2.20663 0,1.16205 0.80575,2.32163 2.25002,2.407 5.824011,0.34396 9.588851,5.17596 9.588851,10.21468 0,2.40842 -0.86148,4.86516 -2.7693,6.89892 -0.4632,0.49354 -0.66287,1.06151 -0.66287,1.61255 0,1.54093 1.56351,2.95063 3.31329,2.23203 v 0 c 6.95113,-2.85609 14.05607,2.48073 14.05607,9.34508 0,1.01177 -0.15451,2.05811 -0.48648,3.11503 -0.0829,0.26247 -0.12065,0.51647 -0.12065,0.75988 0,2.02742 2.64337,3.25896 4.17654,1.55364 5.764044,-6.41315 16.392534,-3.19511 17.631484,5.33858 v 0 c 0.36901,2.54176 3.94018,2.79047 4.65808,0.32491 2.41088,-8.27934 13.38368,-9.99137 18.20228,-2.84057 v 0 c 1.35043,2.00413 4.37444,0.94933 4.37444,-1.29257 0,-0.14076 -0.0116,-0.28611 -0.0367,-0.43569 v 0 c -0.0995,-0.59619 -0.14711,-1.1811 -0.14711,-1.7526 0,-7.58401 8.39188,-12.75115 15.31444,-8.70408 1.74308,1.01917 3.61244,-0.393 3.61244,-2.0634 0,-0.45438 -0.13793,-0.92745 -0.45437,-1.37583 -1.29893,-1.84186 -1.88243,-3.8608 -1.88243,-5.82683 0,-5.5559 4.66161,-10.68564 11.010553,-10.17517 1.58503,0.12735 2.58622,-1.13771 2.58622,-2.41618 0,-0.78599 -0.37853,-1.57762 -1.23296,-2.05281 -3.52037,-1.95863 -5.227113,-5.41938 -5.226763,-8.86849 0,-3.07446 1.362783,-6.1348 4.000863,-8.11777 -1.21109,0.2854 -2.45534,0.46743 -3.729923,0.5334"
           style="fill:#f66027;fill-opacity:1;fill-rule:nonzero;stroke:none;stroke-width:0.0352778"
           id="path1843-6" />
        <path
           d="m 68.118167,181.57498 -6.90034,-0.006 c 1.13595,1.46473 1.81116,3.29388 1.81116,5.26238 0,0.19932 -0.007,0.40005 -0.0212,0.60184 -0.3302,4.74205 -4.44253,8.3178 -9.18422,7.98725 -4.53778,-0.31644 -8.00841,-4.09611 -8.00841,-8.57674 0,-0.20108 0.007,-0.40393 0.0212,-0.60748 0.12347,-1.77024 0.7747,-3.37714 1.78823,-4.6796 l -6.77581,-0.008 c 0,0 -1.34408,1.25201 -1.34408,5.77074 0,8.15941 6.42797,13.91427 13.87757,14.43356 3.98463,0.27799 7.83908,-1.01247 10.85321,-3.63397 3.01273,-2.62008 5.10435,-5.83071 5.10435,-10.23973 0,-2.31175 -0.63183,-5.38656 -1.22167,-6.30343"
           style="fill:#1ad3bb;fill-opacity:1;fill-rule:nonzero;stroke:none;stroke-width:0.0352778"
           id="path1845-0" />
        <path
           d="m 81.787954,188.67251 c 0.5969,0.98355 1.28693,1.90112 2.05951,2.74391 -4.79495,3.25226 -7.91139,8.75101 -7.91139,14.84419 0,0.42227 0.0152,0.8442 0.0459,1.26471 -3.15489,-0.17181 -6.34506,0.49212 -9.23255,1.9939 -2.89031,1.50318 -5.26768,3.73697 -6.93843,6.42196 -2.45251,-1.99672 -5.42643,-3.33692 -8.64835,-3.81987 -3.22933,-0.48366 -6.47347,-0.0709 -9.40894,1.12571 -0.96484,-3.67418 -3.09562,-6.97336 -6.161264,-9.41987 -2.04999,-1.63654 -4.38538,-2.77813 -6.85059,-3.38843 0.7881,-2.03271 1.2005,-4.21005 1.2005,-6.43855 0,-2.11878 -0.34925,-4.19453 -1.08021,-6.11435 -1.65735,-4.35575 -4.08975,-6.34541 -4.08975,-6.34541 l -9.6326,-0.0152 c 0.0917,0.71296 0.51047,1.38994 1.30281,1.75859 l 0.45403,0.21061 c 4.32929,2.00519 6.69854,6.21983 6.69854,10.50573 0,2.81058 -1.01847,5.65115 -3.17077,7.92162 l -0.73977,0.7807 c -0.4946,0.47555 -0.71085,1.05692 -0.71085,1.62525 -3.5e-4,1.32221 1.17017,2.57528 2.7365,2.26907 l 0.16439,-0.0374 c 7.33002,-1.66653 14.115004,3.97051 14.115004,11.22468 0,0.50835 -0.0332,1.02447 -0.10196,1.54658 l -0.140754,1.07033 c -0.0265,0.14851 -0.0388,0.29351 -0.0388,0.43356 -3.5e-4,1.98261 2.514604,3.0868 3.966634,1.52682 l 0.37889,-0.40746 c 5.52979,-5.94289 15.30314,-4.47851 18.84786,2.82399 l 0.24306,0.50059 c 0.99624,2.05281 4.05412,1.54235 4.32999,-0.72284 l 0.067,-0.55245 c 0.98037,-8.05815 9.74796,-12.6178 16.90829,-8.79369 l 0.49071,0.26211 c 1.63583,0.87383 3.37785,-0.42263 3.37785,-2.00942 0,-0.36583 -0.0921,-0.74683 -0.29951,-1.12007 l -0.27058,-0.48648 c -1.00259,-1.80375 -1.46508,-3.7211 -1.46508,-5.59506 0,-5.49769 3.97862,-10.62637 9.97514,-11.45787 l 0.55139,-0.0762 c 1.27318,-0.17674 1.97521,-1.22696 1.97521,-2.28247 0,-0.81774 -0.42157,-1.63901 -1.32469,-2.05917 l -1.28375,-0.59867 c -3.06,-1.42734 -5.12269,-3.94934 -6.07131,-6.81143 -2.47967,-0.25471 -4.85916,-0.91652 -7.11976,-1.96921 0,0 0.91652,4.56107 2.80247,7.66692"
           style="fill:#fab744;fill-opacity:1;fill-rule:nonzero;stroke:none;stroke-width:0.0352778"
           id="path1847-6" />
      </g>
    </g>
  </g>
  <metadata
     id="metadata1">
    <rdf:RDF>
      <cc:Work
         rdf:about="">
        <dc:title>Bicycle Repair Icon</dc:title>
        <dc:date>2024-05-29</dc:date>
        <dc:creator>
          <cc:Agent>
            <dc:title>Sam Whited</dc:title>
          </cc:Agent>
        </dc:creator>
        <dc:description>Three stacked gears like a styleized cassette with a circle like a lock ring in the middle.</dc:description>
      </cc:Work>
    </rdf:RDF>
  </metadata>
</svg>
