<?xml version="1.0" encoding="UTF-8" standalone="no"?>
<!-- Created with Inkscape (http://www.inkscape.org/) -->

<svg
   version="1.1"
   id="svg1791"
   width="960"
   height="783.1333"
   viewBox="0 0 960 783.1333"
   sodipodi:docname="logo.svg"
   inkscape:version="1.3.2 (091e20ef0f, 2023-11-25, custom)"
   xmlns:inkscape="http://www.inkscape.org/namespaces/inkscape"
   xmlns:sodipodi="http://sodipodi.sourceforge.net/DTD/sodipodi-0.dtd"
   xmlns="http://www.w3.org/2000/svg"
   xmlns:svg="http://www.w3.org/2000/svg">
  <defs
     id="defs1795">
    <clipPath
       clipPathUnits="userSpaceOnUse"
       id="clipPath1809">
      <path
         d="M 5176,0 V 297 H 7200 V 0 Z"
         id="path1807" />
    </clipPath>
  </defs>
  <sodipodi:namedview
     id="namedview1793"
     pagecolor="#ffffff"
     bordercolor="#666666"
     borderopacity="1.0"
     inkscape:showpageshadow="2"
     inkscape:pageopacity="0.0"
     inkscape:pagecheckerboard="0"
     inkscape:deskcolor="#d1d1d1"
     showgrid="false"
     inkscape:zoom="0.58328637"
     inkscape:cx="842.63927"
     inkscape:cy="207.44527"
     inkscape:window-width="3836"
     inkscape:window-height="1522"
     inkscape:window-x="0"
     inkscape:window-y="27"
     inkscape:window-maximized="1"
     inkscape:current-layer="g1801">
    <inkscape:page
       x="0"
       y="0"
       id="page1797"
       width="960"
       height="783.1333"
       margin="0"
       bleed="0" />
  </sodipodi:namedview>
  <g
     id="g1799"
     inkscape:groupmode="layer"
     inkscape:label="Page 1"
     transform="matrix(1.3333333,0,0,-1.3333333,0,783.13333)">
    <g
       id="g1801"
       transform="scale(0.1)">
      <g
         id="g1803">
        <g
           id="g1805"
           clip-path="url(#clipPath1809)" />
      </g>
      <g
         id="g3"
         inkscape:label="Bike">
        <path
           d="m 3691.26,3959.58 c 0.47,31.46 -10.08,56.61 -31.64,75.42 -21.57,18.8 -47.84,26.32 -78.78,22.56 l -170.99,-20.76 -0.37,-402.74 -0.68,-117.9 173.1,21.02 c 29.55,3.59 55.3,17.76 77.3,42.58 21.95,24.8 32.47,52.85 31.55,84.15 l 1.59,4.5 z m -1,-732.7 c 0.46,31.46 -10.09,56.62 -31.66,75.42 -21.55,18.8 -47.84,26.32 -78.77,22.56 l -170.99,-20.75 -1.72,-38.76 1.43,-117.65 -0.37,-402.74 173.1,21.01 c 29.55,3.59 55.3,17.77 77.29,42.59 21.96,24.79 32.48,52.84 31.56,84.15 l 1.28,289.34 -0.76,6.33 z m 2.61,1037.07 c 61.84,-15.36 112.21,-48.16 151.18,-98.39 38.93,-50.26 58.38,-110.39 58.3,-180.35 l -0.51,-295.66 0.39,-38.52 c -1.19,-37.28 -7.85,-73.78 -19.91,-109.51 -12.09,-35.74 -28.47,-68.45 -49.14,-98.07 45,-53.1 67.73,-116.74 68.16,-190.93 l -1.71,-38.77 1.59,-295.41 c -1.32,-71.58 -21.57,-137.23 -60.7,-196.94 -39.17,-59.73 -89.03,-104.72 -149.63,-134.9 -35.08,-17.12 -72.3,-28.05 -111.68,-32.84 l -173.1,-21.01 -208.98,-25.37 1.02,732.7 -0.4,38.49 -76,-9.22 0.36,173.56 -0.39,38.5 75.99,9.22 1.01,732.7 211.09,25.63 173.1,21.01 c 37.99,4.62 74.64,2.65 109.96,-5.92"
           style="fill:#231f20;fill-opacity:1;fill-rule:nonzero;stroke:none"
           id="path1811" />
        <path
           d="m 4296.39,4356.49 -3.7,-1716.21 -208.98,-25.37 1.59,1715.96 211.09,25.62"
           style="fill:#231f20;fill-opacity:1;fill-rule:nonzero;stroke:none"
           id="path1813" />
        <path
           d="m 5217.37,3086.7 c -0.9,-4.4 -0.83,-10.8 0.2,-19.25 l -2.44,-315.18 -208.97,-25.37 -0.05,212.05 1.2,113.67 c -2.03,28.31 -13.71,51.16 -35.11,68.58 -21.38,17.39 -46.16,24.37 -74.3,20.97 l -175.2,-21.28 0.55,-216.27 0.04,-212.05 -211.09,-25.64 1.52,428.59 -75.99,-9.22 -0.05,212.06 76,9.22 0.81,751.95 1.41,323.61 208.98,25.37 0.2,-19.24 0.5,-304.12 -1.03,-291.43 0.21,-460.51 173.1,21.02 c 28.14,3.4 52.92,16.75 74.39,40.07 21.44,23.31 33.27,49.36 35.49,78.22 l -0.32,355.53 1.03,291.45 -0.5,304.11 -0.2,19.25 211.09,25.62 -1.42,-323.61 0.64,-640.39 c -1.07,-3.01 -1.25,-7.31 -0.57,-12.92 -2.45,-38.85 -10.72,-76.64 -24.8,-113.33 -14.12,-36.72 -33.54,-70.84 -58.26,-102.39 50.27,-49.59 77.94,-112.63 82.94,-189.14"
           style="fill:#231f20;fill-opacity:1;fill-rule:nonzero;stroke:none"
           id="path1815" />
        <path
           d="m 6132.86,4579.45 0.04,-212.06 -19,-2.3 -301.86,-36.65 -61.22,-7.44 c -30.97,-3.76 -57.13,-17.64 -78.48,-41.65 -21.38,-24.02 -32.27,-51.76 -32.74,-83.23 l -1.03,-291.43 1.17,-115.54 173.1,21.01 118.21,14.36 19,2.3 0.3,-214.17 -19,-2.3 -118.21,-14.36 -175.2,-21.27 0.63,-340.48 0.22,-89.95 -0.33,-15.04 c 0.58,-28.51 9.13,-51.74 25.61,-69.72 16.44,-18.02 37.7,-28.28 63.71,-30.81 l 194.21,23.57 208.98,25.37 0.04,-212.06 0.26,-2.11 -211.09,-25.62 -173.1,-21.02 c -5.64,-0.68 -10.92,-1.31 -15.83,-1.92 -4.95,-0.6 -11,-0.64 -18.2,-0.07 -24.11,-1.51 -49.41,1.13 -75.93,7.92 -61.84,15.31 -112.25,48.13 -151.18,98.39 -38.96,50.21 -58.47,111.04 -58.57,182.45 l 0.37,102.86 1.45,111.57 -1.5,100.49 1.26,130.81 -75.99,-9.23 -0.04,212.07 75.99,9.22 1.72,409.34 c 0.07,69.96 19.67,134.83 58.84,194.57 39.14,59.72 89.04,104.69 149.63,134.91 33.62,16.94 70.85,27.88 111.68,32.83 l 63.33,7.7 318.75,38.69"
           style="fill:#231f20;fill-opacity:1;fill-rule:nonzero;stroke:none"
           id="path1817" />
      </g>
      <g
         id="g2"
         style="display:none"
         inkscape:label="The Old">
        <path
           d="m 3403.67,5271 0.02,-97.89 -8.77,-1.06 -100.35,-12.18 -0.76,-694.11 -97.42,-11.83 1.73,694.23 -22.41,-2.72 -96.45,-11.71 -0.02,97.87 62.35,7.57 56.51,6.87 57.48,6.98 38.98,4.72 109.11,13.26"
           style="fill:#231f20;fill-opacity:1;fill-rule:nonzero;stroke:none"
           id="path1819" />
        <path
           d="m 3812.86,5320.67 -0.65,-149.35 -1.06,-642.75 -96.45,-11.71 -0.02,97.87 -0.25,99.83 -130.56,-15.85 0.26,-99.83 0.02,-97.87 -97.43,-11.83 0.71,197.82 -35.08,-4.26 -0.02,97.86 35.07,4.26 0.38,347.06 0.65,149.36 96.45,11.72 0.1,-8.9 0.23,-140.35 -0.48,-134.5 0.1,-212.55 130.55,15.85 -0.1,212.54 0.48,134.51 -0.24,140.35 -0.08,8.89 97.42,11.83"
           style="fill:#231f20;fill-opacity:1;fill-rule:nonzero;stroke:none"
           id="path1821" />
        <path
           d="m 4234.71,5371.88 0.01,-97.87 -8.76,-1.06 -139.32,-16.91 -28.25,-3.45 c -14.3,-1.72 -26.38,-8.13 -36.23,-19.21 -9.87,-11.09 -14.89,-23.91 -15.11,-38.41 l -0.48,-134.51 0.55,-53.33 79.89,9.69 54.56,6.64 8.76,1.06 0.14,-98.86 -8.76,-1.06 -54.57,-6.62 -80.86,-9.82 0.29,-157.15 0.1,-41.51 -0.15,-6.93 c 0.27,-13.16 4.22,-23.89 11.82,-32.18 7.59,-8.33 17.4,-13.06 29.41,-14.23 l 89.63,10.88 96.45,11.71 0.02,-97.88 0.12,-0.97 -97.43,-11.83 -79.89,-9.69 c -2.6,-0.33 -5.03,-0.62 -7.3,-0.89 -2.28,-0.29 -5.08,-0.29 -8.4,-0.04 -11.13,-0.7 -22.8,0.53 -35.05,3.65 -28.54,7.08 -51.8,22.22 -69.77,45.43 -17.98,23.17 -26.98,51.24 -27.03,84.21 l 0.16,47.47 0.68,51.48 -0.69,46.39 0.58,60.37 -35.07,-4.25 -0.02,97.87 35.07,4.25 0.79,188.94 c 0.04,32.28 9.08,62.22 27.16,89.79 18.07,27.56 41.09,48.33 69.06,62.27 15.52,7.81 32.7,12.86 51.55,15.16 l 29.22,3.54 147.12,17.86"
           style="fill:#231f20;fill-opacity:1;fill-rule:nonzero;stroke:none"
           id="path1823" />
      </g>
      <g
         id="g1"
         inkscape:label="Shed Old"
         style="display:none">
        <path
           d="m 3854.66,1112.43 0.8,-147.711 -1.92,-19.508 c -3.25,-67.531 -23.97,-128.949 -62.24,-184.262 -38.27,-55.367 -87,-98.058 -146.18,-128.07 -16.2,-7.699 -32.89,-14.379 -50.05,-20.008 -17.18,-5.672 -34.92,-9.59 -53.18,-11.812 l -2.12,-0.246 -6.33,-0.774 -173.09,-21.019 -208.99,-25.368 -0.04,212.059 211.1,25.629 175.2,21.269 c 29.39,4.981 54.74,19.493 76.12,43.512 21.35,24.008 31.63,50.969 30.88,80.859 l -0.13,336.28 c 0.64,30.07 -9.54,54.88 -30.46,74.48 -20.96,19.59 -46.92,27.52 -77.85,23.76 l -63.33,-7.68 -6.33,-0.78 -2.11,-0.25 c -42.4,-3.74 -81.82,0.41 -118.25,12.42 -36.47,11.98 -68.62,29.85 -96.48,53.61 -27.88,23.73 -50.36,53.12 -67.47,88.21 -17.11,35.03 -26.75,73.12 -28.88,114.31 l -0.19,19.23 0.52,295.68 c 0.08,69.97 19.68,134.82 58.85,194.57 39.14,59.72 89.72,104.77 151.74,135.16 33.62,16.94 70.16,27.81 109.57,32.59 l 173.1,21.02 208.97,25.37 0.04,-212.06 -208.98,-25.37 -173.09,-21.02 c -30.97,-3.76 -57.13,-17.64 -78.48,-41.66 -21.38,-24.02 -32.27,-51.78 -32.74,-83.23 l -0.52,-295.67 c 0.92,-31.3 11.84,-56.39 32.71,-75.28 20.84,-18.89 46.15,-27.26 75.87,-25.07 l 65.44,7.95 -0.26,2.12 2.37,-1.86 c 37.99,4.62 73.92,2.56 107.85,-6.19 61.84,-15.34 112.21,-48.15 151.17,-98.38 38.94,-50.27 58.39,-110.39 58.32,-180.36 l -1.33,-147.94 0.4,-38.51"
           style="fill:#231f20;fill-opacity:1;fill-rule:nonzero;stroke:none"
           id="path1825" />
        <path
           d="m 4784.68,2467.71 -1.4,-323.62 -2.3,-1392.598 -208.98,-25.371 -0.04,212.059 -0.55,216.28 -282.87,-34.34 0.55,-216.268 0.05,-212.063 -211.1,-25.629 1.53,428.59 -76,-9.22 -0.04,212.05 75.99,9.22 0.82,751.95 1.41,323.63 208.98,25.37 0.19,-19.27 0.51,-304.11 -1.03,-291.43 0.22,-460.51 282.85,34.34 -0.21,460.51 1.03,291.44 -0.5,304.11 -0.2,19.26 211.09,25.62"
           style="fill:#231f20;fill-opacity:1;fill-rule:nonzero;stroke:none"
           id="path1827" />
        <path
           d="m 5698.69,2578.68 0.04,-212.06 -19,-2.31 -301.86,-36.65 -61.22,-7.43 c -30.97,-3.76 -57.14,-17.64 -78.48,-41.65 -21.39,-24.03 -32.27,-51.79 -32.74,-83.24 l -1.03,-291.44 1.17,-115.52 173.1,21.01 118.21,14.36 19,2.3 0.29,-214.17 -18.99,-2.3 -118.21,-14.36 -175.21,-21.27 0.64,-340.5 0.21,-89.95 -0.32,-15.03 c 0.58,-28.5 9.13,-51.73 25.6,-69.71 16.45,-18.02 37.7,-28.29 63.72,-30.82 l 194.2,23.57 208.99,25.37 0.04,-212.06 0.26,-2.109 L 5486,837.09 5312.91,816.07 c -5.65,-0.679 -10.92,-1.328 -15.83,-1.918 -4.95,-0.601 -11.01,-0.64 -18.2,-0.07 -24.12,-1.512 -49.41,1.129 -75.93,7.93 -61.84,15.308 -112.25,48.109 -151.19,98.379 -38.96,50.218 -58.46,111.049 -58.56,182.459 l 0.36,102.86 1.46,111.56 -1.5,100.49 1.26,130.82 -75.99,-9.23 -0.04,212.05 75.99,9.23 1.71,409.34 c 0.07,69.97 19.68,134.82 58.85,194.57 39.13,59.73 89.03,104.7 149.63,134.91 33.62,16.93 70.85,27.89 111.68,32.84 l 63.33,7.7 318.75,38.69"
           style="fill:#231f20;fill-opacity:1;fill-rule:nonzero;stroke:none"
           id="path1829" />
        <path
           d="m 6374.86,2337.31 c 0.47,31.47 -10.08,56.61 -31.64,75.43 -21.57,18.79 -47.84,26.32 -78.79,22.56 l -170.98,-20.76 -1.68,-1291.85 173.1,21.02 c 29.56,3.59 55.31,17.76 77.3,42.59 21.96,24.79 32.47,52.84 31.56,84.15 z m 1.61,304.38 c 61.84,-15.36 112.21,-48.16 151.17,-98.4 38.94,-50.25 58.39,-110.38 58.31,-180.35 l -1.13,-1066.86 c -1.32,-71.58 -21.57,-137.23 -60.7,-196.94 -39.17,-59.75 -89.04,-104.718 -149.64,-134.898 -35.07,-17.121 -72.3,-28.062 -111.68,-32.851 l -173.09,-21.012 -208.98,-25.367 1.59,1715.958 211.09,25.63 173.1,21.02 c 37.99,4.61 74.64,2.63 109.96,-5.93"
           style="fill:#231f20;fill-opacity:1;fill-rule:nonzero;stroke:none"
           id="path1831" />
      </g>
      <path
         d="m 2980.33,1114.04 c -142.17,0.01 -270.68,-65 -354.01,-170.118 -78.62,134.048 -224.28,222.038 -390.82,222.048 -86.76,0.01 -169.55,-24.95 -240.16,-70.29 -13.47,66.98 -42.38,130.47 -85.7,185.63 -86.07,109.62 -219.82,175.06 -357.8,175.07 -35.37,0.01 -70.16,-4.18 -103.92,-12.39 12.14,91.8 -4.95,186.1 -51.72,271.62 -73.26,134.01 -206.27,221.43 -353.54,234.93 52.52,105.37 61.65,229.15 20.46,347.49 -42.16,121.12 -129.018,213.98 -238.987,263.2 84.879,83.47 133.719,199.1 132.058,326.15 -1.66,127.01 -53.476,241.3 -140.461,322.52 107.336,51.4 191.04,144.88 230.71,265.55 39.68,120.68 27.76,245.63 -28.16,350.7 144.72,17.08 273.65,105.29 344.38,238.75 46.77,88.25 62.39,184.89 47.49,278.24 30.24,-6.52 61.2,-9.84 92.55,-9.84 140.05,0 275.03,67.2 361.07,179.75 43.79,57.29 72.23,122.93 84.34,191.89 68.02,-41.27 146.64,-63.47 230.04,-63.47 172.12,0 320.11,91.71 396.82,231.15 81.04,-97.29 201.45,-156.71 336.37,-159.5 l 0.44,179 c -111.1,3.71 -219.9,72.65 -253.9,202.18 -13.97,53.22 -57.39,78.41 -100.86,78.4 -50.66,0 -101.39,-34.24 -105.57,-98.23 v 0 c -10.38,-158.9 -140.8,-254.09 -273.3,-254.09 -83.51,0 -167.85,37.82 -223.47,121.36 v 0 c -22.07,33.14 -53.95,47.39 -85.47,47.39 -62.81,0 -124.15,-56.61 -103.33,-133.17 v 0 c 51.04,-187.75 -98.32,-343.76 -263.18,-343.76 -55.1,0 -111.93,17.43 -163.58,56.92 v 0 c -20.62,15.76 -42.59,22.58 -63.64,22.58 -75.58,0 -139.41,-87.89 -87.09,-165.01 v 0 c 127.8,-188.35 -17.89,-424.66 -221.722,-424.66 -28.637,0 -58.445,4.67 -88.77,14.78 h -0.007 c -12.309,4.12 -24.211,6 -35.532,6 -92.546,0 -145.683,-125.91 -60.769,-189.65 v 0 C 989.188,3677.32 880.574,3346.94 620.996,3344.69 501.848,3343.65 476.188,3176.42 589.535,3139.7 h 0.008 c 246.953,-79.99 251.492,-427.73 6.719,-514.15 -111.664,-39.42 -82.711,-204.1 34.597,-204.1 0.723,0 1.469,0.01 2.204,0.02 1.789,0.03 3.539,0.04 5.316,0.04 255.797,-0.02 370.041,-324.05 167.984,-484.16 v 0 c -82.418,-65.3 -27.879,-188.03 63.059,-188.03 12.101,0 24.855,2.18 38.016,6.96 32.484,11.78 64.476,17.19 95.222,17.19 200.27,-0.02 347.32,-229.35 225.88,-418.8 v 0 c -49.73,-77.58 14.34,-162.72 88.82,-162.72 21.84,0 44.56,7.32 65.58,24.27 v 0 c 52.72,42.53 111.63,61.27 168.88,61.26 162.16,-0.02 310.7,-150.46 265.23,-336.851 v 0 c -18.54,-75.957 42.17,-130.457 104.03,-130.457 32.41,0 65.14,14.957 86.95,49.637 v 0.011 c 54.96,87.422 141.58,127.262 227.46,127.25 130.01,-0.011 258.34,-91.289 272.61,-246.949 5.74,-62.641 55.46,-95.492 105.15,-95.492 44.45,0 88.87,26.301 101.72,81.062 v 0 c 26.19,111.539 108.25,180.301 200.91,201.981 69.83,23.949 119.7,78.978 138.14,107.218 35.62,54.51 -22.7,79.15 -73.69,79.15"
         style="fill:#985184;fill-opacity:1;fill-rule:nonzero;stroke:none"
         id="path1839" />
      <path
         d="m 2992.03,1007.43 c 16.89,-1.4 44.99,4.8 61.99,27.46 9.91,13.19 18.45,28.55 19.71,48.71 2.32,37.09 10.93,71.02 24.03,101.78 -11.29,8.26 -22.38,16.8 -33.04,25.9 -37.48,31.88 -100.05,106.75 -100.97,105.21 -87.12,85.02 -205.59,134.41 -336.45,134.41 -104.63,0 -203.03,-33.14 -283.5,-92.08 -21.04,48.87 -50.46,94.23 -87.71,134.46 -92.05,99.41 -222.22,156.42 -357.14,156.43 -38.3,0.01 -75.77,-4.47 -111.99,-13.25 -1.19,84.39 -24.92,168.11 -70.87,242.94 -74.88,121.97 -200.07,204.48 -337.48,225.99 41.07,103.27 45.72,219.82 8.66,330.51 -37.11,110.84 -111.16,201.19 -206.34,258.89 77.66,79.73 126.69,185.76 134.82,302.38 8.11,116.3 -25.53,227.84 -91.05,317.46 107.99,46.14 196.58,131.86 247.87,245.52 45.57,100.99 54.77,209.74 29.87,311.32 151.94,2.23 295.66,78.14 385.57,204.03 44.26,61.96 72.32,131.41 83.51,203.61 54.83,-21.75 113.91,-33.08 175.26,-33.08 176.97,0 329.89,90.61 414.19,230.1 87.12,-85.02 205.6,-134.39 336.46,-134.39 12.14,0 24.18,0.54 36.14,1.42 -14.81,35.06 -22.97,72.97 -22.88,111.89 l 0.17,66.02 c -4.48,-0.19 -8.95,-0.43 -13.43,-0.43 -121.9,0 -243.4,71.28 -288.25,208.55 -12.47,38.16 -44.48,56 -76.48,56 -39.31,-0.01 -78.63,-26.93 -81.7,-76.16 -10.93,-174.95 -155.52,-284.09 -304.22,-284.09 -81.71,0 -164.67,32.98 -227.35,106.1 v 0 c -17.3,20.2 -39.11,28.87 -60.46,28.87 -50.48,0 -98.36,-48.53 -77.97,-108.02 v -0.01 c 71.45,-208.38 -91.91,-401.55 -285.44,-401.55 -45.07,0 -91.8,10.49 -137.55,33.7 v 0 c -12.81,6.5 -25.54,9.4 -37.65,9.4 -63.35,0 -109.66,-79.17 -59.95,-135.5 174.07,-197.28 30.41,-502.71 -224.91,-502.71 -8.25,0 -16.63,0.32 -25.11,0.98 v 0 c -2.45,0.18 -4.85,0.28 -7.21,0.28 -83.735,0 -112.875,-115.89 -34.703,-154.14 v 0 c 243.953,-119.37 219.173,-474.84 -38.985,-559.21 -85.058,-27.8 -69.152,-152.6 20.156,-158.18 271.062,-16.93 384.202,-354.83 177.982,-531.57 v 0 c -60.21,-51.6 -18.02,-143.25 51.27,-143.25 8.9,0 18.25,1.52 27.89,4.82 34.13,11.71 67.86,17.11 100.4,17.11 212.35,0 374.01,-230.08 267.45,-440.1 -30.47,-60.07 18.36,-118.55 73,-118.55 17.94,0 36.52,6.3 53.11,20.95 59.94,52.89 129.87,76.45 198.19,76.45 163.76,-0.01 318.25,-135.39 303.54,-326.47 v -0.01 c -4.17,-54.12 38.87,-87.58 82.16,-87.58 28.06,0 56.23,14.06 71.69,45.68 v 0 c 55.91,114.25 163.59,169.55 270.97,169.55 121.9,0 243.39,-71.28 288.25,-208.54 12.47,-38.17 52.86,-54.05 76.48,-56.01"
         style="fill:#f66027;fill-opacity:1;fill-rule:nonzero;stroke:none"
         id="path1841" />
      <path
         d="m 2868.02,1617.05 c -0.2,3.95 -0.32,7.92 -0.36,11.88 l -0.19,19.25 c -0.01,1.12 -0.02,2.24 -0.02,3.35 l 0.18,100.29 c -64.75,33.22 -137.73,51.82 -214.58,51.82 -87.86,0.02 -170.67,-23.5 -241.81,-66.61 -19.85,42.16 -46.27,81.49 -78.88,116.83 -89.19,96.65 -215.24,152.09 -345.83,152.09 -14.57,0 -29.07,-0.69 -43.48,-2.06 0.89,81.26 -19.91,162.64 -62.46,236.79 -55.57,96.88 -142.82,169.28 -243.87,206.78 41.94,84.44 57.64,181.39 42.28,279.79 -15.33,98.27 -59.72,185.72 -125.21,253.32 74.24,57.87 130.33,138.3 159.15,233.49 28.82,95.2 26.78,193.24 -2.92,282.59 116.55,25.33 220.64,95.45 289.41,198.05 41.25,61.55 66.6,129.33 75.63,199.11 34.72,-8.29 70.51,-12.56 106.75,-12.56 163.82,0 309.17,84.4 393.14,212.86 81.52,-66.78 185.26,-105.13 296.74,-105.13 13.87,0 27.55,0.79 41.14,1.95 l 0.16,179.97 c -13.7,-1.94 -27.5,-3.01 -41.3,-3.01 -111.52,0 -222.63,62.99 -269.55,184.48 v 0 c -11.46,29.65 -37.02,43.38 -62.55,43.37 -32.94,0 -65.81,-22.84 -68.23,-63.78 -9.75,-165.09 -146.72,-271.81 -289.55,-271.81 -68.27,0 -137.91,24.42 -195.56,78.5 -13.99,13.13 -30.09,18.79 -45.71,18.79 -43.68,0 -83.64,-44.32 -63.27,-93.92 v 0 c 80.96,-197.04 -70.32,-398.44 -264.9,-398.44 -28.68,0 -58.34,4.38 -88.3,13.79 -7.44,2.35 -14.64,3.42 -21.54,3.42 -57.47,0 -92.38,-74.93 -44.04,-118.39 181.79,-163.39 90.57,-464.67 -151.33,-499.79 v 0 c -72.05,-10.46 -79.1,-111.69 -9.21,-132.04 234.69,-68.34 283.22,-379.38 80.52,-515.97 v 0 c -56.81,-38.28 -26.91,-124 36.64,-124 3.99,0 8.11,0.33 12.35,1.04 v 0 c 16.9,2.82 33.48,4.17 49.68,4.17 214.98,0 361.45,-237.88 246.73,-434.11 -28.89,-49.41 11.14,-102.4 58.49,-102.4 12.88,0 26.29,3.91 39,12.88 52.21,36.82 109.44,53.36 165.17,53.36 157.49,0 302.9,-132.14 288.43,-312.11 -3.61,-44.93 32.25,-73.31 68.49,-73.31 22.28,0 44.72,10.73 58.19,34.95 55.52,99.79 153.62,148.17 251.39,148.16 87.15,0 173.9,-38.63 230.11,-113.41 -8.09,34.33 -13.25,69.6 -15.12,105.73"
         style="fill:#fab744;fill-opacity:1;fill-rule:nonzero;stroke:none"
         id="path1843" />
      <path
         d="m 2911.45,2508.08 0.18,195.6 c -41.52,-32.2 -93.37,-51.34 -149.17,-51.34 -5.65,0 -11.34,0.2 -17.06,0.6 -134.42,9.36 -235.78,125.93 -226.41,260.34 8.97,128.63 116.11,227.01 243.12,227.01 5.7,0 11.45,-0.2 17.22,-0.6 50.18,-3.5 95.73,-21.96 132.65,-50.69 l 0.24,192.07 c 0,0 -35.49,38.1 -163.58,38.1 -231.29,0 -394.42,-182.21 -409.14,-393.38 -7.88,-112.95 28.7,-222.21 103.01,-307.65 74.27,-85.4 165.28,-144.69 290.26,-144.69 65.53,0 152.69,17.91 178.68,34.63"
         style="fill:#1ad3bb;fill-opacity:1;fill-rule:nonzero;stroke:none"
         id="path1845" />
      <path
         d="m 2710.26,2135.59 c -27.88,-16.92 -53.89,-36.48 -77.78,-58.38 -92.19,135.92 -248.06,224.26 -420.78,224.26 -11.97,0 -23.93,-0.43 -35.85,-1.3 4.87,89.43 -13.95,179.86 -56.52,261.71 -42.61,81.93 -105.93,149.32 -182.04,196.68 56.6,69.52 94.59,153.82 108.28,245.15 13.71,91.54 2.01,183.5 -31.91,266.71 104.15,27.35 197.67,87.75 267.02,174.65 46.39,58.11 78.75,124.31 96.05,194.19 57.62,-22.34 119.34,-34.03 182.51,-34.03 60.06,0 118.9,9.9 173.32,30.62 123.47,46.98 179.87,115.93 179.87,115.93 l 0.43,273.05 c -20.21,-2.6 -39.4,-14.47 -49.85,-36.93 l -5.97,-12.87 c -56.84,-122.72 -176.31,-189.88 -297.8,-189.88 -79.67,0 -160.19,28.87 -224.55,89.88 l -22.13,20.97 c -13.48,14.02 -29.96,20.15 -46.07,20.15 -37.48,0.01 -73,-33.17 -64.32,-77.57 l 1.06,-4.66 c 47.24,-207.78 -112.55,-400.11 -318.18,-400.11 -14.41,0 -29.04,0.94 -43.84,2.89 l -30.34,3.99 c -4.21,0.75 -8.32,1.1 -12.29,1.1 -56.2,0.01 -87.5,-71.28 -43.28,-112.44 l 11.55,-10.74 c 168.46,-156.75 126.95,-433.79 -80.05,-534.27 l -14.19,-6.89 c -58.19,-28.24 -43.72,-114.92 20.49,-122.74 l 15.66,-1.9 c 228.42,-27.79 357.67,-276.32 249.27,-479.29 l -7.43,-13.91 c -24.77,-46.37 11.98,-95.75 56.96,-95.75 10.37,0 21.17,2.61 31.75,8.49 l 13.79,7.67 c 51.13,28.42 105.48,41.53 158.6,41.53 155.84,0 301.22,-112.78 324.79,-282.76 l 2.16,-15.63 c 5.01,-36.09 34.78,-55.99 64.7,-55.99 23.18,0 46.46,11.95 58.37,37.55 l 16.97,36.39 c 40.46,86.74 111.95,145.21 193.08,172.1 7.22,70.29 25.98,137.74 55.82,201.82 0,0 -129.29,-25.98 -217.33,-79.44"
         style="fill:#985184;fill-opacity:1;fill-rule:nonzero;stroke:none"
         id="path1847" />
      <text
         xml:space="preserve"
         style="font-size:2174.19px;line-height:1.25;font-family:'Air Americana';-inkscape-font-specification:'Air Americana';stroke-width:15.0984"
         x="3295.1394"
         y="-233.54123"
         id="text1"
         transform="matrix(0.9923748,0.08682155,0.17498245,-0.9923748,0,0)"
         inkscape:label="Shop"><tspan
           sodipodi:role="line"
           id="tspan1"
           style="font-style:italic;font-variant:normal;font-weight:normal;font-stretch:normal;font-size:2174.19px;font-family:'Air Americana';-inkscape-font-specification:'Air Americana Italic';fill:#231f20;fill-opacity:1;stroke-width:15.0984"
           x="3295.1394"
           y="-233.54123">Shop</tspan></text>
      <text
         xml:space="preserve"
         style="font-size:892.983px;line-height:1.25;font-family:'Air Americana';-inkscape-font-specification:'Air Americana';stroke-width:18.6039"
         x="3967.5869"
         y="-4192.458"
         id="text2"
         transform="matrix(0.9923748,0.08682155,0.17498245,-0.9923748,0,0)"
         inkscape:label="Odoo"><tspan
           sodipodi:role="line"
           id="tspan2"
           style="fill:#231f20;fill-opacity:1;stroke-width:18.6039"
           x="3967.5869"
           y="-4192.458">Odoo</tspan></text>
    </g>
  </g>
</svg>
