<svg xmlns="http://www.w3.org/2000/svg" xml:space="preserve" width="864" height="520" viewBox="0 0 228.6 137.6"><g transform="translate(42.6 -59.6)"><path d="m-38 165.3 2 2.9h2.3l1.5 2.2s3.8-2.5 4-2.8l3.5-4.5h4l3.6 1s4-.7 4.1-.9c.1-.2 14.6-10 14.6-10L0 146l-4.7-7.6-5.7-1.4-3.6 2-6.1 6.9.2 2.4-3.2 2.8-4.9-.1-3.2 2.5-1.7 6z" style="fill:#fff;fill-opacity:1;stroke-width:1.5;stroke-linecap:round;stroke-linejoin:round"/><path d="m317.6 520-5.2-96.3-35.4 63.7-64.6 27.4-66.6-32.8-35.9-85.8 64.7-42.6s25.6 55.9 40.9 61c7 2.5 18.4 4.1 21.8 1.7 3.3-2.3 1.2.7-3-25a589 589 0 0 1-9-122c.6-28.2.8-39.5 6.1-51.5 5-11 19.6-21 31.7-23.2 13.4-2.4 42.8 9 59.7 25.7L587.9 129l29.4-30 29-12.9 25.6 11.5 77.8 172.5 11.2-43.4-12.3-60.5-13.3-30.2 48.4-15.7c6-.9 40.1 104.3 46.4 128.5l-21 79.5-55.5 16.7-69.3-44.6L678 520z" style="fill:#aaa;fill-opacity:1;stroke-width:6.70943;stroke-linecap:round;stroke-linejoin:round" transform="matrix(.265 0 0 .265 -42.6 59.6)"/><ellipse cx="15.6" cy="132.7" rx="36.8" ry="39.4" style="fill:#fff;fill-opacity:1;stroke-width:1.51858;stroke-linecap:round;stroke-linejoin:round" transform="rotate(-29.4)"/><path d="M-11.3 162.4C-5.9 186.5 3 191.5 12 191.9c10.1.5 18-.7 27.6-27.2-.4 10.9-6.2 30.6-27.6 31.2-19.3-2.6-24.5-25.3-25.6-31.2zm139.8-45.1a54 54 0 0 0 2.2 11.9c1 3 2.9 5.6 4.4 8.4-1.2 19.8-2 40.4-2.1 59.6h3.8l2.4-56.5z" style="fill:#555;fill-opacity:1;stroke-width:1.5;stroke-linecap:round;stroke-linejoin:round"/><path d="M128.8 117c2.9 2.8 6.6 12.7 12.9 19.5 7.1 7.8 17.2 12.4 22.8 11.3 6.6-1.3 10.6-15.2 11.4-27.2 1.5 5 2.7 25.3-12 30.5-24.8 2.1-33-25.2-35.1-34z" style="fill:#555;fill-opacity:1;stroke-width:1.5;stroke-linecap:round;stroke-linejoin:round"/><path d="M47.8 99.7c0 3.3 3.2 5.2 6.2 4.6 5-1 6.2-4.4 5.4-8.5 3.3 5.6.6 8.9-5 10.1-4 .9-8.4-1.1-6.6-6.2zm35.1-11.4c.7 1.4 3 3.8 5.2 4 1.6.2 3.6-.4 4.6-1.7 1.7-1.8 1.8-5 .4-7.1 3.2.3 5.9 5.8-3.3 11-6.2-.5-7-4.7-7-6.2z" style="fill:#aaa;fill-opacity:1;stroke-width:1.5;stroke-linecap:round;stroke-linejoin:round"/><path d="m93.1 147.2 22.8-45.4 2.2 18-5.9 17.6z" style="fill:#fff;fill-opacity:1;stroke-width:1.5;stroke-linecap:round;stroke-linejoin:round"/><path d="M43.4 117.4C57 141.8 73.8 147.7 90.8 144a47 47 0 0 0 16-6.1c6.2-4.2 9.8-10.8 9.3-32.1 5.3 21.1 1 36-24.7 41.7a41 41 0 0 1-48-30.2z" style="fill:#aaa;fill-opacity:1;stroke-width:1.5;stroke-linecap:round;stroke-linejoin:round"/><path d="m149.5 89 1 4.4 3.2 5.2 13.4-6.5 6.8-2.4 6.8 2.5-.5-4.8-11.6-5.5-14 2.2z" style="fill:#fff;fill-opacity:1;stroke-width:1.5;stroke-linecap:round;stroke-linejoin:round"/><path d="M39.8 197.2c-.4-6.2-.4-12.3-.7-18.4 0-.8-.1-2.4-.8-.9-1.5 3-3 6.2-5 9a22 22 0 0 1-14.2 9.6c-3.7.5-7.5.5-11.1-.2a27 27 0 0 1-16-13 65.8 65.8 0 0 1-6.7-18c0-1.5-1.2-1-2-.5-2 .4-3.6-1.5-5.5-1.3l-2.4.1c-1.7 2.6-3.5 5.4-6.4 6.8-1 .6-2.5.2-3-1 0-1.7-2.4.3-3-1-1.2-1-2-2.5-1.4-4 .7-1.5 2-2.7 3.1-4 1-.7 2.3-1.5 2-3 .6-2.5 1.6-5.2 4-6.5 1.8-1 4-.4 6-1 1-.6 2.8-1.4 2.3-2.9-.4-1.2 1-2.2 1.8-3 1.7-1 3-2.4 4-4.1 1.1-1.9 3-3.5 5.2-3.4 2.3-.2 4.8.4 6.3 2.2a21.1 21.1 0 0 1 5.4 13.5c.9 0 1.9-.5 2.7 0 1.1 1.6 1.5 3.5 2.2 5.2a23 23 0 0 0 6.6 10.1 7.6 7.6 0 0 0 5.5 1.5c.5-1-.2-2.5-.2-3.8-1.6-9.7-3-19.5-3.1-29.4 0-6.1-.2-12.5 1.8-18.4 1-2.6 3-5 5.4-6.3a13 13 0 0 1 10.4-.3c3 1 5.6 2.8 8 4.8 1.5 1 .3-1.8.3-2.6a50 50 0 0 1-.9-12.8 33 33 0 0 1 5.3-16.6c2-2.8 4.4-5.3 7-7.5 4.3-3.2 9.2-5.6 14.4-7a37 37 0 0 1 17.8-.2 49 49 0 0 1 28 22.3c.7 2 1.7-.5 2.5-1.3 2.4-2.6 4.8-5.4 8-7.2 1.9-.8 3.9-1.5 6-1.3 2.6.3 4.8 2 6.5 4 3.7 4 5 9.5 7.2 14.4 3.6 9.1 7.2 18.3 11.4 27.2.3.8 1.2 2.5 1.6.7a30 30 0 0 0-2-23.8c-.7-1.6-2-3-2.2-4.8.7-1.3-.2-2.5-1-3.6-1.1-2-2.4-4.3-1.7-6.7.9-1.8 2.7-3 4.1-4.2 1.1-.7 2-2 3.4-2.2 1.4.6 2.8.9 4.2.1 3.2-1 6.8-1.2 10.1-.6 1.4.5 3 1 3.7 2.4 1.1.7 2.6.3 3.7 1 1.7.8 2.4 2.7 3 4.4.8 1.2.1 3.1-1.5 3-2.4 0-4.5-1.5-6.6-2.5-1.7 1-3.3 2.1-5.2 2.7-.6.2-2.7-.3-1.4.8 1.6 1.7 2.2 4 3.2 6 3 7.5 5.6 15.2 7.7 23 .9 2.7 0 5.5-.3 8.2-.9 5.2-2 10.6-4.8 15.2-1.4 2-3.2 3.7-5.3 4.8-3 1.3-6.3 1-9.4 1a28.3 28.3 0 0 1-14.4-6.6c-1.3-1.1-2.4-2.5-3.8-3.4-.4 1.1-.2 2.5-.4 3.7-.7 12.8-1 25.7-1.3 38.5v13H39.8zm96 0c-.4-3.2-.1-6.4-.2-9.5.2-11.3.5-22.6 1.1-33.9l.7-15c-2.2-3-3.8-6.2-5.4-9.4a47.5 47.5 0 0 1-3.5-11.8c0-1.5 1.1.8 1.4 1.3 2.5 4.9 4.2 10.2 7 14.9 2.8 4.6 6.3 8.9 10.7 11.9 2.6 1.6 5.4 3 8.5 3.7 2.8.4 5.8.4 8.6-.1 2.8-.7 5.1-2.7 6.5-5.3a46.4 46.4 0 0 0 4.2-15.7 16 16 0 0 0-.3-6.7c-1.6-6.1-3.8-12-6-18-1-2.7-2-5.3-3.3-7.9-1.1-1-3-.8-4.3-.3a34 34 0 0 0-7 3.8c-.5 1 1 2.3 1.2 3.4a31.9 31.9 0 0 1 1 28.8c-.3 1-1.5 1.7-1.8.3-2-3.2-3.8-6.5-5.2-10-3.8-9-7.4-18-11-27.1a22.4 22.4 0 0 0-6.5-9.9 6.5 6.5 0 0 0-6.6-.7c-4.4 2-7.7 5.8-10.4 9.8-.2.4-.8.8-.5 1.3 1.7 4.9 3.1 10 3.7 15.1a40 40 0 0 1-2.4 22.2 24 24 0 0 1-12.6 12 53.7 53.7 0 0 1-23.3 4.3 40 40 0 0 1-26.6-11c-4.3-4-7.4-9-9.5-14.6a11 11 0 0 0-3.2-4.8 22 22 0 0 0-12-6.3 9.1 9.1 0 0 0-9.2 5.5 42 42 0 0 0-2 16.5c0 5.4.2 10.8.9 16.1a281 281 0 0 0 2.7 18.4c.8 1.6-1 2.7-2.3 2.7-3.5.4-6.9-1.4-9.1-4a35 35 0 0 1-6.2-12c-.3-1.9-2-.5-2.9 0-4 2.5-8 5.2-11.5 8.2-1.4.8-1.4 2.3-1 3.6 1 5 2.8 10 5.3 14.5 2 3.5 4.6 7 8 9.3 3.2 2.3 7.2 4 11.2 3.8 3.7 0 7.6 0 10.9-1.9 5-2.6 8.5-7.3 11-12.3 1.5-3.3 2.9-6.6 3.8-10.1.5-3.3.4-6.6.5-10 .2-6.5.2-13.2.7-19.8.1-1.7.3 1 .4 1.4.7 8.7 1 17.5 1 26.2.3 9 .4 18.1.8 27.2v1.9h94zm-166-28.8c1.3-1.1 2.5-2.4 3.2-3.8-1.2-.5-2.7.4-4 .9-1.2.3-2.4 1.3-2 2.7.2 2 2 .9 2.8.2zm-1.1-4.3c3.3-1.5 7-1.8 10.5-2.2 1.2.6 2.3 1.4 3.7 1.6 1.1-.5 2.5-2 1.5-3.1.9-.7 2.2 1.8 3.3 1.1 3.2-2 6.1-4.4 9.3-6.5 1.2-.8 2.8-1.5 3-3.2.5-2-.3-4.2-1-6.1-1-2.3-2.2-4.6-4-6.4a7 7 0 0 0-6.5-1.1c-2.3 1-2.9 3.6-4.6 5.2-1 1.1-2.7 1.6-3.3 3 .6 1.2 2.4 2 3.8 1.7 2.4-1 3.2-3.8 5-5.4 1.3.6 1.8 2.2 2.6 3.2.4.5 1.7 2.7.4 1.5-1-.8-1.7-2.2-2.9-2.5-1 1.1-1.7 2.5-3 3.4-1 .9-2.4 2-3.8 1.2l-2.2-1c-.8.9-1.8 1.6-2.3 2.7.2 2-2 .5-3 .5-1.5 0-3.3-.3-4.4 1a6.6 6.6 0 0 0-2.5 4.6c1 .6 2.5-1 3.8-1 3-.8 6.3-1.2 9.3-.5.7.6-1.8.3-2.4.4-3.5.4-7 1.1-10 3a15.9 15.9 0 0 0-6.2 6c-.3.8.7 1.5 1.2 2.2.3.2.7-.5 1-.7 1.1-1 2.3-2 3.7-2.6zM88 146.2a51 51 0 0 0 16-4.5c4.4-2.3 8.3-6 10.2-10.8 1.3-3 2.4-6.2 2.3-9.5 0-4 .2-8-.3-12-.7-4.3-1.7-8.5-3.2-12.5-.7-1.3-.9-2.7-1.6-4a45.4 45.4 0 0 0-21-19.8 33.8 33.8 0 0 0-24.8-1.4 41.5 41.5 0 0 0-11.7 6 29 29 0 0 0-11.4 22.4 50.8 50.8 0 0 0 9 32.2A37 37 0 0 0 74.7 146c4.4.7 8.8.8 13.2.2zm-21.3-28a16.1 16.1 0 0 1-3.4-5c-.8-1 .1-2.5 1-1.2.8 1 1.3 2 1.7 3l7.7-.1c3.3-1.7 6.8-3.3 10-5.1.9-.7-.7-3 1.3-2.8.4 1.2.7 2.5 1.2 3.7.6 1.4 1.3 2.8 1.5 4.4-1.2 1.1-1.8-1.2-2.3-2-.2-1.6-1.4-1.1-2.4-.5l-9 4.4h-6c-.2.6-.4 2.2-1.3 1.3zM49.3 106c-1.8-.8-2.8-2.9-2.7-4.9.2-2.1.6-4.5 2.1-6 1.6-1.5 3.6-2.7 5.8-2.6 1.5 0 3 .4 4 1.4 2 1.5 3.2 4 3 6.4 0 1.4-.7 2.7-1.6 3.7a8.5 8.5 0 0 1-4.3 2.3c-1.8.2-3.7.3-5.4 0a4 4 0 0 1-.9-.3zm6.8-1.3c2.5-.6 4.4-3.2 3.9-5.8-.4-2.1-1.7-4.2-3.8-4.8-2.5-.8-5.2.5-6.9 2.3a9.1 9.1 0 0 0-1.3 4.8c-.2 1.7 1 3.4 2.8 3.7 1.7.4 3.6.1 5.3-.2zm-4.8-2.9c-1.6-1.2 1.3-3.2 1.8-1.2.2.9-1 2.1-1.8 1.2zM87 94.4c-2-.8-3.7-2.3-4.8-4.1a7.2 7.2 0 0 1 0-4.8 9 9 0 0 1 3.3-4.1c1.8-.6 3.7-.4 5.5 0 2 .6 3.8 1.6 4.9 3.3 1 2.2 0 4.8-1.2 6.8a7 7 0 0 1-5.8 3.2c-.7 0-1.3 0-2-.3zm4.5-1.9a7.6 7.6 0 0 0 3.4-6.4c-.4-1.2-1.5-2-2.5-2.7-1.9-1-4-1-6.1-1.1-1.6 1.4-3.2 3.2-3.2 5.4 0 2.7 2.4 4.6 4.7 5.3 1.2.4 2.6.2 3.7-.5zm-3-5c-.8-.9 0-1.9.8-2.3.4-.6.9.1 1.3.3 1.2.8.5 2.5-.7 2.6-.6.1-1.1-.1-1.4-.6zM48.2 92c-.8-1 1-2.2 1.5-3 .9-1.2 1.7-2.4 3-3.2 1.2.4 2.3 1.1 3.7 1.4 1.2.7-.8 1.6-1.5 1l-2.3-.8c-1.3 1.6-2.4 3.3-3.9 4.7h-.2zM78 79.7c0-1.4 1.9-2 2.8-2.9 1.2-.8 2.7-2.2 4.3-1.3 1 .6 2.2 1.2 2.8 2.3-.3 1.8-2-.3-2.8-.8-1.3-1.2-2.6.4-3.7 1-1 .6-2.2 2.4-3.4 1.7zM155.5 96c2.8-1.6 5.7-3.3 9-3.3.3-.2-1.2-.7-1-1.2 1-1.2 2.6.1 3.8 0 1.3 0 2.4-1 3.6-1.5l2.5-1.4c2 1 3.8 2.4 6 2.7 1.9.1.2-2.3-.1-3.2-.6-1.4-2-2-3.5-2-3.2-.2-6.4.8-9.6 1.6-1.5.6-1.2-1.6.1-1.4 2-.7 4.1-1 6.1-1.7 1-.7-1.3-1.2-2-1.4-2.7-.6-5.6-.2-8.4.3-1 0-1.4 1-.3 1.2 1.4.5 3.2 1.7 1.6 3.1-1.2 1.4-3.3 1.3-4.8.7-2.2-.1 0 2-.2 3-.3.7-2 2.4-2.4 1 1-1.2.7-2.4 0-3.5.2-1 1.6-2.7 2.8-2.5.6 1.1 2.6 1.4 3.4.4-1.2-1.1-2.8-1.8-4.2-2.6-1.3-1-2.4.5-3.5 1.2-1.5 1.2-3.2 2.4-4 4.2-.2 1.8.8 3.4 1.6 4.9.6 1 1.3 3 2.7 1.9l.8-.5z" style="fill:#000;fill-opacity:1"/><g transform="translate(-.2 -2.6)"><rect width="20" height="20" x="50.5" y="177.2" rx="3" ry="3" style="fill:#4b4b4b;fill-opacity:1;stroke:#000;stroke-width:1;stroke-linecap:round;stroke-linejoin:round;stroke-dasharray:none;stroke-opacity:1"/><path d="M84.1 175.7v-2l-.3.2-.4.2-1 .6-.9-1.7 3-1.6h1.7v10.1h-2zm-2 5.8v-1.4l2-.2h2l2 .2v1.4z" aria-label="1" style="font-weight:700;font-size:14.1111px;font-family:&quot;Noto Sans Mono&quot;;-inkscape-font-specification:&quot;Noto Sans Mono Bold&quot;;text-align:end;text-anchor:end;fill:#fff;stroke-width:2.382;stroke-linecap:round;stroke-linejoin:round" transform="rotate(7.7)"/></g><g transform="translate(.8 -2.6)"><rect width="20" height="20" x="77" y="177.2" rx="3" ry="3" style="fill:#4b4b4b;fill-opacity:1;stroke:#000;stroke-width:1;stroke-linecap:round;stroke-linejoin:round;stroke-dasharray:none;stroke-opacity:1"/><path d="M83.6 192.9H90c.3 0 .5-.3.5-.5 0-.3-.2-.6-.5-.6h-5.2c.1-2 1.4-2.9 2.7-3.7 1.4-1 2.9-1.8 2.9-3.8 0-1.5-1.4-2.8-3.2-2.8a4 4 0 0 0-3 1.3c-.5.4-.6.5-.6.7 0 .3.3.6.6.6.2 0 .4-.2.5-.4.1-.1 1-1.2 2.5-1.2 1.2 0 2 .8 2 1.8 0 1.4-1 2-2.3 3-1.7 1-3.2 2.2-3.2 5z" aria-label="2" style="font-size:16.9333px;font-family:&quot;Comic Neue&quot;;-inkscape-font-specification:&quot;Comic Neue&quot;;text-align:end;text-anchor:end;fill:#fff;stroke-width:2.382;stroke-linecap:round;stroke-linejoin:round"/></g><g transform="translate(4 -2.6)"><rect width="20" height="20" x="105" y="177.2" rx="3" ry="3" style="fill:#4b4b4b;fill-opacity:1;stroke:#000;stroke-width:1;stroke-linecap:round;stroke-linejoin:round;stroke-dasharray:none;stroke-opacity:1"/><text xml:space="preserve" x="119.7" y="192.9" style="font-size:16.9354px;font-family:&quot;Comic Neue&quot;;-inkscape-font-specification:&quot;Comic Neue&quot;;text-align:end;text-anchor:end;fill:#fff;stroke:#000;stroke-width:1.00012;stroke-linecap:round;stroke-linejoin:round"><tspan x="119.7" y="192.9" style="font-size:16.9354px;fill:#fff;fill-opacity:1;stroke:none;stroke-width:1.00012">E</tspan></text></g></g></svg>