<?xml version="1.0" encoding="UTF-8" standalone="no"?>
<!-- Created with Inkscape (http://www.inkscape.org/) -->

<svg
   version="1.1"
   id="svg1"
   width="1200"
   height="400"
   viewBox="0 0 1200 400"
   sodipodi:docname="logo_square.svg"
   xml:space="preserve"
   inkscape:version="1.3.2 (091e20ef0f, 2023-11-25, custom)"
   xmlns:inkscape="http://www.inkscape.org/namespaces/inkscape"
   xmlns:sodipodi="http://sodipodi.sourceforge.net/DTD/sodipodi-0.dtd"
   xmlns="http://www.w3.org/2000/svg"
   xmlns:svg="http://www.w3.org/2000/svg"><defs
     id="defs1" /><sodipodi:namedview
     id="namedview1"
     pagecolor="#ffffff"
     bordercolor="#666666"
     borderopacity="1.0"
     inkscape:showpageshadow="2"
     inkscape:pageopacity="0.0"
     inkscape:pagecheckerboard="0"
     inkscape:deskcolor="#d1d1d1"
     inkscape:zoom="0.51928154"
     inkscape:cx="663.41661"
     inkscape:cy="556.53817"
     inkscape:window-width="1920"
     inkscape:window-height="1011"
     inkscape:window-x="0"
     inkscape:window-y="32"
     inkscape:window-maximized="1"
     inkscape:current-layer="g12" /><g
     inkscape:groupmode="layer"
     inkscape:label="Image"
     id="g1"><g
       id="g12"
       transform="translate(-6.6627327,-1.6897025)"><g
         id="g11"
         transform="translate(13.706413,-1.7499166)"><path
           style="fill:#354b9d;fill-opacity:1;stroke:none;stroke-width:0;stroke-linecap:round;stroke-dasharray:none;stroke-opacity:1;paint-order:stroke fill markers"
           d="m 182.09648,386.36894 c -4.25276,-5.15943 -4.25791,-5.29025 -0.33159,-8.4366 12.45517,-9.98095 16.66248,-29.17384 6.83084,-31.16093 -48.95861,-9.8951 -65.6556,-62.22761 -33.44713,-104.83161 23.5376,-31.13454 34.70958,-41.60528 54.02012,-50.62941 12.796,-5.97978 10.5005,-5.69502 44.40467,-5.50823 33.72289,0.1858 32.9758,0.2564 31.82775,-3.00799 -1.26129,-3.58652 -3.80486,-3.8945 -32.25362,-3.90536 -29.48943,-0.0112 -38.00952,-1.20653 -42.52818,-5.96626 -1.64949,-1.73751 -1.40862,-2.50772 1.20006,-3.83727 15.07861,-7.68507 34.38202,-28.61307 44.37408,-48.10862 2.5597,-4.99423 38.3781,-4.47735 51.58634,0.74443 37.53171,14.83785 52.53842,63.27362 30.13058,97.24965 -14.88959,22.57645 -31.33237,29.95841 -67.50244,30.30514 -10.92344,0.10471 -19.92717,0.21244 -20.00834,0.23941 -0.42555,0.14137 0.79949,2.6313 3.32092,6.74989 11.44231,18.69022 11.27488,45.43078 -0.38594,61.64332 -0.82761,1.1507 -1.83734,2.7456 -2.24378,3.54424 -5.61003,11.02307 -26.90879,24.28612 -41.9221,26.10547 -2.78955,0.33805 -2.78955,0.33805 -2.94022,2.43022 -0.65536,9.10053 3.81323,19.34352 11.71207,26.84664 5.15907,4.9006 5.20743,5.46832 0.85183,9.9988 -3.18831,3.31632 -14.674,-6.72521 -17.94802,-15.69127 -0.42486,-1.16353 -2.0081,0.5846 -4.92752,5.44061 -5.14894,8.56451 -11.26021,12.89168 -13.82038,9.78573 z m 39.42893,-67.13141 c 9.9657,-2.9858 7.76896,-17.60145 -2.64553,-17.60145 -5.31532,0 -8.54884,3.42526 -8.54884,9.05577 0,6.27219 5.29389,10.3135 11.19437,8.54568 z m -35.28082,-1.24082 c 2.97649,-1.83957 4.74243,-6.71244 3.64153,-10.04825 -3.23917,-9.81476 -17.67905,-7.3307 -17.67905,3.04129 0,6.36072 8.34404,10.52573 14.03752,7.00696 z"
           id="path8"
           sodipodi:nodetypes="ssssssssssssssssscsssssssssssssss" /><path
           style="fill:#ff9f49;fill-opacity:1;stroke:none;stroke-width:0;stroke-linecap:round;stroke-dasharray:none;stroke-opacity:1;paint-order:stroke fill markers"
           d="m 115.85355,248.42647 c -28.295459,-1.71688 -52.828219,-21.95567 -60.133339,-49.6082 -5.82812,-22.06156 0.43319,-44.90336 17.07177,-62.27925 14.30263,-14.93643 25.62448,-18.4399 59.590689,-18.4399 14.14124,0 17.97436,-0.41348 17.97436,-1.93888 0,-0.38723 -1.66425,-3.35815 -3.69834,-6.60205 -7.19616,-11.476223 -9.79667,-24.029863 -7.41582,-35.799023 4.47521,-22.12223 23.37243,-40.96692 47.7224,-47.5897 6.80328,-1.85038 21.15166,-1.97632 27.96708,-0.24548 18.58796,4.7206 35.63026,18.80739 42.45353,35.09113 4.29192,10.24267 4.87844,23.55785 1.56634,35.55889 -6.18736,22.419213 -29.13881,51.830223 -52.95503,67.858943 -5.49094,3.6955 -17.12691,9.44208 -22.08632,10.90763 -6.82626,2.01723 -12.05167,2.3968 -38.61858,2.80517 -25.58087,0.39323 -27.01553,0.47755 -29.12219,1.71184 -2.70652,1.58574 -3.20254,3.66741 -1.14634,4.81089 1.09861,0.61096 8.71458,0.91998 30.58508,1.24102 16.01722,0.23512 31.97112,0.76289 35.45312,1.17283 6.63445,0.78108 10.76255,2.23696 10.76255,3.79569 0,0.50768 -2.84891,3.19589 -6.33091,5.97383 -7.86259,6.27275 -21.85351,20.27769 -28.22092,28.24919 -2.6381,3.30269 -7.14098,9.4878 -10.00642,13.74467 -2.86543,4.25687 -5.437,7.88016 -5.71461,8.05172 -2.08332,1.28757 -16.01562,2.11653 -25.6981,1.52904 z M 185.56866,69.589577 c 6.04287,-2.86753 6.93941,-10.47485 1.81934,-15.43742 -1.87097,-1.81341 -2.74241,-2.16873 -5.87445,-2.39529 -3.3073,-0.23922 -3.89038,-0.087 -5.79095,1.51226 -8.96576,7.54419 -0.66262,21.30715 9.84606,16.32045 z m 38.92471,-0.40939 c 6.26981,-4.18851 5.60831,-14.05831 -1.14236,-17.04445 -8.42206,-3.72548 -15.72469,4.6788 -11.93876,13.73981 1.8983,4.54328 8.66726,6.25329 13.08112,3.30464 z"
           id="path9" /></g><path
         style="fill:#9c9c9c;fill-opacity:1;stroke-width:0.464927"
         d="m 601.93769,329.56759 c -0.63731,-1.84189 -3.06967,-11.61646 -2.92639,-11.75975 0.0942,-0.0942 3.09214,-0.6138 6.66198,-1.15456 37.54988,-5.688 46.21616,-14.9034 47.03639,-50.01669 0.30926,-13.23869 0.83644,-12.4008 -6.11258,-9.71506 -36.85202,14.24298 -67.76145,8.60978 -79.07572,-14.41142 -3.59737,-7.31957 -3.47737,-5.30286 -3.47737,-58.45819 0,-47.9859 2.37071,-54.33711 20.09366,-53.83109 0.18388,0.005 0.40071,21.82039 0.4818,48.47812 0.13139,43.19348 0.22986,48.73518 0.90438,50.91796 7.11574,23.02609 36.17616,28.52464 62.67186,11.85823 1.4064,-0.88467 2.81861,-1.94288 3.13825,-2.35155 0.45712,-0.58451 0.58115,-11.9854 0.58115,-53.42336 0,-52.68031 0,-52.68031 10.25508,-52.68031 10.25511,0 10.25511,0 10.06584,67.9955 -0.20327,73.03651 -0.18867,72.56694 -2.66119,85.55247 -3.74317,19.6591 -14.83878,30.99875 -37.65156,38.47969 -11.14982,3.65632 -29.33589,6.39767 -29.98558,4.52001 z m 357.03208,-65.23336 c -30.04238,-5.05027 -49.23387,-33.76441 -47.95561,-71.7509 2.76773,-82.25103 111.80584,-84.79845 117.97904,-2.75632 3.5775,47.54525 -28.3464,81.51333 -70.02343,74.50722 z m 19.09129,-12.52527 c 35.06104,-7.33588 40.02024,-88.11751 6.43541,-104.82767 -26.61541,-13.24254 -49.98711,7.06001 -51.16423,44.44535 -1.32917,42.21593 16.50255,66.28815 44.72882,60.38232 z m -236.41514,12.02082 c -14.7809,-2.29786 -24.20291,-9.71692 -27.96519,-22.02036 -1.06524,-3.48365 -1.06524,-3.48365 -1.31147,-49.74384 -0.24617,-46.26018 -0.24617,-46.26018 -7.45254,-46.49265 -11.01736,-0.35538 -11.74506,-12.55301 -0.74894,-12.55301 3.6943,0 7.04786,-0.12697 7.45235,-0.28221 0.65285,-0.2505 0.73542,-2.27921 0.73542,-18.07518 0,-13.68502 0.13418,-17.896651 0.58116,-18.241951 0.546,-0.42178 18.97234,-7.103752 19.58949,-7.103752 0.15733,0 0.28612,9.582142 0.28612,21.293643 0,25.54408 -1.80336,22.40945 12.89194,22.40945 11.77612,0 11.77612,0 11.64641,6.16028 -0.12971,6.16028 -0.12971,6.16028 -12.09469,6.28436 -11.94642,0.12386 -11.96539,0.12567 -12.22478,1.16232 -0.92441,3.69402 0.0502,90.84198 1.04897,93.79106 2.86915,8.4724 8.67525,12.38974 19.8863,13.41708 3.25449,0.29825 3.25449,0.29825 3.25449,5.41245 0,5.56498 -3.19935,6.50622 -15.57504,4.58231 z m 42.77324,-101.49955 c 0,-99.939203 0,-99.939203 7.55505,-102.310423 4.15529,-1.30417 8.48147,-2.67305 9.6138,-3.04197 1.13232,-0.36896 2.33533,-0.67079 2.67332,-0.67079 0.50524,0 0.6146,7.97246 0.6146,44.808503 0,51.09942 -0.41016,46.91373 4.2882,43.76181 32.70093,-21.93732 71.2935,-14.64096 78.68249,14.87584 1.52347,6.08565 1.62759,9.64168 1.63669,55.9074 0.009,46.60889 0.009,46.60889 -10.19973,46.60889 -10.209,0 -10.209,0 -10.36531,-45.21411 -0.15613,-45.13608 -0.15817,-45.22093 -1.20048,-49.16597 -5.25249,-19.87961 -20.53072,-26.89377 -40.52539,-18.60497 -6.73308,2.79119 -19.06171,9.83008 -21.50286,12.27681 -0.7648,0.76648 -0.81361,3.81449 -0.81361,50.76184 0,49.9464 0,49.9464 -10.22839,49.9464 -10.22838,0 -10.22838,0 -10.22838,-99.93926 z m -359.88874,37.81011 c 0,-55.70522 0,-55.70522 5.85955,-59.59164 39.52848,-26.21747 88.36277,-21.89929 97.21383,8.59617 0.74389,2.56305 0.82176,7.00928 0.95878,54.75402 0.14914,51.96452 0.14914,51.96452 -10.21437,51.83931 -10.36349,-0.12516 -10.36349,-0.12516 -10.59595,-48.01259 -0.25953,-53.45446 -0.0829,-51.32021 -4.84175,-58.48979 -10.20128,-15.3689 -35.06647,-17.25957 -55.48247,-4.2187 -2.44086,1.55913 -2.44086,1.55913 -2.44086,56.19376 0,54.63463 0,54.63463 -10.22838,54.63463 -10.22838,0 -10.22838,0 -10.22838,-55.70517 z m 636.68308,123.83029 c -9.2985,-3.3313 -9.2985,-3.3313 -9.416,-89.08415 -0.1175,-85.75286 -0.1175,-85.75286 2.8611,-88.65902 16.2762,-15.88096 53.6257,-23.97008 74.9452,-16.23151 21.7126,7.88124 35.0978,35.68436 34,70.62331 -1.6162,51.43988 -40.4956,76.3286 -83.9697,53.7534 -3.4537,-1.7934 -6.5529,-3.15578 -6.8871,-3.02751 -0.4935,0.18932 -0.6077,7.3604 -0.6077,38.13927 0,35.80799 -0.045,37.90365 -0.8136,37.86175 -0.4475,-0.0241 -4.998,-1.54336 -10.1122,-3.37554 z m 51.2777,-76.34294 c 18.9914,-3.84396 28.5182,-23.41992 27.3388,-56.17604 -1.4216,-39.48221 -14.4106,-54.80465 -42.8171,-50.50934 -7.4237,1.12253 -20.5243,6.15675 -23.595,9.067 -2.7277,2.58499 -1.8436,86.38265 0.9298,88.14188 13.0569,8.28239 26.9681,11.73847 38.1435,9.4765 z"
         id="path11"
         sodipodi:nodetypes="ssssssssscssssssssssssssssssssssssssssssssssssssscssssssssssssssssssssssscssssscsssssss" /></g></g></svg>
