<?xml version="1.0" encoding="UTF-8" standalone="no"?>
<!-- Created with Inkscape (http://www.inkscape.org/) -->

<svg
   version="1.1"
   id="svg1"
   width="400"
   height="400"
   viewBox="0 0 400 400"
   sodipodi:docname="logo_square.svg"
   xml:space="preserve"
   inkscape:version="1.3.2 (091e20ef0f, 2023-11-25, custom)"
   inkscape:export-filename="logo_square_200.png"
   inkscape:export-xdpi="48"
   inkscape:export-ydpi="48"
   xmlns:inkscape="http://www.inkscape.org/namespaces/inkscape"
   xmlns:sodipodi="http://sodipodi.sourceforge.net/DTD/sodipodi-0.dtd"
   xmlns="http://www.w3.org/2000/svg"
   xmlns:svg="http://www.w3.org/2000/svg"><defs
     id="defs1" /><sodipodi:namedview
     id="namedview1"
     pagecolor="#ffffff"
     bordercolor="#666666"
     borderopacity="1.0"
     inkscape:showpageshadow="2"
     inkscape:pageopacity="0.0"
     inkscape:pagecheckerboard="0"
     inkscape:deskcolor="#d1d1d1"
     inkscape:zoom="0.51928154"
     inkscape:cx="663.41661"
     inkscape:cy="556.53817"
     inkscape:window-width="1920"
     inkscape:window-height="1011"
     inkscape:window-x="0"
     inkscape:window-y="32"
     inkscape:window-maximized="1"
     inkscape:current-layer="g12" /><g
     inkscape:groupmode="layer"
     inkscape:label="Image"
     id="g1"><g
       id="g12"
       transform="translate(-6.6627327,-1.6897025)"><g
         id="g11"
         transform="translate(5.5472987,-3.0276689)"><path
           style="fill:#354b9d;fill-opacity:1;stroke:none;stroke-width:0;stroke-linecap:round;stroke-dasharray:none;stroke-opacity:1;paint-order:stroke fill markers"
           d="m 182.09648,386.36894 c -4.25276,-5.15943 -4.25791,-5.29025 -0.33159,-8.4366 12.45517,-9.98095 16.66248,-29.17384 6.83084,-31.16093 -48.95861,-9.8951 -65.6556,-62.22761 -33.44713,-104.83161 23.5376,-31.13454 34.70958,-41.60528 54.02012,-50.62941 12.796,-5.97978 10.5005,-5.69502 44.40467,-5.50823 33.72289,0.1858 32.9758,0.2564 31.82775,-3.00799 -1.26129,-3.58652 -3.80486,-3.8945 -32.25362,-3.90536 -29.48943,-0.0112 -38.00952,-1.20653 -42.52818,-5.96626 -1.64949,-1.73751 -1.40862,-2.50772 1.20006,-3.83727 15.07861,-7.68507 34.38202,-28.61307 44.37408,-48.10862 2.5597,-4.99423 38.3781,-4.47735 51.58634,0.74443 37.53171,14.83785 52.53842,63.27362 30.13058,97.24965 -14.88959,22.57645 -31.33237,29.95841 -67.50244,30.30514 -10.92344,0.10471 -19.92717,0.21244 -20.00834,0.23941 -0.42555,0.14137 0.79949,2.6313 3.32092,6.74989 11.44231,18.69022 11.27488,45.43078 -0.38594,61.64332 -0.82761,1.1507 -1.83734,2.7456 -2.24378,3.54424 -5.61003,11.02307 -26.90879,24.28612 -41.9221,26.10547 -2.78955,0.33805 -2.78955,0.33805 -2.94022,2.43022 -0.65536,9.10053 3.81323,19.34352 11.71207,26.84664 5.15907,4.9006 5.20743,5.46832 0.85183,9.9988 -3.18831,3.31632 -14.674,-6.72521 -17.94802,-15.69127 -0.42486,-1.16353 -2.0081,0.5846 -4.92752,5.44061 -5.14894,8.56451 -11.26021,12.89168 -13.82038,9.78573 z m 39.42893,-67.13141 c 9.9657,-2.9858 7.76896,-17.60145 -2.64553,-17.60145 -5.31532,0 -8.54884,3.42526 -8.54884,9.05577 0,6.27219 5.29389,10.3135 11.19437,8.54568 z m -35.28082,-1.24082 c 2.97649,-1.83957 4.74243,-6.71244 3.64153,-10.04825 -3.23917,-9.81476 -17.67905,-7.3307 -17.67905,3.04129 0,6.36072 8.34404,10.52573 14.03752,7.00696 z"
           id="path8"
           sodipodi:nodetypes="ssssssssssssssssscsssssssssssssss" /><path
           style="fill:#ff9f49;fill-opacity:1;stroke:none;stroke-width:0;stroke-linecap:round;stroke-dasharray:none;stroke-opacity:1;paint-order:stroke fill markers"
           d="m 115.85355,248.42647 c -28.295459,-1.71688 -52.828219,-21.95567 -60.133339,-49.6082 -5.82812,-22.06156 0.43319,-44.90336 17.07177,-62.27925 14.30263,-14.93643 25.62448,-18.4399 59.590689,-18.4399 14.14124,0 17.97436,-0.41348 17.97436,-1.93888 0,-0.38723 -1.66425,-3.35815 -3.69834,-6.60205 -7.19616,-11.476223 -9.79667,-24.029863 -7.41582,-35.799023 4.47521,-22.12223 23.37243,-40.96692 47.7224,-47.5897 6.80328,-1.85038 21.15166,-1.97632 27.96708,-0.24548 18.58796,4.7206 35.63026,18.80739 42.45353,35.09113 4.29192,10.24267 4.87844,23.55785 1.56634,35.55889 -6.18736,22.419213 -29.13881,51.830223 -52.95503,67.858943 -5.49094,3.6955 -17.12691,9.44208 -22.08632,10.90763 -6.82626,2.01723 -12.05167,2.3968 -38.61858,2.80517 -25.58087,0.39323 -27.01553,0.47755 -29.12219,1.71184 -2.70652,1.58574 -3.20254,3.66741 -1.14634,4.81089 1.09861,0.61096 8.71458,0.91998 30.58508,1.24102 16.01722,0.23512 31.97112,0.76289 35.45312,1.17283 6.63445,0.78108 10.76255,2.23696 10.76255,3.79569 0,0.50768 -2.84891,3.19589 -6.33091,5.97383 -7.86259,6.27275 -21.85351,20.27769 -28.22092,28.24919 -2.6381,3.30269 -7.14098,9.4878 -10.00642,13.74467 -2.86543,4.25687 -5.437,7.88016 -5.71461,8.05172 -2.08332,1.28757 -16.01562,2.11653 -25.6981,1.52904 z M 185.56866,69.589577 c 6.04287,-2.86753 6.93941,-10.47485 1.81934,-15.43742 -1.87097,-1.81341 -2.74241,-2.16873 -5.87445,-2.39529 -3.3073,-0.23922 -3.89038,-0.087 -5.79095,1.51226 -8.96576,7.54419 -0.66262,21.30715 9.84606,16.32045 z m 38.92471,-0.40939 c 6.26981,-4.18851 5.60831,-14.05831 -1.14236,-17.04445 -8.42206,-3.72548 -15.72469,4.6788 -11.93876,13.73981 1.8983,4.54328 8.66726,6.25329 13.08112,3.30464 z"
           id="path9" /></g></g></g></svg>
