<?xml version="1.0" encoding="UTF-8" standalone="no"?>
<!-- Created with Inkscape (http://www.inkscape.org/) -->

<svg
   width="210mm"
   height="297mm"
   viewBox="0 0 210 297"
   version="1.1"
   id="svg5"
   inkscape:version="1.1.2 (0a00cf5339, 2022-02-04)"
   sodipodi:docname="dragon.svg"
   xmlns:inkscape="http://www.inkscape.org/namespaces/inkscape"
   xmlns:sodipodi="http://sodipodi.sourceforge.net/DTD/sodipodi-0.dtd"
   xmlns="http://www.w3.org/2000/svg"
   xmlns:svg="http://www.w3.org/2000/svg">
  <sodipodi:namedview
     id="namedview7"
     pagecolor="#ffffff"
     bordercolor="#666666"
     borderopacity="1.0"
     inkscape:pageshadow="2"
     inkscape:pageopacity="0.0"
     inkscape:pagecheckerboard="0"
     inkscape:document-units="mm"
     showgrid="false"
     inkscape:zoom="0.64052329"
     inkscape:cx="252.13759"
     inkscape:cy="560.47923"
     inkscape:window-width="1920"
     inkscape:window-height="1031"
     inkscape:window-x="0"
     inkscape:window-y="25"
     inkscape:window-maximized="1"
     inkscape:current-layer="layer1" />
  <defs
     id="defs2">
    <clipPath
       clipPathUnits="userSpaceOnUse"
       id="clipPath941">
      <g
         inkscape:label="Clip"
         id="use943">
        <path
           style="fill:#000000;stroke-width:0.264583"
           d="m 156.1221,161.74017 c -2.3855,-0.98123 -4.08928,-2.36488 -9.61422,-7.80781 -2.85707,-2.81465 -5.15816,-5.1342 -5.11355,-5.15456 1.46627,-0.66915 4.21669,-2.15832 4.71132,-2.55088 0.77255,-0.61312 0.51776,-0.90449 -1.04117,-1.19063 -1.85512,-0.3405 -4.34064,-1.81042 -6.43359,-3.80478 -2.29456,-2.18646 -3.13366,-3.37738 -3.35976,-4.76842 l -0.15357,-0.94476 -1.24274,1.14552 c -1.54258,1.4219 -1.71444,1.92275 -1.03597,3.01896 0.73717,1.19103 1.72539,2.08443 3.83946,3.47107 l 1.81745,1.19208 -1.62693,1.05154 c -2.08906,1.35022 -4.52756,2.36272 -10.68964,4.43847 -4.69216,1.58059 -7.91683,2.36851 -8.42023,2.05739 -0.30324,-0.18741 0.90986,-2.52687 1.88787,-3.64076 0.43683,-0.49753 0.79424,-0.96096 0.79424,-1.02984 0,-0.0689 -0.77698,-0.19781 -1.72664,-0.28649 -2.73713,-0.2556 -2.87848,-0.45212 -1.3508,-1.87802 1.30596,-1.21894 4.10035,-2.79976 4.94909,-2.79976 0.25532,0 1.57575,0.42821 2.9343,0.95159 1.82552,0.70327 3.03151,0.98866 4.62151,1.09367 2.20042,0.14531 4.06629,-0.0511 4.06629,-0.42809 0,-0.32208 -1.49251,-1.03261 -3.83646,-1.8264 l -2.11666,-0.71681 -0.4828,-1.45521 c -0.65899,-1.98631 -0.42839,-3.61824 0.56726,-4.01448 2.22602,-0.88588 5.16564,-2.48798 6.70781,-3.65577 l 1.76519,-1.33666 0.58929,-2.44186 c 0.35574,-1.47406 0.59651,-3.3332 0.60751,-4.69082 0.0289,-3.57231 -0.43796,-4.28899 -7.05611,-10.83115 -6.08136,-6.01152 -7.58669,-7.842 -9.16637,-11.14626 -1.5923,-3.330686 -2.1786,-5.873436 -2.20054,-9.543706 -0.0163,-2.72307 0.0493,-3.19317 0.56821,-4.07263 l 0.58661,-0.99423 -0.74095,-0.78101 c -1.38496,-1.45985 -5.72759,-3.21906 -9.61618,-3.89555 -2.34382,-0.40775 -2.64723,-0.5365 -1.92304,-0.81608 0.56065,-0.21644 0.54611,-0.25617 -0.46302,-1.26529 -1.26168,-1.26169 -1.37928,-1.82135 -0.26122,-1.24318 1.2618,0.65251 1.4564,0.3957 0.51554,-0.68032 -0.87077,-0.99587 -2.145,-3.69188 -4.18143,-8.84701 -2.48009,-6.27823 -2.60391,-6.47317 -4.111669,-6.47317 -1.154,0 -1.19198,-0.027 -1.50426,-1.0693 -0.21316,-0.71143 -0.43809,-1.02136 -0.67209,-0.92605 -0.19343,0.0788 -0.51053,0.20796 -0.70466,0.28702 -0.93478,0.3807 -2.66612,-3.74431 -2.09638,-4.99475 0.16338,-0.35859 0.23202,-0.90068 0.15254,-1.20464 -0.0795,-0.30396 -0.0642,-0.98069 0.0339,-1.50385 0.15146,-0.80736 0.35754,-1.03041 1.36282,-1.4751 1.37645,-0.60887 1.63677,-0.0252 -2.02967,-4.55067 -2.82184,-3.48296 -3.38917,-4.46773 -2.90795,-5.04757 0.495,-0.59644 0.90761,-0.52003 1.77138,0.32803 0.41745,0.40986 1.38397,1.13657 2.14781,1.61492 1.0366,0.64915 1.52225,1.17137 1.91497,2.05917 0.71211,1.60986 2.20144,3.59526 3.029279,4.03831 0.37312,0.19969 0.6784,0.50407 0.6784,0.6764 0,0.21448 0.39763,0.27512 1.26044,0.19221 l 1.26043,-0.12111 0.87472,1.34992 0.87471,1.34992 -0.55366,0.77754 c -0.30451,0.42765 -0.92327,1.56738 -1.37501,2.53272 -0.73998,1.58131 -0.80924,1.94372 -0.69919,3.65847 0.10561,1.64566 0.30755,2.26425 1.49184,4.56983 2.66389,5.18604 6.01256,9.65556 8.87992,11.85213 2.5241,1.93362 7.12235,3.70354 11.65186,4.48493 l 2.3671,0.40835 1.73394,-1.22188 c 5.77237,-4.06768 10.08999,-8.8528 10.88289,-12.06126 0.40592,-1.64258 0.18257,-4.0386 -0.50148,-5.37943 -0.97172,-1.90473 -3.74661,-3.99096 -4.91749,-3.69708 -1.50381,0.37743 -5.31722,3.28493 -6.5508,4.9946 l -0.52755,0.73114 0.69465,0.82554 c 0.77292,0.91856 1.56843,2.39329 1.83444,3.40071 0.11801,0.44687 -0.001,0.34124 -0.36661,-0.3256 -0.56697,-1.03391 -2.242,-2.8494 -2.62896,-2.8494 -0.32475,0 -0.83633,0.88649 -1.98492,3.43959 -1.805,4.01218 -2.5174,4.5891 -5.64346,4.57015 -1.05502,-0.006 -1.91823,0.031 -1.91823,0.0831 0,0.0521 0.31056,0.75064 0.69012,1.55229 0.66698,1.40869 2.42776,3.31943 3.05891,3.31943 0.16936,0 0.23481,0.0731 0.14545,0.16247 -0.23226,0.23226 -1.76399,-0.76899 -2.75165,-1.79867 -0.46286,-0.48254 -1.15704,-1.50901 -1.54263,-2.28105 -0.81236,-1.6265 -1.28232,-1.87915 -4.02351,-2.16303 -1.77207,-0.18352 -3.2496,-0.77367 -3.2496,-1.29794 0,-0.12224 0.64771,-0.426 1.43936,-0.675 1.43956,-0.4528 1.7452,-1.0046 0.70684,-1.27614 -0.59363,-0.15524 -1.35245,-1.74854 -1.35245,-2.83973 0,-0.46438 -0.23813,-1.14705 -0.52917,-1.51705 -0.29104,-0.37 -0.52917,-0.7784 -0.52917,-0.90754 0,-0.50269 2.30387,-2.7092 3.3073,-3.16754 1.31193,-0.59925 2.07186,-0.61341 3.67137,-0.0684 0.68865,0.23465 1.33149,0.34723 1.42853,0.2502 0.16575,-0.16575 -0.27384,-0.55219 -0.86657,-0.7618 -0.15798,-0.0559 -0.12192,-0.26642 0.0895,-0.52257 0.30946,-0.37494 0.25945,-0.45014 -0.39688,-0.59678 -1.50772,-0.33687 -1.68964,-0.43085 -1.61784,-0.83576 0.0506,-0.28533 -0.34869,-0.55747 -1.29542,-0.8829 -0.7527,-0.25875 -1.7466,-0.74872 -2.20867,-1.08884 -0.99122,-0.72962 -2.11131,-2.52828 -2.11131,-3.39037 0,-0.66554 -0.12991,-0.66238 4.56185,-0.11108 1.14859,0.13496 1.81618,0.0651 2.73683,-0.28653 1.1177,-0.42685 1.2027,-0.5222 1.03527,-1.16127 -0.10033,-0.38292 -0.24354,-1.28366 -0.31825,-2.00162 -0.10843,-1.04201 -0.0426,-1.3736 0.32641,-1.6434 0.56136,-0.41047 1.30799,-0.0917 2.13277,0.91063 0.78959,0.95955 1.32045,0.63253 1.50518,-0.92724 0.18983,-1.60277 0.67938,-2.72209 1.1171,-2.55413 0.18658,0.0716 0.39876,-0.1398 0.48574,-0.48396 0.38939,-1.54078 2.52919,-4.07585 2.91433,-3.45268 0.0688,0.11141 -0.28111,1.42985 -0.77769,2.92987 -0.49658,1.50003 -0.90288,2.95701 -0.90288,3.23775 0,0.86368 0.62591,0.55229 1.37658,-0.68486 0.77928,-1.2843 2.19261,-2.3233 2.91751,-2.14478 0.30202,0.0744 0.6412,-0.18434 0.99754,-0.7609 0.5957,-0.96387 1.21649,-1.33293 1.42153,-0.84511 0.0813,0.19355 0.36973,0.0106 0.74469,-0.47248 1.4258,-1.83684 3.82287,-3.69201 4.56638,-3.53408 0.32853,0.0698 0.14894,0.4906 -0.82844,1.94118 -1.99536,2.96143 -4.05204,6.54688 -4.05204,7.06402 0,0.37965 0.2153,0.4766 1.05834,0.4766 0.58208,0 1.05833,-0.12708 1.05833,-0.28241 0,-0.15551 0.22243,-0.21181 0.49501,-0.1253 0.27661,0.0878 1.82341,-0.32089 3.50573,-0.92624 6.73044,-2.42182 9.15632,-3.20703 10.3529,-3.35102 1.19761,-0.14412 1.25677,-0.12081 1.25677,0.49513 0,1.00021 -1.28863,3.35102 -2.56996,4.6883 l -1.15808,1.20863 -0.3266,-0.65511 c -0.18195,-0.36494 -0.55753,-0.6551 -0.84796,-0.6551 -0.41271,0 -0.53863,0.20945 -0.60424,1.0051 -0.10447,1.26683 -0.50355,1.4349 -4.33304,1.82479 -1.57307,0.16016 -2.86011,0.39262 -2.86011,0.51659 0,0.12397 0.26789,0.23038 0.59531,0.23649 0.32742,0.006 0.99117,0.22212 1.47501,0.48005 l 0.87969,0.46896 -1.07813,0.48617 c -0.59297,0.2674 -1.07813,0.55759 -1.07813,0.64488 0,0.0873 0.51934,0.43422 1.1541,0.77096 1.45453,0.77163 3.70912,2.99166 4.61698,4.54622 0.38243,0.65484 1.29911,2.08359 2.03707,3.175 1.95126,2.88584 2.97675,6.55537 2.60826,9.33319 l -0.17972,1.35477 -0.31004,-1.05005 c -0.17052,-0.57752 -0.52294,-1.37497 -0.78315,-1.7721 -0.48822,-0.74511 -1.19992,-0.97453 -1.21397,-0.39133 -0.19528,8.10279 -0.39061,9.49738 -1.68907,12.05978 -0.81481,1.60794 -3.56757,4.12891 -4.01738,3.67911 -0.0621,-0.0621 0.13235,-0.66714 0.43204,-1.34462 0.73672,-1.6655 0.94015,-3.59632 0.44785,-4.2508 -0.57509,-0.76455 -1.20212,-0.34661 -1.84599,1.23043 -0.31263,0.76573 -1.02206,2.27845 -1.57652,3.36159 l -1.00809,1.96935 0.86225,0.90231 c 2.23135,2.33503 7.41069,5.88463 9.73417,6.67121 1.42653,0.48292 1.46026,0.79091 0.0866,0.79091 -0.70761,0 -0.95489,0.1542 -1.29166,0.80545 -0.22909,0.443 -0.79769,1.03787 -1.26357,1.32193 -1.06502,0.64938 -1.45829,0.6647 -0.88806,0.0346 0.82866,-0.91565 0.43463,-1.01182 -1.08347,-0.26444 -0.83674,0.41194 -2.53338,0.99946 -3.77031,1.30561 -1.23693,0.306136 -2.36802,0.677616 -2.51354,0.825496 -0.25166,0.25573 0.27807,0.20552 2.55235,-0.24192 0.61033,-0.12008 0.7926,0.0198 1.41905,1.08871 0.85961,1.46683 1.27861,3.15216 1.06607,4.28811 l -0.15513,0.82917 -1.68907,-1.68907 c -1.20704,-1.20704 -1.88483,-1.68907 -2.37503,-1.68907 -1.70463,0 0.10809,2.996 2.43863,4.03048 1.23687,0.54903 1.24523,0.54653 2.7624,-0.8256 0.72415,-0.65492 0.7276,-0.6553 0.7276,-0.0794 0,0.70829 0.20394,0.71782 1.05833,0.0495 0.88321,-0.69085 1.04705,-0.66017 0.89689,0.16794 -0.16681,0.91989 -0.79466,2.12322 -1.72689,3.30972 -0.41662,0.53027 -0.7575,1.04022 -0.7575,1.13323 0,0.093 1.01057,1.37069 2.2457,2.83929 3.98126,4.73382 4.38332,6.43211 3.32721,14.0536 -0.6083,4.38972 -0.55473,5.59385 0.29701,6.67665 1.26025,1.60216 4.87568,0.27176 7.77675,-2.86167 2.76009,-2.98114 4.84699,-7.42259 8.04262,-17.11667 2.93402,-8.90049 4.73926,-13.35412 6.43479,-15.874996 2.44739,-3.63874 4.77883,-5.55128 7.78239,-6.38415 4.83352,-1.34029 8.67262,0.3078 10.79834,4.63563 2.09476,4.264796 1.30049,8.106236 -2.01952,9.767266 -1.20935,0.60505 -1.7488,0.72409 -2.91042,0.64226 -1.10257,-0.0777 -1.29091,-0.14809 -0.83059,-0.31055 0.92648,-0.32698 0.70169,-0.72148 -0.30365,-0.53288 -0.98813,0.18538 -2.9249,-0.51665 -3.56521,-1.29229 -0.33144,-0.4015 -0.22599,-0.43988 1.20875,-0.43988 1.7704,0 4.92851,-0.82845 3.78458,-0.99279 -1.11913,-0.16078 -2.32464,-0.60457 -2.62484,-0.96629 -0.23041,-0.27763 -0.0287,-0.3198 1.03909,-0.2172 2.91096,0.2797 5.22706,-1.18723 5.48479,-3.473856 0.18645,-1.65411 -0.0524,-2.39269 -1.17572,-3.6361 -1.56107,-1.72792 -2.74214,-2.21625 -5.36915,-2.21996 -2.69703,-0.004 -4.516,0.71985 -6.24285,2.48364 -2.58983,2.64526 -5.13579,8.884216 -6.48386,15.888966 -3.29946,17.14446 -4.50493,21.20979 -7.74967,26.135 -1.40778,2.13688 -4.40779,5.08927 -5.99323,5.8981 -0.59006,0.30103 -1.13526,0.7503 -1.21155,0.99839 -0.58395,1.89884 -0.72597,2.01859 -2.93363,2.47351 -1.16088,0.23922 -2.63535,0.66451 -3.2766,0.94509 l -1.1659,0.51014 1.13023,0.7155 c 2.20377,1.39514 5.59709,1.80621 8.84384,1.07137 0.60262,-0.1364 0.94855,0.0589 2.22365,1.25572 1.58754,1.49002 3.54499,4.23832 3.54499,4.97725 0,0.39017 -0.2624,0.36966 -2.53292,-0.19804 -1.3931,-0.34831 -2.59152,-0.57469 -2.66315,-0.50306 -0.0716,0.0716 0.22135,0.8269 0.65108,1.67838 0.61515,1.21887 1.63457,4.02944 1.63457,4.50656 0,0.26941 -1.39586,-0.0127 -2.68355,-0.54238 z M 133.49293,98.716114 c 1.18892,-0.66497 2.51877,-1.49677 2.95521,-1.84844 l 0.79353,-0.63941 -1.65229,-1.57227 c -1.49176,-1.41951 -4.88813,-3.46209 -5.75672,-3.46209 -0.60057,0 -0.95496,2.84728 -0.57809,4.64452 0.29856,1.42386 1.55901,4.08673 1.9344,4.08673 0.0782,0 1.11503,-0.54406 2.30396,-1.20904 z M 63.291071,152.47896 c 0,-0.21981 0.11907,-0.47324 0.26459,-0.56318 0.14552,-0.0899 0.26458,-0.86384 0.26458,-1.71979 0,-0.85595 -0.11906,-1.62986 -0.26458,-1.71979 -0.14552,-0.0899 -0.26459,-0.33509 -0.26459,-0.54479 0,-0.45019 0.96847,-0.51857 1.11508,-0.0787 0.0746,0.22385 0.25698,0.21896 0.70125,-0.0188 1.1958,-0.63997 2.44575,0.89278 2.04151,2.5034 -0.21843,0.87033 -1.321,1.40609 -2.00918,0.9763 -0.43925,-0.27431 -0.50242,-0.21464 -0.57571,0.54392 -0.0629,0.6511 -0.22271,0.87197 -0.67763,0.93658 -0.39194,0.0557 -0.59532,-0.052 -0.59532,-0.31511 z m 2.92833,-2.31644 c 0.21858,-0.40841 0.22268,-0.73477 0.015,-1.19062 -0.29855,-0.65526 -0.50405,-0.73518 -1.20188,-0.4674 -0.42052,0.16137 -0.60102,1.68536 -0.24212,2.04426 0.36508,0.36509 1.13885,0.15595 1.42902,-0.38624 z m -38.85279,0.94451 c -0.79591,-0.55748 -0.757306,-1.17563 0.07342,-1.17563 0.423489,0 0.661458,0.14882 0.661458,0.41364 0,0.59669 1.684791,0.40983 1.800181,-0.19966 0.0623,-0.329 -0.21737,-0.53201 -1.056168,-0.76669 -1.92476,-0.53851 -2.547907,-1.86192 -1.328185,-2.82072 0.580209,-0.4561 1.934323,-0.41451 2.641963,0.0811 0.74963,0.52506 0.78704,1.44021 0.0589,1.44021 -0.29105,0 -0.52917,-0.17157 -0.52917,-0.38126 0,-0.54059 -0.45413,-0.75327 -1.205663,-0.56465 -1.102336,0.27667 -0.747136,0.87908 0.780113,1.32307 1.82379,0.53019 2.27822,1.47433 1.2193,2.53326 -0.6464,0.6464 -2.273293,0.70763 -3.116129,0.11729 z m 4.615439,0.23548 c -0.097,-0.097 -0.17639,-0.75185 -0.17639,-1.4552 0,-0.70335 -0.11907,-1.27882 -0.26459,-1.27882 -0.14552,0 -0.26458,-0.23813 -0.26458,-0.52917 0,-0.55332 0.20511,-0.63691 0.9044,-0.36857 0.30273,0.11617 0.41852,0.51877 0.41852,1.45521 0,0.71204 0.11906,1.29461 0.26458,1.29461 0.14552,0 0.26458,0.23813 0.26458,0.52917 0,0.51623 -0.75176,0.74754 -1.14652,0.35277 z m 2.25777,-0.14111 c -0.18469,-0.18469 -0.3175,-1.07009 -0.3175,-2.11666 0,-1.02306 -0.11413,-1.79917 -0.26458,-1.79917 -0.14552,0 -0.26458,-0.17859 -0.26458,-0.39687 0,-0.24695 0.24988,-0.39688 0.66145,-0.39688 0.64285,0 0.66146,0.0524 0.66146,1.86039 0,1.4096 0.0962,1.89729 0.39688,2.01268 0.56949,0.21853 0.50515,1.15401 -0.0794,1.15401 -0.26193,0 -0.61912,-0.14287 -0.79375,-0.3175 z m 1.652631,0.0299 c -0.0978,-0.1582 -0.0453,-0.42014 0.11668,-0.58209 0.39474,-0.39474 0.37681,-3.1754 -0.0231,-3.57528 -0.463481,-0.46348 0.0585,-0.83998 0.78052,-0.56296 0.38182,0.1465 0.59532,0.44963 0.59532,0.84527 0,0.54227 0.10575,0.60451 0.8746,0.51475 1.12316,-0.13112 1.39218,0.22795 1.60742,2.14559 0.1674,1.49138 0.15383,1.53764 -0.42696,1.45521 -0.52511,-0.0745 -0.60989,-0.26028 -0.6804,-1.49073 -0.0731,-1.27644 -0.13392,-1.39798 -0.66146,-1.32291 -0.46932,0.0668 -0.59741,0.28531 -0.66677,1.13764 -0.0472,0.58024 -0.21063,1.20531 -0.36313,1.38906 -0.34041,0.41018 -0.91369,0.43327 -1.15276,0.0464 z m 5.17648,-0.18605 c -0.81442,-0.65947 -0.81442,-2.36197 0,-3.02144 1.2675,-1.02637 3.17214,-0.10776 3.17214,1.52992 0,1.71111 -1.83529,2.57404 -3.17214,1.49152 z m 2.06118,-1.26867 c 0.14557,-1.49177 -1.33067,-1.94153 -1.68882,-0.51453 -0.20938,0.83424 0.30281,1.51746 1.05684,1.40973 0.40176,-0.0574 0.57403,-0.30144 0.63198,-0.8952 z m 2.22221,1.42482 c -0.17462,-0.17462 -0.3175,-0.80565 -0.3175,-1.40229 0,-0.59663 -0.14287,-1.22766 -0.3175,-1.40229 -0.41541,-0.41541 0.10722,-0.98397 0.69659,-0.75781 0.28615,0.10981 0.41592,0.51019 0.41871,1.2919 0.005,1.36201 0.28607,1.87858 0.9537,1.75196 0.5905,-0.11199 0.83879,-1.63599 0.36044,-2.21237 -0.34672,-0.41778 -0.13659,-0.92035 0.38482,-0.92035 0.6018,0 0.86776,0.60672 1.01485,2.31511 0.12378,1.43761 0.0834,1.65364 -0.30878,1.65364 -0.24814,0 -0.5806,-0.12943 -0.7388,-0.28763 -0.20713,-0.20713 -0.33739,-0.20713 -0.4654,0 -0.23782,0.38479 -1.28507,0.36619 -1.68113,-0.0299 z m 4.35372,-0.16635 c -0.67076,-0.74118 -0.58188,-2.56028 0.15016,-3.07302 0.32341,-0.22653 0.8592,-0.41188 1.19062,-0.41188 0.74405,0 1.66092,0.87635 1.66092,1.5875 0,0.44973 -0.17639,0.52917 -1.17501,0.52917 -1.27506,0 -1.68095,0.28999 -1.09109,0.77952 0.23864,0.19806 0.7401,0.24324 1.38615,0.1249 l 1.01224,-0.18543 -0.50403,0.56655 c -0.63171,0.71007 -2.02261,0.7538 -2.62996,0.0827 z m 1.87722,-2.22813 c -0.0606,-0.1819 -0.32852,-0.33072 -0.59531,-0.33072 -0.26679,0 -0.53468,0.14882 -0.59531,0.33072 -0.0698,0.20947 0.14846,0.33073 0.59531,0.33073 0.44685,0 0.66513,-0.12126 0.59531,-0.33073 z m 2.23573,2.39448 c -0.17463,-0.17462 -0.3175,-0.87907 -0.3175,-1.56545 0,-0.69654 -0.13283,-1.29223 -0.30063,-1.34816 -0.21702,-0.0723 -0.22239,-0.24404 -0.0193,-0.61736 0.15473,-0.28443 0.34503,-0.7235 0.42291,-0.97571 0.18941,-0.61345 0.90139,-0.3199 1.00604,0.41478 0.11351,0.79679 1.11075,0.77857 1.2245,-0.0223 0.10426,-0.73409 1.10608,-0.84193 1.10608,-0.11907 0,0.26194 0.14883,0.63401 0.33073,0.82683 0.26458,0.28046 0.26458,0.37482 0,0.47184 -0.39259,0.14393 -0.45439,2.19382 -0.0661,2.19382 0.14552,0 0.26458,0.23813 0.26458,0.52917 0,0.33318 -0.17639,0.52916 -0.47625,0.52916 -0.78015,0 -1.11125,-0.56102 -1.11125,-1.88295 0,-1.23175 -0.28244,-1.61806 -0.99219,-1.35705 -0.39241,0.1443 -0.45418,2.18167 -0.0661,2.18167 0.14552,0 0.26459,0.23813 0.26459,0.52917 0,0.59665 -0.75859,0.72308 -1.27,0.21166 z m 4.62182,-0.0141 c -0.75408,-0.55139 -0.84831,-2.06194 -0.18151,-2.90963 0.99868,-1.26963 2.78805,-0.75996 2.97515,0.84741 0.066,0.56671 -0.0314,0.62303 -1.11838,0.64737 -0.8701,0.0195 -1.19062,0.1335 -1.19062,0.42353 0,0.30165 0.2698,0.37985 1.12448,0.32593 1.18559,-0.0748 1.472,0.26321 0.6127,0.7231 -0.69228,0.3705 -1.67098,0.34508 -2.22182,-0.0577 z m 1.62018,-2.48271 c -0.23818,-0.23818 -0.62088,-0.36098 -0.85044,-0.27288 -0.71923,0.27599 -0.45549,0.70594 0.43305,0.70594 0.78753,0 0.81841,-0.032 0.41739,-0.43306 z m 10.32836,2.5401 c -0.24329,-0.14196 -0.51609,-0.5939 -0.60624,-1.00432 -0.37738,-1.71824 1.01322,-3.05308 2.45883,-2.36021 0.88548,0.4244 1.10341,1.25749 0.32895,1.25749 -0.31123,0 -0.54857,-0.17171 -0.54857,-0.39687 0,-0.59912 -0.99747,-0.4758 -1.34083,0.16576 -0.21857,0.40841 -0.22268,0.73477 -0.015,1.19062 0.31925,0.70068 1.21648,0.84354 1.45149,0.23112 0.16904,-0.44051 0.96265,-0.54957 0.96265,-0.13229 0,0.14552 -0.23812,0.50271 -0.52917,0.79375 -0.56802,0.56802 -1.44782,0.67177 -2.16213,0.25496 z m 3.68349,-0.0116 c -0.51607,-0.30058 -0.63073,-1.03714 -0.16146,-1.03714 0.16586,0 0.44282,0.19318 0.61548,0.4293 0.21515,0.29425 0.49943,0.37042 0.90362,0.24213 0.81114,-0.25745 0.56692,-0.75368 -0.47589,-0.96696 -1.13184,-0.23148 -1.44803,-0.57992 -1.24832,-1.37563 0.19076,-0.76005 1.14598,-1.09277 2.09807,-0.73079 0.84598,0.32164 1.15694,1.07903 0.44301,1.07903 -0.28647,0 -0.52086,-0.11906 -0.52086,-0.26458 0,-0.14552 -0.30758,-0.26459 -0.68351,-0.26459 -1.00862,0 -0.6534,0.57284 0.56676,0.91396 0.73798,0.20632 1.06624,0.45374 1.12302,0.84644 0.16413,1.13523 -1.46321,1.82585 -2.65992,1.12883 z m -51.444987,-1.56631 0.04968,-1.71979 0.837377,-0.0812 c 1.068949,-0.10369 1.291472,-0.69252 0.618745,-1.63728 -0.562417,-0.78984 -0.700101,-1.58878 -0.273801,-1.58878 0.140954,0 0.195277,0.15897 0.120717,0.35327 -0.07456,0.1943 0.09766,0.64078 0.382703,0.99218 l 0.518265,0.63892 0.691733,-0.64876 c 0.380453,-0.35681 0.632429,-0.8033 0.559947,-0.99218 -0.07248,-0.18889 -0.01646,-0.34343 0.124493,-0.34343 0.398444,0 0.304445,0.52106 -0.258242,1.43151 -0.404196,0.654 -0.468203,1.03789 -0.298508,1.7903 0.118809,0.52678 0.114042,1.1187 -0.01059,1.31538 -0.124633,0.19668 -0.246269,0.71479 -0.270301,1.15135 l -0.0437,0.79375 -0.110223,-0.72761 c -0.1325,-0.87465 -0.591726,-0.97034 -0.634933,-0.13229 -0.02425,0.47036 -0.05668,0.49506 -0.154512,0.11765 -0.167173,-0.64491 -0.690668,-0.42729 -0.878013,0.36499 -0.128568,0.54372 -0.178976,0.57106 -0.329723,0.17882 -0.09787,-0.25466 -0.109419,-0.64161 -0.02566,-0.85989 0.08376,-0.21829 0.08343,-0.39688 -7.41e-4,-0.39688 -0.08417,0 -0.26809,0.38695 -0.408714,0.8599 -0.21982,0.73929 -0.248712,0.61869 -0.206002,-0.8599 z m 39.075717,1.19063 c 0,-0.22049 0.23519,-0.39688 0.52917,-0.39688 0.29398,0 0.52917,0.17639 0.52917,0.39688 0,0.22048 -0.23519,0.39687 -0.52917,0.39687 -0.29398,0 -0.52917,-0.17639 -0.52917,-0.39687 z m 6.35,-0.91043 c 0,-0.71902 -0.11906,-1.38089 -0.26458,-1.47082 -0.48741,-0.30124 -0.27127,-0.66146 0.39687,-0.66146 0.61631,0 0.66146,0.0892 0.66146,1.3073 0,0.71901 0.11907,1.38089 0.26459,1.47082 0.4874,0.30124 0.27127,0.66146 -0.39688,0.66146 -0.61631,0 -0.66146,-0.0892 -0.66146,-1.3073 z M 31.57021,146.92376 c -0.22874,-0.27561 -0.20227,-0.44308 0.11111,-0.70316 0.5057,-0.41969 1.07,0.0228 0.82923,0.65027 -0.19598,0.51071 -0.54413,0.53029 -0.94034,0.0529 z m 36.218781,-0.28407 c 0,-0.2097 0.10557,-0.44651 0.2346,-0.52626 0.29135,-0.18006 0.88432,0.49415 0.64505,0.73342 -0.31479,0.3148 -0.87965,0.18177 -0.87965,-0.20716 z M 131.50253,74.062094 c -0.46617,-0.54282 -0.81573,-1.12448 -0.67579,-1.12448 0.054,0 0.36223,0.35719 0.685,0.79375 0.63773,0.86258 0.63176,1.07709 -0.009,0.33073 z m -1.284,-1.94089 c -0.16243,-0.30351 -0.24549,-0.60167 -0.18458,-0.66258 0.0609,-0.0609 0.2466,0.18741 0.41264,0.55183 0.36461,0.80024 0.18708,0.88645 -0.22806,0.11075 z m -29.70792,-23.5919 c 0.12888,-1.59015 0.0925,-1.71645 -0.940209,-3.26294 -0.98286,-1.47184 -2.75112,-2.93652 -4.36106,-3.61236 -0.32871,-0.13799 -0.4473,-0.38253 -0.35558,-0.73325 0.15073,-0.57639 -0.99018,-1.58518 -1.79278,-1.58518 -0.35676,0 -0.4117,0.16771 -0.28171,0.85989 l 0.1615,0.8599 -0.40506,-0.89027 c -0.22278,-0.48965 -0.40505,-0.99567 -0.40505,-1.12448 0,-0.31329 1.7653,-0.29804 2.89156,0.025 0.6053,0.17359 1.01193,0.16935 1.23147,-0.0129 0.22496,-0.1867 0.38156,-0.18501 0.49923,0.005 0.25892,0.41893 1.19857,0.33258 1.19857,-0.11014 0,-0.21316 -0.23813,-0.515 -0.52917,-0.670772 -0.51626,-0.27629 -0.74585,-1.05833 -0.3107,-1.05833 0.12015,0 0.49809,0.29766 0.83987,0.66146 0.73399,0.781302 1.01666,0.826592 1.23835,0.19844 0.0899,-0.25466 0.41108,-0.73786 0.71378,-1.07377 l 0.550359,-0.61075 -0.550729,-1.57206 c -0.30291,-0.86464 -0.51752,-1.57207 -0.47692,-1.57207 0.0406,0 0.44222,0.64389 0.892479,1.43086 0.7542,1.3182 0.87551,1.41578 1.54077,1.23933 1.12395,-0.29811 1.09725,-1.55212 -0.10757,-5.05144 -0.12146,-0.35278 -0.10517,-0.35278 0.14658,0 0.15577,0.21828 0.59903,1.37914 0.98502,2.57969 0.47139,1.46614 0.84108,2.19767 1.12599,2.22807 0.2333,0.0249 0.72184,0.0547 1.08564,0.0662 0.62108,0.0196 0.666,0.11778 0.73586,1.60839 0.0577,1.231932 -0.0608,1.854172 -0.52916,2.778122 -0.55712,1.09899 -0.69012,1.19689 -1.72806,1.27199 -1.11901,0.081 -1.12447,0.0864 -1.12447,1.12448 0,0.96795 -0.0524,1.04122 -0.72761,1.01674 l -0.7276,-0.0264 0.65879,-0.18336 c 0.45202,-0.12581 0.55508,-0.24746 0.32836,-0.38758 -0.401,-0.24783 -1.4462,0.0444 -1.25652,0.35137 0.11428,0.18491 0.404,2.7368 0.4064,3.57961 0.003,1.02384 -0.37322,3.30729 -0.54478,3.30729 -0.11546,0 -0.14959,-0.74438 -0.0759,-1.65418 z m -7.718499,-7.07707 c 0.0899,-0.14552 0.21603,-0.26458 0.2802,-0.26458 0.0642,0 0.11668,0.11906 0.11668,0.26458 0,0.14552 -0.12609,0.26459 -0.2802,0.26459 -0.15411,0 -0.20661,-0.11907 -0.11668,-0.26459 z m 4.88055,-10.252602 -0.9118,-0.99219 0.99219,0.9118 c 0.5457,0.50149 0.99219,0.94797 0.99219,0.99219 0,0.20204 -0.2239,0.0117 -1.07258,-0.9118 z m 3.575239,-1.14208 c -0.0959,-0.15521 -0.11765,-0.33894 -0.0483,-0.40829 0.0693,-0.0694 0.1966,0.0576 0.28277,0.28219 0.17891,0.46622 0.0264,0.54823 -0.23447,0.1261 z m -1.866339,-2.69438 -0.50403,-0.59531 0.59531,0.50403 c 0.32743,0.27721 0.595319,0.5451 0.595319,0.59531 0,0.21173 -0.212939,0.0554 -0.686599,-0.50403 z"
           id="path963" />
      </g>
    </clipPath>
  </defs>
  <g
     inkscape:label="Calque 1"
     inkscape:groupmode="layer"
     id="layer1">
    <path
       style="fill:#000000;stroke-width:0.264583"
       d="m 118.84465,183.4795 c -2.87904,-0.90175 -4.37532,-2.03452 -10.30476,-7.80127 -3.20146,-3.11362 -5.86067,-5.7637 -5.90937,-5.88907 -0.0487,-0.12537 0.70733,-0.58502 1.68004,-1.02145 2.96911,-1.33215 4.03722,-2.37908 2.42778,-2.37966 -0.93891,-2.7e-4 -3.83303,-1.49872 -5.5764,-2.88707 -2.495279,-1.98715 -4.384891,-4.43722 -4.405113,-5.71168 l -0.01259,-0.79375 -1.04748,1.1585 c -0.57612,0.63718 -1.047486,1.30393 -1.047486,1.48166 0,0.77068 1.715527,2.57569 3.687747,3.88011 1.173197,0.77595 2.133082,1.59791 2.133082,1.82658 0,0.50444 -3.414885,2.55991 -5.839715,3.51502 -5.964301,2.34925 -12.709658,4.41 -14.435072,4.41 -0.989409,0 -1.156459,-0.0783 -1.156459,-0.5423 0,-0.68673 0.645964,-1.95549 1.638967,-3.21915 l 0.772715,-0.98333 -0.610528,-0.12114 c -0.335791,-0.0666 -1.144717,-0.21964 -1.797614,-0.34002 -0.762931,-0.14068 -1.216491,-0.37157 -1.269378,-0.64619 -0.200589,-1.04158 3.242797,-3.79957 5.543828,-4.44036 1.062048,-0.29575 1.291286,-0.25882 3.130344,0.50432 3.320618,1.37793 7.124546,2.00946 8.157929,1.35439 0.367255,-0.2328 -2.153753,-1.37512 -3.831016,-1.7359 -0.981067,-0.21103 -1.494308,-0.7421 -1.908198,-1.97449 -0.322959,-0.96164 -0.404919,-3.15489 -0.143368,-3.83648 0.08728,-0.22744 1.48626,-1.06058 3.108855,-1.85142 1.622594,-0.79084 3.664548,-2.01781 4.537673,-2.7266 1.478367,-1.20011 1.62152,-1.41537 2.082382,-3.13117 0.317127,-1.18067 0.507196,-2.84031 0.529167,-4.62058 0.03219,-2.60859 -0.01215,-2.85885 -0.726657,-4.10104 -0.455629,-0.79212 -3.056517,-3.60533 -6.482292,-7.01146 -7.389048,-7.34667 -9.052984,-9.81133 -10.515101,-15.57516 -0.75312,-2.96889 -0.847352,-6.94351 -0.204697,-8.63421 0.625038,-1.64436 0.590283,-1.75117 -0.915215,-2.81252 -1.916338,-1.351 -8.396006,-3.40519 -10.741172,-3.40519 -0.818568,0 -0.936193,-0.77509 -0.148871,-0.98098 0.506368,-0.13241 0.502678,-0.15642 -0.09648,-0.62772 -0.882097,-0.69385 -1.430077,-2.069029 -0.944141,-2.369355 0.207531,-0.128259 0.496552,-0.115067 0.672174,0.03069 0.169453,0.140634 -0.184374,-0.72938 -0.786282,-1.933364 -0.601909,-1.203984 -1.440339,-3.082031 -1.863177,-4.173437 -1.931244,-4.984809 -3.399758,-8.359501 -3.758912,-8.638099 -0.222619,-0.172688 -0.833527,-0.244441 -1.415996,-0.166314 -1.001015,0.134262 -1.031585,0.113599 -1.336246,-0.903267 -0.279958,-0.934418 -0.387303,-1.029591 -1.051349,-0.93213 -0.616753,0.09052 -0.855267,-0.06053 -1.436407,-0.909677 -0.992402,-1.450073 -1.562816,-3.529013 -1.217492,-4.437285 0.149812,-0.394036 0.272386,-1.354878 0.272386,-2.135209 0,-1.217594 0.09886,-1.496541 0.697139,-1.96715 0.383427,-0.301604 0.859677,-0.548371 1.058334,-0.548371 0.198656,0 0.361193,-0.07302 0.361193,-0.162258 0,-0.08924 -1.050074,-1.488226 -2.333499,-3.108854 -3.095975,-3.909404 -3.487334,-4.499869 -3.487334,-5.261537 0,-0.661034 0.72254,-1.521518 1.277604,-1.521518 0.42202,0 0.389101,-0.539562 -0.105078,-1.722298 -0.654391,-1.566178 -0.287837,-1.708774 3.614719,-1.406185 1.695178,0.131437 1.730736,0.121464 1.25677,-0.352502 -1.09083,-1.09083 -0.199469,-1.982096 1.021663,-1.021553 l 0.731236,0.57519 0.59946,-0.696914 c 0.784892,-0.912491 0.758072,-1.323807 -0.213037,-3.267168 -0.908672,-1.818414 -1.956173,-2.796453 -4.324771,-4.037987 -2.096868,-1.099103 -3.329399,-2.026015 -3.329399,-2.503841 0,-0.540648 0.390567,-0.478574 1.527026,0.242697 0.542584,0.344358 1.767453,1.051846 2.721932,1.572196 2.047209,1.116069 3.8934,2.995387 4.888736,4.97646 0.393551,0.783308 0.73619,1.44924 0.761419,1.479848 0.02523,0.03061 0.289155,-0.008 0.586503,-0.08573 0.497546,-0.130111 0.522676,-0.25589 0.315322,-1.578176 -0.277516,-1.769696 -1.265143,-4.053323 -2.339819,-5.410212 -0.444958,-0.561804 -1.994956,-1.823718 -3.444442,-2.804252 -2.427216,-1.64194 -2.900001,-2.127642 -2.479944,-2.547699 0.234953,-0.234953 4.579933,2.620461 5.884905,3.867416 1.509079,1.441986 2.325359,2.868434 3.325884,5.811977 l 0.824758,2.426438 0.989115,0.08207 c 0.593318,0.04923 1.084781,0.260977 1.228188,0.529166 0.394768,0.73827 0.271199,2.466328 -0.282112,3.945184 -0.555104,1.483647 -1.28539,2.190454 -2.263217,2.190454 -0.487455,0 -0.602587,0.145468 -0.602587,0.761354 0,0.842745 -0.58678,1.49135 -1.152722,1.274178 -0.290564,-0.1115 -0.364558,0.249395 -0.360101,1.756337 0.0031,1.04317 -0.08983,2.707092 -0.206486,3.697605 l -0.212095,1.800934 0.701118,-0.175969 c 1.167235,-0.292957 1.942782,0.08113 2.799314,1.350272 0.987122,1.462638 0.996457,1.689375 0.126297,3.067797 -0.934096,1.479706 -1.961892,4.285276 -1.950802,5.325097 0.03189,2.989405 5.373379,11.805087 9.373918,15.470855 2.610959,2.392468 7.066143,4.301616 12.235072,5.242996 l 2.435804,0.44362 1.797529,-1.27016 c 4.460722,-3.152025 8.408186,-7.162895 9.854942,-10.013238 0.67608,-1.331989 0.82128,-1.936991 0.83575,-3.482298 0.0103,-1.09846 -0.14538,-2.260089 -0.37722,-2.814963 -0.5602,-1.34075 -2.095264,-2.947937 -3.360645,-3.518546 -1.071438,-0.48315 -1.09202,-0.482134 -2.320684,0.114798 -1.525937,0.741357 -4.354595,2.964331 -5.094841,4.003908 l -0.548716,0.770604 0.779785,0.995847 c 0.428884,0.547716 1.283282,2.159132 1.898663,3.580921 1.312312,3.031998 2.326378,4.293439 3.232037,4.020476 0.889246,-0.268017 2.218785,-1.630987 2.527596,-2.591157 0.254005,-0.789768 0.273412,-0.800288 0.328282,-0.177932 0.0553,0.627316 0.06874,0.620487 0.260289,-0.132292 l 0.201975,-0.79375 0.03131,0.797878 c 0.06826,1.739765 -1.827956,3.832331 -3.47273,3.832331 -1.477851,0 -2.25656,-0.756703 -3.673248,-3.569455 -1.48314,-2.94468 -2.762824,-4.527502 -3.299984,-4.0817 -0.181919,0.150981 -0.786222,1.351716 -1.342895,2.668299 -1.66484,3.9375 -2.912224,4.977786 -5.973069,4.981379 -1.51465,0.0019 -1.567458,0.235453 -0.438418,1.939994 1.501857,2.267386 3.463571,3.063386 5.347021,2.169626 1.138451,-0.540231 1.7424,-1.395132 1.987073,-2.812743 0.242523,-1.405163 0.691301,-1.435489 0.791726,-0.0535 0.105114,1.446506 -0.483092,2.547943 -1.840346,3.446133 -2.771368,1.83401 -6.848631,0.0484 -8.593842,-3.763673 -0.353248,-0.771596 -0.847114,-1.486178 -1.097481,-1.587958 -0.250367,-0.101782 -1.329388,-0.287216 -2.397826,-0.412072 -2.313111,-0.270312 -3.613637,-0.928027 -3.613637,-1.827525 0,-0.463934 0.204158,-0.686681 0.79375,-0.866027 1.678122,-0.510463 1.628286,-0.476797 1.124473,-0.759634 -0.645732,-0.362511 -1.172432,-1.474989 -1.392211,-2.94058 -0.102665,-0.684617 -0.352314,-1.382239 -0.554775,-1.550265 -0.699264,-0.580337 -0.421828,-1.646018 0.740198,-2.843239 1.641329,-1.69104 2.884118,-2.241 4.757886,-2.105464 1.167427,0.08444 1.542138,0.02548 1.542138,-0.242679 0,-0.194826 -0.366501,-0.427527 -0.814446,-0.517115 -0.523558,-0.104711 -0.899216,-0.38585 -1.051785,-0.787135 -0.130538,-0.343337 -0.448646,-0.625364 -0.706909,-0.62673 -0.776689,-0.0041 -3.169848,-1.517102 -3.860652,-2.44077 -0.355415,-0.475221 -0.8075,-1.321496 -1.004635,-1.880611 -0.330239,-0.93662 -0.317139,-1.047173 0.166562,-1.405692 0.380606,-0.282107 0.852436,-0.339529 1.715614,-0.208793 3.139946,0.475573 4.419008,0.55114 5.159376,0.304818 1.338889,-0.44545 1.460624,-0.638881 1.038256,-1.649748 -0.490505,-1.173946 -0.477893,-2.244231 0.03508,-2.9766 0.570526,-0.814538 1.51624,-0.73742 2.59734,0.211796 l 0.910964,0.799838 0.186179,-1.130567 c 0.252949,-1.536043 0.820616,-2.848053 1.237951,-2.861202 0.189328,-0.006 0.61423,-0.58715 0.944229,-1.291523 0.74894,-1.598589 1.794587,-2.666382 2.61108,-2.666382 0.844175,0 0.8122,0.631203 -0.17359,3.42687 -0.433692,1.229935 -0.78853,2.330868 -0.78853,2.446518 0,0.11565 0.573424,-0.384644 1.274276,-1.111765 0.878631,-0.911563 1.485003,-1.322039 1.952972,-1.322039 0.464724,0 0.901377,-0.291951 1.385022,-0.926042 0.38848,-0.509323 0.913791,-0.926041 1.16736,-0.926041 0.253566,0 1.170242,-0.687845 2.037056,-1.528543 2.213362,-2.146681 4.354148,-3.045621 4.354148,-1.828357 0,0.200132 -0.843899,1.662384 -1.87533,3.24945 -1.031433,1.587066 -2.223773,3.570184 -2.649643,4.406929 l -0.774311,1.521354 h 0.63287 c 0.348078,0 0.787442,-0.186248 0.976363,-0.413885 0.215278,-0.259392 0.568878,-0.357314 0.947301,-0.262337 0.385905,0.09686 2.350399,-0.479126 5.443598,-1.596038 2.66188,-0.961172 5.83114,-2.003979 7.0428,-2.31735 2.16409,-0.559699 2.20957,-0.560829 2.57399,-0.06397 0.65741,0.896349 -0.45243,3.584219 -2.31372,5.603485 -1.22553,1.329547 -1.95921,1.483178 -2.33705,0.489379 -0.35584,-0.935937 -0.7877,-0.561594 -0.7877,0.682794 0,0.970616 -0.0595,1.048078 -0.99219,1.292003 -0.5457,0.142714 -1.86941,0.342662 -2.94157,0.444328 -1.911916,0.181298 -1.933528,0.191516 -1.12447,0.531696 1.03591,0.435568 1.05862,1.093412 0.0524,1.516518 l -0.772553,0.324831 1.763513,1.332342 c 2.85268,2.155216 7.02321,8.572492 7.84991,12.078796 0.63438,2.690633 0.46784,6.286572 -0.29115,6.286572 -0.19732,0 -0.43024,-0.327422 -0.5176,-0.727605 -0.25692,-1.176901 -0.67556,-2.143387 -1.07033,-2.47102 -0.31129,-0.258347 -0.36872,0.181295 -0.37041,2.8355 -0.004,5.530239 -0.81132,8.553969 -2.87451,10.759689 -1.11068,1.1874 -2.7885,2.30344 -3.46295,2.30344 -0.43462,0 -0.32376,-0.68414 0.30694,-1.89417 0.72848,-1.39762 1.00341,-4.19125 0.41246,-4.19125 -0.23917,0 -0.72451,0.79939 -1.24494,2.05052 -0.469122,1.12779 -1.159174,2.57989 -1.533451,3.22688 l -0.6805,1.17637 1.288934,1.16694 c 2.957707,2.67778 7.349007,5.58116 9.311377,6.15637 0.61846,0.18128 1.12447,0.48516 1.12447,0.67528 0,0.41874 -0.82631,0.89348 -1.55514,0.89348 -0.3045,0 -0.72287,0.32377 -0.9793,0.75788 -0.75701,1.28152 -3.02181,2.22289 -3.02181,1.25603 0,-0.28825 -0.2997,-0.24553 -1.39206,0.19843 -0.76563,0.31118 -1.40805,0.68484 -1.4276,0.83036 -0.0195,0.14553 0.26379,0.77534 0.62963,1.3996 0.45084,0.76929 0.70937,1.68576 0.80236,2.84427 0.0755,0.94009 0.23997,1.70926 0.36556,1.70926 0.1256,0 0.22836,-0.11906 0.22836,-0.26458 0,-0.14552 0.23813,-0.26459 0.52917,-0.26459 0.30419,0 0.52917,0.17639 0.52917,0.41489 0,0.35388 0.107,0.33997 0.7276,-0.0946 0.88966,-0.62292 1.38906,-0.48919 1.38906,0.37198 0,0.78191 -1.04064,2.90038 -1.96348,3.99711 l -0.66988,0.79611 0.55601,0.49838 c 0.83047,0.74441 3.47977,4.03976 4.30851,5.35918 0.40743,0.64866 0.905,2.03199 1.13295,3.14979 0.3822,1.87417 0.37114,2.27772 -0.18525,6.75962 -0.32545,2.62155 -0.53078,5.30711 -0.4563,5.9679 0.25537,2.26562 1.6453,2.62897 4.50786,1.1784 4.1662,-2.11117 7.48929,-7.86771 11.0481,-19.13838 1.16007,-3.67395 3.71964,-10.75516 4.73296,-13.09407 0.89182,-2.05844 3.25196,-5.43026 4.87624,-6.96644 0.81773,-0.77338 2.27437,-1.77437 3.26472,-2.24348 1.68938,-0.80025 1.95632,-0.84705 4.8309,-0.84705 2.61005,0 3.19412,0.0811 4.10755,0.57026 1.49877,0.80265 3.47868,3.01317 4.29568,4.796 0.82215,1.79409 1.1212,5.2029 0.59604,6.79417 -0.38563,1.16846 -1.63913,2.66304 -2.68871,3.2058 -1.73459,0.89699 -5.25223,1.06296 -5.25223,0.24781 0,-0.18389 -0.37329,-0.40901 -0.82955,-0.50026 -1.15189,-0.23038 -2.52286,-1.12582 -2.68748,-1.75531 -0.12317,-0.471 -0.005,-0.52618 1.12748,-0.52618 1.44187,0 2.91952,-0.2513 2.91705,-0.49609 -8e-4,-0.091 -0.35811,-0.36819 -0.79375,-0.61608 -1.40965,-0.80213 -1.03719,-1.25803 1.0121,-1.23884 2.08436,0.0195 3.41699,-0.44683 4.22986,-1.48023 0.91365,-1.16152 0.9994,-2.3211 0.27887,-3.77153 -2.10956,-4.2466 -8.394,-4.55578 -11.96097,-0.58845 -1.46331,1.62755 -3.02589,4.62466 -4.25018,8.15205 -1.11654,3.21697 -1.48993,4.75776 -2.53802,10.47316 -2.44304,13.32227 -4.02236,18.36105 -7.32329,23.3647 -1.28965,1.95489 -4.21692,4.82779 -5.7453,5.63859 -0.78228,0.415 -1.24621,0.86058 -1.35421,1.30064 -0.33117,1.3494 -0.85116,1.80774 -2.42056,2.13354 -2.39027,0.49622 -4.05788,1.04653 -4.05788,1.33909 0,0.41565 2.22192,1.30153 3.97091,1.5832 1.19089,0.19179 2.03727,0.15658 3.48305,-0.14487 1.74984,-0.36485 1.96651,-0.36126 2.58577,0.0429 1.31393,0.85745 3.41969,3.30134 4.2886,4.97724 1.19713,2.30893 0.97752,2.50172 -1.9993,1.75511 -1.24064,-0.31117 -2.29848,-0.56575 -2.35076,-0.56575 -0.0523,0 0.23361,0.68475 0.6353,1.52168 1.32315,2.75684 1.63151,4.85895 0.70567,4.81062 -0.18647,-0.01 -0.82158,-0.16884 -1.41136,-0.35356 z m 0.92894,-1.5195 c -0.1313,-0.45782 -0.67915,-1.77094 -1.21745,-2.91803 -0.67077,-1.42939 -0.89307,-2.17127 -0.7065,-2.35783 0.18656,-0.18657 0.95883,-0.0969 2.45443,0.28495 1.20022,0.30645 2.29758,0.51872 2.43858,0.47172 0.35636,-0.11879 -1.63499,-3.02588 -2.9433,-4.29682 l -1.08035,-1.04947 -3.77093,-0.009 c -3.72606,-0.009 -3.79212,-0.0193 -5.55257,-0.88533 -2.90517,-1.42919 -2.35088,-2.2024 2.29534,-3.20192 1.82871,-0.3934 2.1875,-0.56383 2.59316,-1.2318 0.25895,-0.42637 0.47156,-0.95382 0.47248,-1.1721 7.9e-4,-0.21828 0.59145,-0.72812 1.3123,-1.13299 2.76012,-1.55021 5.67159,-4.91053 7.63003,-8.80632 1.85453,-3.68909 3.65103,-10.25914 5.24038,-19.16486 1.05051,-5.88637 1.6252,-8.24802 2.85715,-11.74121 2.73437,-7.75332 5.87338,-10.84244 11.0071,-10.83218 1.22076,0.002 2.36618,0.16686 2.97656,0.42727 0.5457,0.2328 0.99219,0.36376 0.99219,0.291 0,-0.21797 -1.90849,-0.96383 -3.04271,-1.18913 -1.47958,-0.2939 -4.20613,0.17689 -6.08542,1.05077 -2.52514,1.17421 -5.28666,4.27892 -7.20717,8.10286 -0.99495,1.98107 -3.35279,8.30758 -4.97969,13.36146 -0.67925,2.11005 -1.58741,4.78896 -2.01812,5.95312 -1.27338,3.44178 -4.07108,8.88302 -5.43153,10.56376 -2.28564,2.82375 -5.90493,4.73806 -7.98574,4.22379 -1.96582,-0.48584 -2.29208,-2.66549 -1.32649,-8.86198 1.01467,-6.51138 0.48099,-8.19436 -4.35775,-13.74255 -0.81742,-0.93726 -1.48622,-1.8926 -1.48622,-2.12297 0,-0.23036 0.30944,-0.70749 0.68765,-1.06028 0.37821,-0.35279 0.96952,-1.19513 1.31403,-1.87186 l 0.62637,-1.23044 -0.82621,0.3044 c -0.6471,0.2384 -0.85099,0.23184 -0.94049,-0.0302 -0.0793,-0.23202 -0.35671,-0.13062 -0.90499,0.33073 -0.43489,0.36593 -1.00516,0.66533 -1.26726,0.66533 -2.06694,0 -5.247872,-3.14732 -4.679062,-4.62961 0.408405,-1.06429 3.266272,0.0489 4.535322,1.76665 0.44375,0.60064 0.45028,0.58286 0.30019,-0.81682 -0.0945,-0.88177 -0.41069,-1.81959 -0.82385,-2.44391 l -0.67041,-1.01306 -1.982937,0.16761 c -1.696289,0.14339 -1.982936,0.10761 -1.982936,-0.24756 0,-0.45711 0.754883,-0.75196 3.571875,-1.39516 1.018648,-0.23258 2.620748,-0.83013 3.560228,-1.32788 1.84226,-0.97606 2.55125,-0.89323 1.90815,0.22291 -0.2088,0.36238 -0.0282,0.25652 0.46965,-0.27536 0.44486,-0.47524 0.80885,-1.04079 0.80885,-1.25677 0,-0.23009 0.2465,-0.39378 0.59531,-0.39529 0.41607,-0.002 0.197,-0.19199 -0.7276,-0.63167 -3.06074,-1.45549 -9.392713,-6.47124 -9.392713,-7.44026 0,-0.56509 3.083183,-6.86574 3.548803,-7.25217 0.55989,-0.46467 1.4476,-0.10122 1.64171,0.67217 0.25098,0.99997 -0.0139,3.32003 -0.48748,4.26927 l -0.42276,0.84746 1.02291,-0.82203 c 2.58362,-2.07626 3.39991,-4.43539 3.64776,-10.542269 l 0.17718,-4.365625 0.72119,-0.0831 c 0.57275,-0.066 0.83649,0.09737 1.28144,0.79375 l 0.56025,0.876851 -0.14949,-1.621047 c -0.23355,-2.532406 -1.22818,-4.830154 -3.69194,-8.528886 -2.34119,-3.514736 -3.96815,-5.224744 -5.753409,-6.047064 -1.312206,-0.604424 -1.32919,-1.224989 -0.04752,-1.73619 l 0.990319,-0.394989 -1.056465,-0.293293 c -0.581054,-0.161309 -1.21357,-0.293955 -1.405591,-0.294764 -0.210442,-7.94e-4 -0.315545,-0.237961 -0.264583,-0.596789 0.07885,-0.55521 0.255883,-0.607537 2.627934,-0.77678 3.810145,-0.271846 4.317165,-0.449792 4.423545,-1.552506 0.0483,-0.500354 0.21168,-1.059043 0.36313,-1.241529 0.43541,-0.524634 1.48131,-0.394493 1.81318,0.225611 0.29298,0.547452 0.31483,0.541549 1.22356,-0.33073 1.02321,-0.982165 2.20091,-3.083532 2.20091,-3.927083 0,-0.457118 -0.11508,-0.516162 -0.7276,-0.373302 -0.9121,0.21273 -4.97261,1.54322 -9.458862,3.099341 -5.391917,1.870263 -7.056152,2.119845 -7.441374,1.115968 -0.203685,-0.530789 1.42926,-3.660945 3.48997,-6.689847 l 1.664957,-2.44721 -1.13756,0.782661 c -0.625658,0.430464 -1.677207,1.38288 -2.336776,2.116481 -0.692135,0.769819 -1.426237,1.33382 -1.736098,1.33382 -0.295283,0 -0.791218,0.357187 -1.102077,0.79375 -0.397979,0.558909 -0.784741,0.79375 -1.307235,0.79375 -0.539925,0 -1.039479,0.322688 -1.834068,1.184714 -0.600618,0.651592 -1.092031,1.302248 -1.092031,1.445898 0,0.394351 -0.963522,0.828747 -1.436042,0.647425 -0.612597,-0.235077 -0.513768,-0.998649 0.507675,-3.92244 0.505111,-1.445828 0.8777,-2.669459 0.827979,-2.719181 -0.177273,-0.177271 -1.504315,1.77235 -2.011066,2.954549 -0.283565,0.661532 -0.681816,1.202785 -0.885,1.202785 -0.242189,0 -0.500216,0.615112 -0.74916,1.785938 -0.325479,1.530768 -0.467405,1.798587 -0.993341,1.874475 -0.413586,0.05968 -0.90634,-0.195191 -1.511636,-0.781865 -0.844997,-0.819007 -0.924573,-0.84386 -1.347557,-0.420875 -0.397095,0.397094 -0.409662,0.580884 -0.107728,1.575617 0.603531,1.988363 0.533884,2.397025 -0.496207,2.911613 -1.068851,0.53395 -3.359579,0.606989 -5.665849,0.18065 -0.841336,-0.155528 -1.591877,-0.220605 -1.667869,-0.144614 -0.342433,0.342435 0.322656,1.687875 1.332842,2.696269 0.760851,0.759502 1.580932,1.253469 2.627438,1.58261 1.048494,0.329766 1.521354,0.614926 1.521354,0.917454 0,0.282892 0.376291,0.551709 1.058334,0.756052 0.774234,0.231968 1.058333,0.458512 1.058333,0.843936 0,0.289766 0.178594,0.595381 0.396875,0.679143 0.218281,0.08376 0.396875,0.377682 0.396875,0.653156 0,0.623573 -1.036227,0.671886 -2.597319,0.1211 -0.780812,-0.275487 -1.324806,-0.311156 -1.981235,-0.129908 -1.111806,0.306985 -2.923953,1.591122 -3.512127,2.48879 -0.387933,0.592061 -0.393349,0.733367 -0.04837,1.262023 0.213663,0.327422 0.476321,1.184495 0.583685,1.904608 0.152444,1.02248 0.3981,1.49514 1.121404,2.157662 1.222106,1.119404 1.084954,1.665795 -0.555876,2.214504 l -1.301293,0.435166 0.772127,0.316743 c 0.424669,0.17421 1.605563,0.423257 2.624209,0.553437 1.953882,0.249703 3.307292,0.664999 3.307292,1.014849 0,0.376433 4.660575,-0.09639 5.326682,-0.540406 0.351396,-0.234233 1.381535,-1.905786 2.346235,-3.807119 1.866426,-3.678553 2.219679,-3.985467 3.397041,-2.951435 l 0.704001,0.618297 -0.727605,-0.807265 c -0.400182,-0.443998 -0.727604,-1.044657 -0.727604,-1.334802 0,-1.514425 6.296287,-6.295179 7.937501,-6.026923 1.163759,0.190214 3.507226,2.012593 4.355796,3.387251 0.69664,1.128528 0.81623,1.600796 0.89865,3.548968 0.0549,1.297792 -0.0417,2.704021 -0.22859,3.328453 -0.46489,1.553057 -1.899392,3.595963 -4.322668,6.155987 -1.962224,2.072955 -6.650025,5.877141 -8.000468,6.492451 -1.376284,0.62707 -9.59161,-1.4774 -12.811054,-3.28174 C 74.184509,98.955638 73.060027,97.974962 70.970273,95.464145 68.7677,92.817777 66.45256,89.180243 64.917975,85.954808 63.9664,83.954762 63.847284,83.486222 63.841747,81.721474 c -0.0055,-1.761016 0.10395,-2.207733 0.972613,-3.96875 0.538362,-1.091406 1.122275,-2.179272 1.297585,-2.417482 0.263958,-0.358664 0.168256,-0.623118 -0.556783,-1.538555 -0.827128,-1.044334 -0.93226,-1.095859 -1.901767,-0.932061 -0.971849,0.164193 -1.104005,0.09849 -2.493527,-1.239573 -0.886576,-0.853747 -1.798051,-2.08471 -2.303026,-3.110286 -0.581272,-1.180527 -1.14889,-1.905571 -1.864218,-2.38125 -0.565664,-0.376155 -1.550135,-1.144149 -2.187713,-1.706653 -0.943403,-0.832319 -1.18929,-0.944406 -1.320673,-0.602029 -0.220409,0.574378 0.63514,1.884861 3.523244,5.396708 1.348706,1.639989 2.452194,3.168423 2.452194,3.396523 0,0.238535 -0.451995,0.592275 -1.063916,0.832644 -1.192253,0.468331 -1.212199,0.51898 -1.451317,3.685265 -0.140488,1.860278 -0.08776,2.309297 0.378472,3.223194 0.642691,1.259779 0.972465,1.500058 1.922075,1.40045 0.625456,-0.06561 0.75075,0.05578 1.034227,1.001935 0.318888,1.064356 0.336954,1.076587 1.590074,1.076587 h 1.267521 l 0.780488,1.653646 c 0.429269,0.909505 1.632172,3.807603 2.673118,6.440216 1.040946,2.632612 2.299021,5.37105 2.795721,6.085417 1.44533,2.07871 1.617574,2.48619 1.170994,2.77022 -0.210008,0.13357 -0.560426,0.18471 -0.778707,0.11365 -0.218281,-0.0711 -0.06945,0.14301 0.330729,0.47574 0.400182,0.33272 0.727604,0.78015 0.727604,0.99429 0,0.27234 0.655942,0.5341 2.182813,0.87107 5.471999,1.20762 9.458854,3.2915 9.458854,4.94404 0,0.41574 -0.115826,0.82748 -0.257394,0.91498 -0.928508,0.57384 -1.081286,5.12528 -0.284636,8.4796 1.366348,5.75307 2.971263,8.14895 10.451169,15.60193 6.754146,6.72982 7.314509,7.53177 7.499834,10.73312 0.114441,1.97698 -0.349848,5.11903 -1.08099,7.31549 -0.413221,1.24138 -3.168525,3.37691 -6.273816,4.8626 -1.236927,0.59179 -2.427552,1.16786 -2.645833,1.28016 -0.563041,0.28967 -0.647192,2.27845 -0.151347,3.5768 0.390808,1.02332 0.515866,1.11335 2.332667,1.67926 2.316258,0.72149 4.036388,1.64996 4.036388,2.17869 0,0.21366 -0.416718,0.53057 -0.926041,0.70426 -2.031913,0.69291 -5.171507,0.28367 -8.785077,-1.14513 l -2.302786,-0.91052 -1.607645,0.81154 c -1.977276,0.99813 -3.900347,2.65589 -3.394909,2.92655 0.191239,0.10241 1.032317,0.26881 1.869062,0.36979 1.858918,0.22433 1.917153,0.50248 0.496189,2.37003 -0.563843,0.74105 -1.163344,1.61525 -1.332227,1.94267 -0.27753,0.53806 -0.245399,0.59531 0.33411,0.59531 2.370162,0 15.686879,-4.87133 18.235267,-6.67056 l 0.733859,-0.51813 -1.527609,-1.02051 c -1.879415,-1.25552 -2.400673,-1.71525 -3.320222,-2.92827 -1.089748,-1.43755 -0.964264,-2.26879 0.570738,-3.7807 1.544979,-1.52176 2.196346,-1.54982 2.431235,-0.10477 0.480303,2.9549 6.161388,7.66326 9.987708,8.2776 0.665,0.10677 1.20971,0.35761 1.30268,0.59989 0.21156,0.5513 -1.15992,1.68962 -3.37163,2.79842 l -1.71979,0.86219 1.68516,1.44086 c 0.92684,0.79247 3.01043,2.85328 4.63021,4.57956 3.09278,3.29615 5.21133,5.00021 7.59724,6.11084 1.99562,0.92896 2.3873,0.89886 2.08359,-0.16009 z M 91.755482,119.93749 c -1.009721,-1.59216 -1.44571,-3.50265 -1.258017,-5.51259 0.205893,-2.20489 0.368173,-2.54081 1.227434,-2.54081 1.812388,0 7.422285,4.01228 7.422285,5.30853 0,0.26695 -0.386953,0.77928 -0.859896,1.13852 -1.417857,1.07694 -4.641649,2.81336 -5.223232,2.81336 -0.356526,0 -0.806083,-0.41466 -1.308574,-1.20701 z m 5.650365,-2.05842 c 0.708491,-0.56774 0.740593,-0.66394 0.389041,-1.16585 -0.938358,-1.33969 -4.950836,-4.03538 -6.006579,-4.03538 -0.300278,0 -0.578625,1.28424 -0.578625,2.66965 0,1.21813 0.659206,3.26999 1.374809,4.27927 l 0.518449,0.73121 1.76535,-0.93005 c 0.970941,-0.51153 2.112843,-1.20852 2.537555,-1.54885 z m 3.566583,9.31696 c -0.982704,-1.24076 -2.834814,-2.67331 -3.180246,-2.45982 -0.575461,0.35565 1.022554,2.30946 2.545626,3.1124 1.34966,0.71152 1.55102,0.50447 0.63462,-0.65258 z m 45.98895,0.66404 c 1.79371,-0.60665 2.57702,-1.24111 3.21932,-2.60754 0.6357,-1.35239 0.74169,-3.60704 0.2491,-5.29865 l -0.30818,-1.05834 -0.20226,1.10427 c -0.4306,2.3509 -1.76459,3.68093 -4.01451,4.00256 -1.05973,0.1515 -1.07648,0.16723 -0.32652,0.3066 0.44158,0.0821 0.82749,0.33889 0.87428,0.58184 0.0989,0.51363 -1.63801,1.15624 -3.91376,1.44799 l -1.45521,0.18654 0.79375,0.34036 c 0.43657,0.18719 1.3593,0.34572 2.05052,0.35229 1.07641,0.0102 1.25678,0.0879 1.25678,0.5411 0,0.64007 0.15646,0.64896 1.77669,0.10098 z m 0.86914,-12.37171 c 0,-0.0549 -0.20836,-0.2633 -0.46302,-0.46302 -0.41965,-0.32911 -0.42901,-0.31975 -0.0999,0.0999 0.34565,0.44073 0.56292,0.58089 0.56292,0.36313 z M 83.729693,101.1409 c -0.08792,-0.0879 -0.316124,-0.0973 -0.507119,-0.0209 -0.211066,0.0845 -0.148373,0.14716 0.159853,0.15985 0.278914,0.0115 0.435184,-0.051 0.347266,-0.13896 z m 1.5875,0 c -0.08792,-0.0879 -0.316124,-0.0973 -0.507119,-0.0209 -0.211066,0.0845 -0.148373,0.14716 0.159853,0.15985 0.278914,0.0115 0.435184,-0.051 0.347266,-0.13896 z m 2.892719,-4.404211 c -0.0734,-0.181901 -0.133453,-0.03307 -0.133453,0.330729 0,0.363802 0.06006,0.51263 0.133453,0.330729 0.0734,-0.181901 0.0734,-0.479557 0,-0.661458 z M 94.1201,95.653217 c 0,-0.05021 -0.26789,-0.318098 -0.595312,-0.595312 l -0.595313,-0.504029 0.504029,0.595312 c 0.473662,0.559446 0.686596,0.715762 0.686596,0.504029 z M 61.635727,70.448647 c -0.07586,-0.396846 0.0079,-0.775943 0.197264,-0.89299 0.499518,-0.308718 0.105039,-1.63816 -0.960989,-3.238647 -0.646357,-0.970412 -1.488034,-1.751922 -2.758729,-2.561522 -1.314124,-0.83727 -1.82859,-1.32183 -1.82859,-1.722293 0,-0.512251 -0.95905,-1.401175 -1.224894,-1.13533 -0.09483,0.09483 0.133333,1.271029 0.584404,3.012673 0.04457,0.172102 0.727954,0.726738 1.518624,1.232523 1.140854,0.729796 1.600419,1.245477 2.226496,2.498368 0.606,1.212715 2.140176,3.496757 2.348784,3.496812 0.0162,6e-6 -0.02987,-0.310314 -0.10237,-0.689594 z m 0.915113,-1.212091 c -0.08446,-0.211066 -0.147157,-0.148373 -0.159852,0.159854 -0.01149,0.278913 0.05105,0.435184 0.138964,0.347265 0.08792,-0.08792 0.09732,-0.316124 0.02089,-0.507119 z m -0.364894,-3.903307 c -0.09267,-1.389603 -0.03971,-1.60651 0.45722,-1.872457 0.309118,-0.165435 0.737507,-0.233455 0.951975,-0.151156 0.214468,0.0823 0.323841,0.04268 0.24305,-0.08804 -0.328508,-0.531538 0.195572,-1.07918 1.03275,-1.07918 0.481185,0 1.038943,-0.202963 1.272416,-0.46302 0.6708,-0.747182 1.297887,-2.590858 1.206323,-3.546671 -0.0765,-0.798588 -0.175199,-0.893679 -1.009768,-0.972864 -0.508739,-0.04827 -1.062707,-0.202068 -1.231041,-0.341773 -0.19929,-0.165395 -0.340099,-0.151899 -0.403627,0.03869 -0.05366,0.160982 -0.577536,0.357072 -1.164167,0.435756 -0.817859,0.109698 -1.202182,0.340926 -1.647957,0.991492 -0.319745,0.466637 -0.581354,0.97787 -0.581354,1.136073 0,0.37543 -2.075518,1.456066 -2.40522,1.252298 -0.139528,-0.08623 -0.78632,-0.186854 -1.437316,-0.223604 -1.059769,-0.05983 -1.145005,-0.02316 -0.814529,0.350384 0.203006,0.229461 0.411159,0.615921 0.462562,0.8588 0.0514,0.242879 0.865041,0.969316 1.808082,1.614305 0.994002,0.679842 2.05039,1.683575 2.513541,2.388255 0.439407,0.668551 0.810836,1.222036 0.825398,1.229966 0.01456,0.0079 -0.02069,-0.692832 -0.07834,-1.557249 z m -1.66793,-12.277952 c 0,-0.05021 -0.267891,-0.318097 -0.595312,-0.595313 l -0.595313,-0.504028 0.504028,0.595313 c 0.473662,0.559447 0.686597,0.715762 0.686597,0.504028 z m 1.5875,-3.960256 c 0,-0.04554 -0.386953,-0.432488 -0.859896,-0.859896 l -0.859896,-0.777106 0.777106,0.859896 c 0.724371,0.801544 0.942686,0.981512 0.942686,0.777106 z m 35.73964,41.997204 c 0.0127,-0.308227 0.07539,-0.37092 0.159851,-0.159854 0.07643,0.190995 0.06703,0.419198 -0.02088,0.507119 -0.08792,0.08792 -0.150453,-0.06835 -0.138964,-0.347265 z"
       id="path1332" />
  </g>
</svg>
