<svg xmlns="http://www.w3.org/2000/svg" viewBox="0 0 361.7 546.75"><g id="katman_2" data-name="katman 2"><g id="katman_1-2" data-name="katman 1"><path d="M137.84,530a1.06,1.06,0,0,1-1-.62L120,488.84v32.41a13.84,13.84,0,0,1-.66,4.59,8.32,8.32,0,0,1-1.79,3,7.09,7.09,0,0,1-2.48,1.71,7.45,7.45,0,0,1-2.76.54,9.29,9.29,0,0,1-3.7-.69,9.49,9.49,0,0,1-2.76-1.83,9.64,9.64,0,0,1-1.86-2.49,11.33,11.33,0,0,1-1-2.68,3.74,3.74,0,0,1,.62-3.42,4.06,4.06,0,0,1,2.57-1.44,3.74,3.74,0,0,1,2.79.78,3.66,3.66,0,0,1,1.33,3.15v2a8.63,8.63,0,0,0,.15,1.71,2.24,2.24,0,0,0,.58,1.16,1.75,1.75,0,0,0,1.29.43,2.82,2.82,0,0,0,2.64-1.51,10.16,10.16,0,0,0,.85-4.78V485.34c0-1-.29-1.64-.89-1.83A2,2,0,0,0,113,484a5.65,5.65,0,0,0-1.59,2.49,7.51,7.51,0,0,0-.15,4,3.13,3.13,0,0,1-1.09,3.19,6.13,6.13,0,0,1-3.62,1.39,7.73,7.73,0,0,1-4.23-.93,5.8,5.8,0,0,1-2.88-3.73,7.52,7.52,0,0,1,.43-5.6,9.58,9.58,0,0,1,4.08-4.12,13.45,13.45,0,0,1,2.76-1.16,17.13,17.13,0,0,1,2.8-.55,29.64,29.64,0,0,1,3.07-.15h17.64a.5.5,0,0,1,.47.31l12,30.16,9.56-29a2,2,0,0,1,2-1.48h17.41c.26,0,.44.15.55.47a3.24,3.24,0,0,1,.15,1,2.15,2.15,0,0,1-.27,1,.87.87,0,0,1-.81.51,2.48,2.48,0,0,0-1.05.27,4.12,4.12,0,0,0-1.09.74,4.87,4.87,0,0,0-.9,1.13,3.07,3.07,0,0,0-.39,1.59V523.2a3.07,3.07,0,0,0,.39,1.59,4.87,4.87,0,0,0,.9,1.13,4.38,4.38,0,0,0,1.09.74,2.48,2.48,0,0,0,1.05.27.87.87,0,0,1,.81.5,2.22,2.22,0,0,1,.27,1.05,3.24,3.24,0,0,1-.15,1c-.11.31-.29.47-.55.47H148.88c-.21,0-.38-.16-.51-.47a2.56,2.56,0,0,1-.19-1,2.22,2.22,0,0,1,.27-1.05.88.88,0,0,1,.82-.5,2.55,2.55,0,0,0,1-.27,4.32,4.32,0,0,0,1.08-.74,4.87,4.87,0,0,0,.9-1.13,3.07,3.07,0,0,0,.39-1.59V492.49l-7.85,22.23a.66.66,0,0,1-.08.24l-.16.39L139.4,530Z"/><path d="M188.52,517.13a10,10,0,0,0,1.28,5.64A3.83,3.83,0,0,0,193,524.6a2.78,2.78,0,0,0,1.79-.63,5,5,0,0,0,1.32-1.67,9.48,9.48,0,0,0,.82-2.41,14.45,14.45,0,0,0,.27-2.83V499.72a6.84,6.84,0,0,0-.51-2.53,2.55,2.55,0,0,0-1.36-1.59,1.06,1.06,0,0,1-.74-.62,2.38,2.38,0,0,1-.19-.93,1.3,1.3,0,0,1,.27-.82.82.82,0,0,1,.66-.35c1.14,0,2.42-.06,3.85-.19s2.85-.32,4.28-.55,2.77-.49,4-.77a29.81,29.81,0,0,0,3.22-.9h.08v28l.08,3.35v-.16a7,7,0,0,0,.35,2.41,4.08,4.08,0,0,0,.89,1.48,3.33,3.33,0,0,0,1.17.78c.41.15.8.28,1.16.38a.85.85,0,0,1,.67.86,1.47,1.47,0,0,1-.43,1.16,4.07,4.07,0,0,1-2,.94,19.68,19.68,0,0,1-4.09.31,33.22,33.22,0,0,1-3.34-.16,11.36,11.36,0,0,1-3.07-.7,8.86,8.86,0,0,1-2.56-1.47,6.1,6.1,0,0,1-1.75-2.49,7.8,7.8,0,0,1-6.45,5.29,18.77,18.77,0,0,1-6.65-.24,12.63,12.63,0,0,1-5.25-2.45,12.08,12.08,0,0,1-3.42-4.43,14.51,14.51,0,0,1-1.24-6.18V498a7,7,0,0,0-.62-1.55,1.64,1.64,0,0,0-1-.86,1,1,0,0,1-.74-.62,2.4,2.4,0,0,1-.2-.93,1.26,1.26,0,0,1,.28-.82.82.82,0,0,1,.66-.35c1,0,2.06-.05,3.22-.16s2.35-.23,3.54-.38,2.37-.35,3.54-.59,2.21-.48,3.14-.74l1.87-.54Z"/><path d="M219.15,487a6.75,6.75,0,0,0-.51-2.52,2.54,2.54,0,0,0-1.36-1.6,1.06,1.06,0,0,1-.74-.62,2.38,2.38,0,0,1-.19-.93,1.32,1.32,0,0,1,.27-.82.82.82,0,0,1,.66-.35,34.09,34.09,0,0,0,3.46-.19c1.27-.13,2.55-.29,3.85-.47s2.54-.4,3.73-.66,2.25-.52,3.19-.78l1.08-.31V523.2a4.84,4.84,0,0,0,.51,2.56,3.16,3.16,0,0,0,1.36,1.17,1.14,1.14,0,0,1,.7.66,2.72,2.72,0,0,1,.27,1,2.55,2.55,0,0,1-.08.93.49.49,0,0,1-.5.43h-18c-.2,0-.36-.14-.46-.43a2,2,0,0,1-.12-.93,3.16,3.16,0,0,1,.27-1,1.16,1.16,0,0,1,.7-.66,3.16,3.16,0,0,0,1.36-1.17,4.84,4.84,0,0,0,.51-2.56Z"/><path d="M259.1,521a13.28,13.28,0,0,1-2,5.21,8.6,8.6,0,0,1-3.89,3.5,12,12,0,0,1-4.58.85,15.53,15.53,0,0,1-4-.54,9.55,9.55,0,0,1-3.35-1.56,8.29,8.29,0,0,1-2.56-2.64,10,10,0,0,1-1.36-3.5,11.35,11.35,0,0,1-.08-3.77A9.15,9.15,0,0,1,238.5,515a20.75,20.75,0,0,1,3.31-4.15A16.33,16.33,0,0,1,246,508a25.35,25.35,0,0,1,5.6-1.87,54.45,54.45,0,0,1,7.46-1v-4A9.63,9.63,0,0,0,258,496a3.51,3.51,0,0,0-3.14-1.83,5.3,5.3,0,0,0-3.19.86,5.67,5.67,0,0,0-1.79,2.18,10.26,10.26,0,0,0-.85,2.91c-.16,1.06-.31,2.09-.47,3.07a2.29,2.29,0,0,1-1.4,1.91,6.64,6.64,0,0,1-2.8.58,8.17,8.17,0,0,1-2.1-.27,4.68,4.68,0,0,1-1.78-.9,3.69,3.69,0,0,1-1.36-2A5.37,5.37,0,0,1,239,500a8.43,8.43,0,0,1,1-2.68,10,10,0,0,1,2.1-2.52,15.73,15.73,0,0,1,5.63-3.15,22.44,22.44,0,0,1,7.12-1.13c5.64,0,10,1.31,13.17,3.93s4.71,6.28,4.71,11v13.05l.07,3.35v-.16a7,7,0,0,0,.35,2.41,4.09,4.09,0,0,0,.9,1.48,3.39,3.39,0,0,0,1.16.78c.42.15.81.28,1.17.38a.85.85,0,0,1,.66.86,1.43,1.43,0,0,1-.43,1.16,4,4,0,0,1-2,.94,19.64,19.64,0,0,1-4.08.31,31.94,31.94,0,0,1-4.16-.27,10,10,0,0,1-3.69-1.21,6.8,6.8,0,0,1-2.61-2.68,9.62,9.62,0,0,1-1-4.63Zm-8.86-1.32a4.78,4.78,0,0,0,.58,2.37,2,2,0,0,0,1.91,1,4.32,4.32,0,0,0,2.52-.78,7.81,7.81,0,0,0,1.95-1.94,11.48,11.48,0,0,0,1.32-2.53,8.81,8.81,0,0,0,.58-2.52v-6.61a6.45,6.45,0,0,0-3.3.93,10.61,10.61,0,0,0-2.84,2.45,12.1,12.1,0,0,0-2,3.5A11.64,11.64,0,0,0,250.24,519.7Z"/><path d="M305.51,503.14c0-1.09,0-2.07-.08-2.95A6.79,6.79,0,0,0,305,498a2.69,2.69,0,0,0-1.21-1.32,3.73,3.73,0,0,0-2.29-.19,4,4,0,0,0-2.14,1.24,12,12,0,0,0-2,2.64,17.46,17.46,0,0,0-1.48,3.35,11,11,0,0,0-.58,3.42V523.2a5,5,0,0,0,.5,2.56,3.16,3.16,0,0,0,1.36,1.17,1.11,1.11,0,0,1,.7.66,2.94,2.94,0,0,1,.28,1,2.79,2.79,0,0,1-.08.93.5.5,0,0,1-.51.43H279.39c-.21,0-.36-.14-.46-.43a2,2,0,0,1-.12-.93,2.92,2.92,0,0,1,.27-1,1.16,1.16,0,0,1,.7-.66,3.16,3.16,0,0,0,1.36-1.17,4.84,4.84,0,0,0,.51-2.56V498.32a5,5,0,0,0-.63-1.71,2.25,2.25,0,0,0-1.08-1,1,1,0,0,1-.74-.62,2.4,2.4,0,0,1-.2-.93,1.3,1.3,0,0,1,.27-.82.85.85,0,0,1,.67-.35,31,31,0,0,0,3.84-.27c1.43-.18,2.84-.42,4.24-.7s2.73-.58,4-.9,2.35-.62,3.23-.93v6.69a11.4,11.4,0,0,1,7.77-6.45,15.61,15.61,0,0,1,6.41-.35,12.08,12.08,0,0,1,5.1,2.06,10.35,10.35,0,0,1,3.38,4.15,14.48,14.48,0,0,1,1.2,6.11v26.19a37,37,0,0,0,.78,7.81,22.63,22.63,0,0,0,1.75,5.48c.65,1.25,1.29,1.75,1.94,1.52s1.13-1.57,1.44-4a7.75,7.75,0,0,1,2-4.63,6.87,6.87,0,0,1,3.54-2,7.53,7.53,0,0,1,3.85.23,6.06,6.06,0,0,1,2.91,1.87,4.8,4.8,0,0,1,1,2.06,6.13,6.13,0,0,1,0,2.49,7.39,7.39,0,0,1-1,2.56,6.92,6.92,0,0,1-2.25,2.22,15.37,15.37,0,0,1-5.13,2.09,22.13,22.13,0,0,1-6.34.51,24.07,24.07,0,0,1-6.53-1.32,16.75,16.75,0,0,1-9.95-9.25,20.68,20.68,0,0,1-1.59-8.51Z"/><g id="_MULLAN_" data-name="&lt;MULLAN&gt;"><path d="M153,372.22a31.28,31.28,0,0,1,.32,5.39c0,.91,0,1.82-.11,2.72l-.29,2.7a97.77,97.77,0,0,1-2,10.64c-.8,3.51-1.81,7-2.79,10.4s-2.12,6.85-3.19,10.25l-6.73,20.29a191.36,191.36,0,0,0-5.65,20.59c-.14-7.21,1.21-14.39,2.86-21.37.82-3.5,1.82-6.95,2.8-10.4s2.11-6.85,3.19-10.25L144.74,403c1.17-3.36,2.24-6.75,3.36-10.13.52-1.69,1.09-3.38,1.57-5.08s1-3.39,1.42-5.11l.67-2.58c.19-.86.31-1.73.5-2.6A46.55,46.55,0,0,0,153,372.22Z"/><path d="M196.93,460.15a22.31,22.31,0,0,1-2.2-2.35c-.63-.86-1.32-1.7-1.88-2.62a57.55,57.55,0,0,1-3.22-5.6c-.88-2-1.84-3.91-2.56-5.94l-1.13-3-1-3.09a130,130,0,0,1-4.8-25.3c-.26-2.14-.34-4.28-.47-6.42s-.25-4.28-.33-6.42V393c0-2.14,0-4.28.12-6.41.24-4.27.46-8.54.87-12.79s1-8.48,1.69-12.69c.15,4.28.14,8.53.14,12.77-.05,2.13.08,4.25.11,6.37s.06,4.24.09,6.36l.48,12.67.45,6.32c.14,2.1.26,4.21.53,6.3l.64,6.28c.26,2.09.63,4.16.9,6.25s.67,4.15,1.06,6.21l.59,3.1.71,3.07.72,3.07.88,3c.51,2.05,1.26,4,1.93,6s1.51,3.92,2.44,5.82A30.62,30.62,0,0,0,196.93,460.15Z"/><path d="M226,361.07a43.13,43.13,0,0,0-7.86,7.08,62.14,62.14,0,0,0-6.3,8.35c-.51.7-.88,1.51-1.32,2.26l-1.3,2.26c-.84,1.52-1.51,3.14-2.27,4.7l-.56,1.17-.48,1.22-.94,2.43-.95,2.44-.74,2.51c-.49,1.67-1.08,3.32-1.5,5l-1.16,5.12c-.19.85-.44,1.7-.58,2.56l-.4,2.61c-.27,1.74-.56,3.47-.87,5.21l-1.14,10.55c-.19,3.54-.38,7.09-.73,10.68-.47-3.55-.78-7.12-1.09-10.71,0-3.59-.07-7.2.07-10.8a91.16,91.16,0,0,1,3.86-21.36l.82-2.61,1-2.53,1-2.53.52-1.27.64-1.21c.88-1.61,1.66-3.26,2.62-4.81s2-3.09,3.06-4.55a50.27,50.27,0,0,1,7.41-8A33,33,0,0,1,226,361.07Z"/><path d="M208.7,396.37a58.77,58.77,0,0,1,10.77-11.51,66.58,66.58,0,0,1,13.3-8.71A51.57,51.57,0,0,1,248,371.3a41.1,41.1,0,0,1,8-.41,34.69,34.69,0,0,1,7.81,1.33,70.38,70.38,0,0,0-7.75.5c-.63,0-1.26.18-1.89.27s-1.26.18-1.88.33-1.25.24-1.87.37l-1.84.45a75.72,75.72,0,0,0-14.17,5.35,116.49,116.49,0,0,0-13.2,7.68C217,390,212.8,393.09,208.7,396.37Z"/><path d="M321.4,405.66a52.58,52.58,0,0,1-11,4.35,66.92,66.92,0,0,1-11.69,2.18,70.22,70.22,0,0,1-12,.16,72,72,0,0,1-11.83-2c-1.94-.48-3.83-1.15-5.74-1.76s-3.75-1.39-5.55-2.28a68.13,68.13,0,0,1-10.37-5.93,74.28,74.28,0,0,1-17-16.33A121.94,121.94,0,0,0,254.85,398c.81.52,1.66,1,2.51,1.4s1.66.95,2.52,1.37c1.72.82,3.43,1.69,5.21,2.38s3.54,1.4,5.32,2.07,3.62,1.16,5.48,1.59a79.51,79.51,0,0,0,22.66,2.54A87.19,87.19,0,0,0,310,408.24,79,79,0,0,0,321.4,405.66Z"/><path d="M306.54,455.2c-.57-3.45-1.07-6.79-1.65-10.11s-1.21-6.58-1.95-9.82-1.66-6.41-2.66-9.59-2.35-6.23-3.65-9.5a29.69,29.69,0,0,1,6.33,8.36,41.13,41.13,0,0,1,3.6,9.89,48.78,48.78,0,0,1,1.23,10.41A37,37,0,0,1,306.54,455.2Z"/><path d="M252.66,254.55c-.4,6.63-1.2,13.2-2.15,19.74-.44,3.28-1,6.53-1.55,9.79s-1.2,6.49-1.81,9.74-1.35,6.47-2.06,9.7-1.49,6.44-2.39,9.63-1.76,6.38-2.78,9.54c-.53,1.58-1,3.16-1.65,4.71-.31.77-.58,1.55-.93,2.32s-.71,1.51-1.09,2.24c.37-1.63.76-3.21,1-4.85s.6-3.23.87-4.86l1.72-9.73c.55-3.25,1.19-6.48,1.77-9.72l1.87-9.7,2-9.69c.73-3.21,1.38-6.45,2.16-9.65C249.16,267.33,250.74,260.91,252.66,254.55Z"/><path d="M330.69,356.73c-1.3-3.21-2.38-6.41-3.46-9.6l-3.17-9.51c-1.07-3.14-2.19-6.25-3.46-9.29a41.29,41.29,0,0,0-4.77-8.75,15.16,15.16,0,0,1,4.15,3.21,29.63,29.63,0,0,1,3.21,4.19,46,46,0,0,1,4.39,9.44,62,62,0,0,1,2.48,10A47.92,47.92,0,0,1,330.69,356.73Z"/><path d="M323.26,361.07a110.23,110.23,0,0,0-12.67-5,78.65,78.65,0,0,0-13.14-2.95c-8.89-1.24-17.88-.84-27-.28-4.56.22-9.18.48-13.86.25a46,46,0,0,1-13.87-2.68,36.44,36.44,0,0,1-11.87-7.54A50.93,50.93,0,0,1,222.32,332a66.39,66.39,0,0,0,9.72,9.48,37.57,37.57,0,0,0,11.64,6.19,47.61,47.61,0,0,0,13.05,1.9c4.45.12,9-.16,13.53-.43s9.17-.45,13.81-.34a79.92,79.92,0,0,1,13.86,1.47,67.34,67.34,0,0,1,13.3,4.09A72.62,72.62,0,0,1,323.26,361.07Z"/><path d="M158.53,361.07c2.93-.44,5.83-.73,8.69-1.24a55.49,55.49,0,0,0,8.36-1.88,20,20,0,0,0,7.1-3.74,24.26,24.26,0,0,0,4.89-6.45,72,72,0,0,1,4.78-7.55,39.6,39.6,0,0,1,6.31-6.56c1.16-1,2.37-1.85,3.62-2.69s2.53-1.6,3.85-2.28a54.7,54.7,0,0,1,8.14-3.53c-2.42,1.7-4.88,3.26-7.15,5.06a60.52,60.52,0,0,0-6.52,5.59,45.46,45.46,0,0,0-5.39,6.47c-1.6,2.31-3,4.8-4.44,7.37a41.29,41.29,0,0,1-2.51,3.84,19.52,19.52,0,0,1-3.36,3.44,20.81,20.81,0,0,1-8.57,3.82,42.7,42.7,0,0,1-9,.9A67,67,0,0,1,158.53,361.07Z"/><path d="M153,332a38.61,38.61,0,0,0,7.34,5.46,39.65,39.65,0,0,0,8.06,3.5l2.13.54a17.26,17.26,0,0,0,2.16.46c.73.12,1.45.31,2.19.38s1.48.16,2.23.26a21.08,21.08,0,0,0,2.26.19l2.3.16c1.54.06,3.09,0,4.71.2a38.65,38.65,0,0,1-4.53,1.62l-2.37.45a13.81,13.81,0,0,1-2.41.3c-.81,0-1.62.07-2.44.09a22.41,22.41,0,0,1-2.45-.17,27.86,27.86,0,0,1-4.85-.93,24.91,24.91,0,0,1-8.67-4.68A18.27,18.27,0,0,1,153,332Z"/><path d="M326.36,325.15a12.54,12.54,0,0,1,1.82-5.21,16.28,16.28,0,0,1,3.6-4.22,13.9,13.9,0,0,1,5-2.63,9,9,0,0,1,5.64.3,42.38,42.38,0,0,0-4.51,2.4c-1.33.88-2.57,1.81-3.82,2.8s-2.44,2.09-3.7,3.19S327.87,324,326.36,325.15Z"/><path d="M278.83,338.16a184.69,184.69,0,0,1,17.83-13.09q4.66-3,9.49-5.74t9.9-5.09a98.6,98.6,0,0,1,10.37-4.2,67.18,67.18,0,0,1,11-2.79,37.18,37.18,0,0,1,11.54-.13A21.5,21.5,0,0,1,359.76,312l-.9-.42-.12,0h-.11c-.07,0-.09,0-.18.05a.71.71,0,0,0-.37.33s-.05,0-.05.07,0,.07,0,0,0-.12,0-.23a8.24,8.24,0,0,0-.52-1.91l-.44-1.07c-.16-.35-.36-.71-.53-1.07-.35-.72-.75-1.43-1.17-2.14-1.64-2.83-3.54-5.59-5.45-8.34s-3.94-5.44-6-8.08l-3.16-3.84c-1.11-1.22-2.28-2.39-3.42-3.6a55.83,55.83,0,0,0-16.24-11.28,46,46,0,0,0-9.46-3.17c-.82-.18-1.63-.38-2.46-.48s-1.66-.26-2.5-.33a28.37,28.37,0,0,0-5.05-.15,34.39,34.39,0,0,1,10.18,0l1.28.17,1.26.25c.83.18,1.69.3,2.51.56l2.48.69,2.43.86a54,54,0,0,1,17.5,10.84c1.24,1.21,2.52,2.38,3.73,3.61l3.42,3.89c2.16,2.65,4.25,5.32,6.29,8.06,1,1.35,2,2.78,3,4.17s1.91,2.86,2.78,4.38c.45.75.88,1.5,1.28,2.31.2.4.42.78.6,1.19l.54,1.27a11.56,11.56,0,0,1,.78,3,7.26,7.26,0,0,1,0,1,2,2,0,0,1-.15.63,4.11,4.11,0,0,1-.28.65,3,3,0,0,1-2.1,1.37,2.55,2.55,0,0,1-.39,0h-.19a1.33,1.33,0,0,1-.28,0l-.49-.07-.41-.35a18.63,18.63,0,0,0-9-4.06,33.74,33.74,0,0,0-10.42.06c-7,1-13.95,3.38-20.65,6.16-3.36,1.41-6.66,3-9.93,4.59s-6.5,3.35-9.69,5.15C291.23,330.25,285,334.1,278.83,338.16Z"/><path d="M244.46,196.34a142.93,142.93,0,0,1,23,13.35c1.76,1.37,3.56,2.71,5.28,4.15s3.36,3,4.94,4.6a65.17,65.17,0,0,1,8.4,10.66c.58,1,1.22,1.92,1.74,2.93l1.52,3c.25.5.52,1,.75,1.52l.66,1.56c.43,1,.87,2.07,1.28,3.12.74,2.12,1.47,4.23,2.13,6.36s1.28,4.27,1.79,6.43c2.19,8.59,4,17.21,5.69,25.89-3.2-8.25-5.79-16.72-8.48-25.08s-5.63-16.57-10.23-23.79-10.55-13.55-17.25-19.1S251.69,201.46,244.46,196.34Z"/><path d="M0,289.85a154.75,154.75,0,0,0,9.14,14.06A132.29,132.29,0,0,0,19.7,316.68l1.39,1.53c.48.49,1,1,1.47,1.45,1,1,2,2,2.94,2.91,2.05,1.85,4.06,3.75,6.23,5.47,4.21,3.62,8.84,6.68,13.48,10A63.53,63.53,0,0,1,30,330.36a74.43,74.43,0,0,1-6.84-5.18c-1.09-.92-2.11-1.94-3.16-2.91-.52-.49-1-1-1.55-1.49L17,319.21A76.15,76.15,0,0,1,6.73,305.49,60,60,0,0,1,0,289.85Z"/><path d="M131.91,297.28a54.93,54.93,0,0,0-10.2,2.53c-1.67.5-3.29,1.17-4.92,1.75s-3.23,1.31-4.82,2a150.27,150.27,0,0,0-18.37,9.87c-1.47.93-3,1.77-4.44,2.76l-4.34,2.93c-2.94,1.89-5.66,4.09-8.57,6-1.42,1-2.77,2.15-4.19,3.19l-4.22,3.16c-2.76,2.19-5.51,4.39-8.39,6.48,2.31-2.69,4.75-5.26,7.18-7.85s5.15-4.89,7.81-7.24q2-1.71,4.13-3.38c1.39-1.11,2.76-2.25,4.22-3.27l4.37-3.08c1.45-1,3-1.93,4.5-2.9s3-1.88,4.62-2.7,3.13-1.73,4.74-2.52l4.88-2.22c1.65-.71,3.34-1.32,5-2s3.4-1.12,5.11-1.64l2.61-.64c.87-.21,1.74-.43,2.62-.57A38.63,38.63,0,0,1,131.91,297.28Z"/><path d="M37.16,261.37a7.24,7.24,0,0,1,2.06,1.22c.63.47,1.22,1,1.84,1.46l3.51,3c2.3,2,4.59,3.9,7,5.68a46.69,46.69,0,0,0,7.42,4.64,27.13,27.13,0,0,0,8.56,2.59,15.44,15.44,0,0,1-9.58.15,26.48,26.48,0,0,1-8.62-4.41,39.68,39.68,0,0,1-6.82-6.63c-1-1.21-1.9-2.5-2.77-3.79-.42-.66-.85-1.31-1.25-2l-.61-1A4,4,0,0,0,37.16,261.37Z"/><path d="M27.87,254.55a9.49,9.49,0,0,1,2.58-2.9,8.35,8.35,0,0,1,3.78-1.53,17.46,17.46,0,0,1,7.93,1.08c5,1.72,9.38,4.17,13.85,6.35a106.16,106.16,0,0,0,13.6,5.76,64.09,64.09,0,0,0,7.15,1.85,75.23,75.23,0,0,0,7.46,1,34.73,34.73,0,0,1-7.64.84,41.77,41.77,0,0,1-7.71-.87,60.65,60.65,0,0,1-14.5-5.23c-4.58-2.25-8.89-4.88-13.28-7a28.45,28.45,0,0,0-3.33-1.32,11.54,11.54,0,0,0-3.41-.64,7.66,7.66,0,0,0-3.39.6l-.82.38-.78.5A15.51,15.51,0,0,0,27.87,254.55Z"/><path d="M153,203.77a37.77,37.77,0,0,0-11.83,3.65,93.84,93.84,0,0,0-10.76,6.14c-3.46,2.29-6.88,4.64-10.22,7.12s-6.7,4.95-10,7.51l-10,7.58c-3.38,2.49-6.73,5-10.22,7.38s-7,4.68-10.72,6.74a41.75,41.75,0,0,1-11.77,4.66,53.79,53.79,0,0,0,10.8-6.21c3.41-2.38,6.69-5,10-7.52L98.06,233q4.92-3.9,9.9-7.75a185.17,185.17,0,0,1,21-14.15,72.58,72.58,0,0,1,11.56-5.35A31.62,31.62,0,0,1,153,203.77Z"/><path d="M135,289.85c1.72,5.41,3.25,10.81,4.78,16.19s3.09,10.75,4.71,16.08,3.36,10.6,5.42,15.72a65.26,65.26,0,0,0,3.52,7.47,21.93,21.93,0,0,0,5.1,6.47,17.74,17.74,0,0,1-6.61-5.45,45.55,45.55,0,0,1-4.64-7.26,95.58,95.58,0,0,1-6.34-15.86,145.23,145.23,0,0,1-4-16.51A116,116,0,0,1,135,289.85Z"/><path d="M236.25,293.26a14,14,0,0,1-5.44,2.79,26.31,26.31,0,0,1-6.12,1,45,45,0,0,1-12.3-1.33l-3-.77c-1-.29-2-.64-2.93-1-2-.61-3.85-1.45-5.77-2.18s-3.69-1.59-5.54-2.36-3.69-1.53-5.56-2.17A58.28,58.28,0,0,0,178.34,284a43.36,43.36,0,0,0-11.62-.32c-3.93.37-7.91,1-11.9,1.59s-8,1.13-12,1.5c3.88-1.18,7.78-2.23,11.68-3.29s7.84-2,11.91-2.67a41.26,41.26,0,0,1,12.51-.29,58.25,58.25,0,0,1,12,3.26c1.93.7,3.79,1.54,5.68,2.31l5.54,2.49c1.82.78,3.6,1.68,5.46,2.34l2.77,1,2.81.94a51.32,51.32,0,0,0,11.55,2.31,27.64,27.64,0,0,0,5.89-.16,18.16,18.16,0,0,0,2.91-.62A10.75,10.75,0,0,0,236.25,293.26Z"/><path d="M186.4,275.61a166.62,166.62,0,0,1,10.21-20.83c1.91-3.38,4-6.64,6.15-9.89.53-.81,1.12-1.59,1.68-2.39s1.13-1.58,1.74-2.35l1.79-2.33,1.89-2.27a75.6,75.6,0,0,1,8.5-8.2,77.08,77.08,0,0,1,9.65-6.72,109.06,109.06,0,0,1,10.37-5.32c3.54-1.58,7.06-3.09,10.57-4.72-3.09,2.34-6.44,4.31-9.72,6.33s-6.53,4-9.66,6.15a97.75,97.75,0,0,0-8.94,7,78.71,78.71,0,0,0-8,8,197.51,197.51,0,0,0-13.6,18.32C194.79,262.67,190.64,269.14,186.4,275.61Z"/><path d="M231,196.34a28.11,28.11,0,0,1-4.57,4.81c-1.66,1.47-3.4,2.81-5.09,4.21-3.45,2.72-6.75,5.56-10,8.42L208.92,216c-.79.74-1.61,1.45-2.37,2.23l-2.31,2.29c-.77.76-1.54,1.52-2.26,2.34-1.46,1.61-3,3.13-4.43,4.76l-4.24,4.94c-2.71,3.39-5.5,6.73-8,10.29-1.28,1.76-2.66,3.45-3.86,5.26s-2.46,3.61-3.71,5.39-2.42,3.64-3.62,5.47l-3.59,5.49c-2.34,3.71-4.58,7.47-7,11.15,1.71-4.05,3.54-8.07,5.44-12.05l3.09-5.84c1-2,2.09-3.9,3.26-5.77a172.27,172.27,0,0,1,15.18-21.76l4.4-5c1.49-1.64,3.06-3.21,4.62-4.8a128.47,128.47,0,0,1,10-8.82c.87-.69,1.76-1.34,2.64-2s1.76-1.35,2.68-2c1.82-1.26,3.64-2.51,5.5-3.71s3.71-2.35,5.53-3.56c.93-.58,1.81-1.22,2.68-1.87l.67-.48c.21-.17.41-.36.61-.54Z"/><path d="M196.72,200.06a45.17,45.17,0,0,1-1.91,10.46,56.58,56.58,0,0,1-3.94,9.9,45.28,45.28,0,0,1-5.93,9,26.07,26.07,0,0,1-8.45,6.61,70.29,70.29,0,0,0,6.1-8.36c1.82-2.86,3.39-5.88,5-8.89s3-6.14,4.52-9.25S195.07,203.22,196.72,200.06Z"/><path d="M166.58,223.59a8.18,8.18,0,0,1,1.84,3.31,18.57,18.57,0,0,1,.65,3.69c.21,2.42.22,4.7.41,6.92a51.9,51.9,0,0,0,1,6.61c.43,2.23,1.17,4.42,1.71,6.86a17.79,17.79,0,0,1-4.47-5.9,20.66,20.66,0,0,1-1.91-7.28,31.78,31.78,0,0,1,.38-7.28A24.59,24.59,0,0,0,166.58,223.59Z"/><path d="M158.53,215.54a80.93,80.93,0,0,0-2,12.92,68.28,68.28,0,0,0,.14,12.79,67.44,67.44,0,0,0,2.43,12.54c.51,2.1,1.3,4.11,2,6.17.29,1.07.81,2,1.2,3.06s.82,2.05,1.2,3.12c-.73-.85-1.41-1.72-2.1-2.61a26.34,26.34,0,0,1-1.94-2.76,42.59,42.59,0,0,1-3.11-6A43.25,43.25,0,0,1,153,241.61a43.74,43.74,0,0,1,.67-13.56A36,36,0,0,1,158.53,215.54Z"/><path d="M146.77,233.5c-1.07,3.57-2.08,7.06-3.06,10.55s-1.93,7-2.88,10.45L138.07,265l-1.45,5.29c-.51,1.76-1,3.54-1.62,5.31-.17-1.86-.19-3.72-.18-5.58s.14-3.72.38-5.55a74.2,74.2,0,0,1,2-10.94A71.65,71.65,0,0,1,141,243,41.05,41.05,0,0,1,146.77,233.5Z"/><path d="M169.71,175.91a54,54,0,0,0-9.38,12.66c-2.32,4.57-3.5,9.58-2.61,14.39a22.58,22.58,0,0,0,2.49,6.91,38.38,38.38,0,0,0,4.47,6.19,94.35,94.35,0,0,0,11.81,10.63,46.43,46.43,0,0,1-13.88-8.59,32,32,0,0,1-2.91-3c-.44-.55-.94-1.06-1.33-1.65l-1.2-1.77a23.44,23.44,0,0,1-3.11-8.07,20.81,20.81,0,0,1,.33-8.68,25.45,25.45,0,0,1,3.44-7.78A34.52,34.52,0,0,1,169.71,175.91Z"/><path d="M169.37,185.81a43.62,43.62,0,0,0-.82,9.25,26.55,26.55,0,0,0,1.6,8.6,22.64,22.64,0,0,0,1.84,3.93c.34.65.79,1.23,1.17,1.87s.84,1.22,1.33,1.79a67.6,67.6,0,0,0,6.44,6.77,22.34,22.34,0,0,1-8.55-4.76,20.57,20.57,0,0,1-3.36-3.78,22,22,0,0,1-1.33-2.19,21.58,21.58,0,0,1-1-2.36,20.32,20.32,0,0,1-1-10.05A19.45,19.45,0,0,1,169.37,185.81Z"/><path d="M174,163.52a21.28,21.28,0,0,1,4.7,7.71,24.56,24.56,0,0,1,1.43,9.1,25.88,25.88,0,0,1-.61,4.63,22.83,22.83,0,0,1-1.63,4.36,19.72,19.72,0,0,1-5.72,7,61.47,61.47,0,0,0,3-8.07c.44-1.31.59-2.69.9-4a39.45,39.45,0,0,0,.34-4.06,42.47,42.47,0,0,0-.53-8.23A79.19,79.19,0,0,0,174,163.52Z"/><path d="M236.25,188.91a7.08,7.08,0,0,1-3.34-2.14,9,9,0,0,1-2-3.47,7.77,7.77,0,0,1,0-4.17,5.25,5.25,0,0,1,2.56-3.22,28.38,28.38,0,0,0,.35,3.49c.2,1,.43,1.91.69,2.87l.91,3A29.46,29.46,0,0,1,236.25,188.91Z"/><path d="M217.67,158.57a28.82,28.82,0,0,1,6.84.72,18.55,18.55,0,0,1,6.6,2.8,8,8,0,0,1,2.65,3.06,6.49,6.49,0,0,1,.64,2.13c0,.37,0,.75,0,1.12a6.27,6.27,0,0,1-.15,1.07,13.35,13.35,0,0,1-4,6.54,13.64,13.64,0,0,1-1.3,1.23c-.45.39-.89.78-1.35,1.16-.95.68-1.86,1.42-2.83,2a63.54,63.54,0,0,1-6,3.47,73.35,73.35,0,0,1-12.67,5c3.7-2.67,7.52-5,11.19-7.52,1.83-1.26,3.65-2.5,5.39-3.82.88-.64,1.7-1.35,2.55-2l1.19-1.06a13.14,13.14,0,0,0,1.14-1.09,11.34,11.34,0,0,0,3.16-4.69,3.34,3.34,0,0,0-.06-2.25,5.38,5.38,0,0,0-1.52-2.13,14,14,0,0,0-1.15-1c-.44-.28-.85-.59-1.31-.85a25.2,25.2,0,0,0-2.87-1.51A64,64,0,0,0,217.67,158.57Z"/><path d="M219.48,175.91a10.85,10.85,0,0,1-5.5-2.77,11.66,11.66,0,0,1-3.38-5.49,10.68,10.68,0,0,1,.19-6.48c.07-.25.16-.5.25-.75a5.91,5.91,0,0,1,.36-.71c.24-.47.51-.92.78-1.36a14,14,0,0,1,2.09-2.26c-.05,1.07-.29,2-.4,2.94,0,.47-.08.93-.13,1.38,0,.22-.07.44-.09.66s0,.45,0,.66a14.81,14.81,0,0,0,.53,4.93,17.72,17.72,0,0,0,2,4.6A50.11,50.11,0,0,0,219.48,175.91Z"/><path d="M244.46,84.87c0,5.76-.37,11.47-.83,17.16s-1,11.36-1.63,17c-.14,1.41-.3,2.82-.41,4.2-.08.73-.08,1.3-.14,2,0,.45-.08.92-.16,1.35s-.21.83-.33,1.24a23.79,23.79,0,0,1-5,7.69,51.09,51.09,0,0,1-13.69,10.63,101.44,101.44,0,0,0,11.45-12.47c.83-1.11,1.56-2.26,2.27-3.4a17.33,17.33,0,0,0,1.56-3.5q.08-.42.18-.84c0-.26,0-.51.07-.77,0-.68,0-1.54.08-2.23.1-1.47.24-2.89.38-4.32.6-5.71,1.46-11.36,2.45-17S242.92,90.42,244.46,84.87Z"/><path d="M227.27,118.31a79.16,79.16,0,0,1-3.82,14.59,57.4,57.4,0,0,1-3.07,7,32.11,32.11,0,0,1-4.31,6.47c-.88,1.06-1.69,1.87-2.51,2.81s-1.62,1.85-2.41,2.79c-1.59,1.89-3.13,3.86-4.81,5.8a27.32,27.32,0,0,1-6,5.32,16.17,16.17,0,0,1-3.84,1.72,15.5,15.5,0,0,1-4.19.69,18.68,18.68,0,0,1-8-2,30.5,30.5,0,0,1-6.6-4.43c-.93-.92-1.89-1.81-2.78-2.76s-1.71-1.95-2.5-3l-2.27-3.13-2-3.29c-.66-1.09-1.18-2.26-1.78-3.38l-.86-1.7-.74-1.75c-.48-1.18-1-2.34-1.45-3.52l-1.24-3.57-.6-1.8-.51-1.82-1-3.64c-.58-2.44-1-4.91-1.53-7.37,3.2,9.48,6.94,18.77,12.18,27.05a48.56,48.56,0,0,0,9.35,11,28.89,28.89,0,0,0,5.86,3.82,15.12,15.12,0,0,0,6.41,1.59,11.52,11.52,0,0,0,3.18-.48,13.22,13.22,0,0,0,3-1.3,25.63,25.63,0,0,0,5.23-4.58c1.66-1.78,3.27-3.7,5-5.58.85-.93,1.7-1.87,2.59-2.78s1.88-1.8,2.65-2.63a33.63,33.63,0,0,0,2.31-2.71c.68-1,1.4-2,2-3a60.17,60.17,0,0,0,3.5-6.48A116.09,116.09,0,0,0,227.27,118.31Z"/><path d="M163.49,158.57a42,42,0,0,1-9.06-3.1A31.09,31.09,0,0,1,150.2,153c-.68-.46-1.28-1-1.92-1.57l-.94-.82-.83-.93a29.29,29.29,0,0,1-5.32-8.37,62.67,62.67,0,0,1-2.94-9.27c-.72-3.14-1.23-6.29-1.71-9.44s-.79-6.3-1-9.46a184.77,184.77,0,0,1-.56-19c1.39,6.2,2.4,12.43,3.44,18.63l.77,4.64.81,4.63c.57,3.06,1.1,6.14,1.85,9.13,1.38,6,3.19,11.92,6.84,16.62l.66.9.78.8c.53.53,1,1.1,1.57,1.61a31,31,0,0,0,3.62,2.78A74.38,74.38,0,0,0,163.49,158.57Z"/><path d="M230.37,111.5a93.71,93.71,0,0,0-3.58-11.9,102,102,0,0,0-4.88-11.19c-.43-.92-1-1.79-1.43-2.7l-.72-1.35c-.24-.44-.52-.87-.78-1.31-.51-.88-1-1.75-1.54-2.64l-1.67-2.58L215,76.52c-.27-.44-.59-.84-.88-1.27l-1.75-2.56c-1.17-1.73-2.48-3.34-3.62-5.16a57.28,57.28,0,0,1,5,4,53.35,53.35,0,0,1,4.42,4.6c.68.82,1.37,1.64,2,2.48s1.23,1.75,1.83,2.63a29.43,29.43,0,0,1,1.7,2.72c.52.94,1.09,1.85,1.56,2.82a52.24,52.24,0,0,1,4.36,12.06A36,36,0,0,1,230.37,111.5Z"/><path d="M149.25,120.48a14.27,14.27,0,0,1,1.23-4.25,28.67,28.67,0,0,1,2.14-3.92,39.65,39.65,0,0,1,5.81-6.79A64.06,64.06,0,0,1,173,95.4c1.37-.71,2.49-1.31,3.64-2l1.69-1.15L180,90.94a71.3,71.3,0,0,0,6.14-5.81c3.88-4.18,7.52-8.66,11.13-13.26A68.65,68.65,0,0,1,188.31,87a53,53,0,0,1-6.05,6.6c-.57.5-1.15,1-1.73,1.48l-1.87,1.35c-1.29.84-2.74,1.62-3.93,2.26a92.07,92.07,0,0,0-14.41,9,51.45,51.45,0,0,0-6.27,5.72c-.46.53-.94,1.06-1.39,1.61s-.89,1.11-1.28,1.7A18.24,18.24,0,0,0,149.25,120.48Z"/><path d="M201.88,71.87a10.67,10.67,0,0,1,1.3,4.49,14.85,14.85,0,0,1-.36,4.6,13.39,13.39,0,0,1-1.9,4.29,8.46,8.46,0,0,1-3.68,3c.36-1.62.71-2.94,1-4.27s.61-2.62.94-3.94.67-2.64,1.08-4A29.05,29.05,0,0,1,201.88,71.87Z"/><path d="M186.4,120.48a28.13,28.13,0,0,1-.29-6.62,25.4,25.4,0,0,1,1.49-6.61,27.14,27.14,0,0,1,3.22-6,50.1,50.1,0,0,1,4.26-5.14c3-3.2,5.92-6.09,7.85-9.66s2.85-7.69,3.29-12.06A23.39,23.39,0,0,1,207,81a20.61,20.61,0,0,1-1.39,6.7,25,25,0,0,1-3.44,5.94c-1.38,1.8-2.88,3.42-4.33,5a44.81,44.81,0,0,0-7.55,9.84,31.37,31.37,0,0,0-2.36,5.76C187.27,116.22,186.85,118.32,186.4,120.48Z"/><path d="M180.93,46.48A36,36,0,0,1,189.68,43a35.2,35.2,0,0,1,9.52-1.19,26.65,26.65,0,0,1,9.63,1.91A23.61,23.61,0,0,1,217,49.37c4.2,4.48,8.55,8.79,13,13.06,2.24,2.14,4.48,4.3,6.67,6.54,1.07,1.15,2.15,2.29,3.12,3.56a11.45,11.45,0,0,1,2.28,4.14,13.18,13.18,0,0,0-3-3.44c-1.14-1-2.35-2-3.58-2.9-2.44-1.9-4.94-3.75-7.36-5.71a128.75,128.75,0,0,1-13.83-12.71,22.41,22.41,0,0,0-6.89-5A26.9,26.9,0,0,0,199,44.66,51.2,51.2,0,0,0,180.93,46.48Z"/><path d="M159,71.87c.84,1.75,1.53,3.39,2.22,5s1.37,3.1,2.11,4.56a34.57,34.57,0,0,0,2.56,4.13,39.76,39.76,0,0,0,3.48,4,9.46,9.46,0,0,1-5.51-1.88A13.32,13.32,0,0,1,160,83.11a16.07,16.07,0,0,1-1.65-5.55A12.54,12.54,0,0,1,159,71.87Z"/><path d="M137.63,88.28a7.7,7.7,0,0,1,1.89-5.08A11.23,11.23,0,0,1,144,80a12.84,12.84,0,0,1,5.38-.81,16.24,16.24,0,0,1,2.63.46,14.57,14.57,0,0,1,2.46,1.08,18,18,0,0,1-2.5.75c-.8.26-1.58.41-2.33.62-1.51.43-2.94.83-4.29,1.36a24,24,0,0,0-3.9,1.93A24.45,24.45,0,0,0,137.63,88.28Z"/><path d="M151.1,67.53c-1.52,1.34-2.86,2.56-4.12,3.83a40.48,40.48,0,0,0-3.46,3.89,44.6,44.6,0,0,0-3,4.29c-.52.74-.89,1.55-1.41,2.35s-.89,1.66-1.51,2.51a13.8,13.8,0,0,1-.24-3,13.3,13.3,0,0,1,.47-3,15.24,15.24,0,0,1,7.4-9.39A11.19,11.19,0,0,1,151.1,67.53Z"/><path d="M169.37,67.53A7.77,7.77,0,0,1,172.84,66,5.53,5.53,0,0,1,175,66a4.58,4.58,0,0,1,2.14,1.12,5.62,5.62,0,0,1,1.34,2,8.06,8.06,0,0,1,.49,2.14,13.67,13.67,0,0,1-.23,4c-.12.63-.29,1.23-.44,1.85l-.51,1.68c-.35,1.11-.71,2.22-1.09,3.32l-1.15,3.3c-.19.54-.36,1.09-.51,1.64a5,5,0,0,0-.15.81c0,.25,0,.52.36.43a.38.38,0,0,1-.49.14,1.15,1.15,0,0,1-.41-.41,4.91,4.91,0,0,1-.34-1,15.63,15.63,0,0,1-.27-1.89,25,25,0,0,1,.11-3.68,34.87,34.87,0,0,1,.52-3.57l.38-1.76c.11-.54.26-1.08.34-1.61.41-2.09.62-4.3-.1-5.46a3.12,3.12,0,0,0-2.14-1.31A13.69,13.69,0,0,0,169.37,67.53Z"/><path d="M189.19,56.23c-.28.28-.53.51-.76.71a3.62,3.62,0,0,0-.48.69,3.1,3.1,0,0,0-.16,1.25,11.67,11.67,0,0,1-.09,1.86,8.15,8.15,0,0,1-.26,1.18,7.09,7.09,0,0,1-.62,1.23,5.18,5.18,0,0,1-2.06,1.75,6.66,6.66,0,0,1-2.28.6,10.19,10.19,0,0,1-2.15-.15,10.08,10.08,0,0,1-2-.76,13.35,13.35,0,0,1,1.8-1.06c.56-.33,1.11-.59,1.61-.86a5.79,5.79,0,0,0,2-1.59,20.21,20.21,0,0,0,1.25-3,3.78,3.78,0,0,1,1.88-1.9,3.86,3.86,0,0,1,1.22-.19A4.78,4.78,0,0,1,189.19,56.23Z"/><path d="M137.63,56.23a3.26,3.26,0,0,1,1.73-2.65,6.93,6.93,0,0,1,3.18-.74,36,36,0,0,1,5.56.53,41.85,41.85,0,0,0,5,.48,32.78,32.78,0,0,0,5.39-.41,9.26,9.26,0,0,1-5,3.3,14.34,14.34,0,0,1-6,.31,38.2,38.2,0,0,1-5.36-1.32C140.58,55.32,139.25,54.83,137.63,56.23Z"/><path d="M153,40.9a31.86,31.86,0,0,0-.21,3.36c0,1,0,1.87,0,2.79l.16,2.89c0,.52.08,1.05.06,1.64a10.81,10.81,0,0,1,0,1.86,7,7,0,0,1-1.61-1.1,8.79,8.79,0,0,1-1.17-1.47,8.12,8.12,0,0,1-1.11-3.67,7.4,7.4,0,0,1,.9-3.82A5,5,0,0,1,153,40.9Z"/><path d="M163.49,56.23a11.67,11.67,0,0,1,5.18-5,17.94,17.94,0,0,1,7.06-1.91l1.82,0c.61,0,1.21.1,1.81.16a19.82,19.82,0,0,1,3.52.73,27.17,27.17,0,0,1,3.31,1.32,24.64,24.64,0,0,1,3,1.92,30.34,30.34,0,0,1-3.49-.17c-1.14,0-2.24-.15-3.34-.19s-2.17-.15-3.24-.09c-.53,0-1.06,0-1.59,0l-1.58.07a35.65,35.65,0,0,0-6.22.92A29.08,29.08,0,0,0,163.49,56.23Z"/><path d="M158.53,59.91a11.39,11.39,0,0,0-1.68,1.54,4,4,0,0,0-.95,1.64,2.09,2.09,0,0,0,.13,1.44,4.24,4.24,0,0,0,.36.7l.53.71-1-.68a10,10,0,0,0,1.7-.05,9.3,9.3,0,0,0,1.7-.33,8.26,8.26,0,0,0,2.95-1.58l.66-.55.64.06c.79.07,1.72.09,2.58.08a19.55,19.55,0,0,0,2.56-.16A6.1,6.1,0,0,0,171,62a2.42,2.42,0,0,0,.8-.82,3.6,3.6,0,0,0,.4-1.31,2.89,2.89,0,0,1-.11,3.14,6.09,6.09,0,0,1-2.6,2.07,13.09,13.09,0,0,1-3,.93,17,17,0,0,1-3.06.32l1.3-.49a9.58,9.58,0,0,1-2.05,1.58,8.9,8.9,0,0,1-2.38,1,10.25,10.25,0,0,1-2.51.34c-.41,0-.83,0-1.24-.06a9.3,9.3,0,0,1-1.32-.24l-.77-.19-.23-.48c-.21-.43-.44-.82-.61-1.27a6.32,6.32,0,0,1-.35-1.47,4.91,4.91,0,0,1,.08-1.57q.12-.39.27-.75a5.51,5.51,0,0,1,.38-.67,5.08,5.08,0,0,1,2.15-1.65A6.53,6.53,0,0,1,158.53,59.91Z"/><path d="M197.24,30.69a16,16,0,0,0-2.64,2.63l-2.27,2.6c-.4.42-.78.88-1.21,1.29s-.84.86-1.3,1.29-.95.84-1.47,1.25a10.94,10.94,0,0,1-1.74,1.15,9.91,9.91,0,0,1,.8-4.06,13.82,13.82,0,0,1,.93-1.79,13.64,13.64,0,0,1,1.24-1.62,10.16,10.16,0,0,1,3.36-2.5,7,7,0,0,1,2.1-.59A3.8,3.8,0,0,1,197.24,30.69Z"/><path d="M192.9,26.51a62.59,62.59,0,0,1-5.55,5.71c-1.92,1.77-3.89,3.46-5.87,5.12s-4,3.26-6,4.88-4,3.2-6.12,5a21.58,21.58,0,0,1,4-7,41.12,41.12,0,0,1,5.69-5.66,49,49,0,0,1,6.5-4.6A34.81,34.81,0,0,1,192.9,26.51Z"/><path d="M203.59,40.9a86,86,0,0,0-3.21-10.46A76.93,76.93,0,0,0,196,20.69a80.84,80.84,0,0,0-5.62-9.11c-1-1.51-2.13-2.9-3.21-4.38s-2.34-2.81-3.42-4.38c.81.46,1.61,1,2.4,1.47a24.56,24.56,0,0,1,2.31,1.62,39.68,39.68,0,0,1,4.18,3.82,41.58,41.58,0,0,1,10.54,19.91A29.66,29.66,0,0,1,203.59,40.9Z"/><path d="M176.49,0a78.45,78.45,0,0,0-17.22,5.73,27.9,27.9,0,0,0-7.12,4.88,13.8,13.8,0,0,0-4,6.94,14.21,14.21,0,0,0-.26,4l.24,2.17.13,1.09.22,1.06A19.22,19.22,0,0,0,149.66,30l.45.92c.07.16.14.31.22.46l.28.42.55.86c.2.27.45.51.66.77,1.76,2.09,4.62,3.38,7.09,5.51l.89.83.8.93.39.47.33.51.63,1c.34.73.63,1.47.91,2.2s.38,1.52.54,2.27l-1.05-2c-.42-.64-.83-1.27-1.27-1.86a12.81,12.81,0,0,0-3.27-2.88c-2.39-1.6-5.52-2.5-8-4.92a13.43,13.43,0,0,1-3.05-4.09,22.36,22.36,0,0,1-1.66-4.68l-.3-1.2-.18-1.19c-.11-.8-.24-1.58-.34-2.39a18.1,18.1,0,0,1,.29-5.13A15.39,15.39,0,0,1,146.47,12a17.87,17.87,0,0,1,3.27-3.89,27.59,27.59,0,0,1,8.35-5A45.18,45.18,0,0,1,167.2.66,48.34,48.34,0,0,1,176.49,0Z"/></g></g></g></svg>