<?xml version="1.0" standalone="no"?>
<!DOCTYPE svg PUBLIC "-//W3C//DTD SVG 20010904//EN"
 "http://www.w3.org/TR/2001/REC-SVG-20010904/DTD/svg10.dtd">
<svg version="1.0" xmlns="http://www.w3.org/2000/svg"
 width="1280.000000pt" height="640.000000pt" viewBox="0 0 1280.000000 640.000000"
 preserveAspectRatio="xMidYMid meet">
<metadata>
Created by potrace 1.15, written by Peter Selinger 2001-2017
</metadata>
<g transform="translate(0.000000,640.000000) scale(0.100000,-0.100000)"
fill="#000000" stroke="none">
<path d="M2274 5134 c-8 -13 -21 -35 -29 -49 -15 -24 -13 -27 30 -86 88 -120
115 -274 115 -664 0 -380 -22 -500 -113 -628 l-45 -62 33 -40 34 -39 63 22
c78 27 256 46 365 39 51 -4 110 -16 155 -32 40 -15 80 -29 88 -31 10 -3 24 12
43 45 l27 50 -49 65 c-60 79 -77 130 -96 296 -18 144 -12 200 22 241 43 50 89
35 128 -41 27 -54 49 -70 93 -70 34 0 100 45 134 90 20 27 23 29 30 13 23 -58
0 -342 -36 -441 -18 -51 -70 -128 -97 -145 -25 -16 -24 -26 10 -67 l29 -34 58
18 c111 36 179 45 319 46 154 0 203 -9 253 -47 l34 -25 51 48 c28 27 53 50 56
51 2 1 -18 26 -44 55 -97 108 -135 235 -154 523 -12 168 -6 432 10 525 6 30
22 91 36 135 22 67 34 88 78 131 l52 50 -29 42 c-16 23 -32 42 -37 42 -4 0
-81 -12 -172 -26 -156 -25 -170 -26 -289 -14 -119 12 -189 23 -221 35 -10 4
-22 -8 -36 -38 l-21 -44 39 -39 c22 -22 54 -68 72 -104 32 -64 32 -66 32 -215
0 -129 -3 -154 -18 -177 -41 -60 -85 -45 -116 41 -37 102 -94 119 -179 52 -27
-22 -58 -51 -70 -65 -11 -14 -23 -26 -26 -26 -13 0 -5 203 10 282 26 132 64
197 142 244 8 5 -40 84 -51 84 -6 0 -47 -7 -89 -15 -202 -38 -433 -37 -554 4
l-55 18 -15 -23z"/>
<path d="M5190 5133 c-72 -25 -85 -26 -330 -27 -241 -1 -258 0 -314 22 -33 12
-62 22 -66 22 -4 0 -19 -18 -33 -39 -26 -38 -26 -39 -6 -57 30 -27 66 -113 74
-175 7 -57 -12 -188 -38 -265 l-14 -38 -99 3 c-143 4 -208 -24 -271 -117 -65
-94 -65 -235 -1 -308 50 -56 65 -60 82 -21 29 70 115 101 165 60 21 -18 21
-19 5 -83 -32 -131 -98 -242 -261 -440 l-22 -27 39 -38 c36 -36 41 -37 57 -23
31 27 76 45 130 52 78 10 257 -11 341 -40 41 -14 75 -24 76 -22 1 1 14 22 29
45 l26 41 -53 31 c-103 57 -159 155 -159 274 0 31 2 59 5 62 3 3 31 -8 63 -25
47 -25 69 -30 126 -30 86 0 121 15 179 74 24 25 47 46 51 46 3 0 14 -40 23
-88 12 -67 14 -106 7 -159 -10 -79 -16 -93 -66 -153 l-36 -43 32 -33 c18 -19
40 -36 50 -39 9 -3 52 6 95 21 141 48 358 44 526 -9 l76 -24 22 44 22 45 -29
31 c-117 125 -165 224 -272 562 -95 302 -112 376 -146 637 -7 56 8 120 41 170
l24 37 -31 36 c-17 19 -34 35 -38 34 -3 -1 -40 -12 -81 -26z m-393 -396 c51
-138 123 -406 123 -457 0 -47 -24 -80 -58 -80 -52 1 -74 22 -181 172 -67 96
-72 116 -46 203 9 28 25 97 36 155 26 136 24 132 56 128 24 -3 30 -13 70 -121z"/>
<path d="M8955 5147 c-3 -7 -11 -31 -19 -54 l-15 -42 82 -83 c45 -46 116 -128
158 -183 95 -125 261 -380 300 -462 55 -116 66 -363 19 -470 -21 -49 -82 -117
-139 -154 -24 -15 -25 -17 -12 -73 15 -66 5 -64 126 -25 62 20 92 22 255 23
187 0 328 -16 423 -50 22 -8 41 -14 43 -14 5 0 54 98 54 108 0 5 -14 15 -30
22 -45 19 -86 74 -122 165 -30 75 -32 88 -32 200 1 164 31 273 125 462 113
226 263 429 392 529 l39 30 -17 42 c-10 23 -18 42 -19 42 0 0 -36 -7 -79 -15
-101 -19 -312 -19 -392 0 -81 19 -78 20 -105 -27 l-23 -41 29 -21 c51 -36 83
-77 95 -119 14 -53 4 -159 -22 -235 -28 -83 -94 -215 -117 -236 -20 -17 -21
-17 -52 26 -49 66 -176 328 -190 389 -15 68 -2 124 40 169 l30 33 -26 34 c-14
19 -32 37 -38 39 -7 3 -57 -7 -112 -21 -175 -47 -427 -45 -585 5 -44 13 -61
15 -64 7z"/>
<path d="M5792 5104 l-33 -45 39 -44 c21 -24 50 -67 64 -97 47 -97 53 -148 53
-493 0 -327 -10 -442 -49 -593 -17 -61 -59 -137 -87 -155 -24 -15 -24 -20 6
-72 l26 -43 77 26 c72 24 91 25 272 26 173 1 206 -2 290 -23 52 -13 97 -23 99
-23 3 0 13 22 22 48 18 47 18 48 -3 62 -53 38 -93 80 -109 117 -23 55 -41 170
-43 279 l-1 91 125 -3 c154 -4 375 12 455 33 134 35 220 91 278 178 155 233
69 560 -181 686 -90 46 -192 70 -338 81 -139 11 -187 7 -398 -30 -223 -40
-394 -33 -483 20 -19 11 -38 20 -42 20 -4 0 -22 -21 -39 -46z m902 -104 c14
-5 43 -25 65 -45 59 -53 76 -112 75 -260 0 -203 -44 -300 -154 -341 -56 -21
-223 -24 -259 -5 l-24 13 5 229 c6 221 7 231 32 282 28 57 64 97 111 121 34
18 111 21 149 6z"/>
<path d="M7420 5105 l-31 -45 41 -52 c23 -28 50 -68 60 -88 84 -166 71 -936
-20 -1147 -12 -28 -36 -65 -55 -83 -33 -32 -33 -33 -18 -59 9 -14 22 -36 29
-48 l13 -21 78 26 c74 25 88 27 278 26 181 0 209 -3 292 -25 l93 -25 16 48 15
48 -64 62 c-62 60 -66 67 -82 138 -9 41 -19 127 -22 190 l-6 115 229 1 c249 2
332 13 452 61 210 84 312 335 232 568 -73 213 -251 321 -566 345 -140 11 -196
6 -399 -31 -207 -38 -406 -29 -491 22 -17 11 -34 19 -37 19 -3 0 -20 -20 -37
-45z m919 -115 c96 -48 126 -130 118 -324 -5 -141 -14 -184 -50 -237 -48 -71
-182 -111 -305 -91 -35 6 -66 13 -69 16 -10 9 -3 429 7 469 16 58 66 130 114
161 50 33 128 36 185 6z"/>
<path d="M8416 2859 c-204 -59 -414 -65 -560 -15 l-79 27 -23 -28 c-13 -15
-23 -32 -24 -36 0 -5 15 -27 34 -49 47 -55 71 -108 89 -203 34 -172 39 -239
34 -540 -3 -264 -6 -309 -24 -372 -25 -86 -74 -194 -110 -241 l-25 -34 43 -44
43 -44 31 18 c99 59 223 67 435 26 264 -51 511 -44 651 19 180 81 346 288 411
514 20 67 23 101 23 238 0 187 -13 251 -80 391 -49 101 -146 215 -247 290
-147 108 -412 144 -622 83z m254 -124 c59 -31 99 -108 126 -240 24 -121 40
-528 25 -659 -16 -152 -36 -240 -67 -304 -69 -140 -254 -157 -321 -28 -50 96
-68 309 -60 701 6 282 17 367 55 441 23 45 66 88 102 103 29 12 104 5 140 -14z"/>
<path d="M32 2848 l-30 -30 43 -62 c57 -81 102 -173 120 -243 21 -78 39 -432
32 -623 -8 -234 -42 -357 -130 -473 -21 -26 -37 -49 -37 -52 0 -3 11 -23 25
-44 l24 -39 78 26 c69 23 94 25 223 25 121 0 169 -4 290 -29 131 -26 163 -29
330 -28 156 1 198 4 265 22 169 46 294 132 351 243 23 45 28 70 32 152 4 82 1
109 -18 168 -42 130 -153 220 -315 254 -38 8 -83 15 -100 15 -19 0 12 15 87
39 133 44 192 75 236 125 42 49 55 95 50 185 -11 194 -160 339 -397 387 -120
24 -314 15 -550 -25 -102 -17 -213 -31 -247 -31 -77 0 -219 24 -283 49 l-49
18 -30 -29z m896 -120 c64 -16 134 -86 150 -150 27 -107 8 -249 -40 -304 -42
-48 -105 -64 -250 -64 l-118 0 0 143 c0 170 13 258 45 313 40 68 109 88 213
62z m49 -703 c64 -32 104 -86 123 -167 16 -63 8 -214 -15 -286 -30 -98 -111
-161 -208 -162 -139 0 -195 122 -204 447 l-6 182 34 10 c19 6 76 9 127 7 76
-4 104 -10 149 -31z"/>
<path d="M3245 2858 c-188 -25 -366 -26 -514 -4 -58 9 -111 16 -118 16 -13 0
-61 -86 -52 -93 126 -90 150 -156 175 -492 30 -414 -11 -678 -137 -861 l-27
-40 26 -50 c15 -27 29 -48 32 -47 3 1 30 13 60 27 30 14 86 30 125 36 117 19
345 -7 441 -50 26 -11 50 -20 55 -20 4 0 19 25 33 56 l26 57 -35 38 c-44 49
-79 120 -94 189 -12 54 -16 354 -5 371 7 12 56 11 110 -2 82 -21 126 -102 159
-295 21 -124 38 -179 80 -249 64 -109 142 -163 276 -191 233 -50 419 44 475
240 36 128 -16 263 -112 290 -19 6 -20 2 -20 -43 1 -35 -5 -58 -20 -78 -49
-66 -103 -26 -152 113 -66 185 -155 259 -340 281 -29 3 -51 7 -49 9 2 2 69 15
149 29 80 13 171 34 202 46 182 70 263 284 175 465 -44 92 -190 204 -319 246
-98 31 -387 35 -605 6z m309 -155 c23 -16 51 -49 65 -78 23 -44 26 -61 26
-160 0 -124 -8 -148 -75 -215 -59 -59 -171 -87 -324 -81 l-29 1 6 148 c11 248
46 351 137 400 60 32 136 26 194 -15z"/>
<path d="M4774 2865 c-94 -17 -136 -31 -207 -68 -142 -75 -229 -247 -214 -425
11 -136 73 -246 167 -296 47 -25 65 -30 130 -30 91 1 146 25 190 85 74 103 55
235 -42 285 -40 21 -127 18 -165 -6 -43 -26 -60 -58 -36 -67 69 -26 45 -113
-30 -113 -76 0 -106 95 -59 190 42 86 125 116 301 107 58 -3 123 -10 143 -16
l36 -11 8 -77 c10 -108 -2 -734 -16 -812 -6 -35 -19 -80 -30 -100 -18 -37 -85
-104 -111 -113 -11 -4 -8 -17 13 -61 15 -32 32 -57 37 -57 5 0 24 6 43 14 54
23 310 49 413 43 51 -3 127 -17 176 -31 48 -14 93 -27 100 -28 7 -2 21 19 32
50 l20 53 -61 60 c-115 111 -119 135 -129 640 l-6 346 78 6 c175 15 288 112
340 291 16 53 17 138 2 152 -3 3 -36 -4 -74 -17 -112 -35 -294 -37 -521 -5
-205 29 -406 33 -528 11z"/>
<path d="M6882 2835 l-20 -42 48 -52 c78 -83 94 -136 95 -313 0 -134 -2 -149
-21 -175 -23 -31 -57 -41 -79 -23 -7 6 -22 34 -32 62 -21 59 -62 98 -105 98
-24 0 -45 -15 -104 -72 l-74 -71 0 100 c0 103 18 220 46 305 11 33 30 61 65
92 l51 45 -23 41 c-20 35 -27 41 -49 36 -140 -31 -221 -39 -365 -40 -138 0
-171 3 -239 22 -43 12 -80 21 -81 20 -1 -2 -14 -24 -30 -51 l-27 -47 31 -35
c62 -71 90 -146 116 -318 23 -147 16 -683 -9 -792 -21 -87 -52 -156 -100 -219
l-38 -49 39 -39 39 -39 45 20 c70 31 178 43 338 39 136 -4 151 -6 218 -35 l73
-31 30 49 c16 27 30 52 30 55 0 3 -17 26 -39 52 -70 85 -92 153 -110 342 -13
134 -3 190 41 223 38 28 67 13 112 -57 19 -30 44 -60 56 -66 36 -19 80 -1 141
57 l58 55 7 -38 c10 -54 -3 -278 -21 -352 -19 -80 -46 -133 -96 -187 l-40 -44
27 -40 c15 -23 28 -41 29 -41 1 0 28 9 59 20 93 32 210 50 321 50 127 0 199
-13 248 -46 l38 -25 54 48 c30 26 55 48 55 50 0 2 -17 22 -37 44 -133 143
-163 289 -163 770 0 227 2 254 24 341 34 133 60 180 130 236 l27 20 -32 46
c-27 37 -36 44 -58 40 -146 -26 -288 -44 -341 -44 -82 1 -277 25 -311 38 -24
10 -27 7 -47 -33z"/>
<path d="M11811 2854 c-177 -49 -394 -52 -556 -8 -107 29 -98 32 -119 -30
l-19 -56 24 -19 c55 -43 72 -61 158 -165 90 -109 137 -176 266 -376 106 -163
124 -211 137 -353 13 -135 3 -229 -31 -295 -19 -38 -100 -120 -138 -140 -20
-11 -20 -13 -6 -72 13 -49 19 -60 32 -54 97 41 139 48 318 52 187 4 325 -10
437 -43 27 -8 53 -15 57 -15 5 0 21 23 35 52 25 49 25 53 9 63 -74 42 -131
131 -162 248 -37 146 5 367 112 582 125 253 294 474 423 554 19 12 -17 104
-38 96 -8 -4 -60 -13 -115 -22 -129 -19 -297 -10 -405 22 -21 7 -72 -85 -52
-93 25 -8 83 -64 100 -96 22 -42 21 -174 -3 -247 -21 -66 -97 -225 -123 -258
l-19 -24 -33 48 c-53 77 -178 332 -191 389 -16 72 -5 119 37 166 l36 39 -33
41 c-18 22 -37 39 -43 39 -6 -1 -49 -12 -95 -25z"/>
<path d="M1701 2824 l-22 -48 45 -45 c54 -55 91 -132 113 -238 24 -113 25
-713 1 -820 -22 -97 -63 -176 -126 -245 l-54 -57 28 -38 c16 -21 29 -40 30
-42 2 -1 31 6 66 17 105 34 163 42 308 42 145 0 245 -14 343 -48 54 -19 59
-20 64 -4 3 9 12 31 19 49 12 30 11 33 -27 73 -53 55 -95 142 -121 248 -19 79
-21 115 -22 407 0 434 23 556 125 661 l40 41 -23 47 c-21 44 -25 47 -53 41
-162 -34 -210 -39 -365 -38 -149 1 -275 15 -332 38 -13 5 -21 -4 -37 -41z"/>
<path d="M9903 2835 c-13 -19 -23 -37 -23 -40 0 -2 13 -24 30 -47 16 -24 37
-73 47 -110 15 -58 16 -77 5 -148 -6 -45 -19 -109 -28 -141 l-17 -59 -86 7
c-153 10 -251 -38 -306 -152 -53 -108 -27 -262 52 -308 l32 -18 21 40 c32 64
92 86 150 56 36 -18 36 -23 9 -111 -41 -134 -129 -281 -235 -394 l-43 -46 42
-43 c43 -41 44 -41 61 -22 39 43 96 54 234 48 124 -6 189 -18 265 -50 l37 -16
29 46 29 46 -57 37 c-69 45 -115 99 -136 159 -25 74 -18 216 9 172 11 -17 92
-49 144 -56 81 -11 136 8 201 72 30 29 55 52 57 50 1 -1 9 -42 19 -90 27 -142
8 -237 -65 -320 l-29 -34 43 -42 42 -42 68 26 c38 14 103 30 146 36 105 14
289 -2 394 -35 44 -14 83 -23 86 -21 4 2 15 22 25 44 l18 41 -42 45 c-83 90
-147 206 -199 360 -105 312 -156 496 -182 655 -32 199 -25 295 27 353 16 17
15 20 -19 54 l-36 36 -69 -21 c-155 -48 -532 -50 -667 -3 -33 12 -60 21 -60
21 -1 0 -11 -16 -23 -35z m350 -397 c26 -73 58 -173 71 -223 56 -208 58 -255
14 -288 -24 -18 -30 -19 -59 -7 -43 18 -209 241 -209 281 0 15 11 69 24 121
14 51 30 122 36 158 15 89 16 90 48 90 27 0 30 -5 75 -132z"/>
</g>
</svg>
