<?xml version="1.0" standalone="no"?>
<!DOCTYPE svg PUBLIC "-//W3C//DTD SVG 20010904//EN"
 "http://www.w3.org/TR/2001/REC-SVG-20010904/DTD/svg10.dtd">
<svg version="1.0" xmlns="http://www.w3.org/2000/svg"
 width="1280.000000pt" height="960.000000pt" viewBox="0 0 1280.000000 960.000000"
 preserveAspectRatio="xMidYMid meet">
<metadata>
Created by potrace 1.15, written by Peter Selinger 2001-2017
</metadata>
<g transform="translate(0.000000,960.000000) scale(0.100000,-0.100000)"
fill="#000000" stroke="none">
<path d="M6425 8035 c-333 -91 -691 -477 -906 -978 l-42 -97 -251 1 c-138 0
-263 0 -278 0 -14 -1 -47 -17 -73 -37 -47 -35 -47 -35 -32 -7 37 70 140 299
181 403 26 63 51 124 55 135 5 11 22 54 37 95 14 41 43 106 62 143 40 77 34
95 -22 72 -61 -26 -120 -27 -296 -5 -205 26 -268 23 -374 -18 -190 -74 -401
-278 -491 -474 -78 -170 -70 -346 18 -412 35 -26 100 -25 154 2 48 25 148 123
156 153 7 28 -15 34 -52 15 -117 -61 -210 45 -180 208 23 131 108 240 236 303
72 36 80 37 197 41 113 3 376 -24 393 -42 9 -9 -72 -233 -153 -423 -218 -512
-403 -789 -634 -952 -151 -106 -270 -149 -440 -158 -186 -9 -316 33 -424 137
-108 104 -156 222 -156 385 0 109 18 186 66 281 72 145 191 242 306 251 117
10 175 -39 166 -139 -3 -26 -13 -57 -23 -68 -23 -26 -13 -54 17 -44 40 11 112
69 142 111 34 49 45 126 26 173 -8 19 -31 41 -59 58 -41 24 -56 27 -131 26
-70 -1 -99 -6 -162 -31 -180 -71 -325 -218 -429 -436 -52 -111 -72 -194 -73
-302 0 -147 58 -290 155 -382 166 -156 431 -193 716 -98 292 97 535 291 792
633 67 89 134 170 148 179 22 15 55 18 202 20 97 1 235 5 307 8 l132 5 -35
-107 c-43 -137 -90 -344 -100 -448 -13 -127 17 -245 73 -281 40 -27 129 -14
224 34 50 24 81 35 84 28 3 -7 5 -6 5 2 1 8 10 25 21 40 11 14 17 29 12 34
-13 13 -71 17 -69 4 1 -6 -13 -12 -32 -14 -93 -9 -134 142 -96 358 42 241 157
582 295 873 37 79 43 87 58 75 15 -12 16 -11 4 4 -9 11 -10 23 -4 35 5 10 20
41 33 68 43 90 137 221 203 282 82 77 160 116 243 121 119 8 148 -16 113 -94
-25 -57 -25 -64 -2 -64 22 0 62 41 132 134 61 81 73 109 65 147 -11 48 -104
63 -210 34z"/>
<path d="M6700 7069 c-14 -6 -53 -8 -91 -4 -90 9 -174 -13 -272 -73 -309 -186
-570 -644 -545 -957 8 -91 26 -115 86 -115 81 0 182 59 341 198 34 30 61 50
61 45 -1 -4 -7 -35 -15 -68 -19 -76 -19 -136 -1 -161 22 -29 96 -22 213 22
113 42 143 58 143 80 0 13 -8 15 -49 9 -65 -9 -86 -1 -101 36 -11 24 -11 44
-1 97 10 59 33 146 49 192 6 18 5 15 30 110 37 138 142 445 177 514 43 85 38
100 -25 75z m-245 -189 c25 -9 27 -14 20 -48 -14 -81 -118 -373 -170 -478 -80
-162 -188 -274 -263 -274 -42 0 -56 28 -54 110 2 129 63 343 142 499 80 159
129 200 237 201 34 0 74 -5 88 -10z"/>
<path d="M6960 7012 c-128 -55 -156 -71 -158 -90 -4 -27 12 -28 78 -5 40 14
51 15 64 4 21 -17 21 -73 0 -154 -9 -34 -22 -89 -30 -122 -9 -33 -42 -158 -76
-277 l-60 -217 -94 -93 c-98 -96 -119 -136 -66 -124 15 3 36 8 47 11 11 3 26
1 34 -4 11 -7 0 -49 -58 -221 -40 -117 -94 -260 -121 -318 -65 -138 -60 -146
56 -87 81 40 137 91 169 154 21 42 89 249 130 392 l16 56 54 11 c250 50 591
429 690 768 35 117 45 266 21 311 -9 18 -14 38 -11 45 6 15 -7 18 -87 20 -77
3 -173 -54 -356 -210 l-50 -42 24 92 c50 196 29 206 -216 100z m483 -110 c9
-10 19 -36 22 -58 11 -67 -39 -307 -67 -325 -6 -4 -10 -19 -10 -35 0 -32 -52
-160 -93 -230 -79 -135 -179 -188 -286 -153 -62 21 -62 18 7 229 102 309 200
486 311 559 52 35 92 39 116 13z"/>
<path d="M7895 7015 c-149 -63 -198 -97 -160 -111 9 -4 41 1 70 11 119 41 116
5 -41 -560 l-56 -200 -94 -95 c-97 -99 -118 -138 -66 -126 15 3 36 8 47 11 50
13 48 -4 -30 -234 -41 -122 -95 -265 -121 -318 -56 -118 -52 -128 43 -88 93
40 171 117 206 205 14 36 47 138 73 227 26 90 50 167 54 173 3 5 29 14 58 20
28 5 69 18 91 30 29 14 41 16 44 7 4 -8 6 -7 6 3 1 8 22 28 49 44 26 17 97 80
157 140 220 221 351 473 371 715 10 118 -19 191 -82 207 -34 9 -145 -29 -203
-68 -25 -18 -88 -68 -140 -112 -54 -46 -91 -71 -88 -60 4 11 16 59 28 107 40
160 13 169 -216 72z m481 -120 c68 -104 -93 -623 -233 -745 -65 -58 -131 -73
-204 -49 -64 21 -64 16 12 244 38 116 89 251 114 300 101 203 258 330 311 250z"/>
<path d="M8940 7060 c-35 -9 -198 -73 -254 -101 -38 -18 -55 -44 -39 -60 8 -8
24 -7 62 6 115 38 128 8 82 -177 -19 -73 -65 -239 -104 -368 -102 -343 -108
-366 -96 -398 12 -31 26 -42 57 -42 12 0 22 -3 21 -7 0 -5 -45 -44 -100 -88
-133 -106 -277 -256 -312 -326 -15 -30 -33 -83 -39 -117 -35 -188 107 -255
318 -151 72 36 119 80 110 104 -5 14 -8 14 -35 0 -17 -8 -53 -15 -82 -15 -45
0 -55 4 -85 34 -29 29 -34 41 -34 80 0 140 142 316 400 497 316 220 445 333
572 504 127 169 218 387 218 522 0 103 -26 121 -137 92 -43 -11 -82 -22 -88
-23 -32 -7 -177 -89 -182 -102 -9 -25 17 -34 56 -19 67 25 87 26 106 5 51 -57
-40 -330 -182 -550 -132 -202 -309 -334 -344 -256 -14 30 18 160 140 575 45
151 81 291 81 312 0 35 -20 69 -40 69 -5 0 -14 2 -22 4 -7 2 -29 0 -48 -4z"/>
<path d="M3625 5234 c-151 -23 -352 -94 -485 -173 -354 -211 -626 -594 -656
-926 -8 -86 15 -214 51 -285 49 -96 156 -172 261 -186 220 -28 568 226 664
484 62 164 18 322 -89 322 -106 0 -281 -111 -215 -137 8 -3 20 -1 27 6 33 33
107 -1 137 -64 19 -39 22 -58 18 -118 -10 -153 -118 -283 -279 -337 -80 -27
-148 -22 -228 16 -220 108 -280 383 -144 671 32 69 110 187 162 245 90 101
269 215 429 272 137 49 262 69 432 69 152 0 216 -8 287 -38 l35 -15 -67 -71
c-78 -84 -148 -176 -180 -239 -34 -69 -86 -234 -189 -606 -106 -383 -139 -477
-193 -549 -46 -60 -113 -98 -159 -89 -29 5 -36 0 -113 -86 -79 -88 -95 -119
-55 -111 47 9 241 4 262 -8 16 -8 81 -13 195 -14 l172 -2 81 33 c112 45 274
155 360 243 119 123 178 230 205 369 6 36 16 71 22 78 6 8 6 12 -1 12 -5 0
-15 23 -22 50 -15 62 -71 125 -152 173 l-57 34 50 38 c109 83 221 236 259 354
33 103 26 222 -17 306 -63 121 -195 216 -363 260 -64 17 -370 30 -445 19z
m571 -286 c96 -91 137 -213 113 -342 -35 -194 -184 -316 -387 -316 -38 0 -52
-5 -79 -32 -35 -33 -40 -28 -22 19 6 15 12 35 14 43 56 241 188 602 242 662
28 31 60 22 119 -34z m-181 -852 c62 -19 128 -74 156 -129 17 -33 20 -54 17
-121 -3 -69 -9 -93 -40 -159 -48 -100 -123 -176 -205 -208 -95 -36 -329 -38
-506 -3 -27 6 -26 7 48 76 115 107 180 222 251 440 20 62 39 117 42 122 7 13
178 0 237 -18z"/>
<path d="M5008 5017 c-43 -18 -82 -37 -88 -43 -6 -6 -35 -82 -65 -169 -62
-181 -61 -212 6 -135 21 25 39 48 39 51 0 3 27 21 60 38 33 18 67 43 76 56 25
39 86 195 82 213 -5 25 -25 23 -110 -11z"/>
<path d="M6815 4971 c-209 -74 -238 -86 -249 -103 -18 -29 3 -37 60 -25 80 16
88 9 81 -71 -7 -89 -145 -554 -349 -1170 -55 -167 -97 -306 -94 -309 6 -6 192
63 213 79 6 5 21 41 33 81 105 342 184 523 287 663 103 138 212 203 243 144
14 -26 15 -23 -141 -502 -71 -218 -129 -408 -129 -422 0 -16 9 -32 24 -41 27
-18 6 -23 256 70 134 49 157 64 146 90 -5 14 -13 16 -39 10 -17 -5 -50 -9 -72
-9 -53 -1 -67 26 -54 104 11 61 59 222 68 230 3 3 6 12 7 20 1 8 38 128 84
265 89 268 101 335 65 361 -33 24 -87 16 -171 -25 -96 -46 -172 -102 -281
-205 -46 -43 -83 -74 -83 -69 0 6 43 144 96 309 53 164 99 312 101 327 4 20
10 27 21 22 13 -5 13 -3 1 11 -11 14 -11 18 4 29 9 6 14 15 10 18 -3 4 0 34 7
68 12 57 12 63 -5 75 -10 8 -21 14 -24 14 -3 0 -55 -18 -116 -39z"/>
<path d="M8190 4946 c-69 -24 -141 -50 -160 -56 -46 -17 -60 -29 -60 -51 0
-24 18 -24 82 -1 48 17 50 17 64 -3 20 -26 14 -59 -37 -246 l-41 -145 -56 -12
c-168 -35 -390 -208 -523 -408 -57 -85 -137 -229 -144 -258 -2 -11 -16 -59
-30 -105 -57 -191 -55 -304 8 -357 27 -23 37 -25 76 -20 25 3 73 19 106 35 65
30 202 129 249 180 17 17 33 31 37 31 4 0 -2 -33 -12 -72 -22 -85 -26 -152
-10 -172 38 -45 380 80 389 142 4 27 -8 28 -76 2 -40 -15 -58 -18 -72 -10 -62
33 9 315 300 1196 55 165 100 312 100 325 0 30 -17 49 -44 49 -12 0 -77 -20
-146 -44z m-241 -685 c22 -14 8 -84 -53 -267 -70 -209 -106 -290 -173 -392
-101 -152 -225 -217 -261 -136 -39 84 22 358 129 582 57 118 112 181 180 205
48 17 156 22 178 8z"/>
<path d="M6248 4676 c-16 -5 -28 -14 -28 -20 0 -6 -89 -99 -197 -208 -149
-150 -194 -201 -185 -210 8 -8 24 -7 63 5 65 21 83 22 75 2 -3 -9 -35 -116
-72 -238 -36 -122 -74 -249 -84 -282 -29 -95 -90 -336 -90 -357 0 -30 27 -75
50 -81 32 -8 122 22 234 77 78 40 102 56 104 74 3 17 -1 22 -20 22 -13 -1 -34
-7 -48 -15 -73 -42 -109 -3 -89 94 15 74 187 679 200 703 8 15 23 18 105 18
l96 0 68 65 c80 77 113 131 90 145 -10 6 -25 2 -49 -12 -28 -18 -55 -22 -143
-26 -74 -3 -108 -1 -108 6 0 6 18 61 39 121 43 119 41 137 -11 117z"/>
<path d="M5725 4458 c5 -12 2 -18 -8 -18 -8 0 -47 -17 -88 -37 -88 -44 -216
-162 -285 -264 -26 -38 -49 -67 -52 -65 -2 2 1 13 7 24 20 38 71 236 71 278 0
24 -6 47 -15 54 -16 13 -95 21 -110 10 -5 -4 -61 -24 -123 -46 -114 -39 -152
-62 -152 -91 0 -12 7 -14 33 -9 93 17 107 18 122 6 33 -27 15 -143 -59 -401
-46 -156 -161 -507 -186 -566 -24 -56 -5 -59 106 -17 54 21 102 40 106 43 4 4
26 69 48 146 93 318 160 478 249 595 65 86 134 132 204 137 62 5 77 -4 86 -48
9 -43 31 -44 51 -4 83 168 102 218 91 241 -8 18 -18 24 -44 24 -18 0 -39 6
-46 13 -10 10 -11 9 -6 -5z"/>
<path d="M9090 4440 c-8 -5 -60 -9 -115 -8 -87 1 -108 -2 -163 -24 -88 -36
-163 -83 -238 -151 -36 -31 -70 -54 -76 -51 -7 5 -8 2 -3 -5 4 -8 -3 -23 -18
-39 -115 -124 -239 -351 -283 -517 -48 -184 -35 -344 30 -361 71 -18 212 60
382 210 l50 46 -19 -88 c-30 -133 -10 -179 72 -169 97 11 286 89 286 117 0 16
-27 18 -80 6 -79 -18 -93 63 -46 252 65 255 175 590 233 706 35 70 30 103 -12
76z m-269 -192 c28 -8 38 -16 35 -27 -3 -9 -12 -44 -20 -77 -55 -216 -181
-501 -262 -593 -51 -58 -126 -111 -156 -111 -10 0 -27 9 -38 20 -78 78 87 626
227 752 49 45 137 59 214 36z"/>
<path d="M4735 4401 c-199 -77 -235 -97 -235 -133 0 -25 22 -23 78 7 26 14 55
25 65 25 47 0 35 -53 -124 -556 -61 -192 -111 -365 -112 -385 -2 -49 17 -69
64 -69 70 0 329 109 343 145 8 22 -20 30 -52 15 -88 -41 -112 -29 -112 54 0
72 26 165 141 510 108 323 122 382 94 409 -23 24 -36 22 -150 -22z"/>
<path d="M9390 4401 c-99 -36 -202 -81 -217 -93 -7 -6 -13 -19 -13 -30 0 -17
5 -19 33 -15 17 3 52 11 75 18 40 13 45 12 58 -6 8 -10 14 -31 14 -46 0 -40
-60 -265 -151 -569 -96 -322 -98 -352 -29 -375 l31 -11 -92 -74 c-126 -101
-267 -245 -306 -311 -32 -53 -63 -151 -63 -197 0 -45 39 -117 71 -131 69 -31
211 0 309 67 79 54 82 108 4 67 -54 -28 -123 -10 -163 41 -32 40 -25 111 18
198 61 125 205 256 529 481 356 247 622 635 622 905 0 117 -32 132 -176 84
-159 -53 -253 -109 -226 -136 8 -8 22 -7 54 5 96 37 124 18 115 -76 -18 -188
-161 -468 -327 -638 -79 -81 -153 -126 -190 -114 -44 14 -18 134 140 665 65
217 74 285 44 307 -27 20 -81 15 -164 -16z"/>
</g>
</svg>
