<?xml version="1.0" standalone="no"?>
<!DOCTYPE svg PUBLIC "-//W3C//DTD SVG 20010904//EN"
 "http://www.w3.org/TR/2001/REC-SVG-20010904/DTD/svg10.dtd">
<svg version="1.0" xmlns="http://www.w3.org/2000/svg"
 width="1280.000000pt" height="640.000000pt" viewBox="0 0 1280.000000 640.000000"
 preserveAspectRatio="xMidYMid meet">
<metadata>
Created by potrace 1.15, written by Peter Selinger 2001-2017
</metadata>
<g transform="translate(0.000000,640.000000) scale(0.100000,-0.100000)"
fill="#000000" stroke="none">
<path d="M8457 5477 c-9 -18 -20 -61 -26 -96 -6 -35 -12 -65 -14 -68 -5 -5
-41 86 -58 146 l-13 43 -27 -30 c-29 -33 -49 -87 -49 -137 -1 -81 -24 -53 -85
103 -10 23 -20 42 -24 42 -4 0 -17 -17 -29 -39 -18 -32 -22 -55 -22 -137 l0
-99 -35 55 c-19 30 -44 76 -56 102 -12 27 -26 48 -31 48 -4 0 -18 -19 -30 -42
-20 -37 -23 -58 -23 -148 0 -104 0 -106 39 -175 51 -90 158 -231 299 -394 119
-138 164 -204 203 -298 l24 -58 0 -430 0 -431 -35 -73 c-20 -41 -34 -76 -31
-78 2 -2 32 10 65 27 l62 31 10 -31 c6 -16 14 -30 17 -30 3 0 21 14 38 31 l32
31 16 -31 c20 -38 29 -39 45 -4 12 27 13 27 27 9 7 -10 15 -24 18 -30 2 -6 20
5 39 25 33 34 35 41 47 152 7 65 16 115 18 112 3 -3 9 -54 13 -113 6 -98 29
-182 49 -182 4 0 12 12 19 28 l13 27 24 -30 23 -29 30 28 29 28 31 -33 c26
-28 33 -31 41 -19 5 8 13 21 18 28 7 10 22 6 67 -18 32 -17 60 -28 63 -25 3 3
-6 26 -21 53 -14 26 -31 77 -36 112 -14 83 -14 839 -1 909 8 42 33 87 126 224
64 95 143 206 174 247 59 77 196 220 212 220 5 0 37 -13 73 -29 35 -16 66 -27
69 -24 8 8 -5 64 -22 98 -8 17 -31 53 -52 80 -33 44 -38 58 -42 122 -7 102
-31 137 -124 179 -40 19 -86 34 -101 34 -51 0 -189 -75 -245 -132 -64 -67
-177 -208 -292 -366 -49 -67 -93 -122 -97 -122 -11 0 -105 106 -180 203 -92
118 -165 242 -193 325 -42 122 -54 133 -79 79z"/>
<path d="M4744 5431 c-20 -12 -34 -32 -42 -58 -12 -40 -12 -40 -72 -46 -33 -4
-76 -13 -95 -21 -34 -14 -35 -14 -76 20 -95 79 -181 9 -138 -114 10 -29 8 -37
-20 -78 -39 -59 -67 -135 -81 -216 -7 -42 -10 -323 -8 -853 l3 -790 469 -3
468 -2 -3 435 -4 435 25 0 c88 1 328 20 381 31 77 15 219 69 263 100 61 44
195 199 227 265 28 56 33 78 37 163 10 219 -55 380 -201 497 -88 70 -149 101
-257 131 -80 22 -101 23 -395 23 l-310 1 -28 40 c-41 60 -89 73 -143 40z"/>
<path d="M6700 5432 c-26 -13 -37 -27 -46 -57 l-11 -40 -64 -8 c-35 -4 -76
-14 -91 -22 -25 -12 -31 -11 -60 11 -55 40 -75 47 -111 40 -28 -5 -38 -13 -46
-38 -14 -40 -14 -64 1 -104 10 -29 8 -37 -21 -83 -18 -28 -43 -82 -56 -120
l-24 -69 -2 -833 -2 -834 466 -3 467 -2 0 435 0 435 23 0 c96 1 335 22 392 34
39 8 109 31 157 51 76 32 96 46 170 121 92 93 151 175 169 232 17 57 23 213
10 289 -23 132 -90 245 -193 327 -87 70 -147 101 -252 132 -77 23 -95 24 -393
24 l-312 0 -28 40 c-25 35 -65 60 -97 60 -6 0 -27 -8 -46 -18z"/>
<path d="M2916 5369 c-37 -29 -59 -77 -90 -199 -30 -114 -77 -231 -211 -525
-301 -660 -389 -885 -459 -1175 -25 -101 -25 -105 -8 -139 28 -59 37 -61 355
-61 l288 0 15 36 c24 56 11 129 -27 151 -15 9 -30 22 -32 27 -2 6 5 44 16 84
l20 72 367 0 367 0 12 -62 c7 -35 15 -73 18 -85 4 -18 1 -23 -14 -23 -11 0
-32 -11 -47 -25 -22 -21 -26 -32 -26 -83 0 -95 -11 -92 314 -92 l278 0 30 30
c29 30 30 32 23 103 -8 85 -37 232 -66 337 -58 208 -142 425 -374 960 -70 162
-152 369 -182 460 -30 91 -64 175 -75 187 -34 37 -81 47 -123 27 -46 -22 -72
-55 -80 -104 l-7 -40 -54 0 c-51 0 -54 1 -54 26 0 33 -15 61 -53 102 -37 38
-81 43 -121 11z m305 -1065 c38 -80 69 -149 69 -154 0 -11 -90 -30 -141 -30
-50 0 -129 19 -129 31 0 11 123 299 128 299 2 0 35 -66 73 -146z"/>
<path d="M42 5332 c-12 -27 -26 -69 -31 -93 -7 -28 -11 -391 -11 -1006 l0
-963 351 0 352 0 -7 61 c-4 34 -16 85 -27 114 -18 48 -19 75 -17 331 l3 279
125 11 c69 6 147 17 173 24 103 28 311 -7 322 -53 3 -12 4 -143 2 -292 -3
-251 -5 -274 -25 -330 -13 -33 -26 -79 -29 -103 l-6 -42 354 2 354 3 3 930 c3
666 1 950 -8 1000 -24 150 -60 197 -107 139 -17 -21 -23 -24 -23 -12 0 25 -28
48 -59 48 -27 0 -53 -21 -64 -50 -3 -11 -8 -8 -15 11 -9 22 -18 28 -52 31 -46
4 -60 -9 -60 -59 -1 -28 -1 -28 -16 7 -19 43 -32 52 -69 44 -37 -8 -44 -19
-46 -64 l-1 -35 -11 32 c-18 49 -43 73 -77 73 -34 0 -50 -26 -50 -80 0 -70
-55 -258 -97 -330 -2 -3 13 -15 32 -26 36 -20 36 -21 39 -95 2 -41 6 -82 10
-91 6 -13 2 -19 -18 -24 -32 -8 -33 -18 -3 -31 20 -9 22 -16 22 -98 l0 -88
-134 6 c-122 6 -137 9 -170 32 -46 32 -65 31 -147 -2 -77 -30 -152 -37 -144
-13 2 8 5 58 6 110 1 52 4 137 7 189 5 88 7 95 36 125 l31 32 -19 45 c-11 24
-36 107 -56 184 -20 77 -40 144 -46 150 -14 14 -29 -12 -29 -50 0 -16 -4 -36
-9 -43 -10 -16 -20 -5 -46 56 -23 54 -45 52 -62 -7 -14 -50 -31 -73 -45 -65
-6 4 -21 31 -34 60 -13 30 -27 54 -32 54 -4 0 -13 -21 -20 -46 l-12 -45 -40
50 c-22 28 -46 51 -54 51 -7 0 -21 -20 -30 -45 -10 -25 -22 -48 -28 -51 -5 -4
-30 17 -55 45 -24 28 -48 51 -53 51 -4 0 -17 -22 -28 -48z"/>
<path d="M12225 3143 c-4 -10 -18 -49 -31 -87 -43 -123 -145 -281 -293 -450
l-84 -96 -147 198 c-199 266 -269 340 -368 387 -109 52 -125 53 -214 12 -96
-44 -115 -70 -129 -178 -10 -73 -16 -89 -55 -142 -44 -59 -70 -127 -60 -153 4
-12 18 -8 65 16 33 16 65 30 72 30 22 0 144 -128 228 -240 47 -64 131 -182
186 -263 l100 -148 3 -471 c3 -506 0 -541 -50 -611 -11 -15 -18 -31 -15 -34 3
-3 33 8 65 25 l60 29 21 -26 21 -26 28 33 28 32 24 -25 c30 -32 47 -32 62 0 6
14 14 25 18 25 4 0 12 -11 18 -25 6 -14 16 -25 20 -25 20 0 42 91 48 198 4 62
8 111 10 110 1 -2 10 -57 19 -123 13 -96 21 -126 41 -152 30 -40 41 -41 56 -8
14 31 22 31 36 0 15 -33 28 -32 48 7 l16 32 27 -32 c32 -40 44 -40 58 -2 l11
29 54 -29 c29 -16 59 -30 66 -30 8 0 -1 26 -23 70 l-35 70 0 439 c0 418 1 443
20 494 30 79 92 171 196 289 136 155 262 323 308 411 39 75 41 83 40 165 0 68
-5 98 -23 140 -13 28 -27 52 -32 52 -4 0 -29 -41 -55 -90 -68 -129 -79 -135
-70 -38 8 86 -3 142 -33 180 l-20 23 -16 -40 c-9 -22 -30 -69 -47 -105 l-31
-65 -11 71 c-12 72 -60 166 -75 148 -4 -5 -15 -36 -25 -69 -10 -33 -25 -73
-34 -90 l-15 -30 -14 80 c-18 104 -49 154 -68 108z"/>
<path d="M9980 3024 c-41 -35 -54 -62 -84 -179 -35 -131 -65 -207 -211 -530
-212 -468 -243 -539 -309 -706 -76 -194 -126 -351 -157 -488 -20 -86 -21 -103
-9 -130 24 -58 39 -61 354 -61 283 0 285 0 300 22 10 14 16 44 16 76 0 48 -3
56 -36 86 l-37 34 20 73 20 74 368 0 368 0 17 -82 c16 -79 16 -83 -1 -83 -10
0 -31 -11 -46 -24 -26 -22 -28 -29 -25 -87 1 -34 7 -68 13 -76 9 -10 71 -13
296 -13 l284 0 26 26 c25 25 25 30 20 107 -16 248 -125 579 -382 1167 -145
331 -206 482 -251 625 -46 148 -74 185 -142 185 -38 0 -50 -5 -83 -39 -31 -31
-39 -46 -39 -75 l0 -36 -60 0 -60 0 0 30 c0 62 -59 130 -113 130 -14 0 -39
-12 -57 -26z m380 -1219 c0 -9 -99 -25 -148 -25 -48 0 -114 13 -130 25 -2 2
27 72 64 156 l68 152 73 -153 c40 -84 73 -154 73 -155z"/>
<path d="M5262 2998 c-7 -18 -18 -41 -26 -51 -12 -16 -16 -16 -42 -2 -37 19
-61 19 -98 0 -15 -8 -29 -15 -30 -15 -2 0 -17 20 -35 45 -18 25 -36 45 -40 45
-4 0 -16 -16 -27 -35 l-19 -35 -306 0 c-202 0 -317 -4 -339 -11 -39 -14 -62
-59 -50 -101 5 -15 5 -28 1 -28 -10 0 -31 -46 -31 -69 0 -10 6 -24 14 -30 12
-10 12 -16 0 -39 -19 -37 -18 -68 5 -91 19 -19 19 -20 0 -37 -10 -9 -21 -25
-25 -36 -5 -17 -13 -13 -63 35 -87 83 -269 167 -363 167 -57 0 -65 7 -84 70
l-16 53 -38 -44 -39 -44 -18 42 c-10 24 -21 43 -26 43 -4 0 -20 -20 -35 -45
-15 -25 -30 -45 -33 -45 -4 0 -20 21 -37 46 l-30 46 -32 -47 c-17 -25 -33 -45
-35 -43 -2 2 -19 22 -38 46 l-36 43 -15 -23 c-8 -13 -20 -35 -27 -50 l-12 -27
-40 34 c-22 19 -44 35 -48 35 -3 0 -12 -20 -19 -45 -7 -25 -17 -48 -21 -51 -5
-3 -30 11 -55 30 -26 20 -50 34 -54 31 -4 -2 -10 -30 -13 -61 -3 -31 -8 -58
-11 -61 -2 -3 -24 7 -49 21 -24 14 -47 26 -50 26 -4 0 -7 -322 -7 -715 0 -470
-3 -715 -10 -715 -6 0 -10 -62 -10 -165 l0 -165 423 2 422 3 -2 80 c-2 149
-37 213 -127 237 l-46 12 0 117 c0 97 3 118 16 123 24 9 60 7 111 -5 37 -10
53 -22 89 -68 58 -72 103 -152 102 -176 0 -11 31 -87 69 -170 l71 -150 326 -3
326 -2 0 40 c0 78 -22 185 -46 227 -27 47 -35 54 -77 62 -27 6 -31 13 -61 112
-40 133 -112 279 -171 348 -70 82 -71 85 -34 132 48 60 71 146 72 264 1 115
-14 186 -54 267 -33 66 -35 72 -13 60 9 -5 130 -7 270 -4 l254 5 0 -419 c0
-379 -5 -536 -26 -821 l-7 -93 72 0 c69 0 72 -1 69 -22 -3 -20 -10 -24 -66
-29 -34 -3 -65 -9 -69 -13 -4 -4 -7 -30 -8 -59 l0 -52 162 -3 161 -2 6 37 c3
21 8 59 12 86 6 47 7 47 44 47 43 0 50 -10 50 -70 0 -20 3 -52 6 -69 l7 -31
158 0 159 0 0 28 c0 15 -3 44 -6 64 l-6 37 -67 3 c-60 3 -66 5 -69 26 -3 21 0
22 69 22 l72 0 -7 37 c-23 137 -28 287 -22 723 4 256 10 491 13 522 l6 58 257
0 c255 0 257 0 278 23 25 27 28 64 8 92 -12 17 -11 22 6 46 24 32 19 72 -11
91 -18 11 -17 13 5 46 22 32 22 36 8 63 -8 16 -18 29 -22 29 -4 0 -6 18 -4 40
7 72 18 70 -347 70 l-327 0 -24 40 c-14 22 -27 40 -30 40 -4 0 -11 -15 -18
-32z"/>
<path d="M2150 2956 c-72 -17 -105 -31 -130 -56 -20 -20 -20 -27 -20 -995 l0
-975 325 0 325 0 0 985 0 985 -32 20 c-54 33 -156 50 -290 49 -68 0 -148 -6
-178 -13z"/>
<path d="M7665 2909 c-33 -5 -90 -11 -127 -15 l-68 -7 0 -68 c0 -73 8 -83 42
-52 15 13 21 14 27 5 4 -7 15 -10 24 -6 19 7 22 -4 6 -26 -8 -11 -12 -12 -16
-2 -8 19 -38 14 -61 -11 -16 -17 -22 -36 -22 -70 0 -50 11 -65 30 -42 16 20
40 19 40 -1 0 -11 6 -14 20 -9 24 8 28 -16 5 -35 -12 -10 -16 -9 -21 4 -9 23
-19 20 -49 -11 -20 -23 -25 -38 -25 -80 0 -58 4 -62 32 -36 15 14 21 15 27 4
5 -8 17 -11 30 -6 l21 6 0 -721 0 -722 -32 7 c-18 4 -43 9 -55 12 -22 5 -23 2
-23 -54 l0 -60 568 -2 c626 -2 621 -2 750 62 100 49 251 198 183 180 -31 -8
-235 96 -219 113 2 2 45 -10 96 -26 125 -40 161 -39 223 6 216 158 332 614
244 955 -45 173 -115 302 -238 440 -121 136 -188 193 -274 236 l-77 38 -500 1
c-276 1 -528 -2 -561 -7z m786 -615 c135 -43 237 -156 256 -286 25 -163 -49
-312 -187 -376 -51 -24 -65 -26 -195 -25 -100 0 -150 5 -176 15 l-35 15 -12
219 c-20 353 -17 404 26 432 48 31 231 35 323 6z"/>
<path d="M8429 1841 c-22 -23 -29 -39 -29 -69 0 -97 135 -111 185 -19 16 30
17 39 6 65 -25 59 -113 71 -162 23z"/>
<path d="M183 2872 c-55 -9 -53 35 -53 -1014 l0 -968 830 0 830 0 0 61 c0 75
-9 92 -66 125 -33 20 -43 31 -39 43 73 178 71 361 -6 514 -60 122 -161 237
-267 307 l-23 15 35 59 c83 137 103 258 67 391 -29 105 -55 148 -140 227 -91
87 -138 113 -241 135 -92 19 -361 25 -475 10 l-60 -8 -15 33 c-17 36 -52 63
-93 72 -23 6 -34 1 -58 -25 -16 -17 -37 -53 -46 -79 l-17 -48 -22 47 c-34 72
-88 112 -141 103z"/>
<path d="M7198 2709 c-10 -5 -18 -17 -18 -24 0 -22 -17 -18 -23 5 -4 16 -14
20 -45 20 -35 0 -40 -3 -50 -32 -7 -25 -10 -27 -11 -12 -1 31 -25 47 -60 39
-23 -5 -31 -13 -36 -36 l-7 -30 -16 33 c-14 28 -22 33 -52 33 -35 0 -35 0 -43
-55 -16 -107 -55 -241 -84 -290 -2 -3 10 -14 27 -23 28 -17 30 -23 30 -73 0
-31 5 -64 10 -75 9 -15 7 -20 -5 -24 -51 -16 -51 -17 -19 -32 30 -15 30 -16
30 -85 l-1 -70 -121 4 c-103 2 -125 6 -143 22 -20 18 -22 18 -41 1 -11 -10
-36 -48 -56 -84 -63 -115 -84 -141 -113 -141 -26 0 -26 0 -24 77 5 172 10 204
38 233 15 15 22 30 17 34 -5 3 -23 52 -41 108 -41 130 -48 148 -61 148 -5 0
-13 -18 -16 -40 -7 -45 -20 -43 -40 6 -19 45 -37 43 -57 -6 -8 -22 -20 -40
-26 -40 -6 0 -20 18 -31 40 -25 48 -36 50 -45 9 l-7 -31 -38 37 c-42 41 -51
40 -70 -5 -7 -16 -16 -30 -19 -30 -4 0 -26 16 -49 36 l-42 36 -25 -54 -25 -53
0 -693 0 -692 282 2 283 3 -3 40 c-2 22 -11 58 -20 80 -17 39 -19 89 -13 366
l1 67 96 72 c106 79 130 90 221 97 62 4 162 -16 191 -39 15 -13 18 -478 2
-506 -11 -21 -40 -125 -40 -146 0 -14 32 -16 300 -16 l299 0 3 803 c2 582 0
822 -9 875 -16 102 -53 139 -87 90 -9 -12 -16 -17 -16 -11 0 17 -29 43 -48 43
-9 0 -25 -5 -34 -11z"/>
</g>
</svg>
